<svg width="504" height="306" viewBox="0 0 504 306" fill="none" xmlns="http://www.w3.org/2000/svg">
<path opacity="0.1" d="M385.595 122.473C376.848 142.229 388.008 164.986 401.124 182.139C405.523 187.881 410.358 193.891 410.975 201.119C411.71 209.933 405.741 218.037 398.657 223.334C385.742 232.987 368.097 235.971 352.728 231.103C339.444 226.906 328.275 217.391 314.878 213.555C292.457 207.137 268.71 217.777 249.525 231.027C235.947 240.404 221.404 251.803 205.035 249.801C193.51 248.391 183.731 240.303 177.099 230.775C173.897 226.159 171.11 221.025 166.443 217.92C163.669 216.073 160.412 215.095 157.151 214.398C127.393 208.04 95.8181 223.561 66.4551 215.578C46.6237 210.184 30.8091 194.508 20.9794 176.465C11.1498 158.421 6.55811 138.04 2.73453 117.848C0.0190125 103.498 -2.23486 88.0148 3.99365 74.8107C10.5999 60.8427 25.89 52.3771 41.2556 50.7948C56.6213 49.2125 72.0373 53.5985 86.1941 59.785C103.885 67.5203 121.223 78.3489 140.534 78.3866C153.684 78.4118 166.22 73.3501 178.795 69.5181C199.856 63.084 221.681 59.8858 243.477 56.9352C264.332 54.1105 285.389 51.4789 306.37 53.1578C321.216 54.3372 334.323 60.0117 348.728 62.6349C358.117 64.3473 367.552 63.0546 376.764 65.9548C388.097 69.5013 399.781 77.7319 400.407 90.68C400.999 102.99 390.237 111.985 385.595 122.473Z" fill="#65C4B3"/>
<g opacity="0.5">
<path opacity="0.5" d="M122.743 76.8966C124.841 77.501 127.448 79.0624 128.724 83.3476C131.242 91.7418 125.416 97.4835 127.326 106.201C127.848 108.519 128.849 110.702 130.264 112.61C132.602 115.779 135.145 117.281 137.605 119.502C140.731 122.337 142.971 126.016 144.056 130.095C145.244 134.597 145.344 139.318 144.345 143.866C143.468 147.668 141.974 150.434 140.673 153.519C139.053 157.455 137.789 161.529 136.895 165.691C136.399 167.713 136.118 169.783 136.056 171.865C136.014 174.48 136.421 177.321 136.82 180.125L140.375 204.934C140.849 208.237 141.328 211.595 141.344 214.738C141.37 218.369 140.786 221.487 140.207 224.53C138.948 231.094 137.617 237.906 134.751 241.369C131.884 244.831 127.024 243.631 124.031 236.563C121.186 229.848 121.127 220.866 118.617 213.681C114.663 202.348 106.798 200.837 102.437 190.038C98.2401 179.68 99.5328 166.954 97.4006 155.152C95.8813 146.686 92.6453 138.964 90.7272 130.599C87.9697 118.549 88.2425 106.041 90.446 96.7826C92.6495 87.5237 96.6032 81.1651 100.968 76.3426C102.819 74.2986 104.796 72.4813 107.121 72.3008C109.593 72.1119 111.738 75.2388 114.193 76.158C117.039 77.2198 119.876 76.0824 122.743 76.8966Z" fill="#087965"/>
<path opacity="0.5" d="M109.358 72.8884C109.358 72.8884 113.555 180.032 131.154 243.216" stroke="white" stroke-width="2" stroke-miterlimit="10"/>
<path opacity="0.5" d="M128.833 83.8723C128.833 83.8723 110.038 101.001 113.585 133.637" stroke="white" stroke-width="2" stroke-miterlimit="10"/>
<path opacity="0.5" d="M144.622 132.609C144.622 132.609 113.732 138.821 116.023 157.297" stroke="white" stroke-width="2" stroke-miterlimit="10"/>
<path opacity="0.5" d="M90.4083 96.5265C90.4083 96.5265 102.903 107.468 114.042 138.46" stroke="white" stroke-width="2" stroke-miterlimit="10"/>
<path opacity="0.5" d="M102.626 190.194C102.626 190.194 111.155 196.909 118 173.485" stroke="white" stroke-width="2" stroke-miterlimit="10"/>
<path opacity="0.5" d="M139.418 203.855C139.418 203.855 122.025 201.584 120.422 190.689" stroke="white" stroke-width="2" stroke-miterlimit="10"/>
</g>
<path d="M80.7 5.03365C85.0063 5.67161 90.1855 7.66524 92.3135 13.8224C96.4896 25.8933 83.7891 35.0304 86.7145 47.6427C87.5917 51.4201 89.7532 54.4924 92.0322 56.7337C96.498 61.1239 101.581 63.0293 106.407 66.0093C111.234 68.9892 116.245 73.6648 118.508 80.8461C120.686 87.7545 119.742 95.3891 117.479 101.093C115.217 106.797 111.792 111.049 108.733 115.741C105.007 121.518 101.891 127.666 99.436 134.086C98.3405 136.911 97.3374 139.891 96.9807 143.274C96.5861 147.131 97.0856 151.282 97.5808 155.345L101.996 191.44C102.584 196.246 103.176 201.135 102.836 205.765C102.454 211.108 100.876 215.766 99.3184 220.316C95.9608 230.129 92.368 240.324 86.043 245.759C79.7179 251.194 69.7792 250.007 64.4321 239.95C59.341 230.377 60.2769 217.177 55.9371 206.894C49.0958 190.689 32.9999 189.379 25.2562 173.997C17.8231 159.24 21.9824 140.361 18.9983 123.212C16.8578 110.923 11.0699 99.9388 8.08579 87.8469C3.80474 70.4247 5.84875 51.9784 11.5149 38.0817C17.181 24.1851 26.1124 14.3512 35.7154 6.73348C39.7866 3.5059 44.1096 0.588906 48.9279 0.0516759C54.0652 -0.519131 58.1616 3.80389 63.11 4.89095C68.86 6.17946 74.8619 4.16904 80.7 5.03365Z" fill="#087965"/>
<path d="M53.4775 0.710571C53.4775 0.710571 49.4273 158.002 78.3916 248.957" stroke="white" stroke-width="2" stroke-miterlimit="10"/>
<path d="M92.4812 14.5779C92.4812 14.5779 51.509 42.0354 55.0178 89.6726" stroke="white" stroke-width="2" stroke-miterlimit="10"/>
<path d="M119.376 84.4808C119.376 84.4808 54.7074 97.2904 57.2592 124.223" stroke="white" stroke-width="2" stroke-miterlimit="10"/>
<path d="M11.4562 37.7711C11.4562 37.7711 36.0345 52.4023 55.3958 96.7196" stroke="white" stroke-width="2" stroke-miterlimit="10"/>
<path d="M25.634 174.257C25.634 174.257 42.4896 183.13 59.4333 147.815" stroke="white" stroke-width="2" stroke-miterlimit="10"/>
<path d="M100.187 190.017C100.187 190.017 64.4572 188.733 62.4132 172.885" stroke="white" stroke-width="2" stroke-miterlimit="10"/>
<path opacity="0.1" d="M210.748 262.673C111.614 262.673 31.2498 254.954 31.2498 245.432C31.2498 235.909 111.614 228.19 210.748 228.19C309.882 228.19 390.246 235.909 390.246 245.432C390.246 254.954 309.882 262.673 210.748 262.673Z" fill="#9CF1E2"/>
<path d="M387.429 224.908C387.429 224.908 383.912 229.525 389.054 236.45C394.195 243.375 398.434 249.259 396.701 253.587C396.701 253.587 388.944 240.689 382.632 240.508C376.32 240.328 380.483 232.664 387.429 224.908Z" fill="#087965"/>
<path opacity="0.1" d="M387.429 224.908C387.123 225.353 386.881 225.839 386.712 226.352C380.55 233.587 377.272 240.34 383.19 240.513C388.705 240.672 395.32 250.531 396.906 253.024C396.854 253.216 396.791 253.406 396.718 253.591C396.718 253.591 388.961 240.693 382.649 240.513C376.336 240.332 380.483 232.664 387.429 224.908Z" fill="black"/>
<path d="M380.89 230.771C380.89 232.391 381.071 233.709 381.31 233.709C381.549 233.709 381.729 232.395 381.729 230.771C381.729 229.147 381.503 229.932 381.28 229.932C381.058 229.932 380.89 229.151 380.89 230.771Z" fill="#FFD037"/>
<path d="M378.653 232.702C380.076 233.478 381.314 233.961 381.419 233.747C381.524 233.533 380.462 232.761 379.039 231.988C377.617 231.216 378.179 231.778 378.07 231.988C377.961 232.198 377.226 231.921 378.653 232.702Z" fill="#FFD037"/>
<path d="M406.01 224.908C406.01 224.908 409.527 229.525 404.386 236.45C399.244 243.375 395.022 249.259 396.701 253.587C396.701 253.587 404.457 240.689 410.769 240.508C417.082 240.328 412.952 232.664 406.01 224.908Z" fill="#087965"/>
<path d="M412.545 230.771C412.545 232.391 412.364 233.709 412.125 233.709C411.886 233.709 411.705 232.395 411.705 230.771C411.705 229.147 411.932 229.932 412.154 229.932C412.377 229.932 412.545 229.151 412.545 230.771Z" fill="#FFD037"/>
<path d="M414.79 232.702C413.367 233.478 412.129 233.961 412.024 233.747C411.919 233.533 412.981 232.761 414.404 231.988C415.827 231.216 415.265 231.778 415.374 231.988C415.483 232.198 416.213 231.921 414.79 232.702Z" fill="#FFD037"/>
<path d="M411.428 252.986C411.428 252.986 401.595 252.684 398.631 250.573C395.668 248.462 383.522 245.956 382.771 249.314C382.019 252.672 367.993 266.149 379.094 266.237C390.195 266.325 404.889 264.508 407.848 262.707C410.807 260.906 411.428 252.986 411.428 252.986Z" fill="#A8A8A8"/>
<path opacity="0.2" d="M378.892 265.078C389.994 265.166 404.688 263.349 407.647 261.548C409.901 260.176 410.799 255.253 411.097 252.982H411.424C411.424 252.982 410.803 260.915 407.844 262.715C404.885 264.516 390.191 266.337 379.073 266.249C375.866 266.224 374.762 265.082 374.821 263.395C375.295 264.415 376.508 265.053 378.892 265.078Z" fill="black"/>
<path d="M283.433 189.291C283.433 189.291 234.222 157.851 200.2 157.851C200.2 157.851 159.241 151.471 114.688 162.253C70.1361 173.036 53.6792 187.016 41.3271 182.912L93.2202 184.431L283.433 189.291Z" fill="#9CF1E2"/>
<path d="M51.4798 237.411H351.607L343.355 204.35L292.319 190.781L51.4798 197.11V237.411Z" fill="#062923"/>
<path d="M35.6819 216.753V227.304C35.6819 227.304 44.5924 233.768 45.4025 238.83C45.4025 238.83 58.1617 242.07 61.8048 242.07C62.1363 242.07 62.4973 242.07 62.8751 242.108C62.3059 240.58 61.861 239.01 61.5446 237.411C60.6509 232.925 60.7634 228.296 61.874 223.858C62.9846 219.421 65.0657 215.284 67.9673 211.748C70.8689 208.211 74.5188 205.362 78.654 203.406C82.7892 201.45 87.3068 200.435 91.8813 200.435C96.4558 200.435 100.973 201.45 105.109 203.406C109.244 205.362 112.894 208.211 115.795 211.748C118.697 215.284 120.778 219.421 121.888 223.858C122.999 228.296 123.112 232.925 122.218 237.411C121.789 239.574 121.129 241.684 120.25 243.707H137.55C137.55 243.707 137.71 243.761 137.97 243.875C138.897 244.294 141.084 245.402 141.399 247.144H284.776L287.714 247.119C287.09 246.071 286.529 244.986 286.035 243.87C285.114 241.804 284.43 239.64 283.996 237.419C283.142 233.179 283.187 228.807 284.127 224.585C285.066 220.363 286.88 216.385 289.452 212.907C292.023 209.429 295.294 206.529 299.055 204.393C302.816 202.256 306.983 200.932 311.287 200.505C315.591 200.078 319.937 200.557 324.044 201.912C328.152 203.267 331.93 205.468 335.135 208.372C338.339 211.277 340.9 214.821 342.651 218.776C344.403 222.731 345.306 227.008 345.303 231.334C345.303 233.373 345.103 235.407 344.707 237.407C344.031 240.793 342.791 244.042 341.039 247.018C343.087 246.519 347.557 245.1 347.557 245.1C347.557 245.1 366.591 243.077 371.451 238.805L370.716 238.297L367.602 236.169L369.021 230.712C369.192 230.482 369.333 230.231 369.441 229.965C369.818 229.055 370.15 227.363 368.815 225.239C366.792 221.999 367.804 210.457 367.804 210.457C367.804 210.457 340.262 191.423 285.989 187.167C285.989 187.167 284.692 188.175 282.015 188.385C280.202 188.531 277.755 188.309 274.645 187.167C274.645 187.167 270.191 189.19 251.141 178.257C251.141 178.257 218.735 155.979 176.205 158.01C176.205 158.01 132.463 155.374 95.2012 169.762C79.1431 175.957 66.9253 179.26 58.2163 181.006C50.1746 182.622 45.1254 182.92 42.8128 182.945H42.7625C42.007 182.945 41.5579 182.945 41.3984 182.945H41.3312C41.3312 182.945 41.3312 187.768 41.0752 193.463V193.492C40.9829 195.474 40.857 197.559 40.6807 199.587V199.713C40.1938 205.358 39.3544 210.487 37.898 211.502L35.6819 216.753Z" fill="#087965"/>
<path d="M363.426 209.996C363.426 209.996 351.225 200.476 336.036 202.504C336.036 202.504 349.857 213.441 356.085 212.732L357.147 211.821L363.443 212.174C363.443 212.174 364.383 210.705 363.426 209.996Z" fill="#9CF1E2"/>
<path opacity="0.2" d="M351.582 226.465V232.085C351.582 232.085 352.002 237.453 356.849 237.654L370.7 238.338L367.59 236.211L369.008 230.754C369.18 230.526 369.321 230.276 369.428 230.011C368.169 228.853 365.201 226.897 359.166 226.477L351.582 226.465Z" fill="white"/>
<path opacity="0.2" d="M287.131 202.911L276.5 202.491C276.5 202.491 280.802 205.882 283.84 206.189C286.879 206.495 287.131 202.911 287.131 202.911Z" fill="white"/>
<path opacity="0.2" d="M264.752 235.161C264.752 235.161 168.609 221.794 145.369 226.045C145.369 226.045 138.536 226.503 135.951 229.235C133.366 231.967 135.951 230.196 135.951 230.196L264.752 235.161Z" fill="white"/>
<path opacity="0.5" d="M210.932 197.643C210.932 197.643 209.715 195.364 207.743 195.314L194.933 194.655C194.933 194.655 195.134 196.426 197.413 197.085L210.932 197.643Z" fill="#121614"/>
<path opacity="0.5" d="M136.811 193.795C136.811 193.795 135.594 191.516 133.621 191.465L120.812 190.79C120.812 190.79 121.013 192.561 123.292 193.22L136.811 193.795Z" fill="#121614"/>
<path d="M180.549 162.568L190.379 188.347L225.82 188.385H234.944H242.881H249.743H257.516C257.516 188.385 252.782 184.909 245.156 180.481C242.637 179.012 239.779 177.443 236.677 175.865C233.823 174.404 230.751 172.927 227.524 171.525C225.005 170.417 222.353 169.351 219.641 168.356C207.348 163.861 193.531 160.843 180.549 162.568Z" fill="#9CF1E2"/>
<path d="M124.862 181.392C124.862 181.392 139.67 183.587 153.801 185.212C159.203 185.833 164.504 186.37 168.844 186.668L169.448 186.71C171.127 186.819 172.684 186.89 174.006 186.916C176.105 186.953 177.674 186.861 178.459 186.609L174.375 161.951C174.375 161.951 169.339 162.006 161.889 162.371L160.261 162.459C158.712 162.547 157.079 162.648 155.375 162.765C152.941 162.933 150.376 163.135 147.732 163.378C134.965 164.549 120.501 166.652 111.343 170.438C91.856 178.505 124.862 181.392 124.862 181.392Z" fill="#9CF1E2"/>
<path d="M56.617 193.795V200.376C56.617 200.376 67.2483 200.527 64.9693 198.403C63.4943 196.993 62.1552 195.447 60.9695 193.786L56.617 193.795Z" fill="#9CF1E2"/>
<path d="M40.689 199.704L49.3225 200.38V192.468C49.3225 192.468 45.3227 186.848 41.3228 193.077L41.092 193.442L40.689 199.704Z" fill="#9CF1E2"/>
<path d="M314.341 256.042C300.695 256.042 289.632 244.98 289.632 231.334C289.632 217.688 300.695 206.625 314.341 206.625C327.987 206.625 339.049 217.688 339.049 231.334C339.049 244.98 327.987 256.042 314.341 256.042Z" fill="#121614"/>
<path d="M294.522 231.313C294.513 236.411 296.463 241.318 299.968 245.021C303.474 248.723 308.267 250.937 313.359 251.206C318.45 251.475 323.45 249.778 327.326 246.466C331.203 243.154 333.658 238.479 334.187 233.408C334.715 228.337 333.275 223.257 330.165 219.217C327.055 215.177 322.512 212.486 317.474 211.7C312.436 210.913 307.289 212.092 303.096 214.992C298.903 217.893 295.984 222.293 294.942 227.283C294.665 228.609 294.525 229.959 294.522 231.313Z" fill="#087965" fill-opacity="0.15"/>
<path opacity="0.5" d="M314.37 248.387C304.961 248.387 297.334 240.74 297.334 231.309C297.334 221.877 304.961 214.23 314.37 214.23C323.779 214.23 331.406 221.877 331.406 231.309C331.406 240.74 323.779 248.387 314.37 248.387Z" fill="#087965"/>
<path d="M308.671 212.245V212.967L314.341 231.741L318.891 211.934C315.515 211.148 311.992 211.255 308.671 212.245Z" fill="#087965"/>
<path d="M308.712 250.388C311.96 251.35 315.399 251.469 318.706 250.733L314.345 231.741L308.712 250.388Z" fill="#087965"/>
<path d="M294.522 231.313C294.519 233.384 294.839 235.443 295.471 237.415H295.55L314.324 231.745L294.908 227.288C294.644 228.613 294.515 229.961 294.522 231.313Z" fill="#087965"/>
<path d="M314.341 231.741L333.114 237.411H333.261C334.307 234.133 334.493 230.641 333.803 227.271L314.341 231.741Z" fill="#087965"/>
<path d="M314.37 233.487C313.167 233.487 312.192 232.511 312.192 231.308C312.192 230.105 313.167 229.13 314.37 229.13C315.573 229.13 316.549 230.105 316.549 231.308C316.549 232.511 315.573 233.487 314.37 233.487Z" fill="#087965"/>
<path d="M92.0323 256.042C78.3862 256.042 67.3239 244.98 67.3239 231.334C67.3239 217.688 78.3862 206.625 92.0323 206.625C105.678 206.625 116.741 217.688 116.741 231.334C116.741 244.98 105.678 256.042 92.0323 256.042Z" fill="#121614"/>
<path d="M72.2093 231.313C72.2004 236.411 74.1501 241.318 77.6556 245.021C81.1612 248.723 85.9548 250.937 91.0462 251.206C96.1377 251.475 101.138 249.778 105.014 246.466C108.89 243.154 111.346 238.479 111.874 233.408C112.402 228.337 110.963 223.257 107.852 219.217C104.742 215.177 100.199 212.486 95.1615 211.7C90.1239 210.913 84.9769 212.092 80.7836 214.992C76.5902 217.893 73.6711 222.293 72.6291 227.283C72.3526 228.609 72.212 229.959 72.2093 231.313Z" fill="#087965" fill-opacity="0.15"/>
<path opacity="0.5" d="M92.0574 248.387C82.6486 248.387 75.0213 240.74 75.0213 231.309C75.0213 221.877 82.6486 214.23 92.0574 214.23C101.466 214.23 109.094 221.877 109.094 231.309C109.094 240.74 101.466 248.387 92.0574 248.387Z" fill="#087965"/>
<path d="M86.3621 212.245V212.967L92.0324 231.741L96.582 211.934C93.2063 211.148 89.6838 211.255 86.3621 212.245Z" fill="#087965"/>
<path d="M86.3997 250.388C89.6475 251.35 93.0868 251.469 96.3931 250.733L92.0323 231.741L86.3997 250.388Z" fill="#087965"/>
<path d="M72.2093 231.313C72.2064 233.384 72.5264 235.443 73.1578 237.415H73.2543L92.0322 231.741L72.6164 227.283C72.345 228.609 72.2086 229.959 72.2093 231.313Z" fill="#087965"/>
<path d="M92.0324 231.741L110.806 237.411H110.953C111.999 234.133 112.185 230.641 111.494 227.271L92.0324 231.741Z" fill="#087965"/>
<path d="M92.0575 233.487C90.8545 233.487 89.8792 232.511 89.8792 231.308C89.8792 230.105 90.8545 229.13 92.0575 229.13C93.2606 229.13 94.2358 230.105 94.2358 231.308C94.2358 232.511 93.2606 233.487 92.0575 233.487Z" fill="#087965"/>
<path opacity="0.2" d="M236.673 175.89L242.881 188.401H249.743L245.156 180.507C242.625 179.038 239.775 177.472 236.673 175.89Z" fill="white"/>
<path opacity="0.2" d="M219.641 168.381L225.824 188.389H234.948L227.519 171.542C224.984 170.442 222.349 169.384 219.641 168.381Z" fill="white"/>
<path opacity="0.2" d="M155.367 162.786L168.835 186.672L169.44 186.714C171.119 186.823 172.676 186.895 173.998 186.92L161.881 162.396L160.252 162.484C158.725 162.568 157.079 162.669 155.367 162.786Z" fill="white"/>
<path opacity="0.2" d="M257.281 188.317L264.97 241.281L200.75 239.875L190.207 188.548L257.281 188.317Z" stroke="white" stroke-miterlimit="10"/>
<path opacity="0.5" d="M137.966 243.858C138.893 244.277 141.08 245.385 141.395 247.127H284.776L287.714 247.102C287.09 246.054 286.529 244.969 286.036 243.854L137.966 243.858Z" fill="#121614"/>
<path d="M261.927 282.131C260.949 281.221 260.03 280.146 259.745 278.841C259.459 277.536 260.017 275.966 261.268 275.483C262.666 274.946 264.164 275.903 265.297 276.898C266.431 277.892 267.732 278.996 269.213 278.786C268.45 278.094 267.88 277.216 267.557 276.238C267.234 275.26 267.17 274.214 267.371 273.204C267.436 272.787 267.613 272.395 267.883 272.071C268.659 271.231 270.07 271.597 270.997 272.251C273.935 274.35 274.775 278.35 274.796 281.968C275.094 280.662 274.842 279.303 274.85 277.964C274.858 276.625 275.224 275.143 276.353 274.421C277.056 274.043 277.846 273.858 278.644 273.884C279.975 273.834 281.456 273.968 282.363 274.942C283.492 276.15 283.202 278.178 282.216 279.508C281.23 280.839 279.74 281.674 278.367 282.593C277.265 283.25 276.326 284.146 275.618 285.216C275.534 285.366 275.465 285.523 275.412 285.686H267.077C265.208 284.739 263.476 283.543 261.927 282.131Z" fill="#087965"/>
<path d="M87.7092 289.191C86.9399 288.564 86.3794 287.718 86.1017 286.765C85.8918 285.8 86.3032 284.645 87.2265 284.293C88.259 283.898 89.3628 284.612 90.1981 285.338C91.0333 286.064 91.9944 286.887 93.0899 286.731C92.5269 286.221 92.1056 285.573 91.8673 284.852C91.629 284.13 91.5817 283.359 91.73 282.614C91.7774 282.305 91.908 282.015 92.1078 281.775C92.6828 281.162 93.7195 281.426 94.4078 281.909C96.5903 283.445 97.1989 286.408 97.2114 289.077C97.4297 288.116 97.245 287.113 97.2534 286.139C97.2618 285.166 97.5304 284.041 98.3615 283.529C98.8768 283.252 99.4555 283.115 100.04 283.13C101.022 283.092 102.114 283.193 102.785 283.911C103.625 284.801 103.402 286.299 102.676 287.269C101.95 288.238 100.85 288.863 99.8346 289.543C99.0206 290.027 98.3262 290.689 97.8032 291.478C97.7417 291.588 97.6911 291.703 97.6521 291.822H91.5034C90.1257 291.12 88.8494 290.235 87.7092 289.191Z" fill="#087965"/>
<path d="M60.4279 302.542C59.6587 301.915 59.0981 301.069 58.8204 300.116C58.6106 299.151 59.0219 297.996 59.9453 297.644C60.9778 297.249 62.0816 297.963 62.9168 298.689C63.752 299.415 64.7132 300.238 65.8086 300.082C65.2456 299.572 64.8244 298.924 64.5861 298.203C64.3478 297.481 64.3005 296.71 64.4488 295.965C64.4961 295.656 64.6267 295.366 64.8265 295.126C65.4015 294.513 66.4382 294.777 67.1265 295.26C69.309 296.796 69.9176 299.759 69.9302 302.429C70.1484 301.467 69.9638 300.464 69.9722 299.491C69.9806 298.517 70.2492 297.392 71.0802 296.88C71.5955 296.603 72.1743 296.466 72.759 296.481C73.7412 296.443 74.8324 296.544 75.5039 297.262C76.3434 298.152 76.1209 299.65 75.3948 300.62C74.6687 301.589 73.5691 302.214 72.5534 302.894C71.7393 303.378 71.045 304.04 70.522 304.829C70.4605 304.939 70.4099 305.054 70.3709 305.173H64.2221C62.8445 304.471 61.5681 303.586 60.4279 302.542Z" fill="#087965"/>
<path opacity="0.1" d="M198.03 221.571H198.177C198.177 221.571 193.351 220.27 198.03 221.571Z" fill="black"/>
<path opacity="0.1" d="M158.128 245.876V246.59C158.184 246.355 158.184 246.111 158.128 245.876Z" fill="black"/>
<path opacity="0.05" d="M191.76 242.767C191.76 242.767 184.335 244.026 182.48 248.034C180.625 252.042 169.469 262.888 169.469 262.888" fill="black"/>
<path d="M475.577 294.189H480.891L483.42 273.69H475.577V294.189Z" fill="#FFB8B8"/>
<path d="M474.221 299.341H491.358V299.124C491.356 297.356 490.652 295.66 489.402 294.41C488.151 293.159 486.456 292.456 484.688 292.454H474.221L474.221 299.341Z" fill="#2F2E41"/>
<path d="M407.043 284.118L411.599 286.855L424.324 270.587L417.601 266.547L407.043 284.118Z" fill="#FFB8B8"/>
<path d="M417.917 296.662L418.028 296.476C418.937 294.959 419.208 293.144 418.78 291.428C418.352 289.712 417.261 288.236 415.746 287.323L406.775 281.933L403.228 287.836L417.917 296.662Z" fill="#2F2E41"/>
<path d="M474.195 289.959L474.287 289.958C476.872 289.95 479.455 289.801 482.024 289.513C483.003 289.416 484.066 289.311 485.346 289.206L485.39 289.198C486.263 288.938 486.287 280.749 485.917 252.716C485.727 238.358 485.512 222.084 485.768 211.72L485.771 211.618L485.694 211.551C476.213 203.305 464.038 200.214 451.412 202.848L451.318 202.867L451.269 202.95C446.046 211.787 438.16 224.517 430.533 236.829C413.025 265.09 408.018 273.401 408.567 274.028L408.633 274.079C409.828 274.677 410.726 275.137 411.489 275.529C414.045 276.839 415.102 277.381 420.785 279.721L420.926 279.779L421.028 279.667C438.792 260.201 453.575 238.457 462.719 218.356C463.788 225.218 465.085 234.179 466.455 243.647C470.395 270.874 473.059 288.802 474.131 289.893L474.195 289.959Z" fill="#2F2E41"/>
<path d="M446.604 124.794C444.814 117.407 443.299 109.075 446.673 102.272C449.014 97.5511 457.674 95.9614 462.639 97.662C467.603 99.3627 471.193 103.977 472.771 109.007C474.35 114.038 474.167 119.459 473.479 124.689C464.348 124.513 455.218 124.338 446.604 124.794Z" fill="#2F2E41"/>
<path d="M462.012 124.792C456.131 124.792 451.364 120.025 451.364 114.145C451.364 108.264 456.131 103.497 462.012 103.497C467.892 103.497 472.659 108.264 472.659 114.145C472.659 120.025 467.892 124.792 462.012 124.792Z" fill="#FFB8B8"/>
<path d="M448.996 111.952C448.962 110.16 449.289 108.379 449.956 106.716C450.624 105.053 451.62 103.541 452.883 102.27C454.147 100.999 455.653 99.9949 457.313 99.3176C458.972 98.6403 460.751 98.3035 462.543 98.3271C464.335 98.3507 466.104 98.7343 467.745 99.4551C469.386 100.176 470.865 101.219 472.095 102.523C473.325 103.827 474.28 105.365 474.903 107.045C475.527 108.725 475.807 110.513 475.726 112.304C466.613 112.323 457.5 112.343 448.996 111.952Z" fill="#2F2E41"/>
<path d="M469.409 213.814C458.816 213.767 448.293 215.529 438.294 219.024C437.946 202.241 443.724 185.426 454.171 172.848L454.249 172.754L454.209 172.638C451.419 164.575 448.534 156.241 445.957 147.948L445.996 147.809C447.804 141.383 451.683 134.889 457.857 127.957C458.527 127.263 459.435 126.85 460.398 126.801C461.361 126.752 462.307 127.071 463.043 127.694C474.016 137.753 479.983 152.825 478.614 167.029L478.61 167.07L478.622 167.111C483.456 183.488 485.211 191.899 486.759 199.321C487.888 204.735 488.866 209.423 490.83 216.121C483.792 214.589 476.611 213.816 469.409 213.814Z" fill="#3F3D56"/>
<path opacity="0.1" d="M453.813 162.044L469.539 196.28L478.522 187.187L453.813 162.044Z" fill="black"/>
<path d="M489.111 181.06L488.014 183.191C488.004 183.21 488.003 183.233 488.009 183.254C488.016 183.276 488.031 183.293 488.05 183.303L488.103 183.33L482.392 194.429C482.234 194.736 482.204 195.093 482.309 195.422C482.415 195.751 482.647 196.024 482.954 196.183L489.888 199.752C490.04 199.83 490.206 199.877 490.377 199.891C490.547 199.905 490.719 199.886 490.881 199.834C491.044 199.781 491.195 199.698 491.326 199.587C491.456 199.477 491.564 199.341 491.642 199.189L491.642 199.189L497.153 188.48L497.192 188.5C497.205 188.507 497.222 188.509 497.237 188.504C497.251 188.499 497.264 188.489 497.271 188.475L497.895 187.262C497.899 187.256 497.901 187.248 497.901 187.24C497.902 187.233 497.901 187.225 497.899 187.217C497.896 187.21 497.893 187.203 497.888 187.197C497.883 187.191 497.876 187.186 497.87 187.183L497.831 187.163L498.066 186.706L498.105 186.726C498.12 186.734 498.136 186.735 498.152 186.73C498.168 186.725 498.181 186.714 498.188 186.699L498.804 185.503C498.811 185.489 498.812 185.472 498.807 185.456C498.802 185.441 498.791 185.428 498.777 185.42L498.738 185.401L499.059 184.777L499.098 184.797C499.111 184.804 499.126 184.805 499.14 184.801C499.154 184.796 499.165 184.787 499.172 184.774L499.172 184.774L499.508 184.121C499.515 184.108 499.516 184.093 499.512 184.079C499.507 184.065 499.498 184.054 499.485 184.047L499.445 184.027L500.125 182.705C500.283 182.398 500.313 182.041 500.208 181.712C500.102 181.384 499.871 181.11 499.564 180.952L492.629 177.383C492.322 177.225 491.965 177.195 491.636 177.301C491.307 177.406 491.033 177.638 490.875 177.945L489.276 181.051L489.223 181.024C489.204 181.014 489.181 181.012 489.16 181.019C489.139 181.026 489.121 181.041 489.111 181.06Z" fill="#3F3D56"/>
<path d="M491.312 178.459L482.897 194.81C482.797 195.005 482.778 195.232 482.845 195.44C482.912 195.649 483.059 195.822 483.254 195.923L489.892 199.339C490.086 199.439 490.312 199.458 490.521 199.392C490.729 199.326 490.903 199.179 491.003 198.985L491.004 198.983L499.419 182.632C499.469 182.535 499.499 182.43 499.508 182.322C499.517 182.214 499.505 182.105 499.472 182.001C499.438 181.898 499.385 181.802 499.315 181.72C499.245 181.637 499.159 181.569 499.063 181.519L499.063 181.519L498.069 181.008L498.004 181.135C497.963 181.214 497.907 181.285 497.839 181.343C497.77 181.401 497.691 181.444 497.606 181.472C497.521 181.499 497.432 181.509 497.343 181.502C497.254 181.494 497.167 181.47 497.087 181.429L493.711 179.691C493.551 179.609 493.43 179.466 493.375 179.294C493.32 179.122 493.335 178.935 493.418 178.775L493.483 178.647L492.425 178.103C492.23 178.002 492.003 177.983 491.795 178.05C491.586 178.117 491.412 178.264 491.312 178.459L491.312 178.459Z" fill="#087965"/>
<path d="M488.873 198.435C488.237 198.39 487.619 198.207 487.061 197.898C486.504 197.589 486.021 197.162 485.647 196.646C485.273 196.13 485.016 195.539 484.895 194.913C484.775 194.287 484.792 193.642 484.948 193.024L471.99 184.535L479.38 181.342L490.552 189.894C491.573 190.223 492.437 190.916 492.982 191.84C493.526 192.765 493.713 193.857 493.506 194.91C493.299 195.963 492.713 196.903 491.859 197.553C491.005 198.202 489.943 198.516 488.873 198.435Z" fill="#FFB8B8"/>
<path d="M476.405 192.319L476.568 192.203C479.652 189.934 483.076 187.586 486.386 185.316L486.585 185.18L486.429 184.997C479.362 176.729 472.288 168.093 465.445 159.739C465.451 159.726 465.455 159.716 465.459 159.709L465.394 159.676L465.367 159.643L465.352 159.655L465.311 159.634L465.497 159.649L467.606 143.11C469.511 140.511 469.876 135.352 467.38 131.75C464.794 128.019 459.323 126.771 455.672 129.077C454.716 129.719 453.916 130.568 453.332 131.561C452.748 132.554 452.395 133.666 452.299 134.814C452.163 135.837 452.258 136.877 452.576 137.858C452.893 138.84 453.426 139.738 454.135 140.487C453.239 149.24 453.205 157.063 453.171 164.631L453.171 164.706L453.218 164.769C460.512 174.036 468.525 183.254 476.274 192.168L476.405 192.319Z" fill="#3F3D56"/>
<path d="M381.506 300H502.496C502.63 300 502.759 299.947 502.854 299.852C502.949 299.757 503.002 299.628 503.002 299.494C503.002 299.36 502.949 299.231 502.854 299.136C502.759 299.041 502.63 298.988 502.496 298.988H381.506C381.372 298.988 381.243 299.041 381.148 299.136C381.053 299.231 381 299.36 381 299.494C381 299.628 381.053 299.757 381.148 299.852C381.243 299.947 381.372 300 381.506 300Z" fill="#3F3D56"/>
</svg>
