<svg width="579" height="304" viewBox="0 0 579 304" fill="none" xmlns="http://www.w3.org/2000/svg">
<path d="M175.899 94.9341C193.18 94.9341 207.189 80.9249 207.189 63.6438C207.189 46.3626 193.18 32.3534 175.899 32.3534C158.618 32.3534 144.608 46.3626 144.608 63.6438C144.608 80.9249 158.618 94.9341 175.899 94.9341Z" fill="#087965"/>
<path d="M274.022 160.069H120.521C120.329 160.072 120.137 160.056 119.947 160.024L192.546 34.2717C192.989 33.4886 193.632 32.8371 194.41 32.3838C195.187 31.9304 196.071 31.6916 196.97 31.6916C197.87 31.6916 198.754 31.9304 199.531 32.3838C200.309 32.8371 200.952 33.4886 201.395 34.2717L250.118 118.661L252.452 122.699L274.022 160.069Z" fill="#3F3D56"/>
<path opacity="0.2" d="M274.022 160.069H221.613L247.34 122.699L249.192 120.007L250.118 118.661L252.452 122.699L274.022 160.069Z" fill="black"/>
<path d="M359.49 160.069H226.725L252.452 122.699L254.303 120.007L287.829 71.3066C290.027 68.1148 295.314 67.9161 297.898 70.7046C298.072 70.8948 298.233 71.0959 298.381 71.3066L359.49 160.069Z" fill="#3F3D56"/>
<path d="M398.463 139.381C403.67 139.381 407.891 135.16 407.891 129.953C407.891 124.745 403.67 120.524 398.463 120.524C393.255 120.524 389.034 124.745 389.034 129.953C389.034 135.16 393.255 139.381 398.463 139.381Z" fill="#087965"/>
<path d="M399.372 158.353H397.44L398.321 128.532L399.372 158.353Z" fill="#3F3D56"/>
<path d="M398.491 134.184L400.564 131.316L398.462 134.894L398.235 134.497L398.491 134.184Z" fill="#3F3D56"/>
<path d="M398.264 137.081L396.19 134.212L398.292 137.791L398.519 137.393L398.264 137.081Z" fill="#3F3D56"/>
<path d="M484.955 139.381C490.162 139.381 494.384 135.16 494.384 129.953C494.384 124.745 490.162 120.524 484.955 120.524C479.747 120.524 475.526 124.745 475.526 129.953C475.526 135.16 479.747 139.381 484.955 139.381Z" fill="#087965"/>
<path d="M485.863 158.353H483.932L484.812 128.532L485.863 158.353Z" fill="#3F3D56"/>
<path d="M484.983 134.184L487.056 131.316L484.955 134.894L484.727 134.497L484.983 134.184Z" fill="#3F3D56"/>
<path d="M484.756 137.081L482.683 134.212L484.785 137.791L485.011 137.393L484.756 137.081Z" fill="#3F3D56"/>
<path d="M425.776 130.334C433.467 130.334 439.702 124.099 439.702 116.408C439.702 108.717 433.467 102.482 425.776 102.482C418.085 102.482 411.851 108.717 411.851 116.408C411.851 124.099 418.085 130.334 425.776 130.334Z" fill="#087965"/>
<path d="M427.118 158.353H424.266L425.566 114.311L427.118 158.353Z" fill="#3F3D56"/>
<path d="M425.818 122.657L428.88 118.421L425.776 123.706L425.44 123.119L425.818 122.657Z" fill="#3F3D56"/>
<path d="M425.483 126.936L422.421 122.7L425.525 127.985L425.86 127.398L425.483 126.936Z" fill="#3F3D56"/>
<path d="M459.736 130.334C467.427 130.334 473.662 124.099 473.662 116.408C473.662 108.717 467.427 102.482 459.736 102.482C452.045 102.482 445.811 108.717 445.811 116.408C445.811 124.099 452.045 130.334 459.736 130.334Z" fill="#087965"/>
<path d="M461.079 158.353H458.227L459.527 114.311L461.079 158.353Z" fill="#3F3D56"/>
<path d="M459.778 122.657L462.84 118.421L459.736 123.706L459.401 123.119L459.778 122.657Z" fill="#3F3D56"/>
<path d="M459.443 126.936L456.38 122.7L459.485 127.985L459.82 127.398L459.443 126.936Z" fill="#3F3D56"/>
<path d="M371.653 130.334C379.344 130.334 385.578 124.099 385.578 116.408C385.578 108.717 379.344 102.482 371.653 102.482C363.962 102.482 357.727 108.717 357.727 116.408C357.727 124.099 363.962 130.334 371.653 130.334Z" fill="#087965"/>
<path d="M372.995 158.353H370.143L371.443 114.311L372.995 158.353Z" fill="#3F3D56"/>
<path d="M371.695 122.657L374.756 118.421L371.653 123.706L371.317 123.119L371.695 122.657Z" fill="#3F3D56"/>
<path d="M371.359 126.936L368.297 122.7L371.401 127.985L371.736 127.398L371.359 126.936Z" fill="#3F3D56"/>
<path d="M536.406 303.046H81.9514C76.2256 303.046 70.556 301.918 65.2661 299.727C59.9762 297.536 55.1697 294.324 51.121 290.275C47.0723 286.227 43.8606 281.42 41.6695 276.13C39.4784 270.84 38.3506 265.171 38.3506 259.445C38.3506 253.719 39.4784 248.05 41.6695 242.76C43.8606 237.47 47.0723 232.663 51.121 228.615C55.1697 224.566 59.9762 221.354 65.2661 219.163C70.556 216.972 76.2256 215.844 81.9514 215.844H535.399C539.847 215.844 544.112 214.077 547.257 210.933C550.402 207.788 552.169 203.522 552.169 199.075C552.169 194.627 550.402 190.362 547.257 187.217C544.112 184.072 539.847 182.305 535.399 182.305H66.8588V155.474H535.399C546.963 155.474 558.053 160.068 566.23 168.244C574.407 176.421 579 187.511 579 199.075C579 210.638 574.407 221.728 566.23 229.905C558.053 238.082 546.963 242.676 535.399 242.676H81.9514C77.5038 242.676 73.2384 244.442 70.0935 247.587C66.9486 250.732 65.1818 254.997 65.1818 259.445C65.1818 263.893 66.9486 268.158 70.0935 271.303C73.2384 274.448 77.5038 276.215 81.9514 276.215H536.406V303.046Z" fill="#2F2E41"/>
<path d="M104.422 168.219H83.6279V169.56H104.422V168.219Z" fill="white"/>
<path d="M163.451 168.219H142.657V169.56H163.451V168.219Z" fill="white"/>
<path d="M222.48 168.219H201.686V169.56H222.48V168.219Z" fill="white"/>
<path d="M281.509 168.219H260.714V169.56H281.509V168.219Z" fill="white"/>
<path d="M340.537 168.219H319.743V169.56H340.537V168.219Z" fill="white"/>
<path d="M399.566 168.219H378.772V169.56H399.566V168.219Z" fill="white"/>
<path d="M458.595 168.219H437.801V169.56H458.595V168.219Z" fill="white"/>
<path d="M517.624 168.219H496.83V169.56H517.624V168.219Z" fill="white"/>
<path d="M104.422 228.589H83.6279V229.931H104.422V228.589Z" fill="white"/>
<path d="M163.451 228.589H142.657V229.931H163.451V228.589Z" fill="white"/>
<path d="M222.48 228.589H201.686V229.931H222.48V228.589Z" fill="white"/>
<path d="M281.509 228.589H260.714V229.931H281.509V228.589Z" fill="white"/>
<path d="M340.537 228.589H319.743V229.931H340.537V228.589Z" fill="white"/>
<path d="M399.566 228.589H378.772V229.931H399.566V228.589Z" fill="white"/>
<path d="M458.595 228.589H437.801V229.931H458.595V228.589Z" fill="white"/>
<path d="M517.624 228.589H496.83V229.931H517.624V228.589Z" fill="white"/>
<path d="M104.422 288.96H83.6279V290.301H104.422V288.96Z" fill="white"/>
<path d="M163.451 288.96H142.657V290.301H163.451V288.96Z" fill="white"/>
<path d="M222.48 288.96H201.686V290.301H222.48V288.96Z" fill="white"/>
<path d="M281.509 288.96H260.714V290.301H281.509V288.96Z" fill="white"/>
<path d="M340.537 288.96H319.743V290.301H340.537V288.96Z" fill="white"/>
<path d="M399.566 288.96H378.772V290.301H399.566V288.96Z" fill="white"/>
<path d="M458.595 288.96H437.801V290.301H458.595V288.96Z" fill="white"/>
<path d="M517.624 288.96H496.83V290.301H517.624V288.96Z" fill="white"/>
<path d="M397.479 53.2434C399.664 53.2414 401.813 53.7967 403.723 54.8568H391.251C393.156 53.797 395.3 53.2416 397.479 53.2434Z" fill="#E0E8F1"/>
<path d="M373.278 51.6302C376.928 51.6259 380.488 52.7533 383.47 54.857H363.101C366.078 52.7558 369.634 51.6285 373.278 51.6302Z" fill="#E0E8F1"/>
<path d="M236.193 31.2064C236.636 23.3807 239.843 15.9665 245.244 10.2857C250.645 4.60493 257.887 1.02684 265.681 0.189382C273.474 -0.648081 281.311 1.30952 287.796 5.71316C294.28 10.1168 298.99 16.6803 301.085 24.2333C301.485 24.2189 301.886 24.2028 302.29 24.2028C309.435 24.2041 316.389 26.519 322.109 30.8011C327.829 35.0832 332.009 41.1023 334.024 47.958C338.759 45.8776 344.05 45.4262 349.069 46.6746C354.088 47.923 358.551 50.8007 361.759 54.857H258.59C255.581 54.8655 252.6 54.2666 249.827 53.0961C247.054 51.9256 244.546 50.2077 242.453 48.045C240.359 45.8824 238.724 43.3196 237.644 40.5101C236.565 37.7006 236.063 34.7021 236.17 31.6942C236.176 31.5319 236.184 31.3693 236.193 31.2064Z" fill="#E3EBF5"/>
<path d="M405.007 77.3916C402.823 77.3896 400.674 77.9449 398.764 79.005H411.235C409.331 77.9452 407.187 77.3898 405.007 77.3916Z" fill="#E6E6E6"/>
<path d="M429.208 75.7784C425.559 75.7741 421.998 76.9015 419.016 79.0052H439.386C436.408 76.9039 432.852 75.7767 429.208 75.7784Z" fill="#E6E6E6"/>
<path d="M566.293 55.3546C565.851 47.5289 562.643 40.1147 557.242 34.4339C551.842 28.7531 544.599 25.175 536.806 24.3376C529.012 23.5001 521.175 25.4577 514.691 29.8614C508.206 34.265 503.497 40.8284 501.402 48.3815C501.001 48.3671 500.6 48.351 500.196 48.351C493.051 48.3523 486.098 50.6672 480.377 54.9493C474.657 59.2314 470.477 65.2505 468.462 72.1062C463.728 70.0258 458.436 69.5744 453.417 70.8228C448.399 72.0712 443.935 74.9489 440.727 79.0052H543.896C546.906 79.0137 549.886 78.4148 552.659 77.2443C555.432 76.0738 557.94 74.3558 560.034 72.1932C562.127 70.0306 563.762 67.4678 564.842 64.6583C565.921 61.8488 566.423 58.8503 566.317 55.8424C566.31 55.68 566.302 55.5175 566.293 55.3546Z" fill="#E3EBF5"/>
<path d="M497.512 284.296L509.502 284.302L509.503 282.399L497.513 282.392L497.512 284.296Z" fill="#3F3D56"/>
<path d="M410.818 282.822L413.292 283.394L507.314 283.444L508.16 281.475C509.634 278.096 510.14 274.373 509.621 270.723C509.216 268.003 508.202 265.299 505.897 264.125L501.725 236.335L449.707 236.242L429.581 252.474C429.581 252.474 420.088 252.304 414.93 258.725C413.07 261.112 411.971 264.004 411.778 267.025L411.574 270.365L410.818 282.822Z" fill="#087965"/>
<path d="M431.468 293.967C437.88 293.967 443.078 288.769 443.078 282.357C443.078 275.945 437.88 270.747 431.468 270.747C425.056 270.747 419.858 275.945 419.858 282.357C419.858 288.769 425.056 293.967 431.468 293.967Z" fill="#3F3D56"/>
<path d="M431.468 288.468C434.843 288.468 437.579 285.732 437.579 282.357C437.579 278.982 434.843 276.247 431.468 276.247C428.094 276.247 425.358 278.982 425.358 282.357C425.358 285.732 428.094 288.468 431.468 288.468Z" fill="#CCCCCC"/>
<path d="M488.757 293.998C495.17 293.998 500.368 288.8 500.368 282.388C500.368 275.976 495.17 270.778 488.757 270.778C482.345 270.778 477.147 275.976 477.147 282.388C477.147 288.8 482.345 293.998 488.757 293.998Z" fill="#3F3D56"/>
<path d="M488.758 288.498C492.132 288.498 494.868 285.763 494.868 282.388C494.868 279.013 492.132 276.277 488.758 276.277C485.383 276.277 482.647 279.013 482.647 282.388C482.647 285.763 485.383 288.498 488.758 288.498Z" fill="#CCCCCC"/>
<path d="M437.578 250.577L465.663 250.589H469.091L474.879 250.593V250.171L474.884 245.081L474.888 239.366H471.037L467.608 239.362L461.535 239.358H458.107L451.096 239.353L437.578 250.577Z" fill="white"/>
<path d="M479.449 250.598L494.292 250.606L494.296 247.693V242.603L494.3 239.378H492.127L488.698 239.374L479.454 239.37L479.449 250.598Z" fill="white"/>
<path d="M472.971 262.585L474.874 262.586L474.876 258.97L472.973 258.969L472.971 262.585Z" fill="#3F3D56"/>
<path d="M445.186 255.719L445.188 253.815L441.571 253.813L441.57 255.717L445.186 255.719Z" fill="#3F3D56"/>
<path d="M443.855 254.652L443.646 254.652C443.123 254.652 442.606 254.548 442.123 254.348C441.641 254.148 441.203 253.855 440.833 253.485C440.464 253.116 440.172 252.677 439.972 252.194C439.772 251.712 439.67 251.194 439.67 250.672C439.67 250.149 439.773 249.632 439.973 249.15C440.174 248.667 440.467 248.229 440.836 247.86C441.206 247.49 441.645 247.198 442.127 246.998C442.61 246.798 443.127 246.696 443.65 246.696L443.859 246.696L443.855 254.652Z" fill="#3F3D56"/>
<path d="M411.574 270.365C413.014 270.522 414.462 270.166 415.664 269.359C416.867 268.552 417.746 267.347 418.147 265.956C418.548 264.565 418.445 263.077 417.857 261.754C417.268 260.431 416.232 259.359 414.93 258.725C413.07 261.112 411.971 264.005 411.778 267.025L411.574 270.365Z" fill="#3F3D56"/>
<path d="M467.608 239.362L474.88 250.171L474.884 245.081L471.037 239.366L467.608 239.362Z" fill="#F2F2F2"/>
<path d="M488.699 239.374L494.296 247.693V242.603L492.127 239.378L488.699 239.374Z" fill="#F2F2F2"/>
<path d="M458.107 239.358L465.663 250.589H469.091L461.535 239.358H458.107Z" fill="#F2F2F2"/>
<g filter="url(#filter0_d_282_695)">
<path d="M63.5049 191.696C80.5461 191.696 94.3608 177.882 94.3608 160.84C94.3608 143.799 80.5461 129.984 63.5049 129.984C46.4636 129.984 32.6489 143.799 32.6489 160.84C32.6489 177.882 46.4636 191.696 63.5049 191.696Z" fill="white"/>
<path d="M92.3608 160.84C92.3608 176.777 79.4415 189.696 63.5049 189.696C47.5682 189.696 34.6489 176.777 34.6489 160.84C34.6489 144.904 47.5682 131.984 63.5049 131.984C79.4415 131.984 92.3608 144.904 92.3608 160.84Z" stroke="#087965" stroke-width="4"/>
</g>
<path d="M63.214 175L45.8799 157.776C45.316 157.214 44.9996 156.453 45 155.66C45.0004 154.867 45.3178 154.106 45.8822 153.545C46.4467 152.985 47.2122 152.669 48.0105 152.669C48.8088 152.668 49.5747 152.983 50.1398 153.543L62.9257 166.248L103.726 120.016C104.253 119.421 104.997 119.058 105.793 119.006C106.59 118.955 107.374 119.22 107.974 119.743C108.574 120.265 108.941 121.004 108.993 121.795C109.046 122.586 108.781 123.366 108.255 123.963L63.214 175Z" fill="#087965"/>
<defs>
<filter id="filter0_d_282_695" x="0.648926" y="102.984" width="125.712" height="125.712" filterUnits="userSpaceOnUse" color-interpolation-filters="sRGB">
<feFlood flood-opacity="0" result="BackgroundImageFix"/>
<feColorMatrix in="SourceAlpha" type="matrix" values="0 0 0 0 0 0 0 0 0 0 0 0 0 0 0 0 0 0 127 0" result="hardAlpha"/>
<feOffset dy="5"/>
<feGaussianBlur stdDeviation="16"/>
<feComposite in2="hardAlpha" operator="out"/>
<feColorMatrix type="matrix" values="0 0 0 0 0 0 0 0 0 0 0 0 0 0 0 0 0 0 0.12 0"/>
<feBlend mode="normal" in2="BackgroundImageFix" result="effect1_dropShadow_282_695"/>
<feBlend mode="normal" in="SourceGraphic" in2="effect1_dropShadow_282_695" result="shape"/>
</filter>
</defs>
</svg>
