<svg width="13" height="15" viewBox="0 0 13 15" fill="none" xmlns="http://www.w3.org/2000/svg">
<path d="M8.84845 2.39268C9.15022 2.06586 9.38033 1.68625 9.52556 1.27565C9.67078 0.865046 9.72828 0.431535 9.69473 0C8.76812 0.0702821 7.90797 0.479782 7.29961 1.14027C7.00831 1.45677 6.78756 1.82497 6.65043 2.22307C6.51329 2.62117 6.46256 3.04108 6.50123 3.45793C6.95323 3.4615 7.40004 3.36728 7.80707 3.18255C8.2141 2.99783 8.57042 2.72756 8.84845 2.39268ZM10.8604 7.97559C10.8657 7.40082 11.0269 6.83681 11.3286 6.3368C11.6304 5.83678 12.0627 5.41726 12.5848 5.1178C12.2553 4.67163 11.8196 4.30373 11.3124 4.0433C10.8052 3.78287 10.2404 3.63706 9.66279 3.61744C8.41733 3.49742 7.26767 4.29971 6.60544 4.29971C5.94321 4.29971 5.00869 3.63245 3.97081 3.64745C3.29258 3.66817 2.63163 3.85364 2.05238 4.18578C1.47313 4.51791 0.995323 4.98538 0.665535 5.54264C-0.739604 7.83819 0.306687 11.2511 1.71099 13.1037C2.34968 14.011 3.14806 15.0391 4.20191 14.9989C5.25577 14.9586 5.59865 14.3837 6.82058 14.3837C8.04251 14.3837 8.41733 14.9989 9.45522 14.976C10.4931 14.9531 11.2276 14.0457 11.8982 13.1384C12.3733 12.4795 12.7444 11.7595 13 11.0008C12.3682 10.7477 11.8289 10.3264 11.4487 9.78883C11.0685 9.2513 10.864 8.621 10.8604 7.97559Z" fill="#121614"/>
</svg>
