<svg width="9" height="15" viewBox="0 0 9 15" fill="none" xmlns="http://www.w3.org/2000/svg">
<path d="M0.289424 0.288157C0.380549 0.196815 0.488797 0.124345 0.60797 0.0748985C0.727143 0.0254519 0.8549 0 0.983924 0C1.11295 0 1.2407 0.0254519 1.35988 0.0748985C1.47905 0.124345 1.5873 0.196815 1.67842 0.288157L8.20142 6.81116C8.2742 6.88379 8.33194 6.97007 8.37134 7.06504C8.41073 7.16002 8.43101 7.26183 8.43101 7.36466C8.43101 7.46748 8.41073 7.56929 8.37134 7.66427C8.33194 7.75925 8.2742 7.84552 8.20142 7.91816L1.67842 14.4402C1.49423 14.6243 1.24441 14.7278 0.983924 14.7278C0.723436 14.7278 0.473617 14.6243 0.289424 14.4402C0.105231 14.256 0.0017526 14.0061 0.0017526 13.7457C0.0017526 13.4852 0.105231 13.2353 0.289424 13.0512L5.97242 7.36016L0.281424 1.66916C0.0997129 1.48478 -0.00148317 1.23587 1.6432e-05 0.977004C0.00151603 0.718135 0.105589 0.470421 0.289424 0.288157Z" fill="#121614"/>
</svg>
