<svg width="13" height="7" viewBox="0 0 13 7" fill="none" xmlns="http://www.w3.org/2000/svg">
<path d="M0.254352 0.241519C0.173725 0.317163 0.109757 0.407022 0.0661116 0.50595C0.022466 0.604878 0 0.710931 0 0.818037C0 0.925142 0.022466 1.03119 0.0661116 1.13012C0.109757 1.22905 0.173725 1.31891 0.254352 1.39455L6.01209 6.80942C6.0762 6.86983 6.15236 6.91776 6.23619 6.95046C6.32003 6.98317 6.4099 7 6.50066 7C6.59142 7 6.68128 6.98317 6.76512 6.95046C6.84895 6.91776 6.92511 6.86983 6.98922 6.80942L12.7461 1.39455C12.8266 1.31884 12.8904 1.22896 12.934 1.13004C12.9776 1.03113 13 0.925106 13 0.818037C13 0.710967 12.9776 0.604946 12.934 0.506027C12.8904 0.407108 12.8266 0.317228 12.7461 0.241519C12.6656 0.16581 12.57 0.105754 12.4648 0.0647802C12.3596 0.0238066 12.2469 0.00271797 12.1331 0.00271797C12.0192 0.00271797 11.9065 0.0238066 11.8013 0.0647802C11.6961 0.105754 11.6005 0.16581 11.52 0.241519L6.49668 4.95908L1.47334 0.232388C1.31024 0.0818739 1.09034 -0.00168514 0.861837 2.6226e-05C0.633337 0.00173807 0.41488 0.0885811 0.254352 0.241519Z" fill="#6F7C8E"/>
</svg>
