<svg width="9" height="17" viewBox="0 0 9 17" fill="none" xmlns="http://www.w3.org/2000/svg">
<path d="M7.77069 3.80092L7.77069 12.3646C7.7481 13.1404 7.39354 13.8774 6.78253 14.4188C6.17151 14.9602 5.35232 15.2632 4.49943 15.2632C3.64654 15.2632 2.82734 14.9602 2.21633 14.4188C1.60531 13.8774 1.25075 13.1404 1.22816 12.3646L1.22816 3.0563C1.22816 2.56272 1.44366 2.08936 1.82724 1.74035C2.21083 1.39134 2.73109 1.19527 3.27356 1.19527C3.81604 1.19527 4.33629 1.39134 4.71988 1.74035C5.10347 2.08936 5.31896 2.56272 5.31896 3.0563L5.31896 10.8712C5.32309 10.9712 5.30498 11.071 5.26574 11.1646C5.2265 11.2581 5.16692 11.3435 5.09057 11.4156C5.01422 11.4878 4.92267 11.5451 4.8214 11.5843C4.72012 11.6235 4.6112 11.6437 4.50115 11.6437C4.3911 11.6437 4.28217 11.6235 4.1809 11.5843C4.07962 11.5451 3.98807 11.4878 3.91172 11.4156C3.83538 11.3435 3.7758 11.2581 3.73656 11.1646C3.69731 11.071 3.67921 10.9712 3.68333 10.8712L3.68333 3.80092H2.45288L2.45288 10.8722C2.45288 11.3658 2.66837 11.8392 3.05196 12.1882C3.43555 12.5372 3.9558 12.7333 4.49828 12.7333C5.04075 12.7333 5.56101 12.5372 5.9446 12.1882C6.32818 11.8392 6.54368 11.3658 6.54368 10.8722L6.54368 3.0563C6.55525 2.6588 6.4792 2.26322 6.32001 1.89289C6.16082 1.52257 5.92171 1.18501 5.6168 0.90014C5.31189 0.615267 4.94736 0.38885 4.54471 0.23425C4.14206 0.0796501 3.70945 0 3.27241 0C2.83538 0 2.40277 0.0796501 2.00012 0.23425C1.59747 0.38885 1.23294 0.615267 0.928027 0.90014C0.623117 1.18501 0.384011 1.52257 0.224819 1.89289C0.0656266 2.26322 -0.0104264 2.6588 0.00114789 3.0563L0.00114789 12.3604C0.00114789 13.4462 0.475194 14.4875 1.319 15.2552C2.16281 16.023 3.30725 16.4543 4.50057 16.4543C5.6939 16.4543 6.83834 16.023 7.68215 15.2552C8.52595 14.4875 9 13.4462 9 12.3604L9 3.79675L7.77069 3.80092Z" fill="#087965"/>
</svg>
