<svg width="9" height="14" viewBox="0 0 9 14" fill="none" xmlns="http://www.w3.org/2000/svg">
<path d="M8.31813 0.273917C8.22503 0.187088 8.11443 0.1182 7.99268 0.0711971C7.87092 0.0241941 7.74039 0 7.60857 0C7.47675 0 7.34622 0.0241941 7.22446 0.0711971C7.10271 0.1182 6.99211 0.187088 6.89901 0.273917L0.234564 6.47456C0.160208 6.5436 0.101216 6.62562 0.0609668 6.7159C0.0207173 6.80618 0 6.90296 0 7.00071C0 7.09845 0.0207173 7.19523 0.0609668 7.28551C0.101216 7.3758 0.160208 7.45781 0.234564 7.52685L6.89901 13.7265C6.99219 13.8132 7.10281 13.882 7.22456 13.9289C7.34631 13.9759 7.47679 14 7.60857 14C7.74035 14 7.87084 13.9759 7.99258 13.9289C8.11433 13.882 8.22495 13.8132 8.31813 13.7265C8.41131 13.6398 8.48523 13.5369 8.53566 13.4237C8.58608 13.3104 8.61204 13.189 8.61204 13.0664C8.61204 12.9438 8.58608 12.8224 8.53566 12.7091C8.48523 12.5958 8.41131 12.4929 8.31813 12.4062L2.5119 6.99643L8.32937 1.58667C8.51462 1.41102 8.61746 1.17421 8.61535 0.928133C8.61325 0.682056 8.50636 0.446794 8.31813 0.273917Z" fill="#6F7C8E"/>
</svg>
