<svg width="18" height="20" viewBox="0 0 18 20" fill="none" xmlns="http://www.w3.org/2000/svg">
<path d="M8.43625 0.00960716C8.43625 0.0501586 8.48108 0.0448308 8.50669 0.0544351C8.65451 0.108293 8.78154 0.207445 8.86968 0.337749C8.95783 0.468052 9.00258 0.622847 8.99757 0.780085C9.01009 0.973391 9.01009 1.16731 8.99757 1.36062C8.97729 1.53563 9.06267 1.5655 9.20246 1.58044C9.54961 1.62082 9.89178 1.69626 10.2237 1.80561C10.4132 1.86094 10.5731 1.98903 10.6685 2.16189C10.7638 2.33474 10.7868 2.53831 10.7326 2.72811C10.6783 2.9179 10.5511 3.07848 10.3787 3.17477C10.2064 3.27107 10.003 3.29524 9.81288 3.24199C9.11078 3.03243 8.37375 2.96602 7.6455 3.04671C7.56013 3.05631 7.47583 3.07658 7.39046 3.09152C6.71374 3.18263 6.0659 3.42361 5.49415 3.7969C4.71958 4.26496 4.08159 4.92833 3.64409 5.72056C3.20658 6.51279 2.98493 7.40607 3.0013 8.31092C2.98636 9.822 3.0013 11.3384 3.0013 12.8506C3.01725 13.253 2.91899 13.6518 2.71788 14.0007C2.51676 14.3497 2.22101 14.6346 1.86479 14.8226C1.72437 14.907 1.61557 15.0352 1.55516 15.1875C1.49475 15.3398 1.48607 15.5077 1.53046 15.6654C1.57486 15.8231 1.66986 15.9618 1.80085 16.0602C1.93183 16.1586 2.09154 16.2112 2.25537 16.2099C2.5659 16.2099 2.88071 16.2099 3.19125 16.2099C3.2414 16.2099 3.29155 16.2099 3.34171 16.2099H14.202C14.3653 16.2199 14.5275 16.1777 14.6652 16.0894C14.8029 16.0012 14.909 15.8715 14.9682 15.719C15.0301 15.5597 15.0339 15.3836 14.9791 15.2217C14.9243 15.0598 14.8143 14.9223 14.6684 14.8333C14.2454 14.5946 13.9076 14.2297 13.7021 13.7897C13.4966 13.3496 13.4338 12.8564 13.5223 12.3789C13.5416 12.1902 13.632 12.016 13.7751 11.8916C13.9182 11.7671 14.1032 11.7017 14.2927 11.7087C14.479 11.7151 14.6563 11.7904 14.7903 11.9198C14.9243 12.0493 15.0056 12.2239 15.0184 12.4098C15.028 12.5699 15.0184 12.73 15.0184 12.8954C15.0176 13.0202 15.0507 13.143 15.1143 13.2505C15.1778 13.358 15.2693 13.4462 15.3791 13.5058C15.8161 13.7488 16.1593 14.1309 16.3541 14.5915C16.5489 15.052 16.584 15.5645 16.4539 16.0473C16.3239 16.5301 16.0361 16.9555 15.6363 17.2559C15.2366 17.5563 14.7479 17.7144 14.2479 17.705C12.5661 17.71 10.8846 17.71 9.20354 17.705C9.05307 17.705 8.99011 17.7349 9.00825 17.8949C9.02639 18.055 9.00825 18.245 9.00825 18.42C9.01661 18.5831 8.97126 18.7445 8.87913 18.8794C8.78699 19.0144 8.65316 19.1154 8.49815 19.167C8.4736 19.1766 8.44799 19.1766 8.44799 19.2075H8.03715C8.03715 19.1627 7.987 19.1574 7.95712 19.1424C7.81877 19.0815 7.70216 18.98 7.62271 18.8514C7.54325 18.7228 7.50468 18.5731 7.51211 18.4221C7.51211 18.2471 7.5025 18.0721 7.51211 17.8971C7.52171 17.7221 7.47156 17.7071 7.31682 17.7071C5.62006 17.7071 3.92864 17.7167 2.23188 17.7071C1.74744 17.7025 1.27739 17.5418 0.891548 17.2488C0.505708 16.9558 0.22466 16.5462 0.0901317 16.0808C-0.048383 15.6091 -0.0267566 15.1047 0.151634 14.6466C0.330024 14.1885 0.655128 13.8023 1.07617 13.5485C1.21581 13.473 1.3305 13.3586 1.40629 13.2192C1.48207 13.0797 1.51569 12.9213 1.50303 12.763C1.50303 11.2861 1.50303 9.81026 1.50303 8.33867C1.5039 7.99565 1.52743 7.65307 1.57346 7.31315C1.77938 5.86122 2.45234 4.51578 3.49063 3.48018C4.52892 2.44459 5.8761 1.77512 7.32856 1.57297C7.45876 1.55803 7.52918 1.52816 7.51424 1.37236C7.4993 1.16747 7.50464 0.961507 7.51424 0.75128C7.51323 0.599962 7.5582 0.451907 7.64319 0.326708C7.72818 0.20151 7.84918 0.105073 7.99019 0.0501689C8.02007 0.0352289 8.07022 0.0501557 8.07556 0C8.18548 0.00960429 8.31033 0.00960716 8.43625 0.00960716Z" fill="#121614"/>
<path d="M10.498 6.76194C10.4976 6.02006 10.7172 5.29473 11.129 4.67764C11.5408 4.06056 12.1264 3.57945 12.8116 3.29516C13.4969 3.01086 14.2511 2.93612 14.9788 3.08044C15.7065 3.22476 16.375 3.58164 16.8999 4.10593C17.4248 4.63022 17.7824 5.29839 17.9276 6.02593C18.0727 6.75347 17.9989 7.50771 17.7154 8.19327C17.4319 8.87884 16.9514 9.46494 16.3348 9.87746C15.7182 10.29 14.9931 10.5104 14.2512 10.5108C13.257 10.5094 12.3038 10.1141 11.6004 9.4115C10.897 8.70887 10.5006 7.75616 10.498 6.76194ZM14.2469 4.51028C13.8018 4.51134 13.367 4.64426 12.9974 4.89232C12.6278 5.14038 12.34 5.49241 12.1704 5.90394C12.0008 6.31547 11.957 6.76806 12.0445 7.20449C12.132 7.64092 12.3469 8.04161 12.662 8.35598C12.9771 8.67035 13.3783 8.88429 13.8149 8.97074C14.2516 9.05719 14.704 9.01229 15.1151 8.84171C15.5263 8.67113 15.8776 8.3825 16.1248 8.01233C16.372 7.64217 16.5039 7.20705 16.5039 6.76194C16.5008 6.16479 16.2619 5.59307 15.8391 5.17132C15.4164 4.74956 14.8441 4.51196 14.2469 4.51028Z" fill="#087965"/>
<path d="M3.1808 16.2111C2.87026 16.2111 2.55546 16.2207 2.24492 16.2111C2.08178 16.2113 1.92305 16.1581 1.79297 16.0597C1.6629 15.9612 1.56864 15.8229 1.52459 15.6658C1.47691 15.5088 1.48365 15.3404 1.54369 15.1878C1.60374 15.0351 1.71357 14.9073 1.85541 14.8249C2.07859 14.6997 2.28123 14.541 2.45621 14.3543C2.81148 13.9357 3.00128 13.4017 2.98978 12.8528C2.98978 11.3417 2.98018 9.82531 2.98978 8.31317C2.97275 7.4082 3.19414 6.51467 3.6317 5.72233C4.06927 4.92999 4.70762 4.26672 5.48263 3.79914C6.05335 3.42383 6.70169 3.18265 7.37895 3.09375C7.36401 3.18339 7.27224 3.19408 7.21355 3.22929C6.06855 3.97302 5.21199 5.08558 4.78578 6.38269C4.58618 6.97291 4.48489 7.59192 4.48593 8.21498C4.48593 9.77622 4.48593 11.3375 4.48593 12.904C4.49736 13.1556 4.43713 13.4053 4.31226 13.6241C4.1874 13.8428 4.00301 14.0217 3.78053 14.1398C3.4398 14.3286 3.18479 14.6412 3.06837 15.0129C2.95194 15.3847 2.98303 15.787 3.15519 16.1364C3.16867 16.1593 3.17738 16.1847 3.1808 16.2111Z" fill="#087965" fill-opacity="0.15"/>
<path d="M13.502 6.75801C13.5037 6.61065 13.5489 6.46704 13.632 6.34533C13.7151 6.22361 13.8324 6.12922 13.969 6.07398C14.1056 6.01875 14.2556 6.00516 14.3999 6.03494C14.5442 6.06472 14.6765 6.13654 14.7801 6.24134C14.8838 6.34615 14.9541 6.47924 14.9822 6.6239C15.0104 6.76857 14.9951 6.91834 14.9383 7.05434C14.8815 7.19034 14.7858 7.3065 14.6631 7.38821C14.5404 7.46992 14.3964 7.51352 14.249 7.51353C14.1502 7.51353 14.0524 7.49396 13.9612 7.45588C13.87 7.41781 13.7872 7.36202 13.7178 7.29175C13.6483 7.22148 13.5934 7.13811 13.5564 7.04649C13.5194 6.95487 13.5009 6.85683 13.502 6.75801Z" fill="#121614"/>
</svg>
