<svg width="28" height="24" viewBox="0 0 28 24" fill="none" xmlns="http://www.w3.org/2000/svg">
<path d="M23.6929 11.0663C23.5289 10.4803 23.3439 9.8603 23.1379 9.19331C22.5279 7.51152 22.1158 5.76442 21.9099 3.9873C21.9099 3.72209 22.0153 3.46773 22.2028 3.2802C22.3903 3.09266 22.6447 2.9873 22.9099 2.9873C23.1751 2.9873 23.4295 3.09266 23.617 3.2802C23.8045 3.46773 23.9099 3.72209 23.9099 3.9873C23.9099 4.25252 24.0153 4.50687 24.2028 4.69441C24.3903 4.88195 24.6447 4.9873 24.9099 4.9873C25.1751 4.9873 25.4295 4.88195 25.617 4.69441C25.8045 4.50687 25.9099 4.25252 25.9099 3.9873C25.9099 3.19166 25.5938 2.42859 25.0312 1.86598C24.4686 1.30338 23.7056 0.987305 22.9099 0.987305C22.1143 0.987305 21.3512 1.30338 20.7886 1.86598C20.226 2.42859 19.9099 3.19166 19.9099 3.9873C19.9347 4.7509 20.0416 5.50961 20.2289 6.2503L15.4289 9.9873L9.8809 5.9873H12.9099C13.1751 5.9873 13.4295 5.88195 13.617 5.69441C13.8045 5.50688 13.9099 5.25252 13.9099 4.9873C13.9099 4.72209 13.8045 4.46773 13.617 4.2802C13.4295 4.09266 13.1751 3.9873 12.9099 3.9873H9.8809C9.46547 3.98718 9.06064 4.11846 8.72434 4.36235C8.38803 4.60625 8.13749 4.95026 8.00855 5.34518C7.87961 5.7401 7.87888 6.16568 8.00647 6.56104C8.13406 6.95639 8.38343 7.30126 8.7189 7.5463L13.7899 11.2583L12.3519 12.3773C11.4587 11.5363 10.2852 11.0567 9.05867 11.0313C7.83213 11.0058 6.63977 11.4364 5.71247 12.2396C4.78516 13.0428 4.18887 14.1616 4.03905 15.3792C3.88922 16.5968 4.19652 17.8267 4.90145 18.8308C5.60637 19.8348 6.65878 20.5416 7.8549 20.8143C9.05102 21.087 10.3058 20.9061 11.3762 20.3068C12.4466 19.7074 13.2566 18.7322 13.6493 17.5699C14.042 16.4077 13.9895 15.1411 13.5019 14.0153L20.7909 8.3463C20.9319 8.8223 21.5179 10.7303 21.6469 11.1693C20.4516 11.4814 19.4144 12.2254 18.7357 13.2576C18.057 14.2898 17.785 15.537 17.9722 16.7581C18.1594 17.9791 18.7925 19.0875 19.7492 19.869C20.706 20.6505 21.9184 21.0497 23.1523 20.9894C24.3862 20.9291 25.5539 20.4136 26.4299 19.5425C27.3059 18.6714 27.8279 17.5066 27.8951 16.2731C27.9623 15.0395 27.57 13.8249 26.7939 12.8638C26.0177 11.9027 24.9129 11.2633 23.6929 11.0693V11.0663ZM8.9099 18.9873C8.31656 18.9873 7.73654 18.8114 7.24319 18.4817C6.74985 18.1521 6.36533 17.6835 6.13827 17.1354C5.9112 16.5872 5.85179 15.984 5.96755 15.402C6.0833 14.8201 6.36903 14.2855 6.78858 13.866C7.20814 13.4464 7.74269 13.1607 8.32463 13.0449C8.90658 12.9292 9.50978 12.9886 10.058 13.2157C10.6061 13.4427 11.0747 13.8272 11.4043 14.3206C11.734 14.8139 11.9099 15.394 11.9099 15.9873C11.9099 16.783 11.5938 17.546 11.0312 18.1086C10.4686 18.6712 9.70555 18.9873 8.9099 18.9873ZM22.9099 18.9873C22.3166 18.9873 21.7365 18.8114 21.2432 18.4817C20.7498 18.1521 20.3653 17.6835 20.1383 17.1354C19.9112 16.5872 19.8518 15.984 19.9675 15.402C20.0833 14.8201 20.369 14.2855 20.7886 13.866C21.2081 13.4464 21.7427 13.1607 22.3246 13.0449C22.9066 12.9292 23.5098 12.9886 24.058 13.2157C24.6061 13.4427 25.0747 13.8272 25.4043 14.3206C25.734 14.8139 25.9099 15.394 25.9099 15.9873C25.9099 16.783 25.5938 17.546 25.0312 18.1086C24.4686 18.6712 23.7056 18.9873 22.9099 18.9873Z" fill="#121614"/>
<path d="M3.95482 2.72925C3.95482 2.72925 1.00867 1.11524 1.00267 5.28424C0.996667 9.45324 1.00267 14.6332 1.00267 14.6332" stroke="#121614" stroke-width="1.5"/>
<path d="M3.9541 22.1169C3.9541 22.1169 1.00795 23.7309 1.00195 19.5619C1.00195 15.7979 1.00195 9.06184 1.00195 6.83984V8.58185" stroke="#121614" stroke-width="1.5"/>
</svg>
