<svg width="27" height="27" viewBox="0 0 27 27" fill="none" xmlns="http://www.w3.org/2000/svg">
<path d="M13.482 26.388H12.917C12.91 26.326 12.848 26.319 12.807 26.298C12.6161 26.2145 12.4552 26.0749 12.3457 25.8976C12.2362 25.7204 12.1833 25.5141 12.194 25.306C12.194 25.099 12.187 24.893 12.194 24.686C12.201 24.548 12.18 24.466 12.008 24.466C11.8208 24.4508 11.6345 24.4255 11.45 24.39C9.83783 24.1465 8.29816 23.5544 6.93826 22.6549C5.57836 21.7555 4.43096 20.5703 3.576 19.182C2.66127 17.7521 2.09919 16.1255 1.936 14.436C1.915 14.25 1.846 14.216 1.681 14.222C1.467 14.236 1.254 14.229 1.033 14.222C0.842567 14.2236 0.655423 14.1723 0.492447 14.0738C0.32947 13.9752 0.197065 13.8334 0.110001 13.664C0.0760006 13.609 0.076 13.526 0 13.506V12.886C0.055 12.879 0.0619926 12.831 0.0829926 12.796C0.167509 12.5913 0.315582 12.4192 0.505356 12.305C0.695129 12.1909 0.916556 12.1407 1.13699 12.162C1.31599 12.169 1.502 12.155 1.681 12.169C1.86 12.183 1.908 12.141 1.929 11.955C2.08299 10.484 2.53302 9.05947 3.252 7.767C3.28274 7.71755 3.29725 7.65972 3.29349 7.60162C3.28972 7.54352 3.26787 7.48806 3.231 7.44299C2.89555 6.8544 2.76275 6.17189 2.85306 5.50046C2.94336 4.82902 3.25175 4.20586 3.7308 3.72681C4.20986 3.24776 4.83302 2.93933 5.50446 2.84903C6.17589 2.75873 6.85841 2.89153 7.44701 3.22699C7.50127 3.26505 7.56566 3.28605 7.63193 3.28729C7.6982 3.28854 7.76334 3.26997 7.819 3.23398C9.04955 2.5572 10.3993 2.12462 11.794 1.95999C12.194 1.91199 12.194 1.91197 12.194 1.49197C12.194 1.33997 12.187 1.182 12.194 1.03C12.194 0.756826 12.3025 0.494829 12.4957 0.301666C12.6888 0.108504 12.9508 0 13.224 0C13.4972 0 13.7592 0.108504 13.9523 0.301666C14.1455 0.494829 14.254 0.756826 14.254 1.03C14.2607 1.27133 14.2607 1.51232 14.254 1.75299C14.247 1.86999 14.282 1.91799 14.406 1.92499C14.668 1.94599 14.936 1.98699 15.198 2.02499C17.5896 2.44425 19.7834 3.62032 21.4564 5.38007C23.1294 7.13982 24.1931 9.39025 24.491 11.8C24.539 12.165 24.539 12.165 24.911 12.165C24.9616 12.1684 25.0124 12.1684 25.063 12.165C25.3471 12.1068 25.6427 12.1528 25.8957 12.2946C26.1487 12.4363 26.3422 12.6643 26.441 12.937V13.454C26.4 13.461 26.4 13.495 26.386 13.53C26.3097 13.7464 26.1647 13.932 25.9732 14.0583C25.7816 14.1847 25.554 14.245 25.325 14.23C25.111 14.23 24.898 14.237 24.677 14.23C24.577 14.23 24.525 14.258 24.519 14.368C24.498 14.623 24.457 14.878 24.419 15.133C24.4021 15.2719 24.3572 15.4059 24.287 15.5269C24.2168 15.648 24.1228 15.7536 24.0107 15.8373C23.8986 15.921 23.7707 15.9811 23.6346 16.0139C23.4986 16.0468 23.3574 16.0517 23.2194 16.0284C23.0814 16.0052 22.9496 15.9542 22.8319 15.8785C22.7142 15.8028 22.6131 15.7041 22.5346 15.5882C22.4562 15.4724 22.402 15.3418 22.3754 15.2045C22.3489 15.0671 22.3504 14.9258 22.38 14.789L22.463 14.252C22.436 14.2425 22.4082 14.2355 22.38 14.231C21.064 14.231 19.748 14.231 18.433 14.224C18.288 14.224 18.268 14.3 18.24 14.403C18.0254 15.3254 17.5577 16.1697 16.8896 16.841C16.2215 17.5123 15.3794 17.984 14.458 18.203C14.313 18.244 14.258 18.303 14.258 18.458C14.265 19.567 14.265 20.676 14.265 21.778C14.265 21.985 14.196 22.26 14.299 22.378C14.402 22.496 14.678 22.357 14.878 22.337C14.911 22.3314 14.9445 22.3291 14.978 22.33C15.2345 22.3169 15.4868 22.3989 15.6865 22.5604C15.8862 22.7219 16.0192 22.9514 16.06 23.205C16.0976 23.4577 16.0392 23.7152 15.8963 23.927C15.7534 24.1387 15.5364 24.2893 15.288 24.349C15.0791 24.3962 14.8673 24.4296 14.654 24.449C14.268 24.497 14.268 24.497 14.268 24.876C14.2646 24.9196 14.2646 24.9634 14.268 25.007C14.3264 25.2933 14.2789 25.5911 14.1343 25.8451C13.9898 26.099 13.758 26.292 13.482 26.388ZM13.489 16.261C14.2624 16.2017 14.9848 15.8527 15.5119 15.2837C16.039 14.7146 16.3318 13.9676 16.3318 13.192C16.3318 12.4164 16.039 11.6693 15.5119 11.1003C14.9848 10.5313 14.2624 10.1823 13.489 10.123C13.4483 10.1126 13.4068 10.1056 13.365 10.102C12.9427 10.0823 12.5209 10.1495 12.1257 10.2995C11.7304 10.4495 11.3702 10.6791 11.0674 10.9741C10.7645 11.269 10.5255 11.623 10.3651 12.0141C10.2046 12.4052 10.1262 12.8251 10.1348 13.2478C10.1433 13.6704 10.2385 14.0868 10.4145 14.4712C10.5906 14.8555 10.8437 15.1996 11.1581 15.4821C11.4726 15.7646 11.8418 15.9795 12.2427 16.1135C12.6437 16.2475 13.0679 16.2977 13.489 16.261ZM12.173 22.42C12.1844 22.3912 12.1915 22.3609 12.194 22.33C12.194 21.014 12.194 19.705 12.201 18.39C12.201 18.245 12.118 18.225 12.015 18.197C11.0915 17.9845 10.2461 17.5176 9.57445 16.8491C8.90281 16.1807 8.43187 15.3374 8.215 14.415C8.181 14.284 8.139 14.215 7.981 14.222C6.713 14.229 5.453 14.229 4.181 14.222C4.036 14.222 3.974 14.229 4.002 14.415C4.17468 15.7733 4.65783 17.0735 5.414 18.215C6.15802 19.3735 7.15055 20.3519 8.31961 21.0792C9.48867 21.8065 10.805 22.2645 12.173 22.42ZM20.357 12.162H22.038C22.479 12.162 22.479 12.162 22.41 11.742C22.0914 9.77256 21.1491 7.95742 19.7218 6.56357C18.2944 5.16972 16.4574 4.27078 14.481 3.99899C14.295 3.97099 14.254 3.99899 14.254 4.19199C14.261 5.42499 14.261 6.66498 14.254 7.89798C14.254 8.08398 14.309 8.153 14.495 8.198C15.4023 8.418 16.2312 8.88444 16.8901 9.54584C17.549 10.2072 18.0124 11.0378 18.229 11.946C18.27 12.104 18.329 12.166 18.498 12.16C19.117 12.155 19.737 12.162 20.357 12.162ZM6.076 12.162C6.71 12.162 7.34999 12.155 7.98399 12.162C8.01033 12.1667 8.03735 12.1658 8.06335 12.1596C8.08936 12.1533 8.11378 12.1418 8.1351 12.1256C8.15642 12.1095 8.17416 12.0891 8.18723 12.0657C8.20029 12.0424 8.20838 12.0166 8.211 11.99C8.42577 11.0598 8.89834 10.209 9.57452 9.53513C10.2507 8.86125 11.1031 8.39159 12.034 8.17999C12.134 8.15199 12.192 8.12499 12.192 7.99399C12.185 6.69399 12.185 5.40399 12.192 4.10199C12.192 3.98499 12.158 3.964 12.04 3.978C11.0079 4.11422 10.005 4.41822 9.071 4.87799C8.919 4.95399 8.88499 5.01599 8.92599 5.18799C9.04906 5.70224 9.03785 6.23948 8.89342 6.74814C8.74899 7.2568 8.47621 7.71978 8.10126 8.09262C7.72631 8.46546 7.26179 8.73564 6.75232 8.8772C6.24285 9.01876 5.70555 9.02697 5.192 8.901C5.027 8.867 4.972 8.901 4.903 9.039C4.44254 9.97028 4.13849 10.971 4.00301 12.001C3.98201 12.166 4.051 12.159 4.161 12.159C4.8 12.162 5.435 12.162 6.076 12.162ZM4.89999 5.91098C4.8992 6.11503 4.95904 6.31472 5.07191 6.48471C5.18479 6.65471 5.34561 6.78736 5.53398 6.86581C5.72235 6.94427 5.92979 6.965 6.12996 6.92538C6.33013 6.88577 6.51402 6.7876 6.65831 6.64331C6.8026 6.49902 6.90078 6.3151 6.9404 6.11493C6.98001 5.91476 6.95928 5.70735 6.88083 5.51898C6.80238 5.33061 6.66973 5.16979 6.49974 5.05692C6.32975 4.94404 6.13005 4.88419 5.92599 4.88498C5.79074 4.88309 5.65647 4.90836 5.53114 4.95926C5.40581 5.01015 5.29195 5.08565 5.1963 5.1813C5.10065 5.27696 5.02515 5.39081 4.97426 5.51614C4.92336 5.64148 4.89811 5.77572 4.89999 5.91098Z" fill="#121614"/>
<path d="M13.4891 10.1227C13.2961 10.4467 13.0141 10.7017 12.8141 11.0227C12.3568 11.7641 12.1458 12.6312 12.2113 13.4999C12.2769 14.3686 12.6157 15.1943 13.1791 15.8587C13.3047 15.9755 13.4096 16.1128 13.4891 16.2647C13.0681 16.3017 12.644 16.2518 12.243 16.1182C11.842 15.9846 11.4728 15.7701 11.1581 15.4879C10.8434 15.2058 10.59 14.8621 10.4136 14.478C10.2372 14.0939 10.1415 13.6777 10.1325 13.2552C10.1235 12.8326 10.2014 12.4127 10.3613 12.0215C10.5212 11.6303 10.7598 11.2761 11.0622 10.9808C11.3646 10.6855 11.7244 10.4555 12.1194 10.305C12.5143 10.1544 12.9359 10.0866 13.3581 10.1057L13.4891 10.1227Z" fill="#087965" fill-opacity="0.15"/>
<path d="M23.6222 20.4836C23.625 20.8911 23.5464 21.2951 23.391 21.6717C23.2355 22.0484 23.0062 22.3902 22.7168 22.6771C22.4273 22.9639 22.0835 23.19 21.7054 23.3421C21.3273 23.4942 20.9227 23.5691 20.5152 23.5625C19.9055 23.5584 19.3106 23.3737 18.8058 23.0318C18.3009 22.6899 17.9086 22.2061 17.6785 21.6414C17.4483 21.0768 17.3906 20.4566 17.5126 19.8592C17.6346 19.2618 17.9309 18.7139 18.364 18.2847C18.7971 17.8555 19.3476 17.5641 19.9461 17.4476C20.5446 17.331 21.1643 17.3943 21.7268 17.6296C22.2893 17.8648 22.7696 18.2615 23.1069 18.7694C23.4443 19.2773 23.6236 19.8738 23.6222 20.4836ZM21.5552 20.4906C21.5575 20.3546 21.5326 20.2195 21.482 20.0932C21.4314 19.9669 21.3561 19.852 21.2606 19.7551C21.165 19.6583 21.0512 19.5815 20.9256 19.5292C20.8 19.4769 20.6652 19.4501 20.5292 19.4506C20.2547 19.4549 19.9927 19.5659 19.7986 19.76C19.6045 19.9541 19.4936 20.2161 19.4892 20.4906C19.4916 20.7608 19.6008 21.019 19.7931 21.2089C19.9854 21.3987 20.245 21.5047 20.5152 21.5036C20.6509 21.509 20.7864 21.4867 20.9132 21.4381C21.0401 21.3895 21.1557 21.3155 21.253 21.2207C21.3504 21.1259 21.4274 21.0123 21.4793 20.8868C21.5313 20.7612 21.5571 20.6264 21.5552 20.4906Z" fill="#087965"/>
</svg>
