<svg width="18" height="19" viewBox="0 0 18 19" fill="none" xmlns="http://www.w3.org/2000/svg">
<path d="M15.2 1.9H14.25V0.95C14.25 0.4275 13.8225 0 13.3 0C12.7775 0 12.35 0.4275 12.35 0.95V1.9H4.75V0.95C4.75 0.4275 4.3225 0 3.8 0C3.2775 0 2.85 0.4275 2.85 0.95V1.9H1.9C0.8455 1.9 0.00949999 2.755 0.00949999 3.8L0 17.1C0 18.145 0.8455 19 1.9 19H15.2C16.245 19 17.1 18.145 17.1 17.1V3.8C17.1 2.755 16.245 1.9 15.2 1.9ZM15.2 16.15C15.2 16.6725 14.7725 17.1 14.25 17.1H2.85C2.3275 17.1 1.9 16.6725 1.9 16.15V6.65H15.2V16.15ZM3.8 8.55H5.7V10.45H3.8V8.55ZM7.6 8.55H9.5V10.45H7.6V8.55ZM11.4 8.55H13.3V10.45H11.4V8.55Z" fill="#6F7C8E"/>
</svg>
