<svg width="10" height="16" viewBox="0 0 10 16" fill="none" xmlns="http://www.w3.org/2000/svg">
<path d="M9.3634 13.3904C9.38 13.6008 9.35086 13.8122 9.278 14.0103C9.20514 14.2084 9.09027 14.3883 8.94129 14.5378C8.79231 14.6872 8.61274 14.8027 8.41492 14.8762C8.21711 14.9497 8.00573 14.9796 7.79529 14.9637H2.55232C2.34508 14.9771 2.13736 14.9461 1.94308 14.8727C1.7488 14.7993 1.57245 14.6853 1.42584 14.5382C1.27924 14.3911 1.16577 14.2143 1.09304 14.0198C1.0203 13.8253 0.989985 13.6175 1.00412 13.4103V2.56676C0.988382 2.35786 1.01786 2.14803 1.09057 1.95156C1.16327 1.75509 1.27747 1.5766 1.4254 1.42827C1.57332 1.27993 1.7515 1.16522 1.94776 1.09197C2.14403 1.01873 2.35378 0.988664 2.56272 1.00382H7.80567C8.01451 0.989104 8.22406 1.01947 8.42013 1.09287C8.6162 1.16627 8.79419 1.28098 8.94202 1.42922C9.08985 1.57746 9.20406 1.75577 9.27692 1.95203C9.34977 2.1483 9.37957 2.35796 9.36428 2.56676L9.3634 13.3904ZM8.84388 2.51219C8.85652 2.28278 8.78396 2.05679 8.64012 1.87762C8.49627 1.69846 8.29129 1.57876 8.06457 1.54153C7.92269 1.52415 7.77957 1.51922 7.63683 1.52681C7.34849 1.52681 7.34848 1.52681 7.34848 1.81515C7.35487 1.92136 7.33943 2.02775 7.30314 2.12776C7.26684 2.22777 7.21045 2.31929 7.13744 2.39669C7.06443 2.47408 6.97635 2.53569 6.87862 2.57775C6.78089 2.6198 6.67558 2.64141 6.56919 2.64122C5.64557 2.64642 4.71964 2.64642 3.79141 2.64122C3.6034 2.63722 3.42297 2.56632 3.28252 2.44126C3.14207 2.31621 3.05081 2.1452 3.0251 1.95891C3.00519 1.8143 3.09957 1.61253 2.97488 1.54586C2.85019 1.47919 2.67095 1.53114 2.51682 1.53114C2.38248 1.52224 2.2478 1.54241 2.12195 1.59025C1.99611 1.63809 1.88206 1.71249 1.78756 1.80839C1.69306 1.90429 1.62034 2.01941 1.57435 2.14594C1.52836 2.27247 1.51018 2.40743 1.52105 2.54163V13.4354C1.50946 13.571 1.52763 13.7075 1.57431 13.8354C1.62099 13.9633 1.69505 14.0794 1.7913 14.1756C1.88755 14.2719 2.00367 14.3459 2.13153 14.3926C2.2594 14.4393 2.39592 14.4575 2.53154 14.4459H7.81347C7.95254 14.4589 8.09276 14.4408 8.22399 14.3929C8.35522 14.3451 8.4742 14.2687 8.5723 14.1693C8.6704 14.0699 8.74518 13.9499 8.79125 13.818C8.83732 13.6861 8.85353 13.5457 8.83869 13.4068L8.84388 2.51219ZM5.20715 1.52596H3.68837C3.63814 1.52596 3.57407 1.49132 3.54377 1.56578C3.51327 1.62553 3.49897 1.69224 3.5023 1.75924C3.50563 1.82624 3.52647 1.89119 3.56274 1.94762C3.59902 2.00405 3.64946 2.04998 3.70903 2.08083C3.7686 2.11168 3.83523 2.12634 3.90225 2.1234H6.38128C6.76487 2.1234 6.81423 2.06366 6.82462 1.68007C6.82982 1.54066 6.77527 1.52076 6.65145 1.52076C6.17175 1.53115 5.68944 1.52334 5.20108 1.52334L5.20715 1.52596Z" fill="#087965"/>
<path d="M3.69006 13.27C3.62277 13.2721 3.55555 13.2637 3.4909 13.2449C3.46153 13.2384 3.43377 13.2261 3.40916 13.2088C3.38456 13.1915 3.3636 13.1695 3.34751 13.144C3.33143 13.1186 3.32049 13.0903 3.31538 13.0606C3.31027 13.031 3.31109 13.0006 3.31773 12.9713C3.32054 12.915 3.3438 12.8616 3.38319 12.8213C3.42258 12.7809 3.47536 12.7564 3.53159 12.7522C3.59283 12.7455 3.65452 12.7438 3.71603 12.747H6.76829C6.80251 12.744 6.83696 12.7481 6.86955 12.759C6.90214 12.7698 6.93218 12.7872 6.95781 12.81C6.98343 12.8329 7.00409 12.8608 7.01856 12.8919C7.03302 12.9231 7.04098 12.9569 7.04192 12.9912C7.04454 13.0269 7.03976 13.0627 7.02789 13.0965C7.01601 13.1302 6.99728 13.1612 6.9729 13.1873C6.94851 13.2135 6.919 13.2344 6.88617 13.2486C6.85334 13.2628 6.81791 13.2701 6.78214 13.27C6.73917 13.2725 6.6961 13.2725 6.65313 13.27H3.69006Z" fill="#087965"/>
<path d="M9.3634 13.3904C9.38 13.6008 9.35086 13.8122 9.278 14.0103C9.20514 14.2084 9.09027 14.3883 8.94129 14.5378C8.79231 14.6872 8.61274 14.8027 8.41492 14.8762C8.21711 14.9497 8.00573 14.9796 7.79529 14.9637H2.55232C2.34508 14.9771 2.13736 14.9461 1.94308 14.8727C1.7488 14.7993 1.57245 14.6853 1.42584 14.5382C1.27924 14.3911 1.16577 14.2143 1.09304 14.0198C1.0203 13.8253 0.989985 13.6175 1.00412 13.4103V2.56676C0.988382 2.35786 1.01786 2.14803 1.09057 1.95156C1.16327 1.75509 1.27747 1.5766 1.4254 1.42827C1.57332 1.27993 1.7515 1.16522 1.94776 1.09197C2.14403 1.01873 2.35378 0.988664 2.56272 1.00382H7.80567C8.01451 0.989104 8.22406 1.01947 8.42013 1.09287C8.6162 1.16627 8.79419 1.28098 8.94202 1.42922C9.08985 1.57746 9.20406 1.75577 9.27692 1.95203C9.34977 2.1483 9.37957 2.35796 9.36428 2.56676L9.3634 13.3904ZM8.84388 2.51219C8.85652 2.28278 8.78396 2.05679 8.64012 1.87762C8.49627 1.69846 8.29129 1.57876 8.06457 1.54153C7.92269 1.52415 7.77957 1.51922 7.63683 1.52681C7.34849 1.52681 7.34848 1.52681 7.34848 1.81515C7.35487 1.92136 7.33943 2.02775 7.30314 2.12776C7.26684 2.22777 7.21045 2.31929 7.13744 2.39669C7.06443 2.47408 6.97635 2.53569 6.87862 2.57775C6.78089 2.6198 6.67558 2.64141 6.56919 2.64122C5.64557 2.64642 4.71964 2.64642 3.79141 2.64122C3.6034 2.63722 3.42297 2.56632 3.28252 2.44126C3.14207 2.31621 3.05081 2.1452 3.0251 1.95891C3.00519 1.8143 3.09957 1.61253 2.97488 1.54586C2.85019 1.47919 2.67095 1.53114 2.51682 1.53114C2.38248 1.52224 2.2478 1.54241 2.12195 1.59025C1.99611 1.63809 1.88206 1.71249 1.78756 1.80839C1.69306 1.90429 1.62034 2.01941 1.57435 2.14594C1.52836 2.27247 1.51018 2.40743 1.52105 2.54163V13.4354C1.50946 13.571 1.52763 13.7075 1.57431 13.8354C1.62099 13.9633 1.69505 14.0794 1.7913 14.1756C1.88755 14.2719 2.00367 14.3459 2.13153 14.3926C2.2594 14.4393 2.39592 14.4575 2.53154 14.4459H7.81347C7.95254 14.4589 8.09276 14.4408 8.22399 14.3929C8.35522 14.3451 8.4742 14.2687 8.5723 14.1693C8.6704 14.0699 8.74518 13.9499 8.79125 13.818C8.83732 13.6861 8.85353 13.5457 8.83869 13.4068L8.84388 2.51219ZM5.20715 1.52596H3.68837C3.63814 1.52596 3.57407 1.49132 3.54377 1.56578C3.51327 1.62553 3.49897 1.69224 3.5023 1.75924C3.50563 1.82624 3.52647 1.89119 3.56274 1.94762C3.59902 2.00405 3.64946 2.04998 3.70903 2.08083C3.7686 2.11168 3.83523 2.12634 3.90225 2.1234H6.38128C6.76487 2.1234 6.81423 2.06366 6.82462 1.68007C6.82982 1.54066 6.77527 1.52076 6.65145 1.52076C6.17175 1.53115 5.68944 1.52334 5.20108 1.52334L5.20715 1.52596Z" stroke="#087965" stroke-width="0.5"/>
<path d="M3.69006 13.27C3.62277 13.2721 3.55555 13.2637 3.4909 13.2449C3.46153 13.2384 3.43377 13.2261 3.40916 13.2088C3.38456 13.1915 3.3636 13.1695 3.34751 13.144C3.33143 13.1186 3.32049 13.0903 3.31538 13.0606C3.31027 13.031 3.31109 13.0006 3.31773 12.9713C3.32054 12.915 3.3438 12.8616 3.38319 12.8213C3.42258 12.7809 3.47536 12.7564 3.53159 12.7522C3.59283 12.7455 3.65452 12.7438 3.71603 12.747H6.76829C6.80251 12.744 6.83696 12.7481 6.86955 12.759C6.90214 12.7698 6.93218 12.7872 6.95781 12.81C6.98343 12.8329 7.00409 12.8608 7.01856 12.8919C7.03302 12.9231 7.04098 12.9569 7.04192 12.9912C7.04454 13.0269 7.03976 13.0627 7.02789 13.0965C7.01601 13.1302 6.99728 13.1612 6.9729 13.1873C6.94851 13.2135 6.919 13.2344 6.88617 13.2486C6.85334 13.2628 6.81791 13.2701 6.78214 13.27C6.73917 13.2725 6.6961 13.2725 6.65313 13.27H3.69006Z" stroke="#087965" stroke-width="0.5"/>
</svg>
