<svg width="14" height="22" viewBox="0 0 14 22" fill="none" xmlns="http://www.w3.org/2000/svg">
<path d="M12.9743 10.9925V18.7412C12.998 19.0425 12.9563 19.3453 12.8519 19.6289C12.7475 19.9125 12.583 20.1701 12.3697 20.3842C12.1564 20.5982 11.8992 20.7635 11.616 20.8688C11.3327 20.9741 11.0301 21.0168 10.7287 20.9941H3.22258C2.92569 21.0141 2.62797 20.9702 2.34947 20.8654C2.07097 20.7606 1.81816 20.5974 1.6081 20.3866C1.39804 20.1759 1.2356 19.9225 1.13173 19.6437C1.02786 19.3649 0.984969 19.067 1.00595 18.7702V3.24382C0.983308 2.94471 1.02543 2.64422 1.12944 2.36287C1.23345 2.08152 1.3969 1.82591 1.60867 1.61346C1.82043 1.40101 2.07552 1.23671 2.35653 1.13179C2.63755 1.02686 2.93789 0.983778 3.23707 1.00546H10.7432C11.0422 0.984392 11.3423 1.0279 11.623 1.13304C11.9038 1.23818 12.1586 1.40249 12.3702 1.61481C12.5819 1.82713 12.7453 2.08249 12.8496 2.36356C12.9538 2.64463 12.9963 2.94485 12.9743 3.24382V10.9925ZM12.2258 10.9925V3.16598C12.2441 2.83794 12.1407 2.51467 11.9354 2.25813C11.7302 2.00159 11.4375 1.82981 11.1134 1.77571C10.9102 1.7506 10.7051 1.74335 10.5006 1.754C10.087 1.754 10.087 1.754 10.087 2.16764C10.0958 2.31936 10.0737 2.47128 10.0218 2.61415C9.96997 2.75701 9.88954 2.88781 9.78542 2.99853C9.68131 3.10926 9.55571 3.19759 9.4163 3.25813C9.27689 3.31866 9.12659 3.35012 8.97461 3.3506C7.6471 3.35784 6.3211 3.35784 4.99661 3.3506C4.72794 3.34431 4.47029 3.24258 4.26978 3.06364C4.06928 2.88469 3.93902 2.64023 3.90233 2.374C3.87336 2.16763 4.00914 1.8825 3.83083 1.78203C3.667 1.68247 3.39637 1.76032 3.17461 1.76032C2.98219 1.74773 2.78932 1.77673 2.60912 1.84537C2.42892 1.91401 2.26562 2.02069 2.13035 2.15811C1.99507 2.29553 1.89099 2.46048 1.8252 2.64174C1.7594 2.823 1.73343 3.01632 1.74906 3.20852V18.8055C1.73206 18.9999 1.75785 19.1957 1.82462 19.3792C1.89138 19.5626 1.9975 19.7292 2.13553 19.8672C2.27355 20.0052 2.44013 20.1113 2.62355 20.1781C2.80697 20.2449 3.00278 20.2707 3.19723 20.2537H10.7604C10.959 20.2721 11.1593 20.2463 11.3468 20.1781C11.5343 20.1099 11.7043 20.001 11.8447 19.8592C11.9851 19.7174 12.0923 19.5463 12.1587 19.3582C12.225 19.1701 12.2489 18.9696 12.2285 18.7711L12.2258 10.9925ZM7.01502 1.754H4.84817C4.77667 1.754 4.68435 1.70421 4.64181 1.81101C4.59822 1.89655 4.57781 1.99203 4.58261 2.08792C4.58742 2.18381 4.61726 2.27675 4.66918 2.35751C4.7211 2.43827 4.79327 2.50403 4.87851 2.54821C4.96375 2.59239 5.05909 2.61345 5.15501 2.60931H8.70488C9.25338 2.60931 9.32488 2.52334 9.33846 1.97575C9.3457 1.77572 9.26696 1.74764 9.09589 1.74764C8.40529 1.76122 7.71377 1.754 7.01502 1.754Z" fill="#121614" stroke="#121614" stroke-width="0.5"/>
<path d="M6.95891 18.5647H4.85632C4.76002 18.5679 4.66381 18.556 4.57121 18.5294C4.48731 18.5091 4.41479 18.4566 4.36938 18.3833C4.32396 18.3099 4.30931 18.2215 4.32863 18.1374C4.33264 18.0567 4.36609 17.9803 4.42263 17.9226C4.47917 17.8649 4.5549 17.8299 4.63549 17.8243C4.72294 17.8148 4.81101 17.8123 4.89886 17.817H9.26877C9.31771 17.8129 9.36698 17.8189 9.41356 17.8344C9.46015 17.85 9.50308 17.8749 9.53974 17.9076C9.5764 17.9402 9.60604 17.98 9.62683 18.0245C9.64762 18.069 9.65912 18.1173 9.66067 18.1664C9.66403 18.2179 9.65675 18.2695 9.63926 18.318C9.62177 18.3665 9.59448 18.4109 9.55905 18.4483C9.52362 18.4858 9.48082 18.5155 9.43337 18.5357C9.38591 18.5559 9.33481 18.5661 9.28324 18.5656C9.22295 18.569 9.16253 18.569 9.10224 18.5656L6.95891 18.5647Z" fill="#121614" stroke="#121614" stroke-width="0.5"/>
</svg>
