<svg width="28" height="28" viewBox="0 0 28 28" fill="none" xmlns="http://www.w3.org/2000/svg">
<path d="M27.44 13.3127V15.4257C27.372 15.4477 27.393 15.5067 27.386 15.5547C27.336 15.9117 27.297 16.2697 27.237 16.6247C26.7295 19.3305 25.3922 21.8112 23.4109 23.7225C21.4295 25.6338 18.9023 26.8809 16.18 27.2907C15.8502 27.3069 15.5227 27.3548 15.202 27.4337H13.136C12.9124 27.3584 12.678 27.32 12.442 27.3197C9.39705 26.9175 6.59079 25.4565 4.515 23.1927C2.70428 21.2879 1.52594 18.8705 1.14101 16.2707C1.13237 15.9843 1.08493 15.7004 1 15.4267V13.3647C1.061 13.3367 1.045 13.2797 1.05 13.2307C1.28974 9.97474 2.72761 6.92311 5.08586 4.66533C7.44411 2.40754 10.5554 1.10378 13.8187 1.00593C17.0821 0.908086 20.2659 2.02308 22.7552 4.13551C25.2445 6.24795 26.8626 9.20793 27.297 12.4437C27.3052 12.7385 27.3533 13.0309 27.44 13.3127ZM11.431 24.9557C11.4779 24.976 11.526 24.9934 11.575 25.0077C13.1361 25.3773 14.7573 25.4154 16.334 25.1197C19.1652 24.6219 21.6867 23.0299 23.3535 20.6878C25.0202 18.3457 25.6982 15.4417 25.241 12.6037C24.8949 9.93047 23.5379 7.49135 21.449 5.7877C20.1197 4.62477 18.5272 3.80292 16.8091 3.39314C15.0911 2.98336 13.2991 2.99798 11.588 3.43571C11.546 3.44059 11.5043 3.4476 11.463 3.45671C8.77198 4.12554 6.43458 5.78971 4.922 8.11372C4.03843 9.46683 3.45903 10.9955 3.22377 12.5944C2.98851 14.1932 3.10302 15.824 3.55937 17.3743C4.01573 18.9246 4.80305 20.3574 5.86702 21.5737C6.93099 22.7901 8.24625 23.7611 9.722 24.4197C10.2653 24.6736 10.84 24.8538 11.431 24.9557Z" fill="#121614" stroke="#121614"/>
<path d="M11.5908 3.43457C11.4208 3.69257 11.1178 3.76057 10.8778 3.91257C9.12237 5.0106 7.67257 6.53399 6.66274 8.34155C5.92727 9.64511 5.44735 11.0771 5.24874 12.5605C4.92579 14.8327 5.25959 17.1499 6.21075 19.2386C6.90138 20.7695 7.90175 22.1406 9.14875 23.2656C9.79628 23.8562 10.5085 24.3718 11.2718 24.8026C11.3378 24.8396 11.4178 24.8636 11.4318 24.9556C10.8398 24.8535 10.264 24.6729 9.71975 24.4186C8.244 23.76 6.92874 22.7889 5.86477 21.5726C4.8008 20.3562 4.01347 18.9234 3.55712 17.3732C3.10077 15.8229 2.98626 14.1921 3.22152 12.5933C3.45678 10.9944 4.03618 9.46566 4.91975 8.11255C6.43211 5.78833 8.7696 4.12412 11.4607 3.45557C11.5027 3.44457 11.5488 3.44157 11.5908 3.43457Z" fill="#087965" fill-opacity="0.15"/>
<path d="M8.19769 7.23047C8.35524 7.23155 8.51084 7.26527 8.65472 7.32947C8.7986 7.39366 8.92764 7.48699 9.03369 7.60352C9.88369 8.45552 10.7353 9.30581 11.5887 10.1545C14.674 13.2331 17.7594 16.3115 20.8447 19.3895C20.9981 19.5154 21.1136 19.6815 21.1782 19.8691C21.2428 20.0568 21.2541 20.2588 21.2107 20.4525C21.1717 20.6231 21.0898 20.781 20.9727 20.911C20.8556 21.0411 20.7072 21.139 20.5416 21.1956C20.376 21.2522 20.1987 21.2656 20.0265 21.2344C19.8543 21.2032 19.6929 21.1286 19.5577 21.0175C19.4986 20.9679 19.4422 20.9151 19.3887 20.8595L7.59768 9.09052C7.38795 8.92758 7.24881 8.69032 7.20898 8.42773C7.16916 8.16515 7.23171 7.8973 7.38369 7.6795C7.47288 7.54435 7.59356 7.43289 7.73535 7.35468C7.87714 7.27646 8.0358 7.23381 8.19769 7.23047Z" fill="#087965" stroke="#087965"/>
</svg>
