<svg width="30" height="15" viewBox="0 0 30 15" fill="none" xmlns="http://www.w3.org/2000/svg">
<path d="M1.00011 7.14899C1.08211 7.11799 1.07611 7.03301 1.10511 6.97101C1.1916 6.76878 1.32932 6.59259 1.50469 6.45984C1.68005 6.32709 1.887 6.24235 2.10511 6.21399C2.88711 6.09299 3.6811 6.054 4.4551 5.875C5.35983 5.60274 6.22946 5.22515 7.0461 4.75C7.82015 4.30877 8.65616 3.9865 9.5261 3.79401C9.83879 3.73313 10.1558 3.69668 10.4741 3.685C11.9591 3.674 13.4441 3.662 14.9281 3.685C16.026 3.71604 17.0929 4.0553 18.0071 4.664C19.0071 5.304 20.0181 5.93903 21.0201 6.58203C21.1784 6.6869 21.3632 6.74479 21.5531 6.74903C23.3113 6.77232 25.0581 7.0354 26.7451 7.53101C27.0451 7.62601 27.3451 7.74202 27.6371 7.86402C27.9703 7.99026 28.2662 8.19873 28.4972 8.4701C28.7282 8.74146 28.8867 9.06689 28.9581 9.41602C28.9661 9.45202 28.9681 9.48697 29.0121 9.49597V11.735C29.0009 11.823 28.9628 11.9054 28.9031 11.971C28.6971 12.471 26.6391 12.807 26.0941 12.851C26.0397 12.8586 25.9843 12.8554 25.931 12.8416C25.8778 12.8278 25.8279 12.8035 25.784 12.7704C25.7402 12.7372 25.7033 12.6957 25.6755 12.6483C25.6478 12.6009 25.6296 12.5485 25.6221 12.494C25.6147 12.4397 25.6186 12.3843 25.6335 12.3315C25.6484 12.2787 25.674 12.2296 25.7087 12.1871C25.7434 12.1446 25.7864 12.1097 25.8352 12.0846C25.884 12.0595 25.9374 12.0446 25.9921 12.041C26.3281 11.972 28.1691 11.79 28.1811 11.448C28.2001 10.93 28.1811 10.411 28.1921 9.89203C28.1921 9.76403 28.1361 9.74202 28.0261 9.74402C27.7981 9.74902 27.5701 9.75102 27.3421 9.74402C27.0421 9.73302 26.8701 9.57102 26.8761 9.32202C26.8821 9.07302 27.0501 8.937 27.3371 8.922C27.4601 8.922 27.5841 8.922 27.7541 8.922C27.644 8.7817 27.4947 8.6773 27.3251 8.62201C26.2014 8.17104 25.021 7.87692 23.8171 7.74799C22.4864 7.5918 21.1466 7.52665 19.8071 7.55298C17.1271 7.55998 14.4471 7.55298 11.7671 7.55298C11.6761 7.55298 9.4771 7.553 9.3861 7.547C9.33291 7.54628 9.2804 7.53506 9.23154 7.51404C9.18268 7.49302 9.13844 7.46262 9.10134 7.4245C9.06424 7.38638 9.03501 7.34135 9.01532 7.29193C8.99564 7.24252 8.98589 7.18966 8.98661 7.13648C8.98733 7.08329 8.99852 7.0308 9.01954 6.98194C9.04056 6.93308 9.071 6.88885 9.10912 6.85175C9.14724 6.81465 9.19229 6.78544 9.2417 6.76575C9.29112 6.74606 9.34391 6.73628 9.3971 6.737C9.7711 6.725 12.2531 6.725 12.6261 6.737C12.7911 6.742 12.8461 6.699 12.8431 6.526C12.8321 5.917 12.8431 5.30702 12.8381 4.69702C12.8381 4.60602 12.8771 4.48099 12.7101 4.48499C11.654 4.44076 10.5961 4.48394 9.54711 4.61402C9.4144 4.6208 9.28894 4.67664 9.19507 4.77069C9.10121 4.86475 9.04562 4.99027 9.0391 5.12299C8.9651 5.58799 8.83911 6.04603 8.73011 6.50403C8.69111 6.66603 8.7171 6.738 8.9011 6.732C9.1651 6.723 9.43011 6.726 9.69411 6.732C9.98311 6.74 10.1441 6.88802 10.1491 7.13202C10.1525 7.18932 10.1434 7.24665 10.1223 7.30005C10.1012 7.35345 10.0687 7.40157 10.0271 7.4411C9.98549 7.48063 9.93573 7.51065 9.88132 7.52893C9.82691 7.54722 9.76915 7.55337 9.7121 7.547C9.28414 7.57465 8.85451 7.56128 8.4291 7.50702C7.81623 7.38647 7.26179 7.06307 6.85511 6.58899C6.68111 6.40399 6.5131 6.13599 6.3001 6.08899C6.1071 6.04499 5.85811 6.247 5.63511 6.344C4.77465 6.67019 3.87038 6.86637 2.95211 6.92603C2.73511 6.95203 2.51711 6.97202 2.30111 7.00702C2.23216 7.00688 2.16398 7.02161 2.10123 7.05017C2.03848 7.07874 1.98263 7.12045 1.93746 7.17255C1.89229 7.22464 1.85887 7.28589 1.83948 7.35205C1.8201 7.41822 1.8152 7.4878 1.82511 7.55603V7.58301C1.82511 8.01601 1.8251 8.01603 2.2421 8.04303C2.5271 8.06103 2.69511 8.21 2.70011 8.443C2.70511 8.676 2.53011 8.84301 2.23011 8.85901C1.83011 8.87501 1.8301 8.87498 1.8301 9.27698C1.8301 9.53198 1.8301 9.78602 1.8301 10.041C1.81979 10.2478 1.8811 10.4519 2.0037 10.6187C2.12629 10.7856 2.30267 10.9051 2.5031 10.957C3.0161 11.112 3.53311 11.252 4.05811 11.401C4.09711 11.207 4.1251 11.019 4.1751 10.837C4.34767 10.2327 4.73324 9.71149 5.26049 9.36957C5.78773 9.02766 6.42097 8.88825 7.04305 8.97718C7.66513 9.0661 8.23397 9.37728 8.64431 9.85321C9.05465 10.3291 9.27873 10.9376 9.27511 11.566C9.26811 11.981 9.2681 11.981 9.6931 11.981H20.8241C21.1961 11.981 21.1961 11.981 21.1861 11.617C21.1586 10.9933 21.3564 10.3805 21.7434 9.89063C22.1303 9.40074 22.6807 9.06646 23.2938 8.94886C23.9069 8.83125 24.5419 8.9382 25.0827 9.25012C25.6234 9.56205 26.0339 10.0582 26.2391 10.6478C26.4443 11.2374 26.4305 11.8812 26.2002 12.4614C25.9699 13.0417 25.5385 13.5197 24.9849 13.8082C24.4312 14.0966 23.7922 14.1762 23.1847 14.0324C22.5772 13.8886 22.0417 13.5311 21.6761 13.025C21.6314 12.9494 21.5664 12.8878 21.4884 12.8473C21.4105 12.8068 21.3227 12.7891 21.2351 12.796C17.2238 12.8027 13.2128 12.8027 9.20211 12.796C9.12345 12.789 9.04438 12.804 8.97374 12.8393C8.90311 12.8746 8.84368 12.9288 8.8021 12.996C8.5365 13.3755 8.17404 13.677 7.75243 13.8689C7.33082 14.0608 6.86548 14.1363 6.40482 14.0874C5.94416 14.0385 5.50502 13.867 5.13311 13.5908C4.76119 13.3146 4.4701 12.9439 4.2901 12.517C4.26392 12.4422 4.21902 12.3754 4.15967 12.3229C4.10033 12.2704 4.02852 12.2339 3.9511 12.217C3.4151 12.073 2.88311 11.917 2.35111 11.768C2.05759 11.6973 1.78709 11.5525 1.56545 11.3475C1.34381 11.1425 1.17843 10.8841 1.0851 10.597C1.0691 10.55 1.0781 10.483 1.0071 10.467C1.00177 9.36498 0.999445 8.25899 1.00011 7.14899ZM19.6251 6.73603L19.6511 6.672C18.7981 6.142 17.9601 5.58799 17.0881 5.08899C16.071 4.58493 14.9327 4.37704 13.8031 4.48902C13.6181 4.49402 13.6601 4.61503 13.6601 4.71503C13.6601 5.31503 13.6661 5.91502 13.6551 6.51502C13.6551 6.69902 13.7101 6.74398 13.8871 6.74298C14.7521 6.73398 15.6181 6.74298 16.4871 6.74298L19.6251 6.73603ZM8.44811 11.513C8.44572 11.0409 8.25589 10.5891 7.92038 10.257C7.58488 9.92483 7.13119 9.73962 6.65911 9.74201C6.18702 9.74439 5.73522 9.93421 5.4031 10.2697C5.07097 10.6052 4.88571 11.0589 4.8881 11.531C4.89048 12.0031 5.08032 12.4549 5.41582 12.787C5.75132 13.1191 6.20501 13.3044 6.6771 13.302C7.14918 13.2996 7.601 13.1098 7.93313 12.7743C8.26525 12.4388 8.4505 11.9851 8.44811 11.513ZM21.9991 11.513C21.9965 11.866 22.099 12.2118 22.2934 12.5065C22.4879 12.8011 22.7656 13.0313 23.0912 13.1677C23.4168 13.3042 23.7756 13.3407 24.122 13.2726C24.4684 13.2046 24.7868 13.0351 25.0366 12.7857C25.2865 12.5363 25.4565 12.2182 25.5251 11.8719C25.5937 11.5256 25.5578 11.1667 25.4219 10.8409C25.2861 10.5151 25.0564 10.237 24.7621 10.0421C24.4678 9.8471 24.1221 9.744 23.7691 9.74597C23.3013 9.74989 22.8538 9.93744 22.5229 10.2681C22.192 10.5988 22.0043 11.0462 22.0001 11.514L21.9991 11.513ZM7.09911 5.63703C7.32811 5.87603 7.54611 6.10698 7.76711 6.33698C7.83011 6.40198 7.9051 6.44803 7.9361 6.30603C8.0211 5.91903 8.10611 5.53302 8.20211 5.09302L7.09911 5.63703Z" fill="#121614" stroke="#121614" stroke-width="0.5"/>
<path d="M6.44509 12.2728C6.34917 12.2879 6.25093 12.2716 6.16511 12.2261C6.07928 12.1807 6.01051 12.1086 5.96909 12.0208C5.92501 11.9433 5.90669 11.8538 5.91675 11.7652C5.92682 11.6766 5.96475 11.5935 6.02509 11.5278C6.27309 11.2648 6.5251 11.0068 6.7951 10.7628C6.83372 10.7235 6.87979 10.6923 6.93061 10.671C6.98143 10.6496 7.03598 10.6387 7.09109 10.6387C7.14619 10.6387 7.20076 10.6496 7.25158 10.671C7.3024 10.6923 7.34846 10.7235 7.38709 10.7628C7.47448 10.8226 7.53461 10.9146 7.5543 11.0186C7.57398 11.1227 7.5516 11.2302 7.49209 11.3178C7.23755 11.6574 6.93739 11.9603 6.60009 12.2178C6.55261 12.2463 6.49991 12.265 6.44509 12.2728Z" fill="#121614" stroke="#121614" stroke-width="0.5"/>
<path d="M24.5234 11.8163C24.5247 11.8987 24.5029 11.9798 24.4605 12.0505C24.4181 12.1212 24.3568 12.1786 24.2834 12.2163C24.2131 12.262 24.1302 12.2845 24.0464 12.2806C23.9626 12.2766 23.8821 12.2465 23.8164 12.1943C23.5222 11.9348 23.2437 11.658 22.9824 11.3652C22.9456 11.3239 22.9177 11.2755 22.9005 11.2228C22.8834 11.1702 22.8774 11.1146 22.8828 11.0595C22.8883 11.0044 22.9051 10.9511 22.9322 10.9028C22.9593 10.8546 22.9962 10.8125 23.0404 10.7792C23.0762 10.7373 23.1201 10.7029 23.1694 10.6782C23.2187 10.6535 23.2725 10.639 23.3276 10.6356C23.3826 10.6321 23.4378 10.6398 23.4899 10.6582C23.5419 10.6765 23.5897 10.7051 23.6304 10.7423C23.9104 10.9863 24.1644 11.2603 24.4304 11.5253C24.4974 11.6069 24.5307 11.711 24.5234 11.8163Z" fill="#121614" stroke="#121614" stroke-width="0.5"/>
<path d="M7.5918 1.99689H16.4238C16.7084 1.95264 16.9757 1.83359 17.1992 1.65192C17.4227 1.47024 17.5939 1.23246 17.6953 0.962891" stroke="#121614"/>
</svg>
