<svg width="39" height="39" viewBox="0 0 39 39" fill="none" xmlns="http://www.w3.org/2000/svg">
<path d="M38.1796 10.7837C38.0859 10.9676 37.9568 11.1313 37.7999 11.2653C37.6429 11.3993 37.461 11.5011 37.2647 11.5648C37.0684 11.6285 36.8614 11.6529 36.6557 11.6366C36.4499 11.6203 36.2494 11.5636 36.0656 11.4697L22.2506 4.41573C21.389 3.99873 20.444 3.78304 19.4868 3.78494C18.5297 3.78685 17.5855 4.0063 16.7256 4.42673L2.93657 11.4637C2.75234 11.5616 2.55047 11.6219 2.34272 11.6409C2.13497 11.66 1.92551 11.6376 1.72653 11.5749C1.52755 11.5122 1.34304 11.4105 1.18376 11.2758C1.02447 11.141 0.893598 10.9759 0.798762 10.7901C0.703927 10.6043 0.647028 10.4015 0.631381 10.1934C0.615734 9.98539 0.641652 9.77632 0.707626 9.57841C0.773599 9.38049 0.878307 9.19769 1.01565 9.04065C1.15299 8.88361 1.32021 8.75548 1.50757 8.66373L15.3206 1.62473C16.6182 0.988121 18.044 0.656211 19.4893 0.654305C20.9346 0.652399 22.3613 0.980546 23.6606 1.61373L37.4946 8.67073C37.8656 8.86016 38.1461 9.18916 38.2746 9.5854C38.403 9.98164 38.3688 10.4127 38.1796 10.7837ZM35.3316 21.2547C36.2795 22.9173 36.7785 24.7979 36.7796 26.7117V28.9207C36.7793 30.0235 36.4888 31.1067 35.9373 32.0616C35.3858 33.0165 34.5926 33.8094 33.6376 34.3607V35.2047C33.645 35.622 33.5693 36.0366 33.4147 36.4242C33.2602 36.8119 33.03 37.1649 32.7375 37.4626C32.4451 37.7603 32.0962 37.9968 31.7114 38.1582C31.3266 38.3196 30.9134 38.4028 30.4961 38.4028C30.0787 38.4028 29.6656 38.3196 29.2807 38.1582C28.8959 37.9968 28.5471 37.7603 28.2546 37.4626C27.9622 37.1649 27.7319 36.8119 27.5774 36.4242C27.4229 36.0366 27.3471 35.622 27.3546 35.2047H11.6506C11.658 35.622 11.5823 36.0366 11.4277 36.4242C11.2732 36.8119 11.043 37.1649 10.7505 37.4626C10.4581 37.7603 10.1092 37.9968 9.7244 38.1582C9.33955 38.3196 8.9264 38.4028 8.50907 38.4028C8.09174 38.4028 7.67859 38.3196 7.29375 38.1582C6.9089 37.9968 6.56007 37.7603 6.26761 37.4626C5.97516 37.1649 5.74495 36.8119 5.59042 36.4242C5.43588 36.0366 5.36013 35.622 5.36757 35.2047V34.3607C4.41253 33.8094 3.61939 33.0165 3.06786 32.0616C2.51633 31.1067 2.22584 30.0235 2.22557 28.9207V26.7117C2.22573 24.7982 2.7237 22.9176 3.67057 21.2547L6.90357 15.5997C7.59194 14.3987 8.58473 13.4004 9.78189 12.7053C10.9791 12.0103 12.3383 11.6431 13.7226 11.6407H25.2796C26.6639 11.6431 28.0231 12.0103 29.2203 12.7053C30.4174 13.4004 31.4102 14.3987 32.0986 15.5997L35.3316 21.2547ZM6.49957 22.6377H32.4996L29.3716 17.1587C28.9583 16.4382 28.3625 15.8394 27.6441 15.4224C26.9257 15.0055 26.1102 14.7852 25.2796 14.7837H13.7216C12.8923 14.7866 12.0784 15.0076 11.3616 15.4244C10.6447 15.8413 10.0502 16.4394 9.63757 17.1587L6.49957 22.6377ZM33.6386 26.7127C33.6377 26.4009 33.6186 26.0894 33.5816 25.7797H30.4966V27.3487C30.4966 27.7654 30.3311 28.165 30.0364 28.4596C29.7418 28.7542 29.3422 28.9197 28.9256 28.9197C28.5089 28.9197 28.1093 28.7542 27.8147 28.4596C27.5201 28.165 27.3546 27.7654 27.3546 27.3487V25.7787H11.6506V27.3487C11.6506 27.7654 11.4851 28.165 11.1904 28.4596C10.8958 28.7542 10.4962 28.9197 10.0796 28.9197C9.66292 28.9197 9.26333 28.7542 8.96871 28.4596C8.67409 28.165 8.50857 27.7654 8.50857 27.3487V25.7787H5.41957C5.3825 26.0884 5.36347 26.3999 5.36257 26.7117V28.9207C5.36257 29.754 5.6936 30.5532 6.28284 31.1425C6.87208 31.7317 7.67126 32.0627 8.50457 32.0627H30.4966C31.3299 32.0627 32.1291 31.7317 32.7183 31.1425C33.3075 30.5532 33.6386 29.754 33.6386 28.9207V26.7127Z" fill="#087965"/>
</svg>
