<svg width="132" height="110" viewBox="0 0 132 110" fill="none" xmlns="http://www.w3.org/2000/svg">
<path d="M54.0752 82.7593C54.4111 83.0202 54.8243 83.1619 55.2496 83.1619C55.6749 83.1619 56.0881 83.0202 56.4239 82.7593C56.7519 80.595 55.9194 76.3416 55.7231 75.3826L55.6823 75.1903H54.7339C54.6708 75.253 54.621 75.3279 54.5877 75.4103C53.9435 76.7974 54.0752 82.7593 54.0752 82.7593Z" fill="#535F89"/>
<path d="M54.9329 74.3183V75.1916H55.3281V74.3183C55.2645 74.3077 55.2002 74.3024 55.1358 74.3025C55.0678 74.3024 55 74.3077 54.9329 74.3183Z" fill="black"/>
<path d="M54.5942 75.4142C54.7611 75.5033 54.9478 75.5486 55.1369 75.546C55.3423 75.551 55.5448 75.4971 55.7205 75.3905L55.6796 75.1982H54.7338C54.6736 75.2603 54.6261 75.3338 54.5942 75.4142Z" fill="black"/>
<path d="M55.1371 75.3932C54.6999 75.3932 54.3455 75.1826 54.3455 74.9229C54.3455 74.6632 54.6999 74.4527 55.1371 74.4527C55.5743 74.4527 55.9288 74.6632 55.9288 74.9229C55.9288 75.1826 55.5743 75.3932 55.1371 75.3932Z" fill="#DCE2ED"/>
<path d="M26.2562 54.4199H26.741V81.1601H26.2562V54.4199Z" fill="#535F89"/>
<path d="M25.7952 86.1617C26.0171 86.3341 26.2901 86.4277 26.5711 86.4277C26.852 86.4277 27.125 86.3341 27.3469 86.1617C27.5643 84.7312 27.0137 81.9175 26.8846 81.2879C26.8674 81.2049 26.8569 81.1561 26.8569 81.1561H26.2365C26.1946 81.1974 26.1615 81.2467 26.139 81.301C25.7096 82.2218 25.7952 86.1617 25.7952 86.1617Z" fill="#535F89"/>
<path d="M26.3643 80.5818V81.1601H26.6278V80.5818C26.5843 80.5739 26.5402 80.5704 26.496 80.5713C26.4519 80.5715 26.4079 80.575 26.3643 80.5818Z" fill="black"/>
<path d="M26.139 81.2997C26.25 81.3573 26.3736 81.3863 26.4986 81.384C26.6342 81.387 26.768 81.3519 26.8846 81.2826C26.8674 81.1996 26.8569 81.1509 26.8569 81.1509H26.2365C26.1942 81.1934 26.161 81.244 26.139 81.2997Z" fill="black"/>
<path d="M26.4986 81.2918C26.2098 81.2918 25.9757 81.1527 25.9757 80.981C25.9757 80.8093 26.2098 80.6701 26.4986 80.6701C26.7874 80.6701 27.0216 80.8093 27.0216 80.981C27.0216 81.1527 26.7874 81.2918 26.4986 81.2918Z" fill="#DCE2ED"/>
<path d="M28.7986 50.1125L26.9557 49.2299L24.2383 49.8806L26.3472 48.2868L28.7986 50.1125Z" fill="#087965"/>
<path d="M28.2598 50.3944L28.7986 50.1125L26.9557 49.2299L24.2383 49.8806L24.7164 50.1125L26.9557 49.6106L28.2598 50.3944Z" fill="#087965"/>
<path d="M28.2598 50.3944L28.7986 50.1125L26.9557 49.2299L24.2383 49.8806L24.7164 50.1125L26.9557 49.6106L28.2598 50.3944Z" fill="black"/>
<path d="M28.3336 50.1862L26.8504 54.3422H26.114L24.7414 49.9294L26.9557 49.4143L28.3336 50.1862Z" fill="#087965"/>
<path d="M25.7505 53.1724L26.0429 54.1156L26.114 54.3435H26.8504L26.9044 54.1894L27.2508 53.2185L26.6949 52.884L25.7505 53.1724Z" fill="#087965"/>
<path d="M26.9557 49.6106L26.604 54.3422L26.8504 54.3422L28.2598 50.3944L26.9557 49.6106Z" fill="#087965"/>
<path d="M26.3472 48.2868L26.9557 49.2299L28.7986 50.1125L26.3472 48.2868Z" fill="black"/>
<path d="M26.0429 54.1156L26.114 54.3422L26.849 54.3422L26.9043 54.188C26.8426 54.1271 26.7687 54.0799 26.6874 54.0494C26.6061 54.019 26.5194 54.0061 26.4328 54.0115C26.2954 54.0075 26.16 54.0437 26.0429 54.1156Z" fill="black"/>
<path d="M26.3643 54.4199V54.823H26.4328C26.4975 54.8232 26.5621 54.8157 26.6251 54.8006V54.4146L26.3643 54.4199Z" fill="black"/>
<path d="M26.4328 54.7308C26.144 54.7308 25.9099 54.5916 25.9099 54.4199C25.9099 54.2482 26.144 54.109 26.4328 54.109C26.7216 54.109 26.9558 54.2482 26.9558 54.4199C26.9558 54.5916 26.7216 54.7308 26.4328 54.7308Z" fill="#DCE2ED"/>
<path d="M73.3823 109.895C41.0086 109.895 14.7645 107.3 14.7645 104.099C14.7645 100.898 41.0086 98.3028 73.3823 98.3028C105.756 98.3028 132 100.898 132 104.099C132 107.3 105.756 109.895 73.3823 109.895Z" fill="#087965"/>
<path d="M73.1398 90.6114C73.1398 90.6114 84.8897 90.1174 86.1265 67.1116C87.3634 44.1058 75.1183 40.2094 75.1183 40.2094C75.1183 40.2094 71.239 38.0425 69.5186 37.9529C67.7983 37.8633 62.0485 38.4047 62.0485 38.4047L68.3871 37.1823C68.3871 37.1823 59.468 33.7878 56.7953 33.5164L66.4376 35.5529C66.4376 35.5529 66.5693 30.2114 64.2641 28.4463C64.2641 28.4463 66.24 28.2988 67.2819 32.1465C67.5785 33.2566 68.1313 34.2818 68.8958 35.1397C69.6603 35.9976 70.6154 36.6642 71.6842 37.0862C75.2605 38.4811 80.2055 40.6836 81.3317 42.5699C81.3317 42.5699 83.4143 44.7434 83.0969 39.0844C82.7794 33.4255 81.287 28.5807 80.7429 28.445C80.7429 28.445 76.4882 23.9189 70.5118 23.6476C70.5118 23.6476 73.9973 22.2434 79.8828 26.6351C79.8828 26.6351 80.3807 24.4168 78.1624 21.7902C75.9442 19.1636 72.4983 13.6417 68.7467 13.0542C68.7467 13.0542 73.9973 12.7368 78.1624 19.5272C78.1624 19.5272 79.7023 20.523 79.838 17.9886C79.9737 15.4542 80.8786 12.2836 80.8786 12.2836C80.8786 12.2836 82.1471 18.1243 79.4757 20.7496C79.4757 20.7496 84.5919 27.4044 84.3654 34.8745C84.3654 34.8745 85.9461 38.2691 86.5375 34.2857C86.5375 34.2857 86.8787 28.7993 87.5597 24.1428C87.8351 22.2673 87.7206 20.355 87.2233 18.5257C86.7261 16.6964 85.8567 14.9893 84.6697 13.5113C83.5382 12.1032 82.7504 10.7358 83.1878 10.0179L89.1154 17.0797C89.1154 17.0797 94.1012 5.53929 97.7223 3.05495C101.343 0.570611 101.797 0.0252686 101.797 0.0252686L95.9572 6.86049L103.29 4.27077L95.9572 7.66533C95.9572 7.66533 92.5613 10.4316 90.6144 17.9873C88.6675 25.5431 88.4871 30.2549 88.4871 30.2549C88.4871 30.2549 98.9447 21.9707 100.936 22.242L94.1697 27.3609C92.3289 28.7526 90.8084 30.5234 89.711 32.5534C88.6136 34.5835 87.9649 36.8255 87.8087 39.1279C87.8087 39.1279 100.892 35.7781 104.061 35.1445L110.036 29.0325L105.509 34.8284L114.835 34.6967L120.176 30.8938C120.176 30.8938 115.961 34.4253 116.375 34.6519C116.788 34.8784 122.938 35.1498 122.938 35.1498C122.938 35.1498 107.275 35.0589 105.551 36.1904C103.826 37.3219 99.9827 37.7303 99.9827 37.7303L111.074 39.4045L97.854 38.4548C97.854 38.4548 87.8495 40.2647 87.3068 43.3892C87.3068 43.3892 89.3446 48.7056 90.7014 50.8133C91.8289 52.5652 94.0972 58.2373 94.5491 63.2178C95.0009 68.1983 95.6358 75.8476 93.9155 80.5107C92.1951 85.1738 91.5615 87.8452 92.4217 89.248C93.2819 90.6509 94.0972 92.4621 91.2902 92.8244C88.4831 93.1866 76.1694 92.6439 76.1694 92.6439C76.1694 92.6439 72.414 93.3816 73.1398 90.6114Z" fill="#DEA3A2"/>
<path d="M79.7209 88.1415C80.9525 87.5136 82.3652 87.337 83.7135 87.6423C86.0187 88.1415 89.5502 87.8768 89.8716 87.8214" fill="black"/>
<path d="M87.0963 61.0325C87.0963 61.0325 87.6574 69.8818 86.6603 71.6272L87.0963 61.0325Z" fill="black"/>
<path d="M89.167 71.6271C89.167 71.6271 88.4478 79.9153 87.9499 81.5355C87.4519 83.1557 89.167 71.6271 89.167 71.6271Z" fill="black"/>
<path d="M89.8678 51.2479C90.3775 51.435 92.5589 55.8583 92.1216 57.169C91.6843 58.4797 89.8678 51.2479 89.8678 51.2479Z" fill="black"/>
<path d="M84.3379 46.656C84.5737 46.7627 85.5893 49.3116 85.3917 50.0651C85.1942 50.8185 84.3379 46.656 84.3379 46.656Z" fill="black"/>
<path d="M93.7825 61.5159C93.5296 64.0859 93.3874 65.768 93.5533 67.8256C93.6887 69.4235 93.6658 71.0309 93.4848 72.6243" fill="black"/>
<path d="M66.4706 31.5945C66.7776 31.9449 66.8803 32.431 66.8948 32.8973C66.9093 33.3636 66.85 33.8299 66.8803 34.2949C66.9132 34.7836 67.1438 35.3579 67.6311 35.4225" fill="black"/>
<path d="M74.83 16.2736C75.45 16.8886 75.9996 17.5708 76.4687 18.3074C76.6051 18.5395 76.7607 18.7598 76.9337 18.9661C77.1971 19.2532 77.5317 19.4574 77.832 19.7024C78.5376 20.2755 79.0397 21.0608 79.2639 21.9417" fill="black"/>
<path d="M98.4958 3.04573C98.3467 3.33532 98.1504 3.59799 97.9149 3.82291C97.7094 4.01786 97.4749 4.18384 97.2892 4.39723C97.1423 4.58335 97.0101 4.78066 96.894 4.98736C96.4171 5.75005 95.8178 6.42843 95.2198 7.09496" fill="black"/>
<path d="M87.5335 16.1418C87.9287 16.3855 88.0248 16.9072 88.0169 17.3669C88.009 17.8266 87.93 18.3061 88.0999 18.7329C88.1776 18.9278 88.3041 19.0991 88.3858 19.2914C88.5254 19.6233 88.5254 19.9948 88.5175 20.3557C88.5109 20.772 88.4977 21.1895 88.4793 21.6058C88.4582 22.1064 88.4108 22.6517 88.0696 23.0192" fill="black"/>
<path d="M87.8589 40.9497C88.1162 40.7382 88.3902 40.5479 88.6782 40.3806C88.9407 40.2197 89.2239 40.0952 89.5199 40.0105C89.9717 39.8906 90.442 39.909 90.9109 39.8603C91.3799 39.8116 91.862 39.6825 92.1781 39.3334" fill="black"/>
<path d="M106.266 35.2301C105.716 35.246 105.144 35.2657 104.654 35.5173C104.404 35.649 104.186 35.8308 103.941 35.9678C103.623 36.1441 103.266 36.237 102.902 36.2378" fill="black"/>
<path d="M98.6288 37.5037C98.7473 37.4115 98.9265 37.4827 99.024 37.596C99.1214 37.7092 99.1754 37.8594 99.2769 37.9648C99.4784 38.1821 99.8038 38.2072 100.103 38.2177" fill="black"/>
<path d="M95.4793 25.8026L94.9524 26.0805C94.4015 26.3449 93.8778 26.6625 93.3888 27.0289" fill="black"/>
<path d="M89.4304 30.9807C89.0827 30.8977 88.7823 31.2692 88.7204 31.6209C88.6585 31.9726 88.7309 32.3441 88.6321 32.6879C88.5216 32.9867 88.3409 33.2545 88.1052 33.469" fill="black"/>
<path d="M83.5423 31.6248C83.2248 32.5706 83.8966 33.6007 83.7003 34.5794C83.6411 34.8771 83.5027 35.1538 83.4369 35.4501C83.2538 36.2273 83.5686 37.0545 84.0771 37.6723" fill="black"/>
<path d="M102.468 23.9518H103.384V74.4395H102.468V23.9518Z" fill="#535F89"/>
<path d="M101.599 83.8829C102.018 84.2088 102.534 84.3857 103.065 84.3857C103.596 84.3857 104.111 84.2088 104.53 83.8829C104.939 81.1812 103.901 75.8713 103.656 74.6805L103.604 74.4395H102.432C102.354 74.5183 102.292 74.6113 102.249 74.7135C101.437 76.4417 101.599 83.8829 101.599 83.8829Z" fill="#535F89"/>
<path d="M102.673 73.3488V74.4395H103.167V73.3475C103.087 73.3346 103.006 73.3284 102.925 73.3291C102.841 73.3289 102.756 73.3355 102.673 73.3488Z" fill="black"/>
<path d="M102.249 74.7135C102.457 74.8227 102.69 74.8775 102.926 74.8729C103.182 74.8794 103.435 74.8126 103.656 74.6805L103.604 74.4395H102.432C102.354 74.5183 102.292 74.6113 102.249 74.7135Z" fill="black"/>
<path d="M102.926 74.6871C102.38 74.6871 101.938 74.4247 101.938 74.1009C101.938 73.7772 102.38 73.5148 102.926 73.5148C103.471 73.5148 103.914 73.7772 103.914 74.1009C103.914 74.4247 103.471 74.6871 102.926 74.6871Z" fill="#DCE2ED"/>
<path d="M107.27 15.8191L103.79 14.1528L98.6589 15.3791L102.641 12.3705L107.27 15.8191Z" fill="#087965"/>
<path d="M106.252 16.3513L107.27 15.8191L103.79 14.1528L98.6589 15.3791L99.5625 15.8191L103.79 14.8707L106.252 16.3513Z" fill="#087965"/>
<path d="M106.252 16.3513L107.27 15.8191L103.79 14.1528L98.6589 15.3791L99.5625 15.8191L103.79 14.8707L106.252 16.3513Z" fill="black"/>
<path d="M106.39 15.9587L103.59 23.8043H102.201L99.6089 15.4727L103.79 14.5005L106.39 15.9587Z" fill="#087965"/>
<path d="M101.514 21.5966L102.068 23.3762L102.201 23.8056H103.59L104.347 21.6822L103.297 21.0499L101.514 21.5966Z" fill="#087965"/>
<path d="M103.79 14.8707L103.127 23.8043L103.59 23.8043L106.252 16.3513L103.79 14.8707Z" fill="#087965"/>
<path d="M102.641 12.3705L103.79 14.1528L107.27 15.8191L102.641 12.3705Z" fill="black"/>
<path d="M102.067 23.3762L102.198 23.8056L103.59 23.8056L103.692 23.5145C103.535 23.3169 103.197 23.1799 102.802 23.1799C102.543 23.1731 102.288 23.2413 102.067 23.3762Z" fill="black"/>
<path d="M102.673 23.9518V24.7159C102.715 24.7159 102.758 24.7224 102.805 24.7224C102.927 24.7227 103.05 24.7081 103.169 24.679V23.9518H102.673Z" fill="black"/>
<path d="M102.803 24.538C102.257 24.538 101.815 24.2756 101.815 23.9518C101.815 23.6281 102.257 23.3657 102.803 23.3657C103.349 23.3657 103.791 23.6281 103.791 23.9518C103.791 24.2756 103.349 24.538 102.803 24.538Z" fill="#DCE2ED"/>
<path d="M6.48695 105.149C4.23971 105.149 2.41796 104.841 2.41796 104.461C2.41796 104.081 4.23971 103.773 6.48695 103.773C8.73419 103.773 10.5559 104.081 10.5559 104.461C10.5559 104.841 8.73419 105.149 6.48695 105.149Z" fill="#087965"/>
<path d="M9.21892 101.264C9.21892 101.264 6.89793 101.192 6.19847 100.694C5.49901 100.196 2.6274 99.6003 2.45352 100.4C2.27964 101.199 -1.03456 104.373 1.58677 104.394C4.2081 104.415 7.67511 103.987 8.36667 103.561C9.05822 103.136 9.21892 101.264 9.21892 101.264Z" fill="#A8A8A8"/>
<path d="M1.53935 104.116C4.16069 104.137 7.62901 103.708 8.32715 103.283C8.85405 102.959 9.07008 101.796 9.14121 101.26H9.21892C9.21892 101.26 9.0714 103.136 8.36667 103.561C7.66194 103.987 4.20019 104.416 1.58018 104.394C0.82276 104.394 0.561945 104.12 0.576435 103.721C0.688401 103.956 0.976886 104.112 1.53935 104.116Z" fill="black"/>
<path d="M44.6951 70.6906C43.9884 70.3305 43.1779 70.2294 42.4044 70.4047C41.0872 70.6906 39.052 70.5365 38.8676 70.5075" fill="black"/>
<path d="M40.4589 55.1207C40.4589 55.1207 40.1374 60.204 40.7091 61.2051L40.4589 55.1207Z" fill="black"/>
<path d="M39.2707 61.205C39.2707 61.205 39.683 65.9656 39.9689 66.8969C40.2547 67.8282 39.2707 61.205 39.2707 61.205Z" fill="black"/>
<path d="M38.8677 49.5013C38.5753 49.6093 37.3225 52.1503 37.5728 52.9011C37.8231 53.6519 38.8677 49.5013 38.8677 49.5013Z" fill="black"/>
<path d="M36.6191 55.3986C36.764 56.8752 36.843 57.8408 36.7508 59.0224C36.6726 59.94 36.6858 60.8631 36.7904 61.778" fill="black"/>
<path d="M33.9122 21.8166C33.9981 21.9827 34.1107 22.1336 34.2455 22.2631C34.3641 22.3751 34.4984 22.4699 34.6051 22.5924C34.6907 22.699 34.7678 22.8122 34.8356 22.931C35.1209 23.3622 35.4421 23.7685 35.7959 24.1455" fill="black"/>
<path d="M29.4427 40.3016C29.7588 40.3108 30.0868 40.3213 30.3648 40.4662C30.5083 40.54 30.6282 40.6467 30.7744 40.7297C30.9569 40.8314 31.1623 40.8849 31.3711 40.8851" fill="black"/>
<path d="M33.8357 41.607C33.7978 41.5867 33.7538 41.5809 33.7119 41.5906C33.67 41.6003 33.633 41.6248 33.6079 41.6597C33.5512 41.7242 33.5209 41.8085 33.4616 41.8717C33.347 41.9969 33.1587 42.0114 32.9887 42.0166" fill="black"/>
<path d="M35.6443 34.8877L35.9486 35.0457C36.2643 35.1984 36.5643 35.3815 36.8443 35.5924" fill="black"/>
<path d="M81.8008 49.1219C83.9638 52.0383 85.7447 60.6175 86.2439 63.2033L90.0113 63.0545C89.7742 60.8296 85.2191 51.846 83.9519 49.3814C83.2735 49.2905 82.5477 49.1983 81.8008 49.1219Z" fill="#087965"/>
<path d="M34.7328 48.0865H36.4031V50.4392H34.7328V48.0865Z" fill="#DCE0ED"/>
<path d="M34.7328 48.0865L34.7328 48.8519C34.8507 48.8853 34.9726 48.9017 35.0951 48.9006L36.4018 48.8901V48.0865H34.7328Z" fill="black"/>
<path d="M37.1079 42.093H35.5272C35.1501 42.0935 34.7817 42.2066 34.4693 42.4179C34.157 42.6291 33.9148 42.9288 33.7739 43.2786C33.3129 44.4154 32.9216 46.2226 33.9491 48.0207C34.0636 48.2222 34.2298 48.3895 34.4305 48.5053C34.6313 48.6211 34.8594 48.6812 35.0911 48.6793L37.1039 48.6622L37.1079 42.093Z" fill="#DCE0ED"/>
<path d="M37.1077 48.6622C36.175 48.6622 35.419 47.1919 35.419 45.3783C35.419 43.5646 36.175 42.0944 37.1077 42.0944C38.0403 42.0944 38.7964 43.5646 38.7964 45.3783C38.7964 47.1919 38.0403 48.6622 37.1077 48.6622Z" fill="#F0F0F4"/>
<path d="M49.5651 48.1142H51.2354V50.1731H49.5651V48.1142Z" fill="#DCE0ED"/>
<path d="M49.5651 48.1142V48.7728C49.6833 48.8063 49.8058 48.8227 49.9286 48.8216L51.2354 48.8097V48.1181L49.5651 48.1142Z" fill="black"/>
<path d="M51.9401 42.122H50.3594C49.9824 42.1222 49.6142 42.2353 49.3019 42.4465C48.9897 42.6578 48.7479 42.9577 48.6075 43.3075C48.1451 44.4443 47.7539 46.2516 48.7814 48.0497C48.8961 48.2512 49.0626 48.4185 49.2636 48.5343C49.4646 48.65 49.6928 48.7101 49.9247 48.7083L51.9362 48.6898L51.9401 42.122Z" fill="#DCE0ED"/>
<path d="M51.9401 48.6898C51.0075 48.6898 50.2514 47.2196 50.2514 45.4059C50.2514 43.5923 51.0075 42.122 51.9401 42.122C52.8728 42.122 53.6289 43.5923 53.6289 45.4059C53.6289 47.2196 52.8728 48.6898 51.9401 48.6898Z" fill="#F0F0F4"/>
<path d="M51.5185 43.322C51.5185 43.322 52.1416 43.4221 51.8175 44.2441C51.6455 44.6432 51.5205 45.061 51.4448 45.4889C51.4448 45.4889 50.8217 45.813 50.8467 44.742C50.8717 43.6711 51.5185 43.322 51.5185 43.322Z" fill="#DCE0ED"/>
<path d="M114.797 101.045C109.356 101.045 104.945 96.2111 104.945 90.2478C104.945 84.2845 109.356 79.4503 114.797 79.4503C120.238 79.4503 124.648 84.2845 124.648 90.2478C124.648 96.2111 120.238 101.045 114.797 101.045Z" fill="#636780"/>
<path d="M111.106 80.1235C116.26 80.4699 120.344 85.1619 120.344 90.8999C120.344 95.5248 117.691 99.4699 113.961 101.007C108.806 100.661 104.722 95.9687 104.722 90.2307C104.722 85.6059 107.376 81.6607 111.106 80.1235Z" fill="black"/>
<path d="M37.6927 77.074C33.2768 77.074 29.697 72.4061 29.697 66.6479C29.697 60.8898 33.2768 56.2219 37.6927 56.2219C42.1086 56.2219 45.6884 60.8898 45.6884 66.6479C45.6884 72.4061 42.1086 77.074 37.6927 77.074Z" fill="#636780"/>
<path d="M39.9267 56.6579C43.2435 57.9291 45.6647 61.9269 45.6647 66.6624C45.6647 71.7233 42.8984 75.9412 39.2312 76.8896C35.9157 75.6184 33.4932 71.6206 33.4932 66.885C33.4932 61.8242 36.2595 57.6063 39.9267 56.6579Z" fill="black"/>
<path d="M67.7286 64.4218L67.5798 60.6373C67.5798 60.6373 68.3227 59.0039 69.0643 58.8564C69.8059 58.7089 71.5131 58.6153 71.5131 58.6153C71.5131 58.6153 72.8488 64.0503 71.9583 65.6837C71.0679 67.3171 67.7286 64.4218 67.7286 64.4218Z" fill="#087965"/>
<path d="M67.7286 64.4218L67.5798 60.6373C67.5798 60.6373 68.3227 59.0039 69.0643 58.8564C69.8059 58.7089 71.5131 58.6153 71.5131 58.6153C71.5131 58.6153 72.8488 64.0503 71.9583 65.6837C71.0679 67.3171 67.7286 64.4218 67.7286 64.4218Z" fill="black"/>
<path d="M81.4202 64.0134C81.4202 64.0134 81.8799 58.7655 78.9965 58.6707C78.625 58.6588 78.2535 58.6496 77.8834 58.614C75.8851 58.4204 70.433 58.0002 71.0864 59.245C71.0864 59.245 72.3852 63.8093 71.4947 64.9592L81.4202 64.0134Z" fill="#087965"/>
<path d="M40.5484 73.744L36.681 73.8559C36.681 73.8559 36.0131 66.7309 35.7905 66.175C35.5679 65.6192 35.4559 62.9465 36.1791 62.5579C36.9023 62.1693 39.3221 61.6951 39.3221 61.6951L41.1056 65.7562L41.244 69.43L40.5484 73.744Z" fill="#087965"/>
<path d="M40.5484 73.744L36.681 73.8559C36.681 73.8559 36.0131 66.7309 35.7905 66.175C35.5679 65.6192 35.4559 62.9465 36.1791 62.5579C36.9023 62.1693 39.3221 61.6951 39.3221 61.6951L41.1056 65.7562L41.244 69.43L40.5484 73.744Z" fill="black"/>
<path d="M49.8996 61.9177L49.9167 61.1273C49.918 61.0648 49.9065 61.0027 49.8829 60.9449C49.8593 60.887 49.824 60.8346 49.7793 60.7909C49.7346 60.7472 49.6814 60.7131 49.623 60.6908C49.5647 60.6684 49.5023 60.6583 49.4399 60.661C47.5219 60.7414 40.5458 61.076 39.3247 61.699C39.3247 61.699 40.6604 71.6337 39.1851 73.9995L39.6856 81.9584L56.773 80.678L49.8996 61.9177Z" fill="#087965"/>
<path d="M51.2354 49.3709C50.7611 49.3234 50.196 49.2734 49.5651 49.2233V50.1731H51.2354V49.3709Z" fill="black"/>
<path d="M34.7328 50.318V50.4378H36.4018V49.716C35.8226 49.8464 35.2619 50.0486 34.7328 50.318Z" fill="black"/>
<path d="M81.8087 61.9598C81.8013 61.9199 81.7786 61.8844 81.7454 61.861C81.7088 61.8475 81.6693 61.8439 81.6308 61.8505C81.6308 61.8926 81.6308 61.9177 81.6308 61.9177C81.7156 61.9935 81.7953 62.0749 81.8693 62.1614C81.8456 62.0942 81.8284 62.027 81.8087 61.9598ZM75.7638 60.1868C75.7632 60.1776 75.7632 60.1683 75.7638 60.1591C75.6797 59.9482 75.5834 59.7424 75.4753 59.5427C75.5807 59.7455 75.6782 59.9602 75.7638 60.1868ZM74.8628 58.4823C75.0051 58.6943 75.1776 58.9683 75.3475 59.2858C75.2204 58.9986 75.0575 58.7287 74.8628 58.4823ZM98.3982 76.9159C97.7277 76.9422 97.1692 76.9304 97.1692 76.9304C97.2903 76.9857 97.8291 76.9607 98.3982 76.9159ZM97.1678 76.9291C97.1428 76.9133 96.8952 76.7684 96.3169 76.8263C96.3169 76.8211 96.8859 76.8013 97.1678 76.9291ZM74.6678 66.7968L74.4228 62.5816C74.4228 62.5816 74.5137 64.7339 74.4834 65.6652C74.4722 66.0512 74.5348 66.4357 74.6678 66.7981V66.7968Z" fill="url(#paint0_linear_369_746)"/>
<path d="M88.6861 74.8689C88.6861 74.8689 88.756 75.085 88.8482 75.3589C88.9983 75.8055 89.2104 76.4127 89.2829 76.4694C89.3553 76.526 89.9165 76.5629 90.5277 76.6011C91.4752 76.6562 92.4097 76.3592 93.1516 75.7673C93.1516 75.7673 92.8315 75.5368 92.493 75.2694C92.1545 75.002 91.7988 74.699 91.7264 74.5501C91.6249 74.346 91.0453 73.9943 90.6963 73.7967C90.5395 73.7071 90.4328 73.6491 90.4328 73.6491L88.6861 74.8689Z" fill="#F899A5"/>
<path d="M89.4265 76.7302C89.4265 76.7302 95.586 76.447 95.9535 76.3653C96.321 76.2836 96.3961 75.8516 96.3961 75.8516C96.5186 75.5644 95.8692 75.6263 95.8692 75.6263C95.8033 75.6369 95.0789 75.7581 94.3965 75.845C93.8499 75.9148 93.3322 75.9622 93.211 75.9109C92.9357 75.7963 92.3864 75.845 92.3864 75.845C92.6986 74.8123 93.6444 74.5659 94.0488 74.508L94.0237 74.483C93.9162 74.3829 93.7983 74.2946 93.672 74.2195C92.4167 74.2709 91.7528 76.0018 91.7528 76.0018H91.7422C91.6 76.0465 90.0865 76.5155 89.7861 76.559C89.4726 76.6077 89.4265 76.7302 89.4265 76.7302Z" fill="#F3B4B4"/>
<path d="M92.647 77.2795C92.6707 77.3572 92.7788 77.4112 92.9553 77.4257C93.0509 77.4326 93.1468 77.4326 93.2424 77.4257C93.828 77.3752 94.404 77.2458 94.9549 77.041C95.0497 77.0081 95.1393 76.9791 95.2262 76.9541H95.2367C95.4459 76.8916 95.6601 76.8475 95.8769 76.8224C96.4354 76.7644 96.6739 76.9093 96.6976 76.9251C96.6976 76.9251 97.2377 76.937 97.8831 76.9106C98.3795 76.897 98.874 76.8451 99.3624 76.7552C99.4322 76.7407 99.4941 76.7236 99.5587 76.7065C99.6741 76.6771 99.7853 76.6328 99.8893 76.5747C100.569 76.1664 98.2796 75.8911 98.2796 75.8911C98.018 75.8591 97.7744 75.7415 97.5867 75.5565L97.563 75.5302L97.5051 75.4722C97.4165 75.3951 97.3237 75.3229 97.2271 75.2562L97.1428 75.1995C96.687 74.8913 96.0732 74.562 96.0732 74.562C95.6462 74.446 95.2558 74.2229 94.939 73.9139C94.8808 73.8565 94.8279 73.7939 94.781 73.7268L93.5151 73.4002L92.6431 75.4946C92.6431 75.4946 92.6365 75.6079 92.6299 75.7778C92.6154 76.2336 92.5904 77.0951 92.647 77.2795Z" fill="#F899A5"/>
<path d="M92.9553 77.4257C93.0509 77.4326 93.1468 77.4326 93.2424 77.4257C93.828 77.3752 94.404 77.2458 94.9549 77.041C95.0497 77.0081 95.1393 76.9791 95.2262 76.9541H95.2367C95.4459 76.8916 95.6601 76.8475 95.8769 76.8224C96.4354 76.7644 96.6739 76.9093 96.6976 76.9251C96.6976 76.9251 97.2377 76.937 97.8831 76.9106C98.3795 76.897 98.874 76.8451 99.3624 76.7552C99.4322 76.7407 99.4941 76.7236 99.5587 76.7065C99.4743 76.6961 99.3894 76.6925 99.3045 76.6959C99.2399 76.7038 98.5075 76.7934 97.8252 76.85C97.2746 76.8961 96.7556 76.9212 96.6397 76.8645C96.3696 76.7328 95.819 76.7618 95.819 76.7618C96.1747 75.7435 97.1363 75.5394 97.538 75.4985C97.5301 75.4893 97.5209 75.4814 97.5143 75.4722C97.4118 75.3699 97.2992 75.2781 97.1784 75.1982H97.1521C95.9125 75.218 95.1828 76.8935 95.1828 76.8935H95.1722C95.0287 76.9317 93.4954 77.3361 93.1964 77.3664C93.1133 77.3727 93.0318 77.3928 92.9553 77.4257Z" fill="black"/>
<path d="M92.8829 77.5825C92.8829 77.5825 99.049 77.5666 99.4191 77.5021C99.7893 77.4376 99.8841 77.0068 99.8841 77.0068C100.016 76.7262 99.3717 76.7605 99.3717 76.7605C99.3072 76.7684 98.5813 76.858 97.8924 76.9159C97.3431 76.9607 96.8228 76.9857 96.7069 76.9304C96.4435 76.7987 95.8862 76.8277 95.8862 76.8277C96.2432 75.8094 97.2035 75.6053 97.6053 75.5644L97.5816 75.5381C97.4776 75.4346 97.3638 75.3415 97.2417 75.2601C95.985 75.2601 95.2461 76.9568 95.2461 76.9568H95.2355C95.0919 76.9936 93.5587 77.398 93.2597 77.4283C92.9343 77.4613 92.8829 77.5825 92.8829 77.5825Z" fill="#F3B4B4"/>
<path d="M88.6861 74.8689C88.6861 74.8689 88.756 75.085 88.8482 75.3589C88.885 75.3339 90.0983 74.5264 90.5606 73.9969C90.6149 73.9373 90.6617 73.8714 90.7002 73.8006C90.5435 73.711 90.4368 73.6531 90.4368 73.6531L88.6861 74.8689Z" fill="black"/>
<path d="M85.1374 72.1975L85.3561 72.9049L87.4505 74.0456C87.4505 74.0456 88.0169 74.4474 88.1091 74.6371C88.184 74.7635 88.3033 74.8574 88.4437 74.9005C88.5474 75.0296 88.6442 75.1642 88.7335 75.3036C88.7335 75.3036 89.977 74.479 90.4459 73.9416C90.5908 73.7756 90.6606 73.636 90.5948 73.5582C90.3208 73.2289 88.6768 72.046 88.6768 72.046C88.6768 72.046 87.6731 70.7288 87.6296 70.7525C87.5862 70.7762 87.0817 70.2901 86.7853 70.0148L86.5824 69.8252L85.1374 72.1975Z" fill="#BDD3E8"/>
<path d="M75.1513 57.9567L77.1904 61.5633L77.9386 62.9899L81.9233 62.409L81.8338 62.218L81.4965 61.5106L81.3424 61.1866L81.3187 61.1431L80.8774 60.3436L80.8524 60.3106L79.8882 58.9473C79.8151 58.9423 79.7436 58.9235 79.6774 58.8919C79.5653 58.8344 79.4791 58.7365 79.4364 58.618C79.2085 58.0542 79.626 56.9701 79.626 56.9701C79.626 56.9701 78.1138 53.2818 77.5896 55.3116C77.2023 56.8173 76.0523 57.5444 75.482 57.8144C75.3748 57.8687 75.2644 57.9162 75.1513 57.9567Z" fill="#F899A5"/>
<path d="M82.001 70.356V70.7051C82.001 70.7051 80.6837 71.9657 80.8576 72.9931C81.0315 74.0206 80.664 75.301 80.664 75.301L79.3388 75.2061L79.539 70.5114L82.001 70.356Z" fill="#BDD3E8"/>
<path d="M79.3388 75.2061L80.664 75.301C80.664 75.301 81.0315 74.0219 80.8576 72.9931C80.6837 71.9644 82.001 70.7051 82.001 70.7051V70.356L79.539 70.5114L79.5259 70.817L79.3388 75.2061Z" fill="black"/>
<path d="M86.6758 70.2203C87.0951 70.6099 87.4836 71.0313 87.8376 71.4809C88.304 72.1014 89.0983 72.9931 89.0983 72.9931L90.048 73.5556L90.4432 73.9389C90.5881 73.773 90.6579 73.6333 90.592 73.5556C90.318 73.2263 88.6741 72.0434 88.6741 72.0434C88.6741 72.0434 87.6704 70.7262 87.6269 70.7499C87.5834 70.7736 87.0789 70.2875 86.7825 70.0122L86.6758 70.2203Z" fill="black"/>
<path d="M92.6338 75.7778C92.6723 75.8108 92.7088 75.8459 92.7432 75.8832C92.7432 75.8832 92.7629 76.5023 93.2477 75.0481C93.7324 73.5938 94.9351 73.9429 94.9351 73.9429C94.9394 73.9402 94.9426 73.9361 94.9443 73.9313C94.946 73.9265 94.946 73.9213 94.9443 73.9165C94.9443 73.877 94.8745 73.8085 94.7862 73.7295L93.5203 73.4028L92.6483 75.4973C92.6483 75.4973 92.6404 75.6079 92.6338 75.7778Z" fill="black"/>
<path d="M88.167 67.5055L88.9047 67.5252L89.4092 68.2431C89.4092 68.2431 90.243 69.1349 90.4946 69.3575C90.7462 69.5802 92.3757 71.1121 92.8407 71.9077C92.8407 71.9077 93.2674 72.1211 93.2674 72.3345C93.2674 72.5479 94.0815 73.1684 94.0815 73.1684C94.0815 73.1684 94.9351 73.7493 94.8192 73.827C94.8192 73.827 93.6165 73.4779 93.1318 74.9321C92.647 76.3864 92.6273 75.766 92.6273 75.766C92.5435 75.6741 92.4451 75.5967 92.3362 75.5368C92.2202 75.4946 91.6683 74.7003 91.4984 74.6806C91.373 74.6558 91.2549 74.6026 91.1533 74.5251L90.1653 73.5556L89.2143 72.9932C89.2143 72.9932 88.4239 72.1014 87.955 71.4809C87.6002 71.0315 87.2113 70.6101 86.7918 70.2203L88.167 67.5055Z" fill="#BDD3E8"/>
<path d="M91.8513 72.1988C91.8513 72.1988 90.5341 72.8377 90.5907 72.9734C90.6474 73.1091 91.8513 72.1988 91.8513 72.1988Z" fill="black"/>
<path d="M90.8108 72.0434C90.8108 72.0434 90.7081 72.619 90.1838 72.5927C89.6595 72.5664 90.8108 72.0434 90.8108 72.0434Z" fill="black"/>
<path d="M92.6471 73.6597C92.6471 73.6597 92.5694 73.989 92.0846 74.047C91.5999 74.1049 92.6471 73.6597 92.6471 73.6597Z" fill="black"/>
<path d="M87.7115 72.1988C87.7115 72.1988 87.0726 72.4623 87.0146 72.8285C86.9567 73.1947 87.7115 72.1988 87.7115 72.1988Z" fill="black"/>
<path d="M89.2829 73.5556C89.0352 73.6623 88.3226 74.4619 88.3371 74.5488C88.3516 74.6358 89.2829 73.5556 89.2829 73.5556Z" fill="black"/>
<path d="M88.1488 72.9879C88.0744 72.9615 87.9943 72.9561 87.9171 72.9724C87.8399 72.9887 87.7688 73.0259 87.7114 73.0801C87.5336 73.2645 88.1488 72.9879 88.1488 72.9879Z" fill="black"/>
<path d="M83.4501 66.6532C83.4501 66.6532 85.9226 65.8523 85.7329 66.6532C85.5433 67.4541 83.4501 67.9033 83.4501 67.9033V66.6532Z" fill="#F899A5"/>
<path d="M75.1513 57.9567L77.1904 61.5633L77.9386 62.9899L81.9233 62.409L81.8338 62.218C81.7405 62.0888 81.6342 61.9696 81.5163 61.8624C81.5255 61.7448 81.5188 61.6265 81.4965 61.5106C81.4761 61.3729 81.414 61.2447 81.3187 61.1431L81.3029 61.1287C81.1159 60.964 80.938 60.5385 80.8524 60.3106C80.8182 60.2197 80.7997 60.1592 80.7997 60.1592L80.5363 59.8575L79.6814 58.892L79.4403 58.618L79.2137 58.3624L80.0252 59.5163C80.0252 59.5163 80.4124 60.2145 80.4322 60.3067C80.452 60.3989 81.0908 61.2564 81.0908 61.2564C81.0908 61.2564 82.1762 62.2075 80.2372 62.2259C78.2982 62.2444 77.1154 60.3554 77.1154 60.3554L75.4793 57.821C75.3729 57.8729 75.2633 57.9182 75.1513 57.9567Z" fill="black"/>
<path d="M79.5259 70.817L80.286 70.7644L82.0024 70.6208V70.3573L79.539 70.5114L79.5259 70.817Z" fill="black"/>
<path d="M75.4858 57.6169C75.4858 57.6169 75.1368 58.0041 74.7877 58.0239C74.7877 58.0239 75.4279 58.7023 75.661 59.3622C75.661 59.3622 76.7491 61.1932 75.9706 61.8242C75.1921 62.4551 74.7403 62.5803 74.7403 62.5803L74.9761 66.7955C74.9761 66.7955 74.4004 69.6934 74.1857 69.9095C73.971 70.1255 74.0303 70.6076 74.0303 70.6076C74.0303 70.6076 74.1712 71.0924 74.0237 71.2662C73.8761 71.4401 73.8366 72.3332 73.8366 72.3332C73.8366 72.3332 74.7087 71.8867 74.8904 71.8867C75.0722 71.8867 75.5491 70.9751 75.5491 70.9751L80.2912 70.6458L82.3764 70.4719L82.0471 64.676C82.0471 64.676 82.9968 63.1177 81.698 61.919C81.698 61.919 81.748 61.4171 81.4846 61.1853C81.2211 60.9535 80.9801 60.2158 80.9801 60.2158L79.3902 58.4191L80.2042 59.5769C80.2042 59.5769 80.5928 60.2751 80.6113 60.3673C80.6297 60.4595 81.2699 61.3183 81.2699 61.3183C81.2699 61.3183 82.3553 62.2681 80.4163 62.2878C78.4773 62.3076 77.2944 60.4068 77.2944 60.4068L75.4858 57.6169Z" fill="#E6EBEF"/>
<path d="M77.0376 65.2569C77.0376 65.2569 76.3632 65.7509 75.6413 65.7707C74.9195 65.7904 77.0376 65.2569 77.0376 65.2569Z" fill="black"/>
<path d="M76.1657 63.6907C76.1657 63.6907 75.6322 63.4273 75.3319 63.6472C75.0315 63.8672 76.1657 63.6907 76.1657 63.6907Z" fill="black"/>
<path d="M76.4172 64.5706C76.4172 64.5706 76.383 64.8815 75.5926 64.9197C74.8023 64.9579 76.4172 64.5706 76.4172 64.5706Z" fill="black"/>
<path d="M74.8471 58.0239L74.6812 58.1121C74.3451 58.2366 73.9928 58.3116 73.6353 58.3348C72.9661 58.3927 72.3839 59.0329 72.268 59.6428C72.239 59.7956 72.2153 59.9998 72.1955 60.2184C72.1283 61.008 72.1407 61.8024 72.2324 62.5895C72.2956 63.1467 72.3641 63.775 72.3259 63.8672C72.268 64.0411 72.646 66.7467 72.646 66.7467C72.646 66.7467 72.7329 68.9571 73.2862 69.1613C73.8394 69.3654 76.9218 69.3641 76.9218 69.3641L78.2298 67.0958L75.1764 67.2407C74.9087 66.7619 74.7779 66.2187 74.7984 65.6705C74.8274 64.7392 74.7404 62.5868 74.7404 62.5868C74.7404 62.5868 76.5846 62.1917 76.2105 60.7519C75.8364 59.3122 74.8471 58.0239 74.8471 58.0239Z" fill="#F899A5"/>
<path d="M80.664 75.301C80.664 75.301 81.8956 75.708 82.3764 75.4946C82.8572 75.2812 83.9031 74.4672 83.9031 74.4672C83.9031 74.4672 84.5749 73.8085 85.2138 73.0722L85.2954 72.9773C85.8487 72.3332 86.3492 71.6601 86.3492 71.3268C86.3461 71.1885 86.3634 71.0504 86.4006 70.9172C86.4563 70.7244 86.5455 70.5429 86.664 70.381C86.7302 70.288 86.8062 70.2023 86.8906 70.1255L88.9073 67.5266C88.9073 67.5266 88.3251 66.9061 88.3251 66.7362C88.3251 66.5663 87.627 65.6126 86.7352 66.1171C86.3598 66.3278 85.4627 67.1142 84.5485 67.9533C83.2906 69.1073 82.0036 70.3626 82.0036 70.3626C82.0036 70.3626 81.9127 70.4601 81.7797 70.6116C81.4385 71.0067 80.822 71.751 80.7733 72.1277C80.7022 72.6441 80.664 75.301 80.664 75.301Z" fill="#BDD3E8"/>
<path d="M81.7771 70.605C82.7321 71.556 84.1692 72.8311 85.2125 73.0722L85.2402 73.0788L85.2942 72.9773L86.3954 70.9171L86.6747 70.3902L86.6602 70.3758L84.5447 67.9428C83.2867 69.0967 81.9997 70.3521 81.9997 70.3521C81.9997 70.3521 81.9101 70.4535 81.7771 70.605Z" fill="black"/>
<path d="M74.0566 72.3872V72.8285C74.0566 72.8285 73.4454 74.9861 74.5506 75.5947C75.1091 75.9043 76.2986 75.978 77.3392 75.9754C78.0332 75.9774 78.7058 75.7349 79.2388 75.2905C79.7719 74.8461 80.1314 74.2281 80.2543 73.5451C80.2955 73.3389 80.2995 73.127 80.2662 72.9194C80.2662 72.9194 80.7601 69.3852 80.8774 69.3628C80.8774 69.3628 83.6554 72.544 85.356 72.9102L86.7918 70.2256L84.4985 67.5911C84.4985 67.5911 82.7966 64.8868 82.3026 64.6391C81.8087 64.3915 81.3134 63.6986 81.3134 63.6986C81.3134 63.6986 79.3204 62.0362 77.9978 64.8433C76.6753 67.6504 75.8165 69.9174 75.4951 70.7591C75.4951 70.7591 75.0288 71.7128 74.739 71.7101H74.7297C74.5511 71.7119 74.3803 71.7839 74.2543 71.9106C74.1283 72.0373 74.0573 72.2085 74.0566 72.3872Z" fill="#BDD3E8"/>
<path d="M80.9354 69.2126C80.6687 68.918 80.4659 68.5713 80.34 68.1944C80.12 67.5542 80.4059 68.8438 80.8774 69.3575L80.9354 69.2126Z" fill="black"/>
<path d="M83.5237 53.2067C83.504 53.3911 83.3657 53.5558 83.2234 53.7099C82.921 54.0372 82.5961 54.3431 82.2513 54.6254C82.1037 54.7479 81.9443 54.8757 81.8956 55.035C81.8699 55.1535 81.8781 55.2767 81.9193 55.3907C82.0422 55.8366 82.2154 56.267 82.4357 56.6737C82.5259 56.802 82.5758 56.9542 82.5793 57.111C82.5437 57.4562 82.0523 57.6498 81.6941 57.8777C81.2238 58.182 80.9524 58.6417 80.9696 59.1001C80.9985 59.8154 81.6769 60.4331 81.8363 61.1392C81.3961 61.1346 80.961 61.0451 80.5546 60.8757C80.1779 60.6979 79.896 60.3884 79.9118 60.059C79.9226 60.0078 79.9157 59.9543 79.8921 59.9076C79.8426 59.8567 79.7778 59.8234 79.7076 59.8127C79.3559 59.7271 78.9265 59.7548 78.6683 59.5585C78.4101 59.3622 78.4694 59.0171 78.5801 58.7418C78.8804 57.9883 79.3151 57.2638 79.5772 56.5025C79.6827 56.2495 79.7217 55.9738 79.6905 55.7016C79.6431 55.4381 79.4811 55.1865 79.3428 54.9362C79.04 54.3927 78.8442 53.7962 78.7658 53.179C78.7236 52.8313 78.725 52.469 78.9081 52.1476C79.1122 51.7854 79.5456 51.4982 80.058 51.3863C81.0473 51.1689 81.5742 51.6497 82.3474 51.9698C82.9231 52.2148 83.5817 52.6534 83.5237 53.2067Z" fill="#4B3648"/>
<path d="M81.8365 61.0799C81.7562 61.0799 81.6758 61.0707 81.5955 61.0641C81.4308 60.3647 80.763 59.7469 80.734 59.0421C80.7169 58.5837 80.9895 58.1201 81.4585 57.8184C81.8115 57.5905 82.3081 57.3969 82.3437 57.0531C82.3401 56.8959 82.2902 56.7433 82.2001 56.6144C81.9799 56.2077 81.8066 55.7773 81.6837 55.3314C81.6425 55.2175 81.6343 55.0942 81.66 54.9758C81.7087 54.8164 81.8681 54.6886 82.0157 54.5674C82.3604 54.2827 82.6852 53.9746 82.9878 53.6454C83.1301 53.4926 83.2684 53.3279 83.2881 53.1435C83.3487 52.5902 82.6941 52.1503 82.1118 51.9066C81.5072 51.651 81.058 51.3059 80.4073 51.2717C81.1819 51.2216 81.6706 51.6221 82.3476 51.9066C82.9298 52.1503 83.5845 52.5902 83.5239 53.1435C83.5042 53.3279 83.3659 53.4926 83.2236 53.6454C82.921 53.9746 82.5962 54.2827 82.2515 54.5674C82.1039 54.6886 81.9445 54.8164 81.8958 54.9758C81.8701 55.0942 81.8783 55.2175 81.9195 55.3314C82.0424 55.7773 82.2157 56.2077 82.4359 56.6144C82.526 56.7433 82.5759 56.8959 82.5795 57.0531C82.5439 57.3969 82.0526 57.5905 81.6943 57.8184C81.224 58.1227 80.9527 58.5837 80.9698 59.0421C80.9988 59.7561 81.6771 60.3752 81.8365 61.0799Z" fill="black"/>
<path d="M79.6168 57.8355C77.9058 57.8355 76.5187 56.4484 76.5187 54.7373C76.5187 53.0263 77.9058 51.6392 79.6168 51.6392C81.3279 51.6392 82.715 53.0263 82.715 54.7373C82.715 56.4484 81.3279 57.8355 79.6168 57.8355Z" fill="black"/>
<path d="M79.5588 57.7196C77.8477 57.7196 76.4606 56.3325 76.4606 54.6214C76.4606 52.9103 77.8477 51.5232 79.5588 51.5232C81.2699 51.5232 82.657 52.9103 82.657 54.6214C82.657 56.3325 81.2699 57.7196 79.5588 57.7196Z" fill="#F899A5"/>
<path d="M81.4663 53.1685C81.7087 53.0921 81.9629 53.0078 82.125 52.7931C82.287 52.5784 82.316 52.1911 82.1092 52.0146C81.9937 51.9422 81.868 51.8876 81.7364 51.8526C81.2161 51.622 81.1278 50.8146 80.7748 50.3101C80.6597 50.1362 80.4998 49.9967 80.312 49.9063C80.1242 49.8158 79.9154 49.7779 79.7078 49.7963C79.4892 49.8454 79.274 49.9088 79.0637 49.986C78.5486 50.1256 77.998 50.015 77.4751 50.1098C76.4476 50.2982 75.6612 51.2651 75.2357 52.3492C75.0395 52.8484 74.9025 53.3766 74.747 53.8969C74.5118 54.677 74.2303 55.4424 73.904 56.189C73.8372 56.3667 73.7396 56.5313 73.6155 56.675C73.2862 57.0109 72.704 56.9859 72.5011 57.4377C72.3892 57.688 72.4418 57.9949 72.4787 58.2781C72.6043 59.2342 72.5217 60.2062 72.2364 61.1273C72.0137 61.8334 71.5883 62.5473 70.9389 62.6488C71.1878 62.9965 71.6752 62.9636 71.9834 62.7146C72.2917 62.4657 72.4761 62.0652 72.6829 61.7003C72.8575 61.3925 73.057 61.0995 73.2796 60.8244C73.3961 60.6598 73.5513 60.5264 73.7314 60.4358C74.174 60.2566 74.6443 60.6228 75.0395 60.9416C75.3648 61.2051 75.7165 61.4514 76.1051 61.5014C76.3051 61.5318 76.5094 61.4905 76.6818 61.3846C76.8542 61.2788 76.9836 61.1153 77.047 60.9232C77.1958 60.4187 76.8955 59.7376 77.2235 59.3714C77.342 59.2397 77.5159 59.191 77.6582 59.0896C78.077 58.7919 78.1284 58.1108 78.0718 57.5339C78.0151 56.9569 77.8966 56.3378 78.1205 55.8307C78.2486 55.577 78.428 55.3527 78.6474 55.172C79.5859 54.305 80.6612 53.5991 81.8299 53.0829" fill="#4B3648"/>
<path d="M75.7717 61.4092C75.9719 61.44 76.1765 61.3988 76.3492 61.2929C76.5219 61.187 76.6514 61.0233 76.7148 60.831C76.8637 60.3278 76.562 59.6454 76.8914 59.2792C77.0099 59.1475 77.1838 59.0988 77.3247 58.9987C77.7449 58.701 77.7963 58.0199 77.7383 57.443C77.6804 56.866 77.5632 56.2456 77.7884 55.7385C77.9169 55.485 78.0962 55.2608 78.3153 55.0798C79.2529 54.2086 80.3282 53.4987 81.4978 52.9788L81.1316 53.0658C81.374 52.9894 81.6295 52.9037 81.7902 52.6903C81.9509 52.477 81.9812 52.0884 81.7731 51.9105C81.658 51.8386 81.5328 51.7844 81.4016 51.7498C80.8747 51.5193 80.7931 50.7118 80.44 50.2073C80.3253 50.0424 80.1732 49.907 79.9961 49.8121C80.1564 49.8393 80.3095 49.8984 80.4464 49.986C80.5834 50.0735 80.7012 50.1878 80.7931 50.3219C81.1461 50.8264 81.233 51.6392 81.7547 51.8644C81.8863 51.8995 82.012 51.9541 82.1274 52.0265C82.3342 52.203 82.3092 52.5916 82.1432 52.8049C81.9773 53.0183 81.7217 53.104 81.4846 53.1804L81.8495 53.0947C80.6807 53.6135 79.6058 54.3221 78.6683 55.1918C78.449 55.3725 78.2695 55.5968 78.1414 55.8504C77.9162 56.3576 78.0347 56.9767 78.0927 57.5536C78.1506 58.1306 78.0927 58.8116 77.6791 59.1093C77.5368 59.2107 77.3629 59.2568 77.2444 59.3912C76.9164 59.7587 77.2167 60.4384 77.0679 60.9429C77.0045 61.1351 76.8752 61.2985 76.7028 61.4044C76.5304 61.5102 76.326 61.5516 76.126 61.5212C75.9784 61.5007 75.8351 61.4562 75.7019 61.3895C75.7248 61.3974 75.7481 61.404 75.7717 61.4092Z" fill="black"/>
<path d="M71.6514 62.6158C71.9596 62.3669 72.144 61.9664 72.3495 61.6029C72.5237 61.2945 72.7238 61.0014 72.9475 60.7269C73.0634 60.5617 73.2187 60.4281 73.3994 60.3383C73.5133 60.2991 73.6346 60.2857 73.7543 60.2989C73.8741 60.3121 73.9895 60.3516 74.0922 60.4147C73.9773 60.3987 73.8602 60.4128 73.7524 60.4555C73.572 60.5458 73.4168 60.6793 73.3006 60.8441C73.078 61.1193 72.8784 61.4122 72.7038 61.7201C72.497 62.085 72.3087 62.4854 72.0044 62.7344C71.7409 62.9425 71.3616 62.9978 71.0968 62.8068C71.2984 62.8106 71.4948 62.7429 71.6514 62.6158Z" fill="black"/>
<path d="M26.3564 73.9956L28.8802 74.0325L34.0939 64.5575L34.9646 62.9754L34.2968 58.9684L33.7831 59.9379L26.3564 73.9956Z" fill="#DCE0ED"/>
<path d="M49.1766 62.3445L50.2146 63.9028L53.3206 59.7034L54.742 57.7802L53.8884 56.6302L49.1766 62.3445Z" fill="#DCE0ED"/>
<path d="M53.235 57.4219C53.235 57.5023 53.2258 57.5853 53.2205 57.6682L53.3206 59.7034L54.742 57.7802L53.8884 56.6302L53.235 57.4219Z" fill="black"/>
<path d="M33.7831 59.9379L34.0939 64.5575L34.9646 62.9754L34.2968 58.9684L33.7831 59.9379Z" fill="black"/>
<path d="M56.183 60.3778C56.183 60.3778 57.4291 51.0714 52.8898 49.6791C52.8316 49.6621 52.7722 49.6498 52.712 49.6422C51.6674 49.5171 41.9369 48.3948 36.8852 49.7278C36.8852 49.7278 33.434 50.2481 33.4709 52.0989L35.0016 74.7741H37.4872L36.6718 59.7837C36.6718 59.7837 35.4863 53.2528 37.4503 52.8023C39.4144 52.3518 48.3598 51.6168 51.5133 52.5059C51.5133 52.5059 53.8146 51.9856 53.4431 57.6629L53.5919 60.7058L56.183 60.3778Z" fill="#DCE0ED"/>
<path d="M48.6193 63.1414C48.5984 62.8957 48.6412 62.6488 48.7437 62.4245C48.8462 62.2002 49.0047 62.0061 49.2041 61.8611C49.8997 61.3342 52.0428 60.1921 52.0428 60.1921L52.7383 60.2474L54.8249 65.4242L54.6866 76.4167L50.9297 81.064L48.6193 63.1414Z" fill="#087965"/>
<path d="M48.6193 63.1414C48.5984 62.8957 48.6412 62.6488 48.7437 62.4245C48.8462 62.2002 49.0047 62.0061 49.2041 61.8611C49.8997 61.3342 52.0428 60.1921 52.0428 60.1921L52.7383 60.2474L54.8249 65.4242L54.6866 76.4167L50.9297 81.064L48.6193 63.1414Z" fill="black"/>
<path d="M63.6096 74.6634L63.5359 63.3825C63.5359 63.3825 63.8691 59.0039 61.2531 58.9302C61.2531 58.9302 55.0844 58.9749 52.4038 59.8456C52.3192 59.8728 52.2418 59.9185 52.1771 59.9794C52.1124 60.0403 52.0621 60.1148 52.0298 60.1975C51.9975 60.2803 51.984 60.3692 51.9904 60.4578C51.9967 60.5464 52.0228 60.6325 52.0666 60.7098C52.5935 61.6384 53.4997 64.0977 53.9344 70.4047V77.1675L63.6096 74.6634Z" fill="#087965"/>
<path d="M50.5951 81.8714L61.8207 81.6093H61.8313L67.3479 81.4815L66.7091 74.1062L63.6478 74.2182L53.9067 76.389L50.9297 81.064L50.5951 81.8714Z" fill="#087965"/>
<path d="M50.5951 81.8714L61.8207 81.6093H61.8313L67.3479 81.4815L66.7091 74.1062L63.6478 74.2182L53.9067 76.389L50.9297 81.064L50.5951 81.8714Z" fill="black"/>
<path d="M50.5951 81.8714L61.8207 81.6093L62.0051 76.667L53.9067 76.389L50.9297 81.064L50.5951 81.8714Z" fill="#087965"/>
<path d="M61.8313 81.6093L67.3479 81.4776L66.7077 74.1009C66.7077 74.1009 64.9821 76.8566 62.0052 76.6617L61.8313 81.6093Z" fill="white"/>
<path d="M22.2374 87.5751C22.46 89.6906 23.963 89.356 23.963 89.356L24.2436 89.331L27.0243 89.0781L26.9123 85.7942C26.9123 85.7942 25.3988 85.6914 24.0921 85.9641C23.0488 86.1801 22.1386 86.6359 22.2374 87.5751Z" fill="#DCE0ED"/>
<path d="M60.8643 55.5172C60.8643 55.5172 65.9845 57.8527 66.356 58.5218C66.7274 59.191 69.2539 62.0784 69.2539 62.0784L68.1593 63.9226L63.0944 59.8957L60.8643 55.5172Z" fill="#4C4981"/>
<path d="M64.7661 67.458L67.1372 67.1037L68.8812 69.1612C68.8812 69.1612 71.3115 70.3665 71.5947 70.8934C71.878 71.4203 72.7618 72.9642 73.1517 72.976C73.5416 72.9879 73.9065 73.5569 73.9092 73.7822C73.9118 74.0074 75.3937 76.5945 75.7612 76.7433C76.1287 76.8922 76.7663 77.7326 76.7505 77.8986C76.7347 78.0645 78.1336 79.719 78.1336 79.719C78.1336 79.719 80.5046 83.4297 80.8577 83.5483C81.2107 83.6668 82.5767 86.0629 82.9231 86.3474C83.2695 86.632 84.2404 86.8875 84.1218 87.118C84.0033 87.3485 81.619 90.6074 81.7639 91.5308C81.7639 91.5308 79.9896 90.1266 79.9198 89.6946C79.85 89.2625 77.6541 86.9837 77.6541 86.9837L66.1532 75.0388L63.9362 67.5107L64.7661 67.458Z" fill="#CEDDF9"/>
<path d="M58.3985 71.2952C58.3985 71.2952 57.9256 76.7249 59.4931 77.5469C61.0607 78.3688 62.1276 78.274 62.4293 78.6363C62.7309 78.9985 64.5685 79.3186 64.7635 79.6479C64.9584 79.9772 70.1075 82.8554 70.1075 82.8554C70.1075 82.8554 73.6299 84.9314 74.1818 85.3832C74.7337 85.835 77.7384 87.1562 78.2508 87.778C78.7632 88.3997 81.9799 90.4375 81.9799 90.4375C81.9799 90.4375 82.9218 87.5396 84.0046 87.2853C84.0046 87.2853 81.4017 86.7729 81.2475 86.3633C81.0934 85.9536 80.3162 85.5136 80.3162 85.5136C80.3162 85.5136 76.6108 83.3639 76.4962 82.8791C76.3816 82.3944 75.4688 81.7041 75.4688 81.7041C75.4688 81.7041 73.9974 79.6927 73.456 79.499C72.9146 79.3054 69.7045 76.0097 69.7045 76.0097C69.7045 76.0097 67.5218 74.8557 67.2794 74.4764C67.037 74.097 62.9009 71.9472 62.9009 71.9472L67.6153 66.0894L66.1242 65.631L61.7074 66.8165L60.9171 68.2484L58.3985 71.2952Z" fill="black"/>
<path d="M58.1325 71.3743C58.1325 71.3743 57.6583 76.804 59.2258 77.6259C60.7933 78.4479 61.8603 78.3544 62.1633 78.7153C62.4663 79.0762 64.3025 79.399 64.4975 79.727C64.6924 80.055 69.8402 82.9358 69.8402 82.9358C69.8402 82.9358 73.3626 85.0105 73.9158 85.4583C74.4691 85.9062 77.4724 87.2327 77.9848 87.8544C78.4972 88.4762 81.7139 90.5126 81.7139 90.5126C81.7139 90.5126 82.6597 87.6226 83.7386 87.3591C83.7386 87.3591 81.1344 86.848 80.9816 86.437C80.8288 86.0261 80.0503 85.5861 80.0503 85.5861C80.0503 85.5861 76.3448 83.4363 76.2302 82.9516C76.1156 82.4668 75.2014 81.7753 75.2014 81.7753C75.2014 81.7753 73.7301 79.7638 73.1887 79.5715C72.6473 79.3792 69.4385 76.0808 69.4385 76.0808C69.4385 76.0808 67.2558 74.9269 67.0134 74.5475C66.771 74.1682 68.8839 69.1468 68.8839 69.1468L67.3454 66.1566L65.8542 65.6995L61.4375 66.8851L60.6471 68.3169L58.1325 71.3743Z" fill="#CEDDF9"/>
<path d="M52.8898 57.1637L56.4925 59.6665C56.4925 59.6665 60.846 58.0516 59.127 57.4035C57.9994 56.978 57.5937 54.7821 57.4488 53.32C57.3724 52.5586 57.3685 52.0027 57.3685 52.0027C57.3685 52.0027 52.4564 51.9948 53.3601 53.5624C53.5998 53.9941 53.7044 54.4879 53.6604 54.9797C53.5919 56.1402 52.8898 57.1637 52.8898 57.1637Z" fill="#FEC2BE"/>
<path d="M53.6683 54.9811C54.3939 55.1507 55.1549 55.0811 55.8376 54.7826C56.5204 54.4842 57.0884 53.973 57.4567 53.3253C57.3803 52.5639 57.3764 52.008 57.3764 52.008C57.3764 52.008 52.4643 52.0001 53.368 53.5676C53.6069 53.9983 53.7115 54.4905 53.6683 54.9811Z" fill="black"/>
<path d="M51.1208 52.5178C51.3769 53.3847 51.962 54.117 52.751 54.5582C53.5399 54.9994 54.4702 55.1145 55.3429 54.8789C56.2156 54.6432 56.9615 54.0756 57.4212 53.2973C57.881 52.5189 58.018 51.5916 57.803 50.7136C57.5881 49.8356 57.0382 49.0765 56.2709 48.5985C55.5037 48.1206 54.5799 47.9617 53.697 48.1558C52.8142 48.35 52.0423 48.8818 51.5463 49.6376C51.0504 50.3933 50.8698 51.3131 51.043 52.2003C51.0641 52.3057 51.0891 52.4124 51.1208 52.5178Z" fill="#FEC2BE"/>
<path d="M58.0388 55.7595C58.0388 55.7595 58.6434 55.7595 58.6816 56.6197C58.7198 57.4799 59.331 57.4166 59.331 57.4166L62.171 60.366C62.171 60.366 63.4461 63.4194 63.4356 63.5432C63.425 63.667 63.7227 64.1834 63.6555 64.4442C63.5884 64.705 63.6819 65.498 63.919 65.4282C64.1561 65.3584 64.5513 65.602 64.546 65.9906C64.5407 66.3792 66.5417 67.5713 66.46 67.8611C66.3783 68.1509 60.7629 71.1345 60.7629 71.1345L58.4261 72.9457L56.2447 68.882L54.4269 63.2824L53.4165 60.0314L52.5801 59.0961L52.9647 56.9016C52.9647 56.9016 53.3099 55.9519 53.5917 56.0849C53.8736 56.2179 54.909 57.3363 55.8811 57.4338C56.8533 57.5312 57.421 57.6498 57.6476 57.4338C57.8741 57.2177 59.2507 57.0623 58.0388 55.7595Z" fill="black"/>
<path d="M57.844 55.4737C57.844 55.4737 58.5632 55.4948 58.6027 56.3536C58.6423 57.2125 59.2521 57.1505 59.2521 57.1505L62.0921 60.0999C62.0921 60.0999 63.3672 63.1519 63.3554 63.2771C63.3435 63.4022 63.6439 63.916 63.5767 64.1781C63.5095 64.4402 63.6017 65.2319 63.8401 65.1621C64.0786 65.0923 64.4737 65.336 64.4685 65.7245C64.4632 66.1131 66.4641 67.3052 66.3811 67.595C66.2981 67.8848 60.6853 70.8684 60.6853 70.8684L58.3472 72.6796L56.1658 68.6146L54.348 63.015L53.3285 59.7653L52.4933 58.83L52.878 56.6355C52.878 56.6355 53.2231 55.6858 53.505 55.8188C53.7869 55.9518 54.8222 57.0702 55.793 57.1664C56.7639 57.2625 57.3329 57.3837 57.5595 57.1664C57.786 56.949 57.6504 56.704 57.844 55.4737Z" fill="black"/>
<path d="M57.8704 55.5619C57.8704 55.5619 58.5909 55.583 58.6291 56.4419C58.6673 57.3007 59.2785 57.2401 59.2785 57.2401L62.1185 60.1881C62.1185 60.1881 63.3936 63.2415 63.3818 63.3653C63.3699 63.4892 63.6703 64.0055 63.6031 64.2663C63.5359 64.5272 63.6281 65.3201 63.8665 65.2503C64.105 65.1805 64.4988 65.4242 64.4935 65.8128C64.4883 66.2014 66.4892 67.3935 66.4062 67.6833C66.3232 67.9731 60.7104 70.958 60.7104 70.958L58.3736 72.7679L56.1922 68.7042L54.3731 63.1045L53.3549 59.8535L52.5184 58.9183L52.903 56.7238C52.903 56.7238 53.2482 55.774 53.53 55.9084C53.8119 56.0427 54.8473 57.1584 55.8181 57.2559C56.7889 57.3534 57.3593 57.4733 57.5859 57.2559C57.8124 57.0386 57.6768 56.7988 57.8704 55.5619Z" fill="white"/>
<path d="M57.8454 55.558C58.1823 55.5247 58.5153 55.4594 58.8399 55.363C59.1877 55.2313 60.4746 55.3341 60.4746 55.3341C60.4746 55.3341 61.9526 55.425 62.2252 55.8517C62.4979 56.2785 63.6742 58.5877 64.0773 58.7326C64.4804 58.8775 66.8633 62.7133 67.3507 63.0505C67.8381 63.3877 69.9378 67.5015 69.9378 67.5015C69.9378 67.5015 68.386 66.7691 67.676 67.8414C67.6576 67.869 67.6391 67.8967 67.622 67.927C66.9397 69.1231 66.3048 68.201 66.3048 68.201C66.3048 68.201 64.0457 66.1434 63.8652 65.7851C63.6848 65.4268 62.3491 62.7318 62.0053 61.9875C61.6615 61.2433 58.7503 57.5668 58.6529 57.4035C58.5554 57.2401 57.8454 55.558 57.8454 55.558Z" fill="black"/>
<path d="M57.8454 55.558C58.2412 55.5036 58.6324 55.4208 59.0163 55.3103C59.3654 55.1786 60.6524 55.2814 60.6524 55.2814C60.6524 55.2814 62.1303 55.3722 62.403 55.7977C62.6756 56.2232 63.852 58.535 64.255 58.6785C64.6581 58.8221 67.041 62.6593 67.5284 62.9978C68.0158 63.3364 70.1155 67.4488 70.1155 67.4488C70.1155 67.4488 68.5638 66.7164 67.8525 67.7887C67.8353 67.815 67.8169 67.844 67.7998 67.8743C67.1174 69.069 66.4825 68.1483 66.4825 68.1483C66.4825 68.1483 64.2221 66.0894 64.043 65.7324C63.8638 65.3755 62.5268 62.679 62.183 61.9348C61.8392 61.1905 58.9281 57.5141 58.8306 57.3494C58.7331 57.1848 57.8454 55.558 57.8454 55.558Z" fill="#4C4981"/>
<path d="M53.5208 55.695C53.5208 55.695 51.6529 57.0504 51.4132 57.4614C51.1734 57.8724 48.7273 59.158 48.7273 59.158C48.7273 59.158 47.8052 60.8599 47.9435 61.4725C48.0819 62.085 48.2281 62.6685 48.1082 62.9952C47.9883 63.3219 47.9146 63.3192 48.0924 63.75C48.2702 64.1807 48.2083 64.2229 47.9607 64.6102C47.713 64.9974 51.649 66.1909 51.649 66.1909C51.649 66.1909 52.1759 66.2725 52.2325 66.5241C52.2892 66.7757 55.307 73.416 55.743 74.4711C56.179 75.5262 57.5569 79.7401 58.7134 79.7994C59.8699 79.8587 58.9768 79.8152 58.9768 79.8152C58.9768 79.8152 58.799 76.3903 59.5103 75.2048C60.2217 74.0193 58.8175 69.4445 58.8175 69.4445C58.8175 69.4445 54.1425 55.9927 53.5208 55.695Z" fill="black"/>
<path d="M53.5208 55.695C53.5208 55.695 51.475 57.1044 51.2352 57.5141C50.9955 57.9238 48.5428 59.2107 48.5428 59.2107C48.5428 59.2107 47.6207 60.9126 47.759 61.5251C47.8973 62.1377 48.0435 62.7225 47.9237 63.0479C47.8038 63.3733 47.73 63.3719 47.9079 63.8027C48.0857 64.2334 48.0251 64.2756 47.7761 64.6642C47.5272 65.0528 51.4644 66.2449 51.4644 66.2449C51.4644 66.2449 51.9914 66.3278 52.048 66.5781C52.1046 66.8284 55.129 73.4726 55.5677 74.5264C56.0063 75.5802 57.3815 79.7889 58.5381 79.8508C59.6946 79.9127 58.8015 79.8666 58.8015 79.8666C58.8015 79.8666 58.6237 76.4417 59.335 75.2562C60.0463 74.0707 58.6303 69.4932 58.6303 69.4932C58.6303 69.4932 54.1425 55.9927 53.5208 55.695Z" fill="#4C4981"/>
<path d="M51.1471 69.2535C51.1471 69.2535 55.2911 70.1755 55.4202 70.439C55.5493 70.7024 58.9768 72.7455 57.1788 73.7321C55.3807 74.7187 52.5552 72.3424 52.5552 72.3424L50.3159 70.9132L51.1471 69.2535Z" fill="#FEC2BE"/>
<path d="M49.2951 63.7289C49.228 63.7487 47.7843 64.6642 47.7843 64.6642C47.7843 64.6642 47.1046 66.9219 46.9557 67.4752C46.8069 68.0284 46.4288 69.0124 46.4538 69.1968C46.4789 69.3812 46.0428 70.4074 46.7384 70.8763C47.4339 71.3453 48.1636 71.2715 48.4982 71.585C48.8328 71.8985 51.1393 72.9023 51.4304 72.9813C51.7215 73.0603 49.992 69.5419 52.1272 69.0006C52.1272 69.0006 50.5979 69.1441 50.5189 68.8767C50.4398 68.6093 50.3516 67.9112 50.6374 67.657C50.9233 67.4027 52.1575 66.1869 52.1575 66.1869L49.2951 63.7289Z" fill="#4C4981"/>
<path d="M51.0457 52.2003C51.226 52.1043 51.3705 51.9528 51.458 51.7683C51.599 51.4943 51.7399 51.1597 52.0402 51.0899C52.2088 51.049 52.413 51.0991 52.5382 50.9792C52.6356 50.8844 52.633 50.7303 52.6343 50.5946C52.6299 50.285 52.7175 49.9811 52.8859 49.7213C52.9713 49.5931 53.0877 49.4886 53.2242 49.4175C53.3608 49.3463 53.5131 49.3108 53.667 49.3142C54.0952 49.3432 54.4679 49.7331 54.8895 49.6554C55.0752 49.6211 55.253 49.496 55.4348 49.5447C55.5057 49.567 55.5712 49.6038 55.6271 49.6528C56.0207 49.9623 56.324 50.3717 56.5057 50.8383C56.6796 51.2809 56.7376 51.7604 56.9457 52.1937C57.0287 52.3623 57.1881 52.5428 57.3672 52.4901C57.6465 52.4071 57.4989 52.0554 57.6544 51.9013C57.7178 51.8516 57.7941 51.821 57.8744 51.8131C57.9143 51.3212 57.8484 50.8265 57.6811 50.3623C57.5137 49.8981 57.2488 49.4752 56.9042 49.122C56.5595 48.7689 56.1432 48.4937 55.6832 48.315C55.2233 48.1364 54.7303 48.0584 54.2377 48.0863C53.745 48.1143 53.2641 48.2475 52.8273 48.477C52.3905 48.7065 52.0079 49.027 51.7054 49.4169C51.4029 49.8067 51.1875 50.2569 51.0737 50.7371C50.9599 51.2172 50.9504 51.7162 51.0457 52.2003Z" fill="black"/>
<path d="M57.3381 52.4005C57.159 52.4532 56.9996 52.2688 56.9166 52.1055C56.7085 51.6774 56.6532 51.1926 56.4766 50.75C56.2948 50.2832 55.9909 49.8737 55.5967 49.5645C55.5413 49.5152 55.4763 49.478 55.4057 49.4552C55.2239 49.4077 55.0448 49.5316 54.8604 49.5658C54.4389 49.6449 54.07 49.2536 53.638 49.2246C53.4839 49.2214 53.3315 49.2571 53.1949 49.3285C53.0584 49.3999 52.9421 49.5046 52.8568 49.633C52.6876 49.892 52.6 50.1957 52.6052 50.505C52.6052 50.6367 52.6052 50.7948 52.5078 50.8897C52.3839 51.0108 52.1798 50.9608 52.0098 51.0003C51.7095 51.0714 51.5699 51.4047 51.4276 51.6787C51.2854 51.9527 50.9995 52.2398 50.7137 52.1213C50.628 52.0857 50.5582 52.0159 50.47 51.9896C50.3079 51.9356 50.1143 52.0238 49.9694 51.9342C49.785 51.821 49.8377 51.5391 49.9576 51.3507C50.0774 51.1623 50.221 50.9555 50.1459 50.754C50.0975 50.6563 50.0299 50.5693 49.947 50.4984C49.7354 50.2539 49.6254 49.9376 49.6396 49.6145C49.6538 49.2914 49.7912 48.986 50.0234 48.761C50.1407 48.6556 50.2776 48.5739 50.3922 48.4659C50.6228 48.2499 50.7453 47.9469 50.9191 47.6756C51.1307 47.3481 51.4187 47.0768 51.7582 46.8852C51.9064 46.7938 52.0728 46.7359 52.2456 46.7153C52.484 46.6968 52.7185 46.7864 52.9569 46.8101C53.7552 46.8905 54.4415 46.2595 55.2226 46.0804C55.3112 46.0514 55.4051 46.0421 55.4976 46.053C55.5902 46.0639 55.6793 46.0948 55.7587 46.1436C55.9142 46.2648 55.9471 46.4821 56.0222 46.6705C56.1789 47.0736 56.5583 47.3555 56.9614 47.5109C57.4264 47.6887 58.0152 47.7849 58.2088 48.242C58.3774 48.6372 58.1588 49.0903 58.247 49.5065C58.3155 49.8319 58.5592 50.0861 58.7476 50.3601C58.9359 50.6341 59.0743 51.0029 58.9109 51.2927C58.8099 51.4484 58.6597 51.5658 58.4841 51.626C58.2655 51.7156 57.7781 51.6681 57.6306 51.813C57.483 51.9579 57.6174 52.3202 57.3381 52.4005Z" fill="#9A5E7F"/>
<path d="M49.5347 67.6872C49.4557 67.6952 48.0159 67.9507 47.6774 68.4355C47.3388 68.9202 49.5347 67.6872 49.5347 67.6872Z" fill="black"/>
<path d="M50.2552 66.1513C50.2552 66.1513 48.685 66.507 48.5032 66.6585C48.3215 66.81 50.2552 66.1513 50.2552 66.1513Z" fill="black"/>
<path d="M49.739 62.2747C49.739 62.2747 48.5837 62.7805 48.452 63.094C48.3203 63.4075 49.739 62.2747 49.739 62.2747Z" fill="black"/>
<path d="M64.5027 75.3721C64.3829 75.4564 61.5455 77.5614 61.7773 77.6378C62.0092 77.7142 64.5027 75.3721 64.5027 75.3721Z" fill="black"/>
<path d="M64.5238 76.6893C64.5238 76.6893 62.8614 77.4929 63.1393 77.8288C63.4173 78.1647 64.5238 76.6893 64.5238 76.6893Z" fill="black"/>
<path d="M58.1867 49.3287C58.1116 48.9717 58.2618 48.5858 58.1999 48.2354C58.1999 48.2354 58.1999 48.2354 58.1999 48.242C58.3658 48.6266 58.1564 49.0758 58.2341 49.4868C58.2144 49.4353 58.1985 49.3825 58.1867 49.3287Z" fill="black"/>
<path d="M50.0934 50.5735C50.1054 50.6083 50.1116 50.6447 50.1119 50.6815C50.0624 50.615 50.0073 50.5529 49.9472 50.4958C49.807 50.3425 49.7109 50.154 49.6693 49.9504C49.7198 50.0864 49.7963 50.2112 49.8945 50.3179C49.9774 50.3888 50.0451 50.4758 50.0934 50.5735Z" fill="black"/>
<path d="M49.9156 51.7538C50.0605 51.8433 50.2555 51.7538 50.4175 51.8091C50.5057 51.8394 50.5756 51.9079 50.6612 51.9408C50.947 52.0594 51.2342 51.7735 51.3751 51.4995C51.5161 51.2255 51.657 50.891 51.9573 50.8198C52.126 50.7803 52.3314 50.8304 52.4553 50.7092C52.5527 50.6156 52.5501 50.4615 52.5527 50.3259C52.5477 50.0164 52.6349 49.7124 52.803 49.4525C52.8889 49.3245 53.0055 49.22 53.1422 49.1486C53.2789 49.0773 53.4313 49.0414 53.5855 49.0442C54.0123 49.0731 54.385 49.4644 54.8066 49.3867C54.9923 49.3511 55.1714 49.2273 55.3532 49.2747C55.4236 49.298 55.4885 49.3352 55.5442 49.384C55.9384 49.6932 56.2423 50.1027 56.4242 50.5695C56.4746 50.6959 56.5186 50.8247 56.5559 50.9555C56.5335 50.8857 56.5098 50.8159 56.4821 50.7474C56.3003 50.2805 55.9964 49.8711 55.6022 49.5618C55.5468 49.5126 55.4817 49.4753 55.4112 49.4525C55.2294 49.4051 55.0503 49.5289 54.8658 49.5632C54.4443 49.6422 54.0755 49.251 53.6434 49.222C53.4894 49.2187 53.337 49.2544 53.2004 49.3258C53.0638 49.3972 52.9475 49.502 52.8623 49.6303C52.6931 49.8893 52.6055 50.1931 52.6107 50.5024C52.6107 50.6341 52.6107 50.7922 52.5132 50.887C52.3894 51.0082 52.1852 50.9581 52.0153 50.9977C51.715 51.0688 51.5753 51.402 51.4331 51.676C51.2908 51.95 51.005 52.2372 50.7191 52.1186C50.6335 52.0831 50.5637 52.0133 50.4754 51.9869C50.3134 51.9329 50.1198 52.0212 49.9749 51.9316C49.9359 51.9061 49.9044 51.8707 49.8836 51.829C49.8628 51.7874 49.8534 51.7409 49.8563 51.6945C49.8723 51.7177 49.8924 51.7377 49.9156 51.7538Z" fill="black"/>
<path d="M56.864 51.925C56.9457 52.0936 57.1064 52.2728 57.2855 52.2201C57.5648 52.1384 57.4173 51.7867 57.5714 51.6326C57.7255 51.4785 58.2063 51.5351 58.425 51.4455C58.6003 51.3849 58.7505 51.2677 58.8518 51.1123C58.9245 50.9753 58.9441 50.8163 58.9071 50.6657C58.9539 50.7631 58.9782 50.8698 58.9782 50.9779C58.9782 51.086 58.9539 51.1927 58.9071 51.2901C58.8061 51.4458 58.6558 51.5631 58.4803 51.6234C58.2616 51.7129 57.7743 51.6655 57.6267 51.8104C57.4792 51.9553 57.6201 52.3162 57.3409 52.3979C57.1617 52.4506 57.0023 52.2662 56.9194 52.1028C56.8348 51.9195 56.7664 51.7291 56.7152 51.5338C56.755 51.6677 56.8048 51.7985 56.864 51.925Z" fill="black"/>
<path d="M62.7416 58.5508C62.7416 58.5508 63.8757 60.2435 63.74 60.5978C63.6044 60.9521 62.7416 58.5508 62.7416 58.5508Z" fill="black"/>
<path d="M62.5756 64.0661C62.5756 64.0661 61.9736 64.3177 61.7536 64.5535C61.5336 64.7893 62.5756 64.0661 62.5756 64.0661Z" fill="black"/>
<path d="M61.2529 65.7917C61.2529 65.7917 59.9673 66.1026 59.858 66.3041C59.7486 66.5057 61.2529 65.7917 61.2529 65.7917Z" fill="black"/>
<path d="M61.0291 67.5516C61.0291 67.5516 59.866 67.7044 59.7343 68.1549C59.6026 68.6054 61.0291 67.5516 61.0291 67.5516Z" fill="black"/>
<path d="M22.2374 87.5751C22.46 89.6906 23.963 89.356 23.963 89.356L24.2436 89.331C24.5449 88.8569 24.6989 88.3041 24.6861 87.7424C24.6861 87.0061 24.4517 86.3553 24.0921 85.9641C23.0488 86.1801 22.1386 86.6359 22.2374 87.5751Z" fill="black"/>
<path d="M65.243 59.8575C67.7839 59.8575 69.8428 62.6409 69.8428 66.0736C69.8428 69.5064 67.7839 72.2884 65.243 72.2884C62.702 72.2884 60.6418 69.5051 60.6418 66.0736C60.6418 62.6422 62.7007 59.8575 65.243 59.8575ZM65.8924 70.9896C67.8287 70.9896 69.3976 68.9716 69.3976 66.4807C69.3976 63.9897 67.8287 61.973 65.8924 61.973C63.956 61.973 62.3858 63.9911 62.3858 66.4807C62.3858 68.9703 63.9547 70.9896 65.8924 70.9896Z" fill="#636780"/>
<path d="M65.0203 67.9849L62.8679 70.0991L62.0894 68.2062L65.206 66.3884L65.0203 67.9849Z" fill="#636780"/>
<path d="M61.8471 47.0512L59.974 47.2791L59.2785 48.105L60.3323 52.8471L62.5716 60.4872L64.0417 65.7325L65.0744 68.9176L65.733 73.1328L66.3916 76.0307L68.3675 78.0066L72.3851 73.2645L73.0438 71.6838L74.6245 68.4565L70.541 66.5465L66.0623 66.1513L63.9547 60.7506L62.2423 54.4937L61.8471 47.0512Z" fill="#087965"/>
<path d="M99.751 69.6539L102.2 90.211L71.3655 88.9121L74.9274 78.8194L80.8642 74.9598L67.2834 75.1824L67.2096 69.5433L72.7012 68.3551L83.7582 67.4646L92.0701 67.0945L100.01 69.6908" fill="#087965"/>
<path d="M99.751 69.6539L102.2 90.211L71.3655 88.9121L74.9274 78.8194L80.8642 74.9598L67.2834 75.1824L67.2096 69.5433L72.7012 68.3551L83.7582 67.4646L92.0701 67.0945L100.01 69.6908" fill="#087965"/>
<path d="M57.624 90.1398C57.624 95.2481 59.322 99.898 64.0311 99.3896C69.9706 99.2579 70.4369 95.2481 70.4369 90.1398C70.4369 85.0315 67.5693 81.2299 64.0311 81.2299C60.493 81.2299 57.624 85.0315 57.624 90.1398Z" fill="#636780"/>
<path d="M57.5872 90.149C57.5872 86.1973 59.3062 83.0227 61.7247 81.7924C64.8308 82.3825 67.2176 85.9549 67.2176 90.618C67.2176 94.8042 66.9041 98.258 63.5214 99.4343C59.1705 99.5885 57.5872 95.0821 57.5872 90.149Z" fill="black"/>
<path d="M51.5725 82.123L53.3837 84.1977L50.1235 83.6379L47.6866 81.3985L45.5132 77.0516L42.4505 75.1745L34.9422 76.1954L27.9937 76.4588L25.429 74.1813L28.2901 73.7914L38.4659 73.5609L47.1268 73.3304L48.9051 78.0725L50.2553 81.3327L51.5725 82.123Z" fill="#087965"/>
<path d="M26.6528 90.5811C26.8016 90.8037 31.6583 91.5466 31.6583 91.5466L45.0943 93.9954L68.1699 94.3287L70.8782 92.0274L72.3008 92.2803L72.3588 92.2909L91.3641 95.6644L91.6737 95.6209L123.906 91.0263L123.053 79.9693L122.79 78.7074L98.115 76.4443L85.5735 74.7319L67.2808 75.1771L67.207 69.5367L59.9714 47.2751C58.3762 47.5386 58.413 48.6108 58.413 48.6108L64.5738 69.5762L64.6489 82.4523C51.8386 83.7459 51.425 80.9546 49.3991 81.8951L46.949 74.0667L25.4291 74.1787C24.5689 75.2193 26.6528 90.5811 26.6528 90.5811Z" fill="#087965"/>
<path d="M80.0477 78.8931L73.2204 93.5502L70.9204 94.2918L70.3633 91.9168L72.924 83.7907L75.5585 79.0789L80.0477 78.8931Z" fill="#087965"/>
<path d="M80.0477 78.8931L73.2204 93.5502L70.9204 94.2918L70.3633 91.9168L72.924 83.7907L75.5585 79.0789L80.0477 78.8931Z" fill="black"/>
<path d="M84.3569 109.06C77.4534 109.06 71.8569 102.78 71.8569 95.0334C71.8569 87.287 77.4534 81.0073 84.3569 81.0073C91.2605 81.0073 96.8569 87.287 96.8569 95.0334C96.8569 102.78 91.2605 109.06 84.3569 109.06Z" fill="#636780"/>
<path d="M80.0806 81.8833C86.5509 82.3338 91.6724 88.4274 91.6724 95.8804C91.6724 101.888 88.3424 107.014 83.6622 109.011C77.1919 108.56 72.0704 102.467 72.0704 95.0137C72.0704 89.0057 75.4004 83.8802 80.0806 81.8833Z" fill="black"/>
<path d="M117.635 70.5075L118.248 73.3962L120.121 82.2363L128.173 81.4565C128.173 81.4565 128.656 79.9733 127.394 79.4161C127.394 79.4161 126.98 74.3934 125.492 72.8114C125.332 72.6309 125.132 72.4913 124.908 72.4043L117.635 70.5075Z" fill="#087965"/>
<path d="M118.248 73.3962L120.121 82.2363L128.173 81.4565C128.173 81.4565 128.656 79.9733 127.394 79.4161C127.394 79.4161 126.98 74.3934 125.492 72.8114L118.248 73.3962Z" fill="white"/>
<path d="M99.4902 71.2886C98.4523 73.03 100.97 89.0965 100.97 89.0965L120.752 85.8311L120.047 71.7681C119.639 69.2456 118.154 68.9492 118.154 68.9492C111.173 65.4242 95.1499 64.6813 95.1499 64.6813C80.5284 65.2372 67.2097 69.5419 67.2097 69.5419C83.8321 66.9825 99.4902 71.2886 99.4902 71.2886Z" fill="#087965"/>
<path d="M100.97 89.0965L120.752 85.8311L120.047 71.7681C119.639 69.2456 118.154 68.9492 118.154 68.9492C118.154 68.9492 103.721 67.5753 99.4902 71.2886C98.4523 73.03 100.97 89.0965 100.97 89.0965Z" fill="black"/>
<path d="M103.065 88.1692L119.602 85.3832L119.016 73.3844C118.675 71.232 117.435 70.9791 117.435 70.9791C117.435 70.9791 105.366 69.8067 101.83 72.9734C100.956 74.4606 103.065 88.1692 103.065 88.1692Z" fill="#087965"/>
<path d="M104.426 82.4181C103.176 82.4181 102.163 80.5739 102.163 78.299C102.163 76.0241 103.176 74.18 104.426 74.18C105.676 74.18 106.689 76.0241 106.689 78.299C106.689 80.5739 105.676 82.4181 104.426 82.4181Z" fill="black"/>
<path d="M104.426 82.3074C103.176 82.3074 102.163 80.4633 102.163 78.1884C102.163 75.9135 103.176 74.0693 104.426 74.0693C105.676 74.0693 106.689 75.9135 106.689 78.1884C106.689 80.4633 105.676 82.3074 104.426 82.3074Z" fill="#DCE0ED"/>
<path d="M104.131 75.1455C104.131 75.1455 105.053 75.2931 104.576 76.5181C104.099 77.7431 104.02 78.3728 104.02 78.3728C104.02 78.3728 103.098 78.8562 103.13 77.2597C103.161 75.6632 104.131 75.1455 104.131 75.1455Z" fill="#F0F0F4"/>
<path d="M116.559 80.516C115.391 80.516 114.444 78.7927 114.444 76.667C114.444 74.5412 115.391 72.8179 116.559 72.8179C117.727 72.8179 118.675 74.5412 118.675 76.667C118.675 78.7927 117.727 80.516 116.559 80.516Z" fill="black"/>
<path d="M116.559 80.404C115.391 80.404 114.444 78.6807 114.444 76.555C114.444 74.4292 115.391 72.706 116.559 72.706C117.727 72.706 118.675 74.4292 118.675 76.555C118.675 78.6807 117.727 80.404 116.559 80.404Z" fill="#DCE0ED"/>
<path d="M116.263 73.5121C116.263 73.5121 117.185 73.661 116.708 74.886C116.231 76.1111 116.151 76.7407 116.151 76.7407C116.151 76.7407 115.229 77.2228 115.26 75.6276C115.292 74.0325 116.263 73.5121 116.263 73.5121Z" fill="#F0F0F4"/>
<path d="M107.029 74.811C107.177 76.3324 107.919 87.612 107.919 87.612L109.179 87.4013L109.878 87.2867L110.811 87.1299L110.924 87.1115L114.598 86.4989L113.872 74.5343C113.848 74.15 113.676 73.7898 113.393 73.5288C113.11 73.2678 112.737 73.1259 112.352 73.1328C112.315 73.1308 112.277 73.1308 112.24 73.1328C111.986 73.1552 111.713 73.1815 111.427 73.2131C111.307 73.2263 111.185 73.2395 111.062 73.2553C110.709 73.2974 110.345 73.3488 109.988 73.4068C109.806 73.4384 109.627 73.4713 109.449 73.5056C109.15 73.5648 108.86 73.6307 108.593 73.7058C108.412 73.7558 108.24 73.8098 108.081 73.8691C107.418 74.1089 106.984 74.4184 107.029 74.811Z" fill="black"/>
<path d="M112.352 73.1328L113.071 86.5688L113.479 86.5319L112.767 73.1736C112.631 73.1406 112.492 73.1268 112.352 73.1328Z" fill="#087965"/>
<path d="M111.062 73.2539L111.735 86.8322H112.366L111.427 73.2105C111.307 73.225 111.185 73.2381 111.062 73.2539Z" fill="#087965"/>
<path d="M109.449 73.5043L110.511 87.1299H110.92V87.1115L109.989 73.412C109.806 73.4371 109.627 73.47 109.449 73.5043Z" fill="#087965"/>
<path d="M108.083 73.8678L109.175 87.4012V87.4276L109.879 87.3525V87.2867L108.599 73.7045C108.412 73.7545 108.239 73.8085 108.083 73.8678Z" fill="#087965"/>
<path d="M123.173 84.3479C123.173 84.3479 124.536 77.3072 121.42 76.9449C118.303 76.5827 108.062 77.3401 108.369 80.2288C108.675 83.1176 109.005 87.5198 109.005 87.5198L111.119 87.0469C111.119 87.0469 109.538 80.4238 112.009 80.1735C114.481 79.9232 120.553 79.2264 120.553 79.2264C120.553 79.2264 122.196 78.9485 121.249 84.7589L123.173 84.3479Z" fill="black"/>
<path d="M123.173 85.0157C123.173 85.0157 124.536 77.5298 121.42 77.1675C118.303 76.8053 108.062 77.5627 108.369 80.4514C108.675 83.3402 109.005 87.7424 109.005 87.7424L111.119 87.2695C111.119 87.2695 109.538 80.6464 112.009 80.3961C114.481 80.1458 120.557 79.4556 120.557 79.4556C120.557 79.4556 122.2 79.6229 121.253 85.4399L123.173 85.0157Z" fill="#DCE0ED"/>
<path d="M68.1699 94.3287L70.9151 94.2918C72.9186 85.4662 76.2223 79.9693 76.2223 79.9693C77.3393 79.3752 89.5094 79.4556 89.5094 79.4556C90.7713 79.6782 91.1046 83.6866 91.1046 83.6866C91.1046 83.6866 90.0284 84.6087 91.0677 85.208C91.5314 85.4715 93.0594 85.5228 94.8192 85.432C97.0032 85.3187 99.5482 84.9867 100.863 84.5771C103.234 83.8341 101.346 82.4615 101.346 82.4615C101.346 82.4615 101.012 82.0163 100.789 79.5636C100.636 78.1338 100.174 76.7543 99.4349 75.5209C99.3321 75.351 99.2676 75.2575 99.2676 75.2575C99.143 75.1386 98.9956 75.0463 98.8342 74.9861C95.6886 73.6689 80.2702 74.9229 80.2702 74.9229L74.5559 76.742C74.3979 76.8053 74.1542 77.2083 73.8539 77.8525C72.0479 81.7239 68.1699 94.3287 68.1699 94.3287Z" fill="#087965"/>
<path d="M68.1699 94.3287L70.9151 94.2918C72.9186 85.4662 76.2223 79.9693 76.2223 79.9693C77.3393 79.3752 89.5094 79.4556 89.5094 79.4556C90.7713 79.6782 91.1046 83.6866 91.1046 83.6866C91.1046 83.6866 90.0284 84.6087 91.0677 85.208C91.5314 85.4715 93.0594 85.5228 94.8192 85.432C97.0032 85.3187 99.5482 84.9867 100.863 84.5771C103.234 83.8341 101.346 82.4615 101.346 82.4615C101.346 82.4615 101.012 82.0163 100.789 79.5636C100.636 78.1338 100.174 76.7543 99.4349 75.5209C99.3321 75.351 99.2676 75.2575 99.2676 75.2575C99.143 75.1386 98.9956 75.0463 98.8342 74.9861C95.6886 73.6689 80.2702 74.9229 80.2702 74.9229L74.5559 76.742C74.3979 76.8053 74.1542 77.2083 73.8539 77.8525C72.0479 81.7239 68.1699 94.3287 68.1699 94.3287Z" fill="black"/>
<path d="M73.8539 77.8512C79.1229 75.8015 93.6654 76.8896 93.6654 76.8896C95.2092 75.5723 98.1138 75.4827 99.435 75.5183C99.3322 75.3484 99.2677 75.2548 99.2677 75.2548C99.1431 75.136 98.9957 75.0437 98.8343 74.9835C95.6887 73.6662 80.2703 74.9203 80.2703 74.9203L74.556 76.7394C74.398 76.8039 74.1543 77.207 73.8539 77.8512Z" fill="#087965"/>
<path d="M92.8118 77.4455C93.145 78.5954 94.515 83.1979 94.515 83.1979C94.6583 83.934 94.759 84.6777 94.8166 85.4254C97.0006 85.3121 99.5456 84.9802 100.86 84.5705C103.231 83.8276 101.344 82.455 101.344 82.455C101.344 82.455 101.009 82.0098 100.786 79.557C100.623 78.0229 100.102 76.5484 99.265 75.2523C99.1404 75.1334 98.9929 75.0411 98.8316 74.9809C96.7714 75.4709 92.5588 76.5748 92.8118 77.4455Z" fill="#087965"/>
<path d="M92.8118 77.4455C93.145 78.5954 94.515 83.1979 94.515 83.1979C94.6583 83.934 94.759 84.6777 94.8166 85.4254C97.0006 85.3121 99.5456 84.9802 100.86 84.5705C103.231 83.8276 101.344 82.455 101.344 82.455C101.344 82.455 101.009 82.0098 100.786 79.557C100.623 78.0229 100.102 76.5484 99.265 75.2523C99.1404 75.1334 98.9929 75.0411 98.8316 74.9809C96.7714 75.4709 92.5588 76.5748 92.8118 77.4455Z" fill="white"/>
<path d="M89.4159 48.2249C90.8913 48.4475 91.5314 51.5088 91.5314 51.5088L95.5385 64.8947L67.2097 69.5419L59.974 47.2804C66.6248 44.2731 89.4159 48.2249 89.4159 48.2249ZM66.6275 62.5289C66.6275 62.5289 66.7948 63.8093 67.8802 63.9212L91.2772 63.0057H91.3668C91.3668 63.0057 92.7591 63.256 92.5365 62.0837C92.5365 62.0837 91.0059 50.9529 88.3055 50.1177C88.3055 50.1177 88.0249 50.0585 87.5336 49.9663C86.7617 49.82 85.4734 49.5908 83.9559 49.3814C83.2762 49.2879 82.5504 49.1983 81.8035 49.118C79.7631 48.9098 77.5699 48.7979 75.7547 48.973C75.7547 48.973 62.2305 47.7203 63.2039 50.7263C63.2013 50.7303 66.04 61.6108 66.6248 62.5289H66.6275Z" fill="#087965"/>
<path d="M91.2745 63.0057H91.3641C91.3641 63.0057 92.7564 63.256 92.5338 62.0837C92.5338 62.0837 91.0032 50.9529 88.3028 50.1177C88.3028 50.1177 88.0222 50.0585 87.5309 49.9663C88.5109 51.8789 91.6565 58.427 91.2745 63.0057Z" fill="#087965"/>
<path d="M91.2745 63.0057H91.3641C91.3641 63.0057 92.7564 63.256 92.5338 62.0837C92.5338 62.0837 91.0032 50.9529 88.3028 50.1177C88.3028 50.1177 88.0222 50.0585 87.5309 49.9663C88.5109 51.8789 91.6565 58.427 91.2745 63.0057Z" fill="black"/>
<path d="M88.7809 90.4612C88.9421 90.7612 89.1855 91.0089 89.4825 91.1755C89.7795 91.3421 90.1178 91.4206 90.4578 91.4017L98.3033 91.0632L100.084 90.9157L123.602 87.0956L123.423 84.7773L102.995 87.6963L100.81 88.0177L99.7497 88.1692L90.3985 88.1007C90.1532 88.0961 89.9095 88.1409 89.6819 88.2324C89.2644 88.3981 88.927 88.7185 88.7401 89.1269C88.6405 89.3366 88.5924 89.5669 88.5995 89.799C88.6066 90.031 88.6687 90.258 88.7809 90.4612Z" fill="black"/>
<path d="M88.7811 90.6839C88.9423 90.9838 89.1856 91.2315 89.4826 91.3981C89.7796 91.5647 90.1179 91.6432 90.4579 91.6244L98.3035 91.2858L100.084 91.137L127.141 86.7479L128.21 86.5688C130.325 86.1235 129.694 84.008 129.694 84.008C129.546 83.0425 125.909 82.152 124.722 82.1902C123.924 82.2152 123.813 83.4442 123.827 84.2491C123.827 84.6443 123.869 84.9354 123.869 84.9354L99.7498 88.3866L90.3973 88.3181C90.0507 88.3119 89.7097 88.4061 89.4155 88.5893C89.1212 88.7726 88.8862 89.037 88.7389 89.3508C88.6398 89.5604 88.592 89.7906 88.5993 90.0224C88.6066 90.2542 88.6689 90.4809 88.7811 90.6839Z" fill="#DCE0ED"/>
<path d="M126.429 83.5312C126.429 83.5312 125.427 84.7549 123.869 84.9406C123.869 84.9406 124.5 83.568 126.429 83.5312Z" fill="black"/>
<path d="M126.689 86.9823C126.689 86.9823 129.991 86.9073 129.991 88.6948C129.991 90.4823 127.913 90.7734 127.913 90.7734L98.4141 96.4481L90.0285 96.5956C90.0285 96.5956 87.0976 94.2588 90.1405 93.2195L98.5985 93.4382L126.726 88.2812C126.726 88.2812 125.984 87.2787 126.689 86.9823Z" fill="black"/>
<path d="M90.0285 96.8143L98.4141 96.6668L124.643 91.6191L126.562 91.2489L127.913 90.9855C127.913 90.9855 129.991 90.6878 129.991 88.9069C129.991 87.6291 128.289 87.3064 127.329 87.226C126.951 87.1957 126.689 87.201 126.689 87.201C125.984 87.4974 126.726 88.4985 126.726 88.4985L98.5985 93.6608L90.1392 93.4382C87.0976 94.4723 90.0285 96.8143 90.0285 96.8143Z" fill="#DCE0ED"/>
<path d="M124.203 85.5347L122.459 84.7549L121.569 84.718L121.642 92.2132L124.388 91.6573L125.539 90.9157L126.095 87.7991C126.095 87.7991 125.872 86.5003 125.761 86.3896C125.651 86.279 124.203 85.5347 124.203 85.5347Z" fill="#DCE0ED"/>
<path d="M124.203 85.5347L122.459 84.7549L121.569 84.718L121.642 92.2132L124.388 91.6573L125.539 90.9157L126.095 87.7991C126.095 87.7991 125.872 86.5003 125.761 86.3896C125.651 86.279 124.203 85.5347 124.203 85.5347Z" fill="black"/>
<path d="M124.643 91.6191L124.611 91.6573L126.54 91.2858L126.562 91.2489C127.578 89.609 127.666 88.2812 127.329 87.2274C126.951 87.1971 126.689 87.2023 126.689 87.2023C125.984 87.4987 126.726 88.4998 126.726 88.4998L125.702 88.6882C125.771 90.1583 124.832 91.3872 124.643 91.6191Z" fill="black"/>
<path d="M121.79 84.7246C122.117 84.8493 122.418 84.981 122.695 85.1198C123.944 85.7204 124.714 86.3949 125.165 87.0785L127.141 86.7584C126.286 84.9828 124.243 84.1714 124.243 84.1714L121.79 84.7246Z" fill="black"/>
<path d="M124.021 84.1621C124.021 84.1621 129.438 86.3145 126.321 91.2858L124.391 91.6573C124.391 91.6573 128.212 87.2787 121.573 84.718L124.021 84.1621Z" fill="#DCE0ED"/>
<path d="M111.104 86.574L109.101 86.5003L109.435 94.5513L112.664 93.9585L114.037 93.2907L114.668 91.6942L115.113 90.099L114.037 88.6513L112.812 87.8359L111.104 86.574Z" fill="#DCE0ED"/>
<path d="M111.104 86.574L109.101 86.5003L109.435 94.5513L112.664 93.9585L114.037 93.2907L114.668 91.6942L115.113 90.099L114.037 88.6513L112.812 87.8359L111.104 86.574Z" fill="black"/>
<path d="M111.327 92.362C110.795 92.362 110.363 91.6313 110.363 90.7299C110.363 89.8286 110.795 89.0979 111.327 89.0979C111.86 89.0979 112.291 89.8286 112.291 90.7299C112.291 91.6313 111.86 92.362 111.327 92.362Z" fill="#DCE0ED"/>
<path d="M118.331 95.2837C118.609 93.865 119.694 93.5581 119.694 93.5581C119.694 93.5581 121.782 92.9469 121.837 95.2626C121.837 95.2626 121.81 96.6826 120.863 97.1278L120.807 98.7085C120.807 98.7085 120.724 100.184 121.559 100.044C122.395 99.9046 122.283 98.5953 122.283 98.5953C122.283 98.5953 122.728 97.2042 123.813 97.9274C123.813 97.9274 124.064 98.7072 123.506 99.0971C123.182 99.3237 123.17 99.7874 123.217 100.135C123.249 100.35 123.235 100.569 123.175 100.778C123.115 100.986 123.01 101.18 122.869 101.344C122.709 101.536 122.5 101.682 122.265 101.766C122.03 101.85 121.776 101.87 121.53 101.824C121.081 101.736 120.674 101.501 120.371 101.157C119.862 100.604 119.576 99.8819 119.568 99.1301L119.527 97.0936C119.527 97.0936 118.053 96.7037 118.331 95.2837ZM120.043 96.7169C120.278 96.7169 120.507 96.6473 120.702 96.5171C120.897 96.3868 121.049 96.2016 121.139 95.985C121.228 95.7684 121.252 95.53 121.206 95.3C121.16 95.0701 121.047 94.8588 120.882 94.693C120.716 94.5272 120.505 94.4143 120.275 94.3686C120.045 94.3228 119.806 94.3463 119.59 94.436C119.373 94.5258 119.188 94.6777 119.058 94.8727C118.927 95.0676 118.858 95.2968 118.858 95.5313C118.859 95.8446 118.985 96.1446 119.206 96.3657C119.428 96.5869 119.729 96.7112 120.042 96.7116L120.043 96.7169Z" fill="#DCE0ED"/>
<path d="M120.528 92.9455C120.595 92.9737 120.656 93.0156 120.707 93.0686C120.757 93.1215 120.796 93.1844 120.821 93.2531C120.845 93.3219 120.856 93.395 120.851 93.4679C120.846 93.5409 120.825 93.6119 120.791 93.6766C120.573 94.0863 120.311 94.6158 120.336 94.7555C120.378 94.9913 119.848 94.7976 119.78 94.741C119.711 94.6843 118.75 94.741 118.694 94.0823C118.639 93.4237 119.208 93.0799 119.208 93.0799L118.986 91.6467L120.303 91.5361L120.288 92.8441L120.528 92.9455Z" fill="#636780"/>
<path d="M120.528 92.9455C120.595 92.9737 120.656 93.0156 120.707 93.0686C120.757 93.1215 120.796 93.1844 120.821 93.2531C120.845 93.3219 120.856 93.395 120.851 93.4679C120.846 93.5409 120.825 93.6119 120.791 93.6766C120.573 94.0863 120.311 94.6158 120.336 94.7555C120.378 94.9913 119.848 94.7976 119.78 94.741C119.711 94.6843 118.75 94.741 118.694 94.0823C118.639 93.4237 119.208 93.0799 119.208 93.0799L118.986 91.6467L120.303 91.5361L120.288 92.8441L120.528 92.9455Z" fill="black"/>
<path d="M120.167 92.9192C120.167 92.9192 119.722 94.4499 119.917 94.4999C120.112 94.55 120.167 92.9192 120.167 92.9192Z" fill="black"/>
<path d="M119.667 92.557C119.667 92.557 119.221 94.0876 119.416 94.1377C119.611 94.1877 119.667 92.557 119.667 92.557Z" fill="black"/>
<path d="M114.332 87.9466L115.075 92.5477C115.075 92.5477 115.997 92.4226 116.5 92.3133C116.611 92.2979 116.719 92.2646 116.819 92.2145C116.845 92.1881 116.899 92.1908 116.971 92.2053C117.219 92.2553 117.659 92.4595 117.745 92.2869C117.751 92.2737 117.759 92.2616 117.77 92.2514C117.857 92.1565 118.025 92.225 118.189 92.2514C118.278 92.2744 118.372 92.2621 118.452 92.2171C118.584 92.1249 118.867 92.2724 119.094 92.3212C119.237 92.3528 119.357 92.3462 119.418 92.2171C119.439 92.1751 119.471 92.1389 119.509 92.1115C119.548 92.084 119.592 92.066 119.639 92.059C119.852 92.005 120.151 92.0419 120.324 92.005C120.392 91.9919 120.438 91.9655 120.456 91.9194C120.49 91.8193 120.681 91.7719 120.885 91.7324C121.134 91.6849 121.401 91.6494 121.421 91.5493C121.421 91.515 121.451 91.5005 121.488 91.4992C121.626 91.5202 121.762 91.5537 121.894 91.5993C122.005 91.6283 122.098 91.6283 122.125 91.5493C122.151 91.4702 122.281 91.4702 122.428 91.5058C122.545 91.5348 122.675 91.5809 122.775 91.6046C122.875 91.6283 122.931 91.6283 122.941 91.5848C122.978 91.4373 123.46 91.7719 123.571 91.4742C123.682 91.1765 125.207 89.2032 123.231 86.6478C123.231 86.6478 122.704 86.6846 122.293 86.7584C122.157 86.7767 122.024 86.8139 121.898 86.8691C121.757 86.9494 121.455 86.9323 121.183 86.952C121.046 86.9539 120.911 86.9863 120.788 87.0469C120.739 87.0736 120.699 87.1151 120.676 87.1655C120.614 87.3064 120.471 87.3354 120.316 87.3275C120.105 87.3143 119.871 87.2353 119.789 87.2774H119.781C119.626 87.3446 119.044 87.2774 118.945 87.3762L118.937 87.3854C118.895 87.4473 118.673 87.3854 118.434 87.3512C118.253 87.3275 118.071 87.3248 117.973 87.4236C117.871 87.5045 117.741 87.5428 117.612 87.5303C117.454 87.5188 117.295 87.525 117.139 87.5488C117.103 87.5594 117.07 87.5799 117.045 87.608C116.952 87.7253 116.725 87.7095 116.518 87.72C116.415 87.7157 116.312 87.7413 116.223 87.7938C116.191 87.8161 116.155 87.8313 116.117 87.8386C115.832 87.9044 115.222 87.7938 115.222 87.7938L114.332 87.9466Z" fill="#636780"/>
<path d="M122.428 91.5032C122.545 91.5322 122.675 91.5783 122.775 91.602C124.282 89.2639 123.014 87.4882 122.3 86.7584C122.164 86.7767 122.031 86.8139 121.905 86.8691C123.421 88.6158 122.717 90.7971 122.428 91.5032Z" fill="black"/>
<path d="M121.487 91.4966C121.625 91.5176 121.761 91.5511 121.893 91.5967C123.182 89.3166 121.856 87.6107 121.185 86.9534C121.048 86.9552 120.913 86.9876 120.79 87.0483C122.233 88.6263 121.805 90.5903 121.487 91.4966Z" fill="black"/>
<path d="M120.324 92.0024C120.392 91.9893 120.438 91.9629 120.456 91.9168C120.49 91.8167 120.681 91.7693 120.885 91.7298C122.017 89.6643 121.005 88.077 120.319 87.3288C120.108 87.3156 119.873 87.2366 119.792 87.2788H119.784C121.375 89.0715 120.604 91.3372 120.324 92.0024Z" fill="black"/>
<path d="M119.092 92.3186C119.236 92.3502 119.356 92.3436 119.416 92.2145C119.438 92.1725 119.469 92.1363 119.508 92.1088C119.546 92.0814 119.591 92.0634 119.638 92.0564C120.955 89.7552 119.611 88.0348 118.941 87.3802L118.933 87.3894C118.891 87.4513 118.669 87.3894 118.43 87.3551C120.305 89.248 119.341 91.7614 119.092 92.3186Z" fill="black"/>
<path d="M117.772 92.25C117.859 92.1552 118.028 92.2237 118.191 92.25C119.567 89.9659 118.303 88.2403 117.608 87.5356C117.45 87.5241 117.291 87.5303 117.135 87.554C118.741 89.2809 118.078 91.4821 117.772 92.25Z" fill="black"/>
<path d="M116.5 92.3133C116.611 92.2979 116.719 92.2646 116.819 92.2145C116.845 92.1881 116.899 92.1908 116.971 92.2053C118.19 90.1187 117.218 88.5077 116.518 87.7266C116.415 87.7223 116.312 87.7479 116.223 87.8004C116.191 87.8226 116.155 87.8379 116.117 87.8452C117.45 89.5629 116.777 91.6336 116.5 92.3133Z" fill="black"/>
<path d="M80.5297 104.607C77.1897 104.607 74.4822 100.62 74.4822 95.7026C74.4822 90.7847 77.1897 86.7979 80.5297 86.7979C83.8696 86.7979 86.5772 90.7847 86.5772 95.7026C86.5772 100.62 83.8696 104.607 80.5297 104.607Z" fill="#636780"/>
<path d="M80.7338 103.049C78.3054 103.049 76.3368 99.8176 76.3368 95.8317C76.3368 91.8457 78.3054 88.6144 80.7338 88.6144C83.1622 88.6144 85.1308 91.8457 85.1308 95.8317C85.1308 99.8176 83.1622 103.049 80.7338 103.049Z" fill="black"/>
<path d="M80.7338 102.826C78.3054 102.826 76.3368 99.595 76.3368 95.6091C76.3368 91.6231 78.3054 88.3918 80.7338 88.3918C83.1622 88.3918 85.1308 91.6231 85.1308 95.6091C85.1308 99.595 83.1622 102.826 80.7338 102.826Z" fill="#F0F0F4"/>
<path d="M79.9371 91.6573C79.6504 91.6573 79.4181 91.2586 79.4181 90.7668C79.4181 90.275 79.6504 89.8764 79.9371 89.8764C80.2237 89.8764 80.4561 90.275 80.4561 90.7668C80.4561 91.2586 80.2237 91.6573 79.9371 91.6573Z" fill="#636780"/>
<path d="M77.8584 99.4502C77.5717 99.4502 77.3394 99.0515 77.3394 98.5597C77.3394 98.0679 77.5717 97.6692 77.8584 97.6692C78.145 97.6692 78.3773 98.0679 78.3773 98.5597C78.3773 99.0515 78.145 99.4502 77.8584 99.4502Z" fill="#636780"/>
<path d="M83.4619 95.7394C83.1753 95.7394 82.9429 95.3408 82.9429 94.849C82.9429 94.3572 83.1753 93.9585 83.4619 93.9585C83.7486 93.9585 83.9809 94.3572 83.9809 94.849C83.9809 95.3408 83.7486 95.7394 83.4619 95.7394Z" fill="#636780"/>
<path d="M81.9405 100.933C81.6539 100.933 81.4215 100.535 81.4215 100.043C81.4215 99.5511 81.6539 99.1525 81.9405 99.1525C82.2272 99.1525 82.4595 99.5511 82.4595 100.043C82.4595 100.535 82.2272 100.933 81.9405 100.933Z" fill="#636780"/>
<path d="M36.2634 79.2264C36.2634 79.2264 31.9165 90.8037 32.1444 91.5269C32.1444 91.5269 30.3081 92.64 29.8629 92.362C29.4177 92.0841 29.8062 86.9613 29.8062 86.9613L30.6414 82.4536L31.5885 79.7823L36.2634 79.2264Z" fill="#087965"/>
<path d="M36.2634 79.2264C36.2634 79.2264 31.9165 90.8037 32.1444 91.5269C32.1444 91.5269 30.3081 92.64 29.8629 92.362C29.4177 92.0841 29.8062 86.9613 29.8062 86.9613L30.6414 82.4536L31.5885 79.7823L36.2634 79.2264Z" fill="black"/>
<path d="M77.1167 94.6264C76.8301 94.6264 76.5977 94.2277 76.5977 93.7359C76.5977 93.2441 76.8301 92.8455 77.1167 92.8455C77.4033 92.8455 77.6357 93.2441 77.6357 93.7359C77.6357 94.2277 77.4033 94.6264 77.1167 94.6264Z" fill="#636780"/>
<path d="M79.937 98.0025C79.0968 98.0025 78.4156 97.0554 78.4156 95.887C78.4156 94.7186 79.0968 93.7715 79.937 93.7715C80.7773 93.7715 81.4585 94.7186 81.4585 95.887C81.4585 97.0554 80.7773 98.0025 79.937 98.0025Z" fill="#636780"/>
<path d="M31.4185 94.7002C31.4185 101.401 33.6447 107.501 39.8226 106.833C47.6141 106.666 48.2266 101.401 48.2266 94.7002C48.2266 87.9993 44.4672 83.0122 39.8252 83.0122C35.1832 83.0122 31.4185 87.998 31.4185 94.7002Z" fill="#636780"/>
<path d="M31.3725 94.7107C31.3725 89.5233 33.6276 85.3582 36.8009 83.7485C40.8752 84.5231 44.0063 89.2098 44.0063 95.3232C44.0063 100.815 43.594 105.334 39.1575 106.889C33.4498 107.094 31.3725 101.19 31.3725 94.7107Z" fill="black"/>
<path d="M28.1374 91.8615C28.1374 91.8615 29.2505 92.8073 29.863 92.1394C29.863 92.1394 31.366 80.1169 33.2576 80.0615L39.7701 80.0062C39.7701 80.0062 40.5486 80.3395 40.8832 81.7871L45.0984 93.7741L68.17 94.1061L69.9325 90.4178L50.8416 90.4731V90.4652C50.7388 90.095 47.5485 78.7048 45.4053 77.2927C45.3326 77.2434 45.2532 77.2048 45.1695 77.1781C45.1695 77.1781 37.2107 76.1243 34.5946 76.8435C34.5946 76.8435 31.8679 77.456 31.2 78.2925C31.1105 78.386 30.0777 79.5491 29.7577 82.9028L28.1374 91.8615Z" fill="black"/>
<path d="M28.1374 92.0841C28.1374 92.0841 29.2504 93.0299 29.8629 92.362C29.8629 92.362 31.366 80.3395 33.2576 80.2841L39.7701 80.2288C39.7701 80.2288 40.5486 80.5621 40.8832 82.0098L45.0984 93.9967L68.1699 94.3287L69.9325 90.6404L50.8416 90.6957V90.6878C50.7388 90.3177 47.5485 78.9274 45.4053 77.5153C45.3326 77.4661 45.2532 77.4275 45.1695 77.4007C45.1695 77.4007 37.2107 76.3469 34.5946 77.0661C34.5946 77.0661 31.8679 77.6786 31.2 78.5151V78.5217C31.1105 78.6152 30.0777 79.7783 29.7577 83.132L28.1374 92.0841Z" fill="#087965"/>
<path d="M28.1374 92.0841C28.1374 92.0841 29.2504 93.0299 29.8629 92.362C29.8629 92.362 31.366 80.3395 33.2576 80.2841L39.7701 80.2288C39.7701 80.2288 40.5486 80.5621 40.8832 82.0098L45.0984 93.9967L68.1699 94.3287L69.9325 90.6404L50.8416 90.6957V90.6878C50.7388 90.3177 47.5485 78.9274 45.4053 77.5153C45.3326 77.4661 45.2532 77.4275 45.1695 77.4007C45.1695 77.4007 37.2107 76.3469 34.5946 77.0661C34.5946 77.0661 31.8679 77.6786 31.2 78.5151V78.5217C31.1105 78.6152 30.0777 79.7783 29.7577 83.132L28.1374 92.0841Z" fill="black"/>
<path d="M42.274 78.9484C42.8312 80.0022 47.6168 93.0299 47.6168 93.0299L50.8454 90.6917V90.6838C50.7426 90.3137 47.5523 78.9115 45.4064 77.5113C44.0102 77.7431 41.896 78.2305 42.274 78.9484Z" fill="#087965"/>
<path d="M48.5073 72.9931L51.1233 81.5632L64.7595 81.168L64.6489 82.4484C64.6489 82.4484 53.962 84.0067 49.3991 81.8912L46.949 74.0628L25.429 74.1734L29.5283 73.2092L48.5073 72.9931Z" fill="#087965"/>
<path d="M48.5073 72.9931L51.1233 81.5632L64.7595 81.168L64.6489 82.4484C64.6489 82.4484 53.962 84.0067 49.3991 81.8912L46.949 74.0628L25.429 74.1734L29.5283 73.2092L48.5073 72.9931Z" fill="white"/>
<path d="M112.44 86.4989C112.44 86.4989 119.75 90.1727 114.333 93.6239L112.884 93.9572C112.884 93.9572 118.19 90.1372 109.327 86.4989H112.44Z" fill="black"/>
<path d="M112.217 86.4989C112.217 86.4989 119.527 90.1727 114.11 93.6239L112.661 93.9572C112.661 93.9572 117.967 90.1372 109.105 86.4989H112.217Z" fill="#DCE0ED"/>
<path d="M36.5981 102.604C34.3545 102.604 32.5357 99.4886 32.5357 95.6459C32.5357 91.8033 34.3545 88.6882 36.5981 88.6882C38.8417 88.6882 40.6605 91.8033 40.6605 95.6459C40.6605 99.4886 38.8417 102.604 36.5981 102.604Z" fill="#636780"/>
<path d="M36.735 101.434C35.104 101.434 33.7817 98.9098 33.7817 95.7961C33.7817 92.6824 35.104 90.1583 36.735 90.1583C38.3661 90.1583 39.6883 92.6824 39.6883 95.7961C39.6883 98.9098 38.3661 101.434 36.735 101.434Z" fill="black"/>
<path d="M36.735 101.211C35.104 101.211 33.7817 98.6872 33.7817 95.5735C33.7817 92.4598 35.104 89.9356 36.735 89.9356C38.3661 89.9356 39.6883 92.4598 39.6883 95.5735C39.6883 98.6872 38.3661 101.211 36.735 101.211Z" fill="#F0F0F4"/>
<path d="M36.1989 92.4859C36.0061 92.4859 35.8499 92.1745 35.8499 91.7903C35.8499 91.4062 36.0061 91.0948 36.1989 91.0948C36.3917 91.0948 36.548 91.4062 36.548 91.7903C36.548 92.1745 36.3917 92.4859 36.1989 92.4859Z" fill="#636780"/>
<path d="M34.8026 98.5742C34.6098 98.5742 34.4535 98.2628 34.4535 97.8787C34.4535 97.4945 34.6098 97.1832 34.8026 97.1832C34.9954 97.1832 35.1517 97.4945 35.1517 97.8787C35.1517 98.2628 34.9954 98.5742 34.8026 98.5742Z" fill="#636780"/>
<path d="M38.5674 95.6749C38.3746 95.6749 38.2183 95.3635 38.2183 94.9794C38.2183 94.5953 38.3746 94.2839 38.5674 94.2839C38.7602 94.2839 38.9165 94.5953 38.9165 94.9794C38.9165 95.3635 38.7602 95.6749 38.5674 95.6749Z" fill="#636780"/>
<path d="M37.5451 99.7334C37.3524 99.7334 37.1961 99.422 37.1961 99.0379C37.1961 98.6537 37.3524 98.3424 37.5451 98.3424C37.7379 98.3424 37.8942 98.6537 37.8942 99.0379C37.8942 99.422 37.7379 99.7334 37.5451 99.7334Z" fill="#636780"/>
<path d="M34.3047 94.8055C34.1119 94.8055 33.9556 94.4941 33.9556 94.11C33.9556 93.7259 34.1119 93.4145 34.3047 93.4145C34.4975 93.4145 34.6538 93.7259 34.6538 94.11C34.6538 94.4941 34.4975 94.8055 34.3047 94.8055Z" fill="#636780"/>
<path d="M36.199 97.4426C35.6345 97.4426 35.1768 96.7031 35.1768 95.7908C35.1768 94.8785 35.6345 94.139 36.199 94.139C36.7635 94.139 37.2212 94.8785 37.2212 95.7908C37.2212 96.7031 36.7635 97.4426 36.199 97.4426Z" fill="#636780"/>
<path d="M95.5951 64.7023C95.5951 64.7023 83.238 65.1476 67.2097 69.5446L95.5951 64.7023Z" fill="black"/>
<path d="M36.6415 43.0691C36.6415 43.0691 37.312 43.1771 36.9629 44.0623C36.6139 44.9475 36.5559 45.4046 36.5559 45.4046C36.5559 45.4046 35.8841 45.7537 35.9118 44.5985C35.9394 43.4432 36.6415 43.0691 36.6415 43.0691Z" fill="#DCE0ED"/>
<path d="M69.5082 61.014L69.5161 61.0246C69.6566 61.1998 69.7476 61.4095 69.7796 61.6318C69.8876 62.3352 69.9903 63.7763 68.9668 63.5379C68.391 63.4094 67.8626 63.1224 67.4414 62.7093C67.3257 62.5865 67.236 62.4414 67.1778 62.2829C67.1196 62.1245 67.0942 61.9559 67.1029 61.7873C67.1018 61.6289 67.1398 61.4726 67.2135 61.3325C67.2873 61.1923 67.3945 61.0725 67.5258 60.9837L67.9064 60.7651C68.0138 60.7012 68.1372 60.6692 68.2621 60.6729L68.9207 60.6966C69.0354 60.7054 69.147 60.7383 69.2482 60.793C69.3494 60.8476 69.438 60.923 69.5082 61.014Z" fill="#FEC2BE"/>
<path d="M62.1105 48.9612L64.0773 58.7326L65.4695 61.6727L64.5474 63.3851L62.5057 58.5771C62.5057 58.5771 60.2664 51.5298 60.2664 51.3323C60.2664 51.1347 62.1105 48.9612 62.1105 48.9612Z" fill="#087965"/>
<defs>
<linearGradient id="paint0_linear_369_746" x1="66.2843" y1="109.894" x2="66.2843" y2="0.0252686" gradientUnits="userSpaceOnUse">
<stop stop-color="#808080" stop-opacity="0.25"/>
<stop offset="0.54" stop-color="#808080" stop-opacity="0.12"/>
<stop offset="1" stop-color="#808080" stop-opacity="0.1"/>
</linearGradient>
</defs>
</svg>
