<svg width="17" height="17" viewBox="0 0 17 17" fill="none" xmlns="http://www.w3.org/2000/svg">
<path d="M14.2988 6.47813V3.23876H10.8988L8.49883 0.952148L6.09883 3.23876H2.69883V6.47813L0.298828 8.76475L2.69883 11.0514V14.2907H6.09883L8.49883 16.5773L10.8988 14.2907H14.2988V11.0514L16.6988 8.76475L14.2988 6.47813ZM8.49883 12.9121C7.87298 12.9116 7.25471 12.7816 6.68683 12.531C7.44319 12.2008 8.08413 11.6706 8.53348 11.0034C8.98284 10.3363 9.22171 9.56029 9.22171 8.76761C9.22171 7.97492 8.98284 7.1989 8.53348 6.53177C8.08413 5.86464 7.44319 5.33445 6.68683 5.00422C7.27746 4.74607 7.92131 4.61734 8.57103 4.62748C9.22076 4.63763 9.85984 4.7864 10.4413 5.06285C11.0227 5.3393 11.5317 5.7364 11.9309 6.22495C12.33 6.7135 12.6091 7.28107 12.7477 7.88594C12.8863 8.49081 12.8809 9.11758 12.7317 9.72017C12.5826 10.3228 12.2936 10.8858 11.886 11.368C11.4784 11.8502 10.9626 12.2392 10.3764 12.5064C9.79022 12.7736 9.14864 12.9122 8.49883 12.9121Z" fill="white"/>
</svg>
