<svg width="25" height="21" viewBox="0 0 25 21" fill="none" xmlns="http://www.w3.org/2000/svg">
<path d="M5.10846 2.72835C5.48961 1.91476 6.17654 1.28451 7.01988 0.974699C7.86322 0.664888 8.79475 0.700579 9.61195 1.07394C10.0527 1.27168 10.4444 1.56412 10.7593 1.93048C11.0741 2.29684 11.3043 2.72808 11.4335 3.19354C11.5708 3.65504 11.6085 4.14049 11.5442 4.61766C11.4799 5.09484 11.315 5.55289 11.0604 5.96156C11.1759 6.0033 11.251 5.95159 11.3328 5.93758C12.4405 5.69853 13.5514 5.45289 14.6617 5.22849C15.1725 5.11772 15.7063 5.2121 16.1482 5.49128C16.5901 5.77045 16.9046 6.21209 17.0239 6.72097C17.1432 7.22984 17.0577 7.76519 16.786 8.21166C16.5142 8.65814 16.0779 8.97998 15.5711 9.10777C15.215 9.19723 14.8618 9.26486 14.5069 9.34743C14.1521 9.42999 13.8148 9.49329 13.4671 9.57C13.4635 9.67094 13.5514 9.70781 13.607 9.7613C14.2359 10.3874 14.873 11.0068 15.5006 11.6398C15.6273 11.7768 15.7837 11.8829 15.9577 11.9501C16.1318 12.0173 16.3189 12.0437 16.5048 12.0274C17.4344 11.9742 18.3596 11.8258 19.2809 11.6991C19.5624 11.65 19.8509 11.6571 20.1297 11.72C20.4085 11.7828 20.6721 11.9002 20.9054 12.0653C21.7507 12.6565 22.5984 13.2338 23.4157 13.8566C23.7636 14.1106 24.0202 14.4701 24.1473 14.8817C24.2745 15.2932 24.2654 15.7348 24.1214 16.1408C23.9777 16.5615 23.6995 16.9232 23.3296 17.17C22.9598 17.4168 22.519 17.5349 22.0753 17.5061C21.9018 17.5049 21.8327 17.5282 21.8336 17.7244C21.8328 17.9479 21.7889 18.1691 21.7043 18.376C21.6253 18.6238 21.475 18.8428 21.2723 19.0057C21.0695 19.1686 20.8233 19.2682 20.5643 19.292C18.8206 19.5202 17.0801 19.7704 15.3451 19.9951C13.8315 20.1919 12.3259 20.4115 10.8034 20.555C10.0418 20.66 9.26634 20.524 8.58598 20.1659C7.90561 19.8078 7.35446 19.2456 7.00988 18.5583C5.6714 16.2051 4.42981 13.7978 3.23458 11.3754C2.80484 10.4275 2.46206 9.4426 2.21048 8.43273C1.70454 6.66231 1.28048 4.87691 0.895703 3.07609C0.769913 2.55333 0.852317 2.00214 1.12549 1.53902C1.39866 1.0759 1.84119 0.737154 2.35956 0.594351C2.87793 0.451548 3.43153 0.515861 3.90333 0.773755C4.37513 1.03165 4.72816 1.46287 4.88782 1.9763C4.96948 2.20403 5.02953 2.43914 5.10846 2.72835ZM9.83568 19.6679C10.2235 19.7327 10.619 19.7364 11.0079 19.6789C12.2309 19.5253 13.4544 19.369 14.6783 19.21C16.5935 18.9541 18.5099 18.6913 20.4251 18.4354C20.5135 18.4322 20.5996 18.4062 20.6751 18.3599C20.7505 18.3136 20.8127 18.2487 20.8557 18.1713C21.0007 17.8492 21.0298 17.4868 20.938 17.1457C20.8463 16.8045 20.6394 16.5057 20.3524 16.2997C20.0783 16.1336 19.773 16.0253 19.4555 15.9816C19.1379 15.9379 18.8148 15.9597 18.506 16.0457C17.6392 16.2677 16.7607 16.4414 15.8747 16.5661C15.2399 16.6668 14.5899 16.6045 13.9859 16.385C13.3818 16.1654 12.8435 15.7959 12.4214 15.3111C10.8401 13.5966 9.22278 11.9193 7.65769 10.1934C6.31188 8.7933 5.35642 7.06503 4.88651 5.18075C4.66492 4.22134 4.37445 3.27823 4.12309 2.32068C4.08944 2.16256 4.02475 2.01264 3.93278 1.87969C3.84081 1.74674 3.72337 1.63338 3.58727 1.54612C3.45118 1.45887 3.29913 1.39947 3.13992 1.37138C2.98072 1.34329 2.81752 1.34705 2.65978 1.38247C2.50204 1.41788 2.35291 1.48422 2.22099 1.57767C2.08907 1.67113 1.977 1.7898 1.89127 1.92686C1.80554 2.06393 1.74785 2.21666 1.72154 2.37617C1.69523 2.53568 1.70083 2.6988 1.73801 2.85614C2.06407 4.41432 2.43585 5.96096 2.85335 7.49602C3.19265 8.92335 3.68387 10.3102 4.31859 11.6329C5.44706 13.818 6.54534 16.013 7.77104 18.1422C7.97033 18.5413 8.26113 18.8876 8.61974 19.1529C8.97834 19.4182 9.3946 19.595 9.83452 19.6687L9.83568 19.6679ZM14.7589 15.7179C15.3061 15.78 15.8597 15.7529 16.3983 15.6378C17.2174 15.5143 17.9996 15.232 18.8214 15.1456C19.3548 15.0479 19.9055 15.1166 20.3985 15.3425C20.8916 15.5684 21.3032 15.9406 21.5775 16.4085C21.6198 16.4747 21.6817 16.5262 21.7546 16.5556C21.9642 16.6466 22.1961 16.6737 22.4211 16.6336C22.6461 16.5935 22.8542 16.4879 23.0194 16.33C23.1501 16.2077 23.2511 16.0573 23.3148 15.8902C23.3786 15.723 23.4034 15.5434 23.3874 15.3652C23.3714 15.187 23.315 15.0148 23.2224 14.8617C23.1299 14.7086 23.0037 14.5785 22.8534 14.4815C22.0948 13.9341 21.3243 13.4141 20.5726 12.8679C20.3897 12.7281 20.1794 12.6282 19.9555 12.5748C19.7315 12.5214 19.4988 12.5157 19.2724 12.5579C18.3541 12.7169 17.4276 12.8245 16.4974 12.8803C16.2217 12.904 15.9442 12.8672 15.6843 12.7725C15.4243 12.6778 15.1882 12.5275 14.9924 12.3321C14.1888 11.5452 13.4012 10.7539 12.5964 9.97384C12.4922 9.88922 12.4157 9.77547 12.3765 9.64716C12.3373 9.51884 12.3372 9.38174 12.3763 9.25338C12.4162 9.13044 12.491 9.02174 12.5915 8.94051C12.6921 8.85927 12.814 8.80904 12.9426 8.79583C13.7176 8.63512 14.4867 8.46725 15.256 8.29842C15.4136 8.27984 15.5656 8.22855 15.7022 8.1478C15.8388 8.06705 15.9571 7.95865 16.0494 7.82953C16.1417 7.70042 16.206 7.55339 16.2382 7.39798C16.2704 7.24256 16.2697 7.08219 16.2363 6.92704C16.2029 6.77189 16.1374 6.62542 16.0441 6.49705C15.9507 6.36868 15.8316 6.26124 15.6943 6.18158C15.5571 6.10193 15.4047 6.05179 15.2469 6.03447C15.0891 6.01715 14.9295 6.03303 14.7782 6.081C13.7398 6.29573 12.6931 6.51708 11.6528 6.74774C10.8159 6.90532 9.99205 7.12549 9.1881 7.40632C8.94185 7.48524 8.71952 7.62514 8.5418 7.81298C8.36408 8.00082 8.23672 8.23049 8.17153 8.48073C8.10635 8.73097 8.10548 8.99364 8.16898 9.24432C8.23248 9.49499 8.3583 9.72554 8.53476 9.91457C10.0725 11.6286 11.6623 13.301 13.2592 14.9675C13.6605 15.3787 14.1882 15.6433 14.7578 15.7188L14.7589 15.7179ZM8.63035 1.66842C8.13613 1.57894 7.62646 1.63857 7.16623 1.83966C6.70599 2.04076 6.31602 2.37423 6.04592 2.79767C5.77583 3.22111 5.63785 3.71535 5.64953 4.21747C5.66122 4.71958 5.82204 5.20688 6.11155 5.61729C6.40105 6.02771 6.80615 6.34265 7.27524 6.52211C7.74433 6.70157 8.25622 6.73741 8.74573 6.62502C9.23525 6.51264 9.68025 6.25713 10.0241 5.89103C10.3679 5.52493 10.5951 5.06482 10.6766 4.56923C10.783 3.91403 10.6282 3.24321 10.2453 2.70094C9.86251 2.15868 9.28223 1.78823 8.6292 1.66921L8.63035 1.66842ZM7.7171 7.49383C7.27314 7.43611 6.84319 7.29894 6.44786 7.08884C6.69164 7.5692 6.98623 8.02204 7.32656 8.43959C7.39408 8.10231 7.52666 7.78142 7.71692 7.49485L7.7171 7.49383Z" fill="#121614" stroke="#121614" stroke-width="0.8002"/>
</svg>
