<svg width="26" height="26" viewBox="0 0 26 26" fill="none" xmlns="http://www.w3.org/2000/svg">
<path d="M2.11853e-09 11.9481C0.0997053 11.6318 0.156536 11.3036 0.168991 10.9722C0.66532 7.79535 2.32353 4.91599 4.82213 2.89229C7.32073 0.868581 10.4817 -0.155301 13.6923 0.0191178C16.9029 0.193536 19.9344 1.55381 22.1991 3.83629C24.4637 6.11876 25.8002 9.16083 25.9495 12.3727C26.0988 15.5846 25.0501 18.7374 23.0069 21.2201C20.9637 23.7028 18.0714 25.3384 14.8909 25.8098C11.7103 26.2812 8.46792 25.5549 5.7924 23.7716C3.11689 21.9884 1.19882 19.2752 0.410004 16.1581C0.24224 15.4931 0.126548 14.8161 0.0639954 14.1331C0.0639954 14.0761 0.0799918 14.0061 0.000991823 13.9781V13.4861C0.0980602 13.1442 0.0980602 12.782 0.000991823 12.4401C-8.17666e-06 12.2761 2.11853e-09 12.1161 2.11853e-09 11.9481ZM11.034 2.67714C10.3871 2.7827 9.75441 2.9615 9.14799 3.21013C6.92004 4.08467 5.05728 5.6934 3.86772 7.77031C2.67816 9.84722 2.23306 12.2679 2.606 14.6321C2.8466 16.1996 3.44378 17.6909 4.35156 18.9912C5.25934 20.2915 6.45348 21.3661 7.842 22.1321C8.78467 22.6968 9.82563 23.0782 10.91 23.2561C12.1845 23.5466 13.505 23.5728 14.79 23.3331C17.1598 22.9277 19.3191 21.7222 20.9077 19.9176C22.4963 18.1129 23.4183 15.8183 23.52 13.4162C23.599 11.9877 23.3739 10.5587 22.8595 9.22374C22.3451 7.88877 21.5531 6.67821 20.536 5.67213C19.3395 4.40339 17.8381 3.46208 16.1748 2.93782C14.5116 2.41356 12.7418 2.32382 11.034 2.67714Z" fill="#121614"/>
<path d="M11.034 2.67676C10.8289 2.87397 10.5923 3.03552 10.334 3.15475C8.57848 4.30299 7.16081 5.89841 6.22697 7.77673C5.23677 9.79533 4.84389 12.0548 5.09457 14.2892C5.34525 16.5235 6.22906 18.6398 7.64196 20.3887C8.49585 21.4536 9.53692 22.3537 10.714 23.0447C10.8 23.0977 10.908 23.1268 10.909 23.2568C9.82472 23.0783 8.78387 22.697 7.84097 22.1328C6.45259 21.3665 5.25857 20.2919 4.35081 18.9916C3.44305 17.6914 2.84577 16.2001 2.60496 14.6328C2.23202 12.2685 2.67714 9.84784 3.8667 7.77094C5.05625 5.69403 6.91902 4.0853 9.14697 3.21075C9.75351 2.96128 10.3866 2.78211 11.034 2.67676Z" fill="#087965" fill-opacity="0.15"/>
<path d="M11.8187 17.6009C10.8147 17.6099 9.848 17.2213 9.12966 16.5199C8.30666 15.7199 7.50766 14.8929 6.70666 14.0709C6.59131 13.9571 6.50024 13.821 6.4389 13.671C6.37755 13.521 6.34723 13.3602 6.34975 13.1981C6.35228 13.0361 6.38759 12.8762 6.45358 12.7282C6.51956 12.5802 6.61483 12.4471 6.73367 12.3369C6.966 12.1143 7.27646 11.9919 7.59817 11.996C7.91988 12.0001 8.2271 12.1304 8.45367 12.3589C9.22067 13.1149 9.97566 13.8829 10.7367 14.6449C10.8647 14.8011 11.0259 14.9267 11.2086 15.0128C11.3913 15.0988 11.5909 15.1429 11.7928 15.1421C11.9947 15.1412 12.1939 15.0954 12.3759 15.0078C12.5579 14.9202 12.718 14.7932 12.8447 14.6359C13.8677 13.6139 14.8807 12.5829 15.8987 11.5559C16.4407 11.0099 16.984 10.4656 17.5287 9.92291C17.6384 9.79075 17.7744 9.68283 17.928 9.60608C18.0816 9.52932 18.2496 9.48539 18.4211 9.47705C18.5927 9.4687 18.7641 9.49613 18.9245 9.55761C19.0848 9.6191 19.2307 9.71328 19.3527 9.83416C19.4747 9.95505 19.5702 10.1 19.6331 10.2598C19.6961 10.4196 19.7251 10.5908 19.7183 10.7624C19.7115 10.934 19.6691 11.1024 19.5938 11.2567C19.5185 11.4111 19.4118 11.548 19.2807 11.6589C18.1193 12.8329 16.9527 14.0016 15.7807 15.1649C15.2458 15.7458 14.6782 16.2957 14.0807 16.8119C13.4328 17.3144 12.6385 17.5915 11.8187 17.6009Z" fill="#087965"/>
</svg>
