<svg width="121" height="101" viewBox="0 0 121 101" fill="none" xmlns="http://www.w3.org/2000/svg">
<path d="M81.3149 53.0748C81.9842 53.2607 82.6984 53.1946 83.3222 52.8892C83.946 52.5837 84.4361 52.06 84.6996 51.4173C84.9631 50.7746 84.9817 50.0576 84.7519 49.4021C84.5221 48.7466 84.0598 48.1982 83.4526 47.8608L77.4301 41.0282L72.3362 42.1287L79.5006 49.1462C79.3245 49.5192 79.2323 49.9264 79.2306 50.339C79.2289 50.7515 79.3176 51.1595 79.4906 51.534C79.6636 51.9086 79.9166 52.2406 80.2318 52.5068C80.5469 52.773 80.9167 52.9669 81.3149 53.0748Z" fill="#A0616A"/>
<path d="M61.5006 28.6136L76.5112 47.4555L81.0867 45.3548L63.4435 17.8869L61.5006 28.6136Z" fill="#3F3D56"/>
<path d="M118.682 93.7336C119.623 91.9087 119.112 89.6062 117.941 87.9195C116.77 86.2328 115.041 85.0311 113.35 83.8667L110.998 82.2474L112.121 87.8849C112.501 89.7909 112.968 91.8492 114.456 93.0986C115.041 93.5778 115.739 93.8984 116.483 94.0296C117.228 94.1607 117.993 94.0979 118.706 93.8473" fill="#E6E6E6"/>
<path d="M118.504 100.672C118.492 100.715 118.464 100.752 118.425 100.774C118.386 100.796 118.34 100.802 118.297 100.79C118.254 100.777 118.218 100.749 118.196 100.71C118.174 100.671 118.168 100.626 118.178 100.583C118.309 99.6278 118.439 98.6726 118.501 97.7107C118.603 96.1203 118.509 94.488 117.92 92.9908C117.387 91.6444 116.44 90.502 115.216 89.7284C115.032 89.6126 115.202 89.3204 115.387 89.4365C116.094 89.8823 116.718 90.448 117.231 91.1083C118.198 92.3546 118.673 93.8746 118.821 95.4307C118.988 97.183 118.743 98.9388 118.505 100.673L118.504 100.672Z" fill="#F2F2F2"/>
<path d="M94.571 89.9654C101.98 94.5245 99.51 100.603 99.51 100.603L94.571 89.9654Z" fill="#E6E6E6"/>
<path d="M109.131 96.1972C103.3 96.16 102.547 100.493 102.547 100.493L109.131 96.1972Z" fill="#E6E6E6"/>
<path d="M26.1246 100.963C27.0339 100.963 27.771 100.225 27.771 99.3162C27.771 98.4069 27.0339 97.6698 26.1246 97.6698C25.2154 97.6698 24.4783 98.4069 24.4783 99.3162C24.4783 100.225 25.2154 100.963 26.1246 100.963Z" fill="#3F3D56"/>
<path d="M27.322 66.1643C27.322 66.1643 31.2134 54.3403 31.5128 53.5171C31.8121 52.6939 34.9552 54.041 35.7784 54.2655C36.6016 54.49 36.3771 55.3132 36.3771 55.3132L32.1863 67.4365L33.4585 68.0351L37.3499 55.837C39.595 53.5171 37.9486 53.3675 37.9486 53.3675C37.9486 53.3675 33.1592 51.7211 31.3631 51.5714C29.5671 51.4217 30.2406 53.592 30.2406 53.592L25.9001 65.1166L27.322 66.1643Z" fill="#3F3D56"/>
<path d="M36.6763 69.008L36.6756 69.0072C36.1234 68.2154 35.3393 67.6143 34.4313 67.2868C34.3991 67.2748 34.3617 67.2613 34.319 67.2464C32.2573 66.5257 17.8927 62.647 17.8927 62.647C17.8927 62.647 15.049 61.5993 13.7768 64.4431C12.5046 67.2868 4.94629 90.8598 4.94629 90.8598C4.94629 90.8598 19.7292 98.7654 24.0389 99.626C24.305 99.6901 24.5796 99.7118 24.8524 99.6904C25.585 99.5888 26.306 99.4166 27.0054 99.1763C27.779 98.9242 28.5148 98.5684 29.1929 98.1188L37.5744 73.0491C37.5744 73.0491 38.7717 70.2802 36.6763 69.008Z" fill="#087965"/>
<path d="M36.6765 69.008L36.6757 69.0073C36.1235 68.2155 35.3394 67.6144 34.4314 67.2868C34.3992 67.2748 34.3618 67.2613 34.3191 67.2464C34.9972 68.4347 35.2546 70.2802 35.2546 70.2802C35.2546 70.2802 27.0227 94.7513 26.2744 97.0712C25.7041 98.8395 24.5539 99.4404 24.0391 99.626C24.3051 99.6901 24.5797 99.7118 24.8525 99.6904C25.5851 99.5888 26.3061 99.4166 27.0055 99.1763C27.2101 98.9417 27.3913 98.6878 27.5466 98.4182C27.5466 98.4182 35.9281 73.3484 36.6765 72.1511C37.4248 70.9537 36.6765 69.008 36.6765 69.008Z" fill="#3F3D56"/>
<path d="M21.0733 101C21.9825 101 22.7196 100.263 22.7196 99.3536C22.7196 98.4444 21.9825 97.7073 21.0733 97.7073C20.164 97.7073 19.4269 98.4444 19.4269 99.3536C19.4269 100.263 20.164 101 21.0733 101Z" fill="#3F3D56"/>
<path d="M5.09584 94.0778C6.00511 94.0778 6.74222 93.3407 6.74222 92.4314C6.74222 91.5221 6.00511 90.785 5.09584 90.785C4.18657 90.785 3.44946 91.5221 3.44946 92.4314C3.44946 93.3407 4.18657 94.0778 5.09584 94.0778Z" fill="#3F3D56"/>
<path d="M34.1157 54.5193C33.4535 54.729 32.7374 54.6884 32.1031 54.4054C31.4688 54.1223 30.9603 53.6164 30.6741 52.9835C30.3879 52.3506 30.3437 51.6347 30.5501 50.9714C30.7564 50.3082 31.1989 49.7437 31.7936 49.3848L37.569 42.3421L42.6988 43.2604L35.7889 50.5286C35.9782 50.8952 36.0848 51.2988 36.1012 51.711C36.1177 52.1233 36.0435 52.5341 35.884 52.9146C35.7245 53.2951 35.4834 53.6359 35.1779 53.9132C34.8724 54.1905 34.5098 54.3974 34.1157 54.5193L34.1157 54.5193Z" fill="#A0616A"/>
<path d="M73.478 85.5084L77.0555 85.4522L76.6252 97.6455H73.4786L73.478 85.5084Z" fill="#A0616A"/>
<path d="M72.6758 96.6182L78.8727 96.6179H78.873C79.9203 96.618 80.9248 97.0341 81.6654 97.7747C82.406 98.5152 82.8221 99.5197 82.8221 100.567V100.695L72.676 100.696L72.6758 96.6182Z" fill="#2F2E41"/>
<path d="M49.7915 82.2745L53.6995 84.7834L45.8823 94.1879L43.2344 92.4879L49.7915 82.2745Z" fill="#A0616A"/>
<path d="M43.114 91.1897L48.3288 94.5376L48.329 94.5377C49.2103 95.1036 49.8307 95.9964 50.0538 97.0198C50.2768 98.0431 50.0843 99.1131 49.5185 99.9945L49.4491 100.102L40.9111 94.621L43.114 91.1897Z" fill="#2F2E41"/>
<path d="M48.3993 45.0417C48.3993 45.0417 57.0824 16.2023 59.8729 15.8126C62.6634 15.4229 67.1595 23.2124 67.1595 23.2124C72.9889 30.6501 78.9999 54.7423 78.9999 54.7423C78.9999 54.7423 68.9793 55.3694 61.6542 59.2666C54.3292 63.1638 45.6846 59.0693 45.6846 59.0693L48.3993 45.0417Z" fill="#3F3D56"/>
<path opacity="0.1" d="M48.3993 45.0417C48.3993 45.0417 57.0824 16.2023 59.8729 15.8126C62.6634 15.4229 66.0176 23.2915 66.0176 23.2915C68.9223 35.2977 78.9999 54.7423 78.9999 54.7423C78.9999 54.7423 68.9793 55.3694 61.6542 59.2666C54.3292 63.1638 45.6846 59.0693 45.6846 59.0693L48.3993 45.0417Z" fill="black"/>
<path d="M55.5231 36.4131V50.9047L53.8176 71.8969L45.2971 87.776L49.3637 90.6807L60.9826 75.5762L65.578 60.5784L72.7951 93.7791L78.2172 93.3918L74.4515 47.3596L67.3057 34.4027L55.5231 36.4131Z" fill="#2F2E41"/>
<path d="M64.2777 22.3965C66.9888 25.1076 64.4714 28.0123 64.4714 28.0123L67.5698 34.9836L55.37 38.2756L51.1066 19.2249L54.0113 16.1265C59.8207 15.9329 59.8239 15.8125 59.8239 15.8125C60.8417 16.8086 64.2777 22.3965 64.2777 22.3965Z" fill="#CCCCCC"/>
<path d="M50.5478 17.3009C49.5393 18.0426 48.8319 19.123 48.5553 20.3439C48.2787 21.5649 48.4514 22.8447 49.0418 23.9486C50.4395 26.6167 51.9429 30.7496 51.1676 35.2867C49.7648 43.4978 45.2679 49.7362 42.763 51.7397C41.8909 52.4371 41.8604 53.4528 41.9885 54.182C42.3461 56.2193 44.3214 58.5312 45.6876 58.9947C45.7796 59.0252 45.876 59.0403 45.9729 59.0395C48.1925 59.0402 53.6522 51.9712 59.9262 38.1622C63.8336 29.5622 60.9977 22.6667 57.9307 18.3963C57.5281 17.8375 57.0186 17.3642 56.4318 17.0038C55.845 16.6433 55.1925 16.4029 54.5121 16.2964C53.8316 16.1899 53.1369 16.2194 52.468 16.3833C51.7991 16.5472 51.1693 16.8422 50.6152 17.2512L50.5478 17.3009Z" fill="#3F3D56"/>
<path d="M56.335 25.6152L38.7161 48.7326L34.0686 46.7961L50.7223 18.7172L56.335 25.6152Z" fill="#3F3D56"/>
<path d="M61.5613 13.3026H49.443C49.1937 13.3023 48.9548 13.2032 48.7785 13.0269C48.6022 12.8507 48.5031 12.6117 48.5028 12.3624V7.13902C48.5023 6.21954 48.683 5.30898 49.0345 4.45935C49.3861 3.60973 49.9016 2.83769 50.5516 2.18735C51.2016 1.53701 51.9733 1.02111 52.8228 0.669132C53.6722 0.317151 54.5827 0.135986 55.5022 0.135986C56.4216 0.135986 57.3321 0.317151 58.1815 0.669132C59.031 1.02111 59.8028 1.53701 60.4528 2.18735C61.1028 2.83769 61.6182 3.60973 61.9698 4.45935C62.3213 5.30898 62.502 6.21954 62.5015 7.13902V12.3624C62.5012 12.6117 62.4021 12.8507 62.2258 13.0269C62.0496 13.2032 61.8106 13.3023 61.5613 13.3026Z" fill="#2F2E41"/>
<path d="M61.4432 10.5108C62.8026 8.02397 61.8887 4.90595 59.4018 3.54652C56.915 2.1871 53.797 3.10104 52.4375 5.58788C51.0781 8.07472 51.9921 11.1927 54.4789 12.5522C56.9657 13.9116 60.0837 12.9976 61.4432 10.5108Z" fill="#A0616A"/>
<path d="M64.1571 7.66133H56.7471L56.6711 6.59747L56.2911 7.66133H55.1502L54.9996 5.55279L54.2466 7.66133H52.0388V7.55686C52.0405 6.08893 52.6243 4.68158 53.6623 3.64359C54.7003 2.6056 56.1076 2.02172 57.5756 2.02007H58.6203C60.0882 2.02172 61.4956 2.60559 62.5336 3.64359C63.5716 4.68158 64.1554 6.08892 64.1571 7.55686V7.66133Z" fill="#2F2E41"/>
<path d="M56.6866 14.2776C56.6308 14.2776 56.5751 14.2727 56.5202 14.263L51.0942 13.3056V4.3381H57.0672L56.9193 4.51052C54.8619 6.91001 56.4119 10.8008 57.519 12.9065C57.6006 13.0607 57.6369 13.2349 57.6239 13.4089C57.6109 13.5829 57.549 13.7496 57.4454 13.89C57.3586 14.01 57.2445 14.1077 57.1126 14.1751C56.9807 14.2425 56.8347 14.2776 56.6866 14.2776Z" fill="#2F2E41"/>
<path d="M0.52417 100.49C0.52417 100.434 0.539038 100.38 0.565503 100.34C0.591968 100.3 0.627862 100.277 0.66529 100.277H120.335C120.372 100.277 120.408 100.3 120.434 100.34C120.461 100.38 120.476 100.434 120.476 100.49C120.476 100.546 120.461 100.601 120.434 100.64C120.408 100.68 120.372 100.703 120.335 100.703H0.66529C0.627862 100.703 0.591968 100.68 0.565503 100.64C0.539038 100.601 0.52417 100.546 0.52417 100.49Z" fill="#CBCBCB"/>
</svg>
