<svg width="12" height="15" viewBox="0 0 12 15" fill="none" xmlns="http://www.w3.org/2000/svg">
<path d="M11.4462 2.42015H9.56992C9.42942 1.73726 9.05779 1.12369 8.51767 0.682841C7.97755 0.241994 7.30196 0.000831271 6.60476 0L5.39853 0C4.70209 0.00183865 4.02752 0.24346 3.4883 0.684223C2.94908 1.12499 2.5781 1.738 2.43776 2.42015H0.553833C0.402755 2.43305 0.262017 2.50217 0.159461 2.61386C0.0569048 2.72554 0 2.87165 0 3.02327C0 3.1749 0.0569048 3.321 0.159461 3.43269C0.262017 3.54437 0.402755 3.6135 0.553833 3.62639H1.15914V11.4933C1.16001 12.2954 1.47905 13.0644 2.04625 13.6316C2.61344 14.1988 3.38247 14.5179 4.18461 14.5187H7.81539C8.61677 14.5179 9.38514 14.1994 9.95221 13.6332C10.5193 13.0669 10.8388 12.299 10.8409 11.4976V3.63078H11.4462C11.5972 3.61788 11.738 3.54876 11.8405 3.43707C11.9431 3.32539 12 3.17929 12 3.02766C12 2.87603 11.9431 2.72993 11.8405 2.61824C11.738 2.50656 11.5972 2.43744 11.4462 2.42454V2.42015ZM5.39414 10.287C5.38124 10.4381 5.31212 10.5788 5.20043 10.6814C5.08875 10.7839 4.94265 10.8409 4.79102 10.8409C4.63939 10.8409 4.49329 10.7839 4.3816 10.6814C4.26992 10.5788 4.2008 10.4381 4.1879 10.287V6.65624C4.18077 6.57272 4.19107 6.48862 4.21814 6.40928C4.24521 6.32994 4.28847 6.25709 4.34517 6.19535C4.40187 6.1336 4.47078 6.08431 4.54752 6.05058C4.62427 6.01686 4.70719 5.99945 4.79102 5.99945C4.87485 5.99945 4.95777 6.01686 5.03451 6.05058C5.11126 6.08431 5.18017 6.1336 5.23687 6.19535C5.29357 6.25709 5.33683 6.32994 5.3639 6.40928C5.39097 6.48862 5.40127 6.57272 5.39414 6.65624V10.287ZM7.81429 10.287C7.8014 10.4381 7.73227 10.5788 7.62059 10.6814C7.5089 10.7839 7.3628 10.8409 7.21117 10.8409C7.05955 10.8409 6.91344 10.7839 6.80176 10.6814C6.69008 10.5788 6.62095 10.4381 6.60805 10.287V6.65624C6.62095 6.50517 6.69008 6.36443 6.80176 6.26187C6.91344 6.15932 7.05955 6.10241 7.21117 6.10241C7.3628 6.10241 7.5089 6.15932 7.62059 6.26187C7.73227 6.36443 7.8014 6.50517 7.81429 6.65624V10.287ZM3.68237 2.42015C3.80867 2.06724 4.0409 1.76196 4.3473 1.54605C4.6537 1.33014 5.01931 1.21414 5.39414 1.21391H6.60038C6.97521 1.21414 7.34082 1.33014 7.64722 1.54605C7.95362 1.76196 8.18584 2.06724 8.31214 2.42015H3.68237Z" fill="#FF4343"/>
</svg>
