<svg width="17" height="17" viewBox="0 0 17 17" fill="none" xmlns="http://www.w3.org/2000/svg">
<path d="M6.16318 12.7519H2.12545C1.06767 12.7519 0 11.9487 0 10.1552V6.58443C0.0149439 4.95659 0.624522 3.39038 1.71395 2.18071C2.80338 0.971048 4.29748 0.201395 5.91492 0.016684C6.82752 -0.0494612 7.74367 0.0815715 8.60114 0.400882C9.4586 0.720193 10.2373 1.2203 10.8843 1.86724C11.5314 2.51418 12.0316 3.29279 12.351 4.15019C12.6705 5.00759 12.8016 5.92369 12.7356 6.83627C12.5508 8.45452 11.7805 9.9493 10.5699 11.0389C9.35928 12.1286 7.79192 12.7379 6.16318 12.7519ZM14.1685 6.43242H14.1604C14.1604 6.60062 14.1604 6.76792 14.1523 6.93701C13.9364 8.86193 13.0405 10.6466 11.6259 11.9698C10.2113 13.293 8.3708 14.0679 6.43571 14.1551V14.1658C6.93212 15.026 7.64586 15.7406 8.50543 16.238C9.365 16.7354 10.3402 16.9982 11.3333 17H14.8772C15.44 16.9993 15.9795 16.7754 16.3775 16.3775C16.7754 15.9796 16.9993 15.4401 17 14.8773V11.3335C16.999 10.3403 16.737 9.3648 16.2402 8.50477C15.7434 7.64474 15.0293 6.9304 14.1694 6.43332L14.1685 6.43242Z" fill="#121614"/>
</svg>
