<svg width="16" height="16" viewBox="0 0 16 16" fill="none" xmlns="http://www.w3.org/2000/svg">
<path d="M9.33321 4.66791C9.33402 4.93182 9.25651 5.19003 9.11051 5.40985C8.96451 5.62968 8.75657 5.80122 8.51304 5.90278C8.2695 6.00433 8.00131 6.03132 7.74243 5.98032C7.48355 5.92933 7.24562 5.80265 7.05876 5.61633C6.8719 5.43 6.74452 5.19241 6.69275 4.93363C6.64098 4.67485 6.66714 4.40652 6.76792 4.16262C6.86871 3.91873 7.03959 3.71023 7.25891 3.56352C7.47824 3.41682 7.73617 3.33851 8.00002 3.3385C8.3529 3.3385 8.69139 3.47843 8.94129 3.72763C9.1912 3.97683 9.33214 4.31495 9.33321 4.66791ZM11.3053 8.12533L9.27054 10.1467C9.1052 10.313 8.90863 10.445 8.69212 10.535C8.47562 10.6251 8.24345 10.6714 8.00897 10.6714C7.7745 10.6714 7.54233 10.6251 7.32582 10.535C7.10932 10.445 6.91274 10.313 6.7474 10.1467L4.71261 8.13592C3.83767 7.23386 3.34766 6.02689 3.34614 4.77009C3.34462 3.5133 3.83172 2.30515 4.70447 1.40098C5.1334 0.957783 5.64704 0.605372 6.21486 0.364698C6.78268 0.124024 7.39309 0 8.00979 0C8.62649 0 9.23689 0.124024 9.80471 0.364698C10.3725 0.605372 10.8862 0.957783 11.3151 1.40098C12.1866 2.30319 12.6737 3.50866 12.6737 4.76316C12.6737 6.01765 12.1866 7.22312 11.3151 8.12533H11.3053ZM10.6664 4.66872C10.6664 4.14125 10.51 3.62562 10.217 3.18705C9.92405 2.74847 9.50762 2.40664 9.0204 2.20478C8.53318 2.00293 7.99706 1.95011 7.47983 2.05302C6.9626 2.15592 6.4875 2.40993 6.1146 2.78291C5.7417 3.15588 5.48775 3.63109 5.38486 4.14843C5.28198 4.66576 5.33478 5.202 5.5366 5.68932C5.73841 6.17664 6.08017 6.59316 6.51865 6.88621C6.95714 7.17926 7.47266 7.33567 8.00002 7.33567C8.35024 7.33567 8.69704 7.26666 9.02059 7.13258C9.34414 6.99851 9.63812 6.80199 9.88573 6.55425C10.1333 6.30652 10.3297 6.01242 10.4637 5.68876C10.5976 5.36509 10.6665 5.01821 10.6664 4.66791V4.66872ZM13.8366 6.13489C13.5934 7.23696 13.0477 8.24934 12.2609 9.05828L10.209 11.0935C9.62654 11.6775 8.83612 12.0063 8.01141 12.0077C7.18714 12.0073 6.39672 11.6797 5.81384 11.0968L3.76521 9.08189C2.98871 8.2845 2.44372 7.29084 2.18866 6.20735C1.75574 6.3661 1.35992 6.61185 1.02557 6.92944C0.699571 7.23938 0.440417 7.61276 0.264051 8.02661C0.0876858 8.44045 -0.00216045 8.88601 3.94422e-05 9.33588V12.0492C0.00137739 12.7704 0.235837 13.4717 0.668421 14.0486C1.10101 14.6255 1.70852 15.047 2.40028 15.2502L4.31379 15.8502C4.63528 15.9502 4.9701 16.0007 5.30677 16C5.61212 15.9997 5.91603 15.9581 6.21022 15.8763L10.0633 14.7365C10.4064 14.6425 10.7685 14.6425 11.1116 14.7365L12.7028 15.2698C13.0951 15.3653 13.5038 15.3705 13.8984 15.285C14.2929 15.1994 14.6628 15.0254 14.9803 14.7761C15.2978 14.5267 15.5546 14.2085 15.7312 13.8454C15.9078 13.4824 15.9998 13.0839 16 12.6801V9.2504C15.9982 8.57285 15.7902 7.91189 15.4038 7.35539C15.0174 6.79888 14.4707 6.37319 13.8366 6.13489Z" fill="#121614"/>
</svg>
