<svg width="18" height="18" viewBox="0 0 18 18" fill="none" xmlns="http://www.w3.org/2000/svg">
<g clip-path="url(#clip0_511_2119)">
<path d="M8.589 11.25C8.49056 11.25 8.39308 11.2694 8.30214 11.3071C8.2112 11.3448 8.12859 11.4001 8.05902 11.4697C7.98946 11.5394 7.93431 11.6221 7.89673 11.7131C7.85915 11.8041 7.83987 11.9016 7.84 12V14.25C7.84053 14.8452 7.60502 15.4163 7.18511 15.838C6.7652 16.2598 6.19517 16.4979 5.6 16.5H3.742C3.14649 16.4984 2.57594 16.2606 2.15559 15.8388C1.73525 15.4169 1.49947 14.8455 1.5 14.25V3.75C1.49947 3.15448 1.73525 2.58309 2.15559 2.16125C2.57594 1.73941 3.14649 1.50159 3.742 1.5H5.6C6.19517 1.50212 6.7652 1.74017 7.18511 2.16195C7.60502 2.58374 7.84053 3.15483 7.84 3.75V6C7.84 6.19891 7.91902 6.38968 8.05967 6.53033C8.20032 6.67098 8.39109 6.75 8.59 6.75C8.78891 6.75 8.97968 6.67098 9.12033 6.53033C9.26098 6.38968 9.34 6.19891 9.34 6V3.75C9.33974 2.75725 8.94594 1.80509 8.2449 1.10217C7.54385 0.399252 6.59275 0.00291126 5.6 0H3.742C2.74891 0.00238276 1.79729 0.398491 1.09581 1.10147C0.394337 1.80444 0.000261897 2.7569 0 3.75L0 14.25C0.000261897 15.2431 0.394337 16.1956 1.09581 16.8985C1.79729 17.6015 2.74891 17.9976 3.742 18H5.6C6.59309 17.9976 7.54471 17.6015 8.24619 16.8985C8.94766 16.1956 9.34174 15.2431 9.342 14.25V12C9.34213 11.9012 9.32273 11.8034 9.28489 11.7121C9.24706 11.6209 9.19155 11.538 9.12157 11.4683C9.05158 11.3986 8.96849 11.3434 8.87709 11.306C8.78569 11.2685 8.68778 11.2495 8.589 11.25Z" fill="#121614"/>
<path d="M17.1522 7.40726L13.7202 3.96226C13.6514 3.8887 13.5685 3.82976 13.4764 3.78895C13.3843 3.74814 13.285 3.72629 13.1843 3.7247C13.0836 3.72312 12.9836 3.74183 12.8902 3.77973C12.7969 3.81763 12.7122 3.87393 12.6411 3.94528C12.57 4.01663 12.5141 4.10157 12.4765 4.19502C12.439 4.28848 12.4206 4.38854 12.4226 4.48924C12.4246 4.58993 12.4468 4.6892 12.488 4.78112C12.5291 4.87304 12.5884 4.95573 12.6622 5.02426L15.8522 8.22426L4.52818 8.24926C4.33596 8.25918 4.1549 8.34253 4.02236 8.4821C3.88982 8.62166 3.81592 8.80679 3.81592 8.99926C3.81592 9.19173 3.88982 9.37685 4.02236 9.51641C4.1549 9.65598 4.33596 9.73933 4.52818 9.74926L15.8952 9.72626L12.6602 12.9763C12.5902 13.0457 12.5346 13.1283 12.4965 13.2193C12.4584 13.3102 12.4386 13.4078 12.4382 13.5064C12.4379 13.605 12.4569 13.7028 12.4943 13.794C12.5317 13.8853 12.5867 13.9683 12.6562 14.0383C12.7256 14.1083 12.8082 14.1639 12.8992 14.202C12.9902 14.24 13.0877 14.2598 13.1863 14.2602C13.285 14.2606 13.3827 14.2415 13.4739 14.2041C13.5652 14.1667 13.6482 14.1117 13.7182 14.0423L17.1502 10.5973C17.5726 10.1741 17.8101 9.60064 17.8105 9.00267C17.8108 8.4047 17.5741 7.83097 17.1522 7.40726Z" fill="#121614"/>
</g>
<defs>
<clipPath id="clip0_511_2119">
<rect width="17.808" height="18" fill="white"/>
</clipPath>
</defs>
</svg>
