<svg width="16" height="14" viewBox="0 0 16 14" fill="none" xmlns="http://www.w3.org/2000/svg">
<path d="M6.25893 13.1572V8.954H9.73765V13.1572C9.73932 13.3796 9.83148 13.5925 9.99422 13.7497C10.157 13.907 10.3772 13.9961 10.6073 13.9977H13.2172C13.4473 13.9961 13.6675 13.907 13.8303 13.7497C13.993 13.5925 14.0852 13.3796 14.0868 13.1572V7.27534H15.5658C15.6538 7.27585 15.7399 7.25032 15.8125 7.20217C15.8852 7.15403 15.9408 7.08558 15.972 7.00601C16.0032 6.92643 16.0085 6.83954 15.9871 6.75699C15.9657 6.67443 15.9188 6.60017 15.8525 6.54415L8.58126 0.214333C8.42083 0.0762771 8.2135 0 7.99869 0C7.78387 0 7.57655 0.0762771 7.41612 0.214333L0.144889 6.54415C0.0794678 6.60053 0.0332828 6.67477 0.0124335 6.75705C-0.0084157 6.83933 -0.00294827 6.92579 0.0281135 7.00501C0.0591754 7.08423 0.11437 7.15248 0.186409 7.20074C0.258447 7.24901 0.34394 7.27502 0.431596 7.27534H1.90814V13.1595C1.90981 13.3819 2.00197 13.5948 2.16471 13.752C2.32744 13.9093 2.54768 13.9984 2.77782 14H5.38925C5.6198 13.9984 5.8404 13.909 6.0032 13.7512C6.166 13.5935 6.25789 13.38 6.25893 13.1572Z" fill="#121614"/>
</svg>
