<svg width="15" height="18" viewBox="0 0 15 18" fill="none" xmlns="http://www.w3.org/2000/svg">
<path d="M6.24838 8.33621H8.01638L13.1534 3.1982L11.3854 1.4322L6.24838 6.5692V8.33621ZM14.3484 0.836205L13.7564 0.244205C13.6793 0.166802 13.5876 0.105385 13.4867 0.0634787C13.3858 0.0215721 13.2776 0 13.1684 0C13.0591 0 12.9509 0.0215721 12.85 0.0634787C12.7491 0.105385 12.6575 0.166802 12.5804 0.244205L11.9804 0.844205L13.7454 2.6082L14.3454 2.0082C14.4229 1.93107 14.4845 1.83937 14.5265 1.73838C14.5685 1.63738 14.5901 1.52908 14.5901 1.4197C14.5901 1.31033 14.5685 1.20203 14.5265 1.10103C14.4845 1.00003 14.4229 0.908336 14.3454 0.831205L14.3484 0.836205ZM12.0024 6.7102C12.0566 7.02701 12.0844 7.34779 12.0854 7.6692C12.0854 9.0952 11.1854 11.5382 7.08538 15.2912C2.98538 11.5472 2.08538 9.0912 2.08538 7.6692C2.0593 6.99762 2.16952 6.32771 2.40939 5.69987C2.64926 5.07204 3.0138 4.49929 3.48103 4.01617C3.94826 3.53305 4.50851 3.14957 5.12797 2.88886C5.74744 2.62814 6.41329 2.49559 7.08538 2.4992C7.35636 2.50079 7.62682 2.52319 7.89438 2.56621L9.27038 1.1902C8.56515 0.957626 7.82795 0.836502 7.08538 0.831205C6.19335 0.825264 5.30929 0.999313 4.48609 1.34294C3.66289 1.68657 2.91745 2.19271 2.29439 2.83109C1.67132 3.46947 1.18342 4.22696 0.859872 5.05827C0.536328 5.88957 0.383787 6.77759 0.411377 7.6692C0.411377 10.4379 2.63504 13.7179 7.08238 17.5092C11.527 13.7152 13.7507 10.4352 13.7534 7.6692C13.757 6.8756 13.6303 6.08678 13.3784 5.3342L12.0024 6.7102Z" fill="white"/>
</svg>
