<svg width="16" height="12" viewBox="0 0 16 12" fill="none" xmlns="http://www.w3.org/2000/svg">
<path d="M15.2203 2.30289L13.0361 0.118635C12.7856 -0.13189 12.3628 0.0403456 12.3628 0.392645V1.79402H1.40236C0.971776 1.79402 0.619476 2.14632 0.619476 2.5769C0.619476 3.00749 0.971776 3.35979 1.40236 3.35979H12.3628V4.76116C12.3628 5.11346 12.7856 5.2857 13.0282 5.03517L15.2125 2.85092C15.3691 2.70217 15.3691 2.45164 15.2203 2.30289Z" fill="#121614"/>
<path d="M13.9286 8.05718H2.96815V6.65582C2.96815 6.30353 2.54539 6.1313 2.30269 6.38182L0.118431 8.56605C-0.038147 8.7148 -0.038147 8.96532 0.110602 9.11407L2.29486 11.2983C2.54539 11.5488 2.96815 11.3766 2.96815 11.0243V9.62294H13.9286C14.3592 9.62294 14.7115 9.27064 14.7115 8.84006C14.7115 8.40947 14.3592 8.05718 13.9286 8.05718Z" fill="#121614"/>
</svg>
