<svg width="15" height="15" viewBox="0 0 15 15" fill="none" xmlns="http://www.w3.org/2000/svg">
<path d="M14.9967 7.50217C14.9974 6.06892 14.5874 4.66549 13.8151 3.45809C13.0428 2.25069 11.9407 1.28992 10.6393 0.689552C9.33782 0.0891877 7.89158 -0.125609 6.47182 0.0706015C5.05207 0.266812 3.71829 0.865809 2.62846 1.79665C1.53862 2.72749 0.738394 3.95117 0.32255 5.32277C-0.0932946 6.69436 -0.107333 8.15641 0.282098 9.53573C0.671529 10.9151 1.44811 12.1539 2.51987 13.1055C3.59163 14.0571 4.91366 14.6816 6.32939 14.905V9.66722H4.42481V7.50217H6.32939V5.84464C6.28907 5.45927 6.33392 5.06974 6.46077 4.70361C6.58761 4.33748 6.79335 4.00369 7.06344 3.72585C7.33352 3.44801 7.66135 3.23291 8.02374 3.09575C8.38614 2.9586 8.77424 2.90274 9.1606 2.93213C9.72277 2.93981 10.2836 2.98861 10.8387 3.07815V4.92353H9.89149C9.73044 4.90218 9.56664 4.91732 9.41222 4.96782C9.2578 5.01832 9.11671 5.1029 8.9994 5.21529C8.88208 5.32768 8.79153 5.46502 8.73445 5.61713C8.67738 5.76924 8.65523 5.93224 8.66966 6.09406V7.50217H10.7487L10.4164 9.6688H8.67203V14.9074C10.4352 14.628 12.0408 13.7287 13.2001 12.3712C14.3595 11.0138 14.9965 9.28731 14.9967 7.50217V7.50217Z" fill="#121614"/>
<path d="M10.4188 9.66709L10.751 7.50046H8.67203V6.09393C8.6576 5.93211 8.67975 5.76911 8.73682 5.617C8.7939 5.46489 8.88444 5.32755 9.00176 5.21516C9.11908 5.10277 9.26018 5.0182 9.4146 4.9677C9.56902 4.91719 9.73281 4.90205 9.89387 4.9234H10.841V3.07882C10.2858 2.98899 9.72463 2.93992 9.16219 2.932C8.77509 2.90243 8.38623 2.95843 8.02321 3.09604C7.66019 3.23365 7.33191 3.44949 7.06168 3.72823C6.79146 4.00697 6.5859 4.34178 6.45962 4.70889C6.33333 5.076 6.2894 5.46641 6.33097 5.85241V7.50363H4.42639V9.67025H6.3294V14.9088C7.10556 15.0303 7.89587 15.0303 8.67203 14.9088V9.67025L10.4188 9.66709Z" fill="white"/>
</svg>
