<svg width="25" height="20" viewBox="0 0 25 20" fill="none" xmlns="http://www.w3.org/2000/svg">
<path d="M9.388 1.10157C9.21911 1.27008 9.11478 1.49256 9.09321 1.73016C9.07165 1.96777 9.13422 2.2054 9.27 2.40157L9.388 2.54257L14.849 8.00157H12.216C5.046 8.00157 0.233 12.0246 0.00900006 17.7586L0 18.1816C5.68962e-09 18.4516 0.107253 18.7105 0.298165 18.9014C0.489077 19.0923 0.74801 19.1996 1.018 19.1996C1.28799 19.1996 1.54692 19.0923 1.73783 18.9014C1.92875 18.7105 2.036 18.4516 2.036 18.1816C2.036 13.5536 5.716 10.2316 11.683 10.0456L12.215 10.0376H14.848L9.387 15.4996C9.20632 15.6791 9.09953 15.9199 9.08772 16.1744C9.07591 16.4289 9.15993 16.6785 9.3232 16.874C9.48646 17.0696 9.7171 17.1968 9.96959 17.2306C10.2221 17.2644 10.4781 17.2023 10.687 17.0566L10.828 16.9386L18.088 9.67257L18.188 9.52757L18.244 9.41357L18.29 9.27557L18.312 9.15657L18.32 9.04857V8.93257L18.289 8.75657L18.246 8.62957L18.166 8.47457L18.055 8.32957L10.827 1.09957C10.6358 0.909124 10.3769 0.80236 10.1071 0.802735C9.83726 0.80311 9.57862 0.910594 9.388 1.10157ZM24.134 8.30157L17.008 1.17357C16.8284 0.992888 16.5876 0.886101 16.3332 0.874289C16.0787 0.862477 15.8291 0.946497 15.6335 1.10976C15.438 1.27303 15.3108 1.50367 15.277 1.75616C15.2432 2.00865 15.3053 2.26463 15.451 2.47357L15.569 2.61457L21.975 9.02057L15.569 15.4266C15.3869 15.6058 15.2789 15.847 15.2664 16.1022C15.2539 16.3574 15.3378 16.608 15.5015 16.8042C15.6652 17.0004 15.8967 17.1279 16.1501 17.1613C16.4034 17.1947 16.66 17.1316 16.869 16.9846L17.01 16.8666L24.133 9.73857C24.3019 9.57005 24.4062 9.34757 24.4278 9.10997C24.4494 8.87237 24.3868 8.63474 24.251 8.43857L24.133 8.29757L17.008 1.17357L24.134 8.30157Z" fill="#121614"/>
</svg>
