<svg width="14" height="22" viewBox="0 0 14 22" fill="none" xmlns="http://www.w3.org/2000/svg">
<path d="M6.87501 2.49741C7.74031 2.49741 8.58617 2.754 9.30563 3.23473C10.0251 3.71546 10.5859 4.39874 10.917 5.19817C11.2481 5.9976 11.3348 6.87726 11.1659 7.72593C10.9971 8.5746 10.5805 9.35415 9.96861 9.966C9.35675 10.5779 8.5772 10.9945 7.72853 11.1633C6.87987 11.3322 6.0002 11.2455 5.20077 10.9144C4.40135 10.5832 3.71807 10.0225 3.23734 9.30303C2.7566 8.58356 2.50001 7.7377 2.50001 6.87241C2.50134 5.71249 2.9627 4.60046 3.78288 3.78028C4.60307 2.96009 5.7151 2.49873 6.87501 2.49741ZM8.12501 13.6354C9.81115 13.3236 11.3199 12.393 12.3553 11.0262C13.3906 9.65935 13.8778 7.95493 13.7213 6.24738C13.5648 4.53983 12.7758 2.95241 11.5092 1.79659C10.2425 0.640773 8.58973 0 6.87501 0C5.1603 0 3.50748 0.640773 2.24086 1.79659C0.974242 2.95241 0.185259 4.53983 0.0287223 6.24738C-0.127814 7.95493 0.359396 9.65935 1.39476 11.0262C2.43012 12.393 3.93888 13.3236 5.62501 13.6354V16.2474H4.37501C4.04349 16.2474 3.72555 16.3791 3.49113 16.6135C3.25671 16.8479 3.12501 17.1659 3.12501 17.4974C3.12501 17.8289 3.25671 18.1469 3.49113 18.3813C3.72555 18.6157 4.04349 18.7474 4.37501 18.7474H5.62501V19.9974C5.62501 20.3289 5.75671 20.6469 5.99113 20.8813C6.22555 21.1157 6.54349 21.2474 6.87501 21.2474C7.20653 21.2474 7.52448 21.1157 7.7589 20.8813C7.99332 20.6469 8.12501 20.3289 8.12501 19.9974V18.7474H9.37501C9.70654 18.7474 10.0245 18.6157 10.2589 18.3813C10.4933 18.1469 10.625 17.8289 10.625 17.4974C10.625 17.1659 10.4933 16.8479 10.2589 16.6135C10.0245 16.3791 9.70654 16.2474 9.37501 16.2474H8.12501V13.6354Z" fill="#121614"/>
</svg>
