<svg width="15" height="15" viewBox="0 0 15 15" fill="none" xmlns="http://www.w3.org/2000/svg">
<path d="M14.6985 7.66719C14.7074 7.1518 14.6542 6.63721 14.5402 6.13452H7.49988V8.91724H11.6324C11.5541 9.40513 11.378 9.87216 11.1146 10.2902C10.8512 10.7083 10.506 11.0688 10.0997 11.35L10.0855 11.4435L12.3116 13.1677L12.466 13.1828C13.203 12.4705 13.7825 11.6117 14.167 10.6617C14.5516 9.71163 14.7326 8.69153 14.6985 7.66719Z" fill="#121614"/>
<path d="M7.49983 14.997C9.32624 15.0486 11.103 14.3987 12.4652 13.1809L10.0989 11.3482C9.33165 11.8625 8.42308 12.1246 7.49983 12.0979C6.55188 12.0923 5.62979 11.7882 4.86442 11.2289C4.09904 10.6695 3.52925 9.88337 3.2359 8.98193L3.14802 8.98906L0.833184 10.7806L0.803101 10.8645C1.42647 12.1068 2.38309 13.1512 3.566 13.881C4.74891 14.6108 6.11149 14.9972 7.50141 14.997" fill="#121614"/>
<path d="M3.23437 8.98213C3.07049 8.50486 2.98598 8.00395 2.9842 7.49934C2.98719 6.99553 3.06865 6.49526 3.22566 6.01654L3.2217 5.91679L0.878358 4.09595L0.799191 4.13237C0.273707 5.1761 0 6.32841 0 7.49696C0 8.66551 0.273707 9.81782 0.799191 10.8616L3.23199 8.97896" fill="#121614"/>
<path d="M7.49995 2.89961C8.57428 2.8829 9.61333 3.28297 10.399 4.01587L12.5152 1.94961C11.1579 0.676575 9.36067 -0.0218873 7.49995 0.000523065C6.11001 0.000238715 4.74739 0.386601 3.56446 1.11641C2.38153 1.84621 1.42493 2.89069 0.801636 4.13304L3.22573 6.01721C3.5223 5.1156 4.09444 4.32985 4.86145 3.77078C5.62846 3.21172 6.55163 2.90755 7.50074 2.9012" fill="#121614"/>
</svg>
