<svg width="18" height="19" viewBox="0 0 18 19" fill="none" xmlns="http://www.w3.org/2000/svg">
<path d="M14.3176 9.72168H11.0449V10.949H14.3176V9.72168Z" fill="#121614"/>
<path d="M14.3176 12.4375H11.0449V13.6648H14.3176V12.4375Z" fill="#121614"/>
<path d="M16.2 5.16102H11.7V2.4646C11.6987 1.98825 11.5086 1.53177 11.1714 1.19493C10.8341 0.858092 10.377 0.668286 9.9 0.666992H8.1C7.62301 0.668286 7.16592 0.858092 6.82864 1.19493C6.49135 1.53177 6.3013 1.98825 6.3 2.4646V5.16102H1.8C1.32301 5.16232 0.865924 5.35212 0.528639 5.68896C0.191354 6.0258 0.00129559 6.48228 0 6.95864V16.8455C0.00129559 17.3219 0.191354 17.7783 0.528639 18.1152C0.865924 18.452 1.32301 18.6418 1.8 18.6431H16.2C16.677 18.6418 17.1341 18.452 17.4714 18.1152C17.8086 17.7783 17.9987 17.3219 18 16.8455V6.95864C17.9987 6.48228 17.8086 6.0258 17.4714 5.68896C17.1341 5.35212 16.677 5.16232 16.2 5.16102ZM8.1 5.16102V2.4646H9.9V6.95864H8.1V5.16102ZM16.2 16.8455H1.8V6.95864H6.3C6.3013 7.435 6.49135 7.89147 6.82864 8.22831C7.16592 8.56515 7.62301 8.75496 8.1 8.75625H9.9C10.377 8.75496 10.8341 8.56515 11.1714 8.22831C11.5086 7.89147 11.6987 7.435 11.7 6.95864H16.2V16.8455Z" fill="#121614"/>
<path d="M6.25657 12.2501C6.93437 12.2501 7.48384 11.7014 7.48384 11.0245C7.48384 10.3476 6.93437 9.79883 6.25657 9.79883C5.57877 9.79883 5.0293 10.3476 5.0293 11.0245C5.0293 11.7014 5.57877 12.2501 6.25657 12.2501Z" fill="#121614"/>
<path d="M7.8966 13.5193C7.35925 13.2875 6.78011 13.168 6.19478 13.168C5.60946 13.168 5.03032 13.2875 4.49296 13.5193C4.26947 13.6136 4.07882 13.7716 3.94491 13.9737C3.811 14.1757 3.7398 14.4128 3.74024 14.6551V15.0064H8.64933V14.6551C8.64976 14.4128 8.57856 14.1757 8.44465 13.9737C8.31075 13.7716 8.12009 13.6136 7.8966 13.5193Z" fill="#121614"/>
</svg>
