<svg width="16" height="16" viewBox="0 0 16 16" fill="none" xmlns="http://www.w3.org/2000/svg">
<path d="M8.0005 5.0915C7.42515 5.0915 6.86273 5.26211 6.38435 5.58176C5.90596 5.9014 5.53311 6.35572 5.31293 6.88727C5.09276 7.41882 5.03515 8.00373 5.1474 8.56802C5.25964 9.13231 5.5367 9.65064 5.94353 10.0575C6.35036 10.4643 6.86869 10.7414 7.43298 10.8536C7.99727 10.9658 8.58218 10.9082 9.11373 10.6881C9.64528 10.4679 10.0996 10.095 10.4192 9.61665C10.7389 9.13827 10.9095 8.57585 10.9095 8.0005C10.9096 7.61845 10.8345 7.24011 10.6883 6.88712C10.5422 6.53412 10.3279 6.21339 10.0578 5.94323C9.78761 5.67308 9.46688 5.45881 9.11388 5.31267C8.76089 5.16652 8.38255 5.09137 8.0005 5.0915ZM14.5005 7.2735C14.3355 5.79919 13.6743 4.42475 12.6253 3.37574C11.5763 2.32674 10.2018 1.66548 8.7275 1.5005V0.7275C8.7275 0.534555 8.65085 0.349513 8.51442 0.21308C8.37799 0.0766471 8.19295 0 8 0C7.80705 0 7.62201 0.0766471 7.48558 0.21308C7.34915 0.349513 7.2725 0.534555 7.2725 0.7275V1.5005C5.79837 1.66569 4.42416 2.32704 3.37535 3.37603C2.32655 4.42501 1.66544 5.79934 1.5005 7.2735H0.7275C0.534555 7.2735 0.349513 7.35015 0.21308 7.48658C0.0766471 7.62301 0 7.80805 0 8.001C0 8.19394 0.0766471 8.37899 0.21308 8.51542C0.349513 8.65185 0.534555 8.7285 0.7275 8.7285H1.5005C1.66569 10.2026 2.32704 11.5768 3.37603 12.6256C4.42501 13.6745 5.79934 14.3356 7.2735 14.5005V15.2715C7.2735 15.4644 7.35015 15.6495 7.48658 15.7859C7.62301 15.9224 7.80805 15.999 8.001 15.999C8.19394 15.999 8.37899 15.9224 8.51542 15.7859C8.65185 15.6495 8.7285 15.4644 8.7285 15.2715V14.5005C10.2026 14.3353 11.5768 13.674 12.6256 12.625C13.6745 11.576 14.3356 10.2017 14.5005 8.7275H15.2715C15.4644 8.7275 15.6495 8.65085 15.7859 8.51442C15.9224 8.37799 15.999 8.19295 15.999 8C15.999 7.80705 15.9224 7.62201 15.7859 7.48558C15.6495 7.34915 15.4644 7.2725 15.2715 7.2725H14.5005V7.2735ZM8.0005 13.0915C6.9936 13.0915 6.0093 12.7929 5.17209 12.2335C4.33488 11.6741 3.68235 10.879 3.29703 9.94874C2.9117 9.01848 2.81088 7.99485 3.00732 7.0073C3.20376 6.01974 3.68863 5.11261 4.40062 4.40062C5.11261 3.68863 6.01974 3.20376 7.0073 3.00732C7.99485 2.81088 9.01848 2.9117 9.94874 3.29703C10.879 3.68235 11.6741 4.33488 12.2335 5.17209C12.7929 6.0093 13.0915 6.9936 13.0915 8.0005C13.092 8.66921 12.9607 9.33146 12.705 9.94936C12.4494 10.5673 12.0744 11.1287 11.6016 11.6016C11.1287 12.0744 10.5673 12.4494 9.94936 12.705C9.33146 12.9607 8.66921 13.092 8.0005 13.0915Z" fill="#121614"/>
</svg>
