<svg width="17" height="15" viewBox="0 0 17 15" fill="none" xmlns="http://www.w3.org/2000/svg">
<g clip-path="url(#clip0_685_1746)">
<path d="M8.49867 12.2883L13.2339 14.9356C13.311 14.9791 13.4003 15.0006 13.4906 14.9974C13.5808 14.9942 13.668 14.9664 13.7413 14.9175C13.8146 14.8686 13.8707 14.8008 13.9026 14.7225C13.9345 14.6443 13.9408 14.559 13.9206 14.4775L12.6653 9.48976L16.8419 6.13904C16.9102 6.08388 16.9594 6.01128 16.9834 5.93033C17.0073 5.84939 17.0049 5.76369 16.9765 5.68399C16.9481 5.60429 16.8949 5.53413 16.8237 5.4823C16.7524 5.43046 16.6662 5.39927 16.5758 5.39262L11.0711 4.9601L8.91821 0.256627C8.88368 0.179502 8.82523 0.113589 8.75026 0.0672164C8.6753 0.0208439 8.58717 -0.00390625 8.49702 -0.00390625C8.40687 -0.00390625 8.31874 0.0208439 8.24377 0.0672164C8.1688 0.113589 8.11036 0.179502 8.07583 0.256627L5.92295 4.9601L0.417103 5.39364C0.327038 5.40097 0.241326 5.43281 0.17076 5.48516C0.100194 5.53751 0.0479288 5.60802 0.0205446 5.68783C-0.00683967 5.76763 -0.00811851 5.85315 0.0168689 5.93362C0.0418564 6.0141 0.091993 6.08592 0.160966 6.14006L4.33755 9.49078L3.08446 14.4795C3.06432 14.5611 3.07059 14.6463 3.10248 14.7246C3.13437 14.8028 3.19047 14.8706 3.26376 14.9195C3.33705 14.9684 3.42427 14.9962 3.51452 14.9994C3.60478 15.0026 3.69405 14.9811 3.77118 14.9376L8.49867 12.2883Z" fill="white"/>
</g>
<defs>
<clipPath id="clip0_685_1746">
<rect width="17" height="15" fill="white"/>
</clipPath>
</defs>
</svg>
