<svg width="10" height="9" viewBox="0 0 10 9" fill="none" xmlns="http://www.w3.org/2000/svg">
<path d="M4.99979 7.23072L7.78522 8.78792C7.83059 8.81353 7.8831 8.82618 7.93619 8.82428C7.98928 8.82239 8.04059 8.80604 8.0837 8.77729C8.12681 8.74853 8.15981 8.70864 8.17857 8.6626C8.19733 8.61657 8.20102 8.56643 8.18917 8.51847L7.45076 5.58451L9.90757 3.6135C9.94775 3.58105 9.9767 3.53835 9.99079 3.49073C10.0049 3.44311 10.0035 3.3927 9.98677 3.34582C9.97005 3.29894 9.93877 3.25767 9.89684 3.22718C9.85491 3.19669 9.8042 3.17834 9.75106 3.17443L6.51298 2.92001L5.24658 0.153255C5.22627 0.107887 5.19189 0.0691147 5.14779 0.0418368C5.10369 0.0145589 5.05185 0 4.99882 0C4.94579 0 4.89395 0.0145589 4.84985 0.0418368C4.80575 0.0691147 4.77137 0.107887 4.75106 0.153255L3.48466 2.92001L0.245929 3.17503C0.19295 3.17934 0.142531 3.19807 0.101021 3.22886C0.0595121 3.25966 0.0287679 3.30114 0.0126595 3.34808C-0.00344888 3.39502 -0.00420114 3.44533 0.0104974 3.49266C0.0251958 3.54 0.054688 3.58225 0.0952606 3.6141L2.55207 5.58511L1.81496 8.51967C1.80312 8.56763 1.8068 8.61777 1.82556 8.66381C1.84432 8.70984 1.87732 8.74973 1.92043 8.77849C1.96354 8.80725 2.01485 8.82359 2.06794 8.82549C2.12103 8.82738 2.17354 8.81473 2.21891 8.78913L4.99979 7.23072Z" fill="#6F7C8E"/>
</svg>
