<svg width="14" height="15" viewBox="0 0 14 15" fill="none" xmlns="http://www.w3.org/2000/svg">
<path d="M0.686149 11.1441C0.246968 11.5832 0.00015961 12.1788 0 12.7998L0 14.0018H1.20198C1.82291 14.0016 2.41837 13.7549 2.8574 13.3158L10.6697 5.5035L8.49826 3.33203L0.686149 11.1441Z" fill="#087965"/>
<path d="M13.549 0.450226C13.4065 0.307497 13.2372 0.19427 13.0508 0.117016C12.8645 0.0397633 12.6647 0 12.463 0C12.2612 0 12.0615 0.0397633 11.8751 0.117016C11.6888 0.19427 11.5195 0.307497 11.3769 0.450226L9.32422 2.50357L11.4957 4.67504L13.549 2.62348C13.6918 2.48091 13.805 2.31161 13.8822 2.12525C13.9595 1.9389 13.9993 1.73914 13.9993 1.53741C13.9993 1.33567 13.9595 1.13592 13.8822 0.94956C13.805 0.763204 13.6918 0.593902 13.549 0.451336V0.450226Z" fill="#087965"/>
</svg>
