<svg width="23" height="20" viewBox="0 0 23 20" fill="none" xmlns="http://www.w3.org/2000/svg">
<path d="M11.7546 15.7744L17.8517 19.1715C17.951 19.2274 18.0659 19.255 18.1821 19.2508C18.2984 19.2467 18.4107 19.2111 18.505 19.1483C18.5994 19.0856 18.6716 18.9986 18.7127 18.8981C18.7537 18.7977 18.7618 18.6883 18.7359 18.5837L17.1196 12.183L22.4973 7.88312C22.5853 7.81234 22.6486 7.71917 22.6795 7.61529C22.7103 7.51141 22.7072 7.40144 22.6707 7.29916C22.6341 7.19689 22.5656 7.10685 22.4738 7.04033C22.3821 6.97382 22.271 6.93379 22.1547 6.92525L15.0669 6.37021L12.2948 0.334337C12.2504 0.235364 12.1751 0.150779 12.0786 0.0912702C11.9821 0.0317613 11.8686 0 11.7525 0C11.6364 0 11.523 0.0317613 11.4264 0.0912702C11.3299 0.150779 11.2546 0.235364 11.2102 0.334337L8.43815 6.37021L1.34886 6.92656C1.2329 6.93597 1.12253 6.97683 1.03167 7.04401C0.940813 7.11119 0.873517 7.20168 0.838257 7.30408C0.802998 7.40649 0.801351 7.51624 0.833525 7.61951C0.865698 7.72278 0.930254 7.81496 1.01906 7.88443L6.3968 12.1843L4.78334 18.5863C4.75741 18.6909 4.76548 18.8003 4.80654 18.9008C4.8476 19.0012 4.91983 19.0882 5.0142 19.1509C5.10856 19.2137 5.22087 19.2493 5.33708 19.2535C5.45329 19.2576 5.56824 19.23 5.66754 19.1741L11.7546 15.7744Z" fill="#087965"/>
</svg>
