<svg xmlns="http://www.w3.org/2000/svg" width="24.283" height="24.291" viewBox="0 0 24.283 24.291">
  <g id="Group" transform="translate(-1473.858 -949.667)">
    <path id="Path_8136" data-name="Path 8136" d="M1893.373,1372.4c-.133-.031-.268-.056-.4-.094a3.027,3.027,0,0,1-1.3-.784q-1.079-1.076-2.156-2.155a3.118,3.118,0,0,1-.779-1.212,2.792,2.792,0,0,1-.009-1.683c.028-.1.06-.195.1-.29a.219.219,0,0,0-.06-.259c-.227-.221-.453-.443-.671-.671a.955.955,0,0,1,.253-1.527.94.94,0,0,1,1.052.153c.208.189.4.4.6.594a.679.679,0,0,1,.052.054.3.3,0,0,0,.388.09,3,3,0,0,1,1.117-.2,2.523,2.523,0,0,1,1.6.583c.281.23.542.486.8.742.545.539,1.083,1.084,1.623,1.628a3.87,3.87,0,0,1,.587.686,2.864,2.864,0,0,1,.339.8c.01.038.006.08.02.117a.709.709,0,0,0,.061.107v.987a.354.354,0,0,0-.046.079c-.015.051-.016.107-.035.157a5.219,5.219,0,0,1-.2.5,2.787,2.787,0,0,1-1.73,1.5c-.132.041-.269.066-.4.1Zm-1.858-6.087a1,1,0,0,0-.811.37.929.929,0,0,0,.084,1.255c.384.393.775.78,1.163,1.169.365.366.728.733,1.094,1.1a.949.949,0,0,0,1.532-.174.868.868,0,0,0-.1-1.058c-.282-.292-.562-.586-.85-.872-.518-.516-1.04-1.026-1.561-1.54A.821.821,0,0,0,1891.514,1366.31Z" transform="translate(-398.442 -398.439)"/>
    <path id="Path_8138" data-name="Path 8138" d="M1482.414,949.667c.244,0,.487,0,.731,0a.265.265,0,0,1,.079.029.227.227,0,0,0,.052.018,8.276,8.276,0,0,1,1.849.4,8.545,8.545,0,0,1,5.791,8.651,8.356,8.356,0,0,1-.775,3.066,8.643,8.643,0,0,1-6.18,4.785,8.093,8.093,0,0,1-2.362.106,8.553,8.553,0,0,1-4.6-1.89,8.515,8.515,0,0,1-3.056-5.414,8.659,8.659,0,0,1,.005-2.434,8.378,8.378,0,0,1,.792-2.557,8.607,8.607,0,0,1,3.564-3.711,8.381,8.381,0,0,1,2.484-.89c.27-.051.54-.1.81-.148a.554.554,0,0,1,.1-.008h.719A.035.035,0,0,1,1482.414,949.667Zm-6.655,8.615h-.015c.024.3.035.607.073.908a6.088,6.088,0,0,0,.687,2.118,6.652,6.652,0,0,0,6.034,3.549,6.53,6.53,0,0,0,.973-.108,6.135,6.135,0,0,0,2.029-.683,7.1,7.1,0,0,0,1.725-1.358,6.314,6.314,0,0,0,1.256-1.915,6.728,6.728,0,0,0,.5-2.448,6.344,6.344,0,0,0-.187-1.763,6.639,6.639,0,0,0-1.874-3.178,6.479,6.479,0,0,0-1.919-1.284,5.434,5.434,0,0,0-1.583-.45c-.184-.02-.366-.054-.55-.073a5.916,5.916,0,0,0-2.323.211,7.167,7.167,0,0,0-3.095,1.908,5.853,5.853,0,0,0-1.248,1.918A7.023,7.023,0,0,0,1475.759,958.282Z"/>
  </g>
</svg>
