<svg width="16" height="16" viewBox="0 0 16 16" fill="none" xmlns="http://www.w3.org/2000/svg">
<path d="M7.99219 0.9C6.58794 0.9 5.21523 1.31641 4.04764 2.09657C2.88005 2.87672 1.97003 3.98559 1.43265 5.28295C0.895264 6.5803 0.75466 8.00788 1.02862 9.38514C1.30257 10.7624 1.97878 12.0275 2.97173 13.0205C3.96468 14.0134 5.22978 14.6896 6.60705 14.9636C7.98431 15.2375 9.41189 15.0969 10.7092 14.5595C12.0066 14.0222 13.1155 13.1121 13.8956 11.9445C14.6758 10.777 15.0922 9.40425 15.0922 8C15.0922 6.11696 14.3442 4.31105 13.0126 2.97954C11.6811 1.64803 9.87523 0.9 7.99219 0.9ZM7.99219 13.733C6.85831 13.733 5.74989 13.3968 4.80711 12.7668C3.86432 12.1369 3.12951 11.2415 2.69559 10.1939C2.26167 9.14635 2.14814 7.99364 2.36935 6.88155C2.59056 5.76945 3.13657 4.74793 3.93835 3.94616C4.74012 3.14438 5.76164 2.59837 6.87374 2.37716C7.98583 2.15595 9.13855 2.26948 10.1861 2.7034C11.2337 3.13732 12.1291 3.87213 12.759 4.81492C13.389 5.7577 13.7252 6.86612 13.7252 8C13.7252 9.52049 13.1212 10.9787 12.046 12.0538C10.9709 13.129 9.51268 13.733 7.99219 13.733ZM10.8091 8.48295C10.9372 8.35487 11.0092 8.18114 11.0092 8C11.0092 7.81886 10.9372 7.64513 10.8091 7.51705C10.6811 7.38896 10.5073 7.317 10.3262 7.317H8.67619V5.667C8.67619 5.48572 8.60418 5.31187 8.476 5.18369C8.34782 5.05551 8.17397 4.9835 7.99269 4.9835C7.81142 4.9835 7.63756 5.05551 7.50938 5.18369C7.3812 5.31187 7.30919 5.48572 7.30919 5.667V7.316H5.65919C5.47792 7.316 5.30406 7.38801 5.17588 7.51619C5.0477 7.64437 4.97569 7.81822 4.97569 7.9995C4.97569 8.18078 5.0477 8.35463 5.17588 8.48281C5.30406 8.61099 5.47792 8.683 5.65919 8.683H7.30819V10.333C7.30819 10.5143 7.3802 10.6881 7.50838 10.8163C7.63656 10.9445 7.81042 11.0165 7.99169 11.0165C8.17297 11.0165 8.34682 10.9445 8.475 10.8163C8.60318 10.6881 8.67519 10.5143 8.67519 10.333V8.683H10.3262C10.5073 8.683 10.6811 8.61104 10.8091 8.48295Z" fill="#121614" stroke="#121614" stroke-width="0.2"/>
</svg>
