<svg width="18" height="18" viewBox="0 0 18 18" fill="none" xmlns="http://www.w3.org/2000/svg">
<path d="M7.22193 1.03335L7.22823 0.983752C7.4919 1.01723 7.7527 1.05924 8.01406 1.12669L8.01424 1.12674C10.9037 1.88379 12.6914 4.66437 12.1867 7.61247L12.1867 7.6125C11.6524 10.7215 8.57357 12.8161 5.4815 12.1682C2.45749 11.5374 0.509852 8.67273 1.0356 5.63182C1.42683 3.36857 3.19755 1.53893 5.45233 1.07613C5.58275 1.04854 5.71469 1.02519 5.84566 1.002C5.93226 0.986676 6.01844 0.971421 6.10348 0.955069L6.1033 0.954169H6.11292C6.45484 0.954169 6.79642 0.954169 7.14211 0.950004L7.17978 0.94955L7.18952 0.982006C7.19186 0.982137 7.19499 0.982211 7.19941 0.982248C7.19997 0.982252 7.20056 0.982256 7.20118 0.98226C7.20801 0.982304 7.21861 0.982372 7.229 0.983856L7.22193 1.03335ZM7.22193 1.03335C7.21506 1.03237 7.20773 1.03231 7.20037 1.03226C7.17647 1.03207 7.15228 1.03188 7.14271 1L5.46253 1.12508C3.22783 1.58369 1.4726 3.3973 1.08487 5.64033C0.563716 8.65467 2.49405 11.4939 5.49171 12.1193C8.55607 12.7613 11.6079 10.6851 12.1374 7.60403C12.6377 4.68141 10.8658 1.92557 8.00157 1.17511C7.74308 1.1084 7.48459 1.06671 7.22193 1.03335ZM7.32616 2.36747V2.36828L7.31727 2.36668C6.3816 2.19768 5.48012 2.32953 4.64414 2.77837C3.84625 3.21248 3.24904 3.7693 2.85673 4.44288C2.46441 5.11645 2.27532 5.90961 2.29806 6.81897L2.29806 6.81899C2.34748 8.82462 3.92586 10.5767 5.90364 10.8775L5.90392 10.8775C6.37536 10.9519 6.84417 10.9681 7.31169 10.8696L7.31166 10.8695L7.31496 10.8691C8.03954 10.7661 8.68578 10.4781 9.25021 10.0249L9.25034 10.0248C10.4095 9.10077 10.9654 7.89013 10.9201 6.40904C10.8583 4.44025 9.31257 2.68815 7.36388 2.36681L7.36378 2.36743L7.35835 2.36562C7.35749 2.36562 7.35611 2.36565 7.35398 2.3658L7.34256 2.36673C7.338 2.36709 7.33229 2.36747 7.32616 2.36747ZM5.89612 10.9269C3.89491 10.6225 2.2981 8.85063 2.24807 6.82022L10.97 6.40747C11.0159 7.90421 10.4531 9.12996 9.28151 10.0639C8.71033 10.5225 8.05577 10.8143 7.32199 10.9186C6.8467 11.0186 6.37141 11.0019 5.89612 10.9269Z" fill="#121614" stroke="#121614" stroke-width="0.1"/>
<path d="M17.0165 14.7615L16.9902 14.7473C16.9801 14.7419 16.9748 14.7342 16.971 14.7176C16.9689 14.7085 16.9677 14.6984 16.9665 14.6857C16.9663 14.6842 16.9662 14.6826 16.966 14.681C16.965 14.6702 16.9638 14.657 16.9615 14.6448L16.961 14.6419L16.9609 14.6419C16.8796 14.3083 16.7211 14.0167 16.4811 13.7723L16.4809 13.7722C16.3616 13.6519 16.2427 13.5314 16.1238 13.4109C15.728 13.0096 15.3325 12.6087 14.9248 12.2202M17.0165 14.7615L12.272 11.3934C12.4138 11.531 12.5513 11.6727 12.6889 11.8145L12.6889 11.8145C12.7515 11.877 12.7973 11.8937 12.8891 11.8604M17.0165 14.7615V14.7913C17.0165 14.9999 17.0165 15.2078 17.0207 15.4199L17.0214 15.4567L16.9865 15.4683C16.9844 15.469 16.9833 15.4696 16.9828 15.4699C16.9826 15.4704 16.9818 15.472 16.981 15.4757C16.9798 15.4814 16.9792 15.4882 16.9783 15.4991L16.9783 15.5003C16.9775 15.5097 16.9765 15.523 16.9737 15.536L16.9737 15.536L16.9732 15.5379C16.5714 17.0552 14.8114 17.5305 13.7001 16.4236L13.7354 16.3881M17.0165 14.7615L12.3137 14.9664C12.7848 15.4417 13.2601 15.917 13.7354 16.3881M14.9248 12.2202L14.8903 12.2564L14.9248 12.2203C14.9248 12.2203 14.9248 12.2203 14.9248 12.2202ZM14.9248 12.2202C14.6311 11.9394 14.309 11.7664 13.9632 11.6997C13.6177 11.6331 13.2519 11.6733 12.8719 11.8134M12.8719 11.8134C12.8719 11.8134 12.8719 11.8134 12.872 11.8134L12.8891 11.8604M12.8719 11.8134C12.8306 11.8284 12.8073 11.8292 12.7904 11.8249C12.7729 11.8205 12.7537 11.8085 12.7245 11.7794L12.7245 11.7794C12.5871 11.6378 12.4491 11.4956 12.3068 11.3575L12.3065 11.3572C12.0215 11.0856 11.6065 11.083 11.344 11.3543M12.8719 11.8134C12.8718 11.8134 12.8718 11.8134 12.8718 11.8135L12.8891 11.8604M12.8891 11.8604C13.6353 11.5852 14.3149 11.7061 14.8903 12.2564C15.2974 12.6443 15.6921 13.0445 16.0878 13.4456C16.2068 13.5662 16.3259 13.6869 16.4454 13.8074C16.6789 14.045 16.8331 14.3285 16.9123 14.6537C16.9141 14.6637 16.9152 14.6745 16.9162 14.6855C16.92 14.7252 16.9241 14.7685 16.9665 14.7913V14.7913C16.9665 14.9998 16.9665 15.2082 16.9707 15.4209C16.9332 15.4334 16.9308 15.4646 16.9285 15.4952C16.9277 15.5055 16.9269 15.5157 16.9248 15.5251C16.5329 17.0052 14.8194 17.468 13.7354 16.3881M13.7354 16.3881L13.7002 16.4236C13.2248 15.9524 12.7494 15.477 12.2782 15.0016L12.2781 15.0015C11.9767 14.6958 11.7856 14.3635 11.7082 14.0045C11.6309 13.6456 11.6679 13.2639 11.8164 12.8607M11.8164 12.8607C11.8164 12.8608 11.8163 12.8609 11.8163 12.861L11.8634 12.8777L11.8165 12.8604C11.8165 12.8605 11.8164 12.8606 11.8164 12.8607ZM11.8164 12.8607C11.8279 12.8281 11.8296 12.8101 11.8273 12.7976C11.8252 12.7865 11.8187 12.7726 11.7962 12.7518L11.7961 12.7518L11.7952 12.7509L11.7949 12.7506C11.645 12.6049 11.4943 12.4583 11.3518 12.3074L11.3516 12.3073C11.0888 12.0266 11.0821 11.6209 11.344 11.3543M11.344 11.3543C11.3441 11.3543 11.3441 11.3542 11.3441 11.3542L11.3798 11.3892L11.3439 11.3545C11.3439 11.3544 11.344 11.3544 11.344 11.3543ZM11.3881 12.2731C11.5299 12.4232 11.68 12.5691 11.8301 12.7151L11.3881 12.2731ZM13.1752 13.9894L13.1752 13.9895C13.3652 14.1869 13.5588 14.3791 13.753 14.5718C13.8827 14.7005 14.0127 14.8295 14.1419 14.9604C14.142 14.9604 14.142 14.9604 14.142 14.9605L14.4107 15.2292L14.6796 15.4981C14.7951 15.6136 14.9362 15.679 15.1261 15.6794C15.3345 15.6634 15.513 15.5641 15.6208 15.349C15.7254 15.1278 15.701 14.909 15.5379 14.7384C15.0214 14.201 14.4924 13.672 13.9551 13.1555L13.955 13.1554C13.7398 12.9478 13.3877 12.9753 13.1791 13.1879L13.179 13.1879C12.96 13.4107 12.9526 13.7592 13.1752 13.9894Z" fill="#121614" stroke="#121614" stroke-width="0.1"/>
</svg>
