<svg width="18" height="18" viewBox="0 0 18 18" fill="none" xmlns="http://www.w3.org/2000/svg">
<path d="M16.4121 0H12.0331C11.7486 0.0086021 11.4785 0.127686 11.2803 0.332006C11.0821 0.536326 10.9712 0.809817 10.9712 1.0945C10.9712 1.37918 11.0821 1.65267 11.2803 1.85699C11.4785 2.06131 11.7486 2.1804 12.0331 2.189H13.7631L9.41712 6.535C8.41877 5.84222 7.23229 5.47162 6.01712 5.473C4.67172 5.47342 3.36525 5.92459 2.30629 6.75448C1.24734 7.58436 0.496953 8.74511 0.174943 10.0514C-0.147066 11.3577 -0.0221342 12.7342 0.529794 13.9612C1.08172 15.1882 2.02882 16.1949 3.21988 16.8205C4.41095 17.4462 5.77729 17.6548 7.10079 17.413C8.42428 17.1712 9.6286 16.4929 10.5215 15.4865C11.4143 14.4801 11.9443 13.2036 12.0267 11.8607C12.1091 10.5178 11.7392 9.18604 10.9761 8.078L15.3221 3.743V5.473C15.3307 5.75755 15.4498 6.02757 15.6541 6.22581C15.8584 6.42404 16.1319 6.53491 16.4166 6.53491C16.7013 6.53491 16.9748 6.42404 17.1791 6.22581C17.3834 6.02757 17.5025 5.75755 17.5111 5.473V1.095C17.5098 0.804302 17.3935 0.525947 17.1875 0.320765C16.9816 0.115584 16.7028 0.000261271 16.4121 0ZM6.01212 15.325C5.25442 15.325 4.51373 15.1003 3.88373 14.6794C3.25372 14.2584 2.76269 13.6601 2.47273 12.9601C2.18278 12.26 2.10691 11.4897 2.25473 10.7466C2.40255 10.0035 2.76742 9.32085 3.30319 8.78507C3.83897 8.2493 4.52158 7.88443 5.26473 7.73661C6.00787 7.58879 6.77815 7.66466 7.47818 7.95462C8.1782 8.24458 8.77652 8.73561 9.19748 9.36561C9.61843 9.99562 9.84312 10.7363 9.84312 11.494C9.84179 12.5095 9.43788 13.483 8.71994 14.2011C8.00199 14.9192 7.02858 15.3234 6.01312 15.325H6.01212Z" fill="#121614"/>
</svg>
