<svg width="14" height="15" viewBox="0 0 14 15" fill="none" xmlns="http://www.w3.org/2000/svg">
<path d="M13.9401 3.98533C13.9053 4.05356 13.8574 4.11427 13.7991 4.16401C13.7409 4.21375 13.6733 4.25153 13.6004 4.2752C13.5275 4.29886 13.4507 4.30795 13.3743 4.30195C13.2978 4.29594 13.2233 4.27495 13.1551 4.24019L8.0239 1.62168C7.70386 1.46694 7.35279 1.38687 6.99722 1.38755C6.64165 1.38822 6.29088 1.46961 5.97144 1.62556L0.848841 4.23708C0.780589 4.27187 0.706143 4.2929 0.629754 4.29896C0.553364 4.30503 0.476527 4.296 0.40363 4.27241C0.330732 4.24882 0.263201 4.21111 0.204894 4.16146C0.146586 4.1118 0.0986427 4.05116 0.0638017 3.983C0.0289606 3.91484 0.00790383 3.84049 0.00183368 3.7642C-0.00423647 3.68791 0.00479884 3.61118 0.0284237 3.53838C0.0520486 3.46558 0.0898005 3.39813 0.139524 3.3399C0.189247 3.28167 0.249968 3.23379 0.31822 3.199L5.44626 0.587486C5.92854 0.350824 6.4586 0.227374 6.99596 0.226566C7.53331 0.225758 8.06375 0.347614 8.54674 0.582824L13.6818 3.20133C13.75 3.23612 13.8108 3.284 13.8605 3.34223C13.9102 3.40046 13.948 3.46791 13.9716 3.54071C13.9952 3.61351 14.0042 3.69024 13.9982 3.76653C13.9921 3.84282 13.971 3.91717 13.9362 3.98533H13.9401ZM12.882 7.87035C13.2339 8.48706 13.4192 9.1846 13.4196 9.89445V10.7126C13.4198 11.1221 13.3121 11.5243 13.1072 11.879C12.9024 12.2336 12.6076 12.5281 12.2525 12.7329V13.0437C12.2525 13.3528 12.1296 13.6492 11.9107 13.8678C11.6918 14.0864 11.395 14.2092 11.0855 14.2092C10.7759 14.2092 10.4791 14.0864 10.2602 13.8678C10.0414 13.6492 9.91842 13.3528 9.91842 13.0437H4.0847C4.0847 13.3528 3.96174 13.6492 3.74287 13.8678C3.52401 14.0864 3.22716 14.2092 2.91764 14.2092C2.60812 14.2092 2.31127 14.0864 2.09241 13.8678C1.87354 13.6492 1.75059 13.3528 1.75059 13.0437V12.7329C1.39554 12.5281 1.10074 12.2336 0.895867 11.879C0.690993 11.5243 0.583267 11.1221 0.58353 10.7126V9.89367C0.583896 9.18382 0.769171 8.48628 1.12115 7.86958L2.32166 5.77166C2.57742 5.32612 2.94626 4.95577 3.39101 4.69795C3.83576 4.44013 4.3407 4.30394 4.85495 4.30312H9.14816C9.66241 4.30394 10.1674 4.44013 10.6121 4.69795C11.0569 4.95577 11.4257 5.32612 11.6814 5.77166L12.882 7.87035ZM2.17228 8.38162H11.8316L10.6684 6.34975C10.5149 6.08243 10.2935 5.86024 10.0266 5.70555C9.75974 5.55087 9.45675 5.46915 9.14816 5.46863H4.85495C4.5469 5.46969 4.24454 5.55167 3.97824 5.70633C3.71193 5.86099 3.49106 6.08289 3.33778 6.34975L2.17228 8.38162ZM12.2533 9.8929C12.253 9.77733 12.246 9.66188 12.2323 9.54713H11.0862V10.1299C11.0862 10.2844 11.0248 10.4327 10.9153 10.542C10.8059 10.6512 10.6575 10.7126 10.5027 10.7126C10.348 10.7126 10.1995 10.6512 10.0901 10.542C9.98067 10.4327 9.91919 10.2844 9.91919 10.1299V9.54713H4.0847V10.1299C4.0847 10.2844 4.02322 10.4327 3.91378 10.542C3.80435 10.6512 3.65593 10.7126 3.50117 10.7126C3.34641 10.7126 3.19798 10.6512 3.08855 10.542C2.97912 10.4327 2.91764 10.2844 2.91764 10.1299V9.54713H1.77159C1.75789 9.66188 1.75088 9.77733 1.75059 9.8929V10.7126C1.75059 11.0217 1.87354 11.3182 2.09241 11.5368C2.31127 11.7554 2.60812 11.8781 2.91764 11.8781H11.087C11.3966 11.8781 11.6934 11.7554 11.9123 11.5368C12.1311 11.3182 12.2541 11.0217 12.2541 10.7126L12.2533 9.8929Z" fill="#121614"/>
</svg>
