<svg width="24" height="24" viewBox="0 0 24 24" fill="none" xmlns="http://www.w3.org/2000/svg">
<path d="M12.0001 12.0004C12.7912 12.0004 13.5645 11.7658 14.2223 11.3263C14.8801 10.8868 15.3928 10.2621 15.6956 9.53115C15.9983 8.80025 16.0775 7.99598 15.9232 7.22006C15.7689 6.44413 15.3879 5.7314 14.8285 5.17199C14.2691 4.61258 13.5563 4.23162 12.7804 4.07728C12.0045 3.92294 11.2002 4.00215 10.4693 4.3049C9.73842 4.60765 9.1137 5.12034 8.67418 5.77814C8.23465 6.43594 8.00006 7.20929 8.00006 8.00042C8.00006 9.06129 8.42148 10.0787 9.17163 10.8288C9.92177 11.579 10.9392 12.0004 12.0001 12.0004ZM12.0001 6.00042C12.3956 6.00042 12.7823 6.11772 13.1112 6.33748C13.4401 6.55724 13.6964 6.8696 13.8478 7.23505C13.9992 7.6005 14.0388 8.00264 13.9616 8.3906C13.8845 8.77856 13.694 9.13493 13.4143 9.41463C13.1346 9.69434 12.7782 9.88482 12.3902 9.96199C12.0023 10.0392 11.6001 9.99955 11.2347 9.84818C10.8692 9.6968 10.5569 9.44046 10.3371 9.11156C10.1174 8.78266 10.0001 8.39598 10.0001 8.00042C10.0001 7.46999 10.2108 6.96128 10.5858 6.58621C10.9609 6.21113 11.4696 6.00042 12.0001 6.00042ZM20.6601 9.15742L19.9411 8.91842C20.072 7.79124 19.9615 6.64908 19.6167 5.56795C19.272 4.48681 18.701 3.49149 17.9417 2.6482C17.1824 1.8049 16.2522 1.13297 15.213 0.67712C14.1738 0.221265 13.0495 -0.00806517 11.9148 0.00438753C10.7801 0.0168402 9.66104 0.27079 8.63211 0.749341C7.60319 1.22789 6.68797 1.92007 5.94735 2.77983C5.20673 3.63958 4.65769 4.6472 4.33676 5.73564C4.01583 6.82408 3.93036 7.96838 4.08606 9.09242C3.12909 9.27085 2.24418 9.72234 1.53806 10.3924C1.04923 10.8572 0.660625 11.417 0.396134 12.0375C0.131643 12.6579 -0.00314538 13.3259 5.5707e-05 14.0004V18.0754C0.0021573 19.1567 0.353848 20.2084 1.00265 21.0735C1.65144 21.9385 2.56257 22.5706 3.60006 22.8754L6.47006 23.7754C6.95212 23.9254 7.45419 24.0013 7.95906 24.0004C8.41705 23.9998 8.87285 23.9373 9.31406 23.8144L15.0941 22.1044C15.609 21.9639 16.1521 21.9639 16.6671 22.1044L19.0541 22.9044C19.6424 23.0476 20.2555 23.0554 20.8472 22.9272C21.439 22.7989 21.9939 22.538 22.4701 22.1641C22.9463 21.7903 23.3315 21.3131 23.5965 20.7687C23.8615 20.2243 23.9995 19.6269 24.0001 19.0214V13.8724C23.9978 12.8378 23.6756 11.8293 23.0776 10.985C22.4797 10.1407 21.6352 9.50197 20.6601 9.15642V9.15742ZM7.75806 3.76242C8.88941 2.65621 10.4114 2.04088 11.9937 2.05001C13.576 2.05913 15.0908 2.69197 16.2093 3.81115C17.3278 4.93033 17.9598 6.44552 17.968 8.02779C17.9762 9.61007 17.3599 11.1317 16.2531 12.2624L12.7001 15.7174C12.5146 15.8992 12.2653 16.0011 12.0056 16.0011C11.7458 16.0011 11.4965 15.8992 11.3111 15.7174L7.75806 12.2774C6.63353 11.1458 6.00236 9.61526 6.00236 8.01992C6.00236 6.42458 6.63353 4.89403 7.75806 3.76242ZM22.0001 19.0214C22.0007 19.3243 21.9322 19.6233 21.7998 19.8957C21.6674 20.1681 21.4746 20.4068 21.2361 20.5934C21.0107 20.7746 20.7481 20.904 20.4671 20.9722C20.1861 21.0405 19.8935 21.046 19.6101 20.9884L17.2651 20.2004C16.3781 19.9456 15.438 19.9401 14.5481 20.1844L8.76406 21.8924C8.20833 22.0457 7.62021 22.0356 7.07006 21.8634L4.17606 20.9634C3.54971 20.7823 2.99901 20.4029 2.60665 19.8821C2.21429 19.3614 2.00144 18.7274 2.00006 18.0754V14.0004C1.99781 13.5962 2.07826 13.1958 2.23648 12.8238C2.39469 12.4518 2.62732 12.1162 2.92006 11.8374C3.37831 11.4007 3.96207 11.1188 4.58906 11.0314C4.99216 12.0306 5.59244 12.9383 6.35406 13.7004L9.92105 17.1534C10.4786 17.6993 11.2278 18.0051 12.0081 18.0051C12.7883 18.0051 13.5375 17.6993 14.0951 17.1534L17.6581 13.6904C18.4558 12.8895 19.0738 11.9278 19.4711 10.8694L20.0081 11.0474C20.5904 11.2561 21.0942 11.6394 21.4507 12.145C21.8072 12.6505 21.9991 13.2538 22.0001 13.8724V19.0214Z" fill="black"/>
</svg>
