<svg xmlns="http://www.w3.org/2000/svg" width="55" height="17.349" viewBox="0 0 55 17.349">
  <g id="Group_1146" data-name="Group 1146" transform="translate(-289 -213.651)">
    <line id="Line_99" data-name="Line 99" x2="34" transform="translate(299.5 227)" fill="none" stroke="#c1cbd6" stroke-width="1" stroke-dasharray="4 2"/>
    <g id="Path_4072" data-name="Path 4072" transform="translate(311 223)" fill="#fefcf2">
      <path d="M 5.5 7.25 C 4.188169956207275 7.25 2.963660001754761 6.884870052337646 2.052040100097656 6.221879959106445 C 1.212409973144531 5.61122989654541 0.75 4.822159767150879 0.75 4 C 0.75 3.177839994430542 1.212409973144531 2.38877010345459 2.052040100097656 1.778120040893555 C 2.963660001754761 1.115129947662354 4.188169956207275 0.75 5.5 0.75 C 6.811830043792725 0.75 8.03633975982666 1.115129947662354 8.947959899902344 1.778120040893555 C 9.787590026855469 2.38877010345459 10.25 3.177839994430542 10.25 4 C 10.25 4.822159767150879 9.787590026855469 5.61122989654541 8.947959899902344 6.221879959106445 C 8.03633975982666 6.884870052337646 6.811830043792725 7.25 5.5 7.25 Z" stroke="none"/>
      <path d="M 5.5 1.5 C 4.362170219421387 1.5 3.26623010635376 1.822450160980225 2.493169784545898 2.384679794311523 C 2.122249603271484 2.654429912567139 1.5 3.223000049591064 1.5 4 C 1.5 4.776999950408936 2.122249603271484 5.345570087432861 2.493169784545898 5.615320205688477 C 3.26623010635376 6.177549839019775 4.362170219421387 6.5 5.5 6.5 C 6.637829780578613 6.5 7.73376989364624 6.177549839019775 8.506830215454102 5.615320205688477 C 8.877750396728516 5.345570087432861 9.5 4.776999950408936 9.5 4 C 9.5 3.223000049591064 8.877750396728516 2.654429912567139 8.506830215454102 2.384679794311523 C 7.73376989364624 1.822450160980225 6.637829780578613 1.5 5.5 1.5 M 5.5 0 C 8.537569999694824 0 11 1.790860176086426 11 4 C 11 6.209139823913574 8.537569999694824 8 5.5 8 C 2.462430000305176 8 0 6.209139823913574 0 4 C 0 1.790860176086426 2.462430000305176 0 5.5 0 Z" stroke="none" fill="#ffc400"/>
    </g>
    <g id="Ellipse_195" data-name="Ellipse 195" transform="translate(333 223)" fill="#f3f9ff" stroke="#d5deeb" stroke-width="1.5">
      <ellipse cx="5.5" cy="4" rx="5.5" ry="4" stroke="none"/>
      <ellipse cx="5.5" cy="4" rx="4.75" ry="3.25" fill="none"/>
    </g>
    <g id="Ellipse_193" data-name="Ellipse 193" transform="translate(289 223)" fill="#f3f9ff" stroke="#d5deeb" stroke-width="1.5">
      <ellipse cx="5.5" cy="4" rx="5.5" ry="4" stroke="none"/>
      <ellipse cx="5.5" cy="4" rx="4.75" ry="3.25" fill="none"/>
    </g>
    <path id="Path_4073" data-name="Path 4073" d="M165.47,313.32a.36.36,0,0,1-.152-.346c0-2.031,0-4.061,0-6.088,0-.123-.041-.149-.149-.16a3.37,3.37,0,1,1,.893-.011c-.093.015-.227-.019-.271.048s-.019.193-.019.29v5.932c0,.149-.026.272-.179.335Zm-1.053-11.768a.9.9,0,1,0,.9.9A.9.9,0,0,0,164.418,301.553Z" transform="translate(150.955 -86.32)" fill="#ffc400"/>
  </g>
</svg>
