<svg width="12" height="20" viewBox="0 0 12 20" fill="none" xmlns="http://www.w3.org/2000/svg">
<g clip-path="url(#clip0_641_1551)">
<path d="M11.7989 9.99313V17.585C11.8213 17.8802 11.7803 18.1768 11.6787 18.4545C11.5772 18.7322 11.4174 18.9844 11.2104 19.1937C11.0035 19.4031 10.7542 19.5647 10.4797 19.6675C10.2052 19.7702 9.91199 19.8117 9.62017 19.7891H2.34722C2.05949 19.8087 1.77096 19.7657 1.50105 19.663C1.23114 19.5602 0.986138 19.4002 0.782566 19.1935C0.578995 18.9869 0.421584 18.7385 0.320943 18.4651C0.220301 18.1917 0.178777 17.8997 0.199156 17.6087V2.39886C0.17716 2.10565 0.217931 1.8111 0.318689 1.53528C0.419448 1.25946 0.577819 1.00886 0.78301 0.80059C0.9882 0.592315 1.23538 0.431245 1.50769 0.328389C1.78 0.225534 2.07104 0.183307 2.36095 0.204575H9.63389C9.92365 0.183999 10.2144 0.22671 10.4864 0.329809C10.7584 0.432909 11.0053 0.593984 11.2103 0.802109C11.4153 1.01024 11.5737 1.26055 11.6747 1.53605C11.7758 1.81156 11.817 2.10581 11.7957 2.39886L11.7989 9.99313ZM11.0727 9.99313V2.31967C11.0907 1.99817 10.9907 1.68127 10.7919 1.4298C10.593 1.17833 10.3094 1.01003 9.9954 0.957214C9.79843 0.932589 9.59969 0.925511 9.40149 0.936013C8.99802 0.936013 8.99802 0.936013 8.99802 1.34418C9.00669 1.49289 8.98528 1.64182 8.93511 1.78189C8.88494 1.92195 8.80706 2.05018 8.70623 2.15876C8.6054 2.26733 8.48374 2.35397 8.34869 2.41336C8.21363 2.47275 8.06802 2.50365 7.92076 2.50417C6.63611 2.51124 5.35146 2.51124 4.06682 2.50417C3.80591 2.49868 3.55549 2.39924 3.36055 2.22373C3.16561 2.04822 3.03892 1.80814 3.00326 1.54661C2.97583 1.34416 3.10655 1.06417 2.93387 0.967029C2.77248 0.86907 2.51264 0.945804 2.2988 0.945804C2.11239 0.933333 1.92551 0.961647 1.75089 1.02884C1.57627 1.09603 1.41801 1.20051 1.2869 1.33516C1.1558 1.4698 1.05492 1.63145 0.991147 1.80909C0.92737 1.98673 0.902196 2.17621 0.917331 2.36458V17.6519C0.901102 17.8424 0.926234 18.0341 0.990975 18.2137C1.05572 18.3933 1.1585 18.5564 1.29211 18.6915C1.42573 18.8267 1.58695 18.9307 1.76447 18.9962C1.942 19.0617 2.13152 19.0871 2.31979 19.0707H9.64761C9.84011 19.0889 10.0342 19.0636 10.2159 18.9968C10.3976 18.93 10.5624 18.8233 10.6984 18.6843C10.8345 18.5454 10.9384 18.3776 11.0027 18.1932C11.067 18.0087 11.09 17.8122 11.0702 17.6176L11.0727 9.99313ZM6.02445 0.939277H3.9264C3.857 0.939277 3.76502 0.890292 3.72629 0.994781C3.6838 1.07861 3.66382 1.17225 3.66835 1.26635C3.67287 1.36045 3.70173 1.45168 3.75206 1.53094C3.80239 1.61021 3.87242 1.67472 3.95513 1.71801C4.03784 1.7613 4.13033 1.78186 4.22336 1.77763H7.66253C8.19431 1.77763 8.26371 1.696 8.27743 1.15559C8.28469 0.959672 8.20803 0.931928 8.04261 0.931928C7.37124 0.944989 6.70147 0.939277 6.02445 0.939277Z" fill="#087965" stroke="#087965" stroke-width="0.5"/>
<path d="M5.97061 17.4195H3.93307C3.83983 17.4225 3.74672 17.4106 3.65711 17.3844C3.57574 17.3646 3.50539 17.3131 3.46141 17.2411C3.41742 17.1691 3.40335 17.0824 3.42228 16.9999C3.42653 16.9209 3.459 16.8462 3.51362 16.7896C3.56823 16.733 3.64129 16.6984 3.71924 16.6922C3.80417 16.6827 3.88971 16.6803 3.97503 16.6848H8.20905C8.25651 16.6806 8.30433 16.6862 8.34957 16.7013C8.3948 16.7165 8.43648 16.7408 8.47208 16.7728C8.50768 16.8049 8.53642 16.8439 8.55655 16.8876C8.57667 16.9313 8.58777 16.9787 8.58913 17.0269C8.59235 17.0773 8.58522 17.1279 8.56822 17.1755C8.55121 17.2231 8.52469 17.2666 8.4903 17.3033C8.45591 17.34 8.41439 17.3691 8.36835 17.3888C8.32232 17.4085 8.27276 17.4185 8.22277 17.4179C8.16283 17.4214 8.10276 17.4214 8.04283 17.4179L5.97061 17.4195Z" fill="#087965" stroke="#087965" stroke-width="0.5"/>
</g>
<defs>
<clipPath id="clip0_641_1551">
<rect width="12" height="20" fill="white"/>
</clipPath>
</defs>
</svg>
