<svg width="14" height="15" viewBox="0 0 14 15" fill="none" xmlns="http://www.w3.org/2000/svg">
<path d="M7 0.583984C5.61553 0.583984 4.26216 0.993983 3.11101 1.76213C1.95987 2.53028 1.06266 3.62208 0.532846 4.89947C0.00303297 6.17686 -0.13559 7.58246 0.134506 8.93852C0.404603 10.2946 1.07129 11.5402 2.05026 12.5179C3.02922 13.4956 4.2765 14.1614 5.63437 14.4311C6.99224 14.7008 8.3997 14.5624 9.67879 14.0333C10.9579 13.5042 12.0511 12.6082 12.8203 11.4585C13.5895 10.3089 14 8.95733 14 7.5747C14 5.72065 13.2625 3.94253 11.9498 2.63152C10.637 1.3205 8.85652 0.583984 7 0.583984ZM5.103 10.5737L2.59 8.06405C2.51673 8.00138 2.45721 7.92426 2.4152 7.83753C2.37318 7.7508 2.34957 7.65633 2.34584 7.56006C2.34212 7.46378 2.35836 7.36778 2.39356 7.27807C2.42875 7.18836 2.48213 7.10688 2.55035 7.03876C2.61857 6.97063 2.70015 6.91732 2.78998 6.88217C2.8798 6.84703 2.97594 6.83081 3.07234 6.83453C3.16874 6.83824 3.26334 6.86182 3.35018 6.90378C3.43703 6.94574 3.51425 7.00518 3.577 7.07836L5.6 9.08819L10.4125 4.28207C10.5454 4.16134 10.7198 4.09629 10.8994 4.10038C11.0791 4.10448 11.2503 4.17741 11.3776 4.30408C11.5048 4.43075 11.5785 4.60145 11.5832 4.78084C11.5879 4.96023 11.5234 5.13457 11.403 5.26776L6.09 10.5737C5.95885 10.7039 5.78143 10.777 5.5965 10.777C5.41157 10.777 5.23416 10.7039 5.103 10.5737Z" fill="#087965"/>
</svg>
