<svg width="18" height="18" viewBox="0 0 18 18" fill="none" xmlns="http://www.w3.org/2000/svg">
<path d="M8.658 0C10.3704 0 12.0443 0.507783 13.4681 1.45914C14.8919 2.41049 16.0016 3.76268 16.6569 5.34473C17.3123 6.92677 17.4837 8.6676 17.1496 10.3471C16.8156 12.0266 15.991 13.5693 14.7801 14.7801C13.5693 15.991 12.0266 16.8156 10.3471 17.1496C8.6676 17.4837 6.92677 17.3123 5.34473 16.6569C3.76268 16.0016 2.41049 14.8919 1.45914 13.4681C0.507783 12.0443 0 10.3704 0 8.658C0.000795152 6.362 0.91323 4.16026 2.53675 2.53675C4.16026 0.91323 6.362 0.000795152 8.658 0ZM8.658 15.584C9.56761 15.5843 10.4684 15.4053 11.3088 15.0573C12.1492 14.7094 12.9128 14.1992 13.556 13.556C14.1992 12.9128 14.7094 12.1492 15.0573 11.3088C15.4053 10.4684 15.5843 9.56761 15.584 8.658C15.5871 7.11974 15.0717 5.62534 14.121 4.416L4.415 14.121C5.62461 15.0719 7.1194 15.5873 8.658 15.584ZM3.195 12.9L12.9 3.195C11.6907 2.24434 10.1963 1.72895 8.658 1.732C7.74839 1.73174 6.84764 1.9107 6.00722 2.25868C5.1668 2.60665 4.40318 3.1168 3.75999 3.75999C3.1168 4.40318 2.60665 5.1668 2.25868 6.00722C1.9107 6.84764 1.73174 7.74839 1.732 8.658C1.72895 10.1963 2.24434 11.6907 3.195 12.9Z" fill="#121614"/>
</svg>
