<svg width="14" height="17" viewBox="0 0 14 17" fill="none" xmlns="http://www.w3.org/2000/svg">
<path d="M6.61377 17C7.07502 16.9984 7.51696 16.8147 7.8434 16.4889C8.16983 16.1631 8.35434 15.7215 8.35675 15.2604H4.86876C4.86957 15.7224 5.05384 16.1652 5.38107 16.4914C5.70829 16.8176 6.15169 17.0005 6.61377 17ZM11.8458 11.7689V7.4107C11.8458 4.73412 10.4162 2.49397 7.92228 1.90087V1.30777C7.92228 0.960928 7.78447 0.628292 7.53918 0.383037C7.29388 0.137783 6.96118 0 6.61428 0C6.26738 0 5.93469 0.137783 5.68939 0.383037C5.4441 0.628292 5.30629 0.960928 5.30629 1.30777V1.90087C2.80324 2.49397 1.3818 4.72598 1.3818 7.4107V11.7699L0.257463 12.8941C0.135174 13.0155 0.0516296 13.1705 0.0173838 13.3394C-0.0168621 13.5083 -0.000273301 13.6836 0.0650548 13.8431C0.130383 14.0025 0.241519 14.1391 0.384425 14.2354C0.527331 14.3318 0.695595 14.3837 0.867962 14.3845H12.3504C12.5228 14.3838 12.6912 14.3323 12.8344 14.2363C12.9776 14.1403 13.0893 14.0041 13.1554 13.8449C13.2215 13.6857 13.239 13.5105 13.2059 13.3414C13.1728 13.1722 13.0904 13.0166 12.9691 12.8941L11.8458 11.7689Z" fill="#121614"/>
</svg>
