<svg width="14" height="14" viewBox="0 0 14 14" fill="none" xmlns="http://www.w3.org/2000/svg">
<path d="M0 10.1967C0.0460949 10.0745 0.0786164 9.94763 0.0969792 9.81833C0.228827 9.33373 0.491455 8.89471 0.856125 8.54941C1.2208 8.2041 1.67345 7.9658 2.16451 7.86057C2.65558 7.75533 3.16613 7.78724 3.64027 7.95279C4.11442 8.11834 4.53388 8.41116 4.85272 8.79918C5.17157 9.18719 5.37753 9.65547 5.44802 10.1527C5.51852 10.65 5.45084 11.157 5.25241 11.6183C5.05398 12.0797 4.73244 12.4775 4.323 12.7683C3.91355 13.0592 3.432 13.2317 2.93103 13.2671C2.90679 13.2671 2.87907 13.2568 2.86522 13.2914H2.52839C2.51454 13.2498 2.47991 13.2672 2.4522 13.2637C1.88118 13.203 1.34364 12.9644 0.915462 12.5817C0.487287 12.1991 0.190084 11.6916 0.0657979 11.131C0.0610752 11.0413 0.0399521 10.9533 0.00346165 10.8713C-1.90275e-06 10.6522 0 10.4227 0 10.1967Z" fill="#121614"/>
<path d="M13.3296 10.8185C13.2846 10.8531 13.2915 10.9051 13.2777 10.957C13.1761 11.3654 12.9268 11.7218 12.5781 11.9574C12.2293 12.1929 11.8057 12.291 11.3888 12.2327C10.972 12.1743 10.5916 11.9638 10.3208 11.6415C10.0501 11.3193 9.90823 10.9082 9.92263 10.4876C9.93703 10.067 10.1066 9.66657 10.3988 9.3636C10.6909 9.06064 11.0849 8.87657 11.5047 8.84689C11.9245 8.81722 12.3405 8.94404 12.6723 9.20289C13.0042 9.46174 13.2285 9.83431 13.3019 10.2487C13.3019 10.2695 13.3019 10.2938 13.3296 10.3007V10.8185Z" fill="#121614"/>
<path d="M2.7399 8.1705e-06C3.07553 0.00173002 3.4031 0.103004 3.68117 0.290972C3.95923 0.478941 4.17528 0.745165 4.30198 1.05597C4.42867 1.36678 4.46032 1.70817 4.39291 2.03697C4.32549 2.36576 4.16205 2.66717 3.92327 2.90304C3.68449 3.13891 3.3811 3.29866 3.0515 3.36204C2.7219 3.42542 2.38091 3.38959 2.07168 3.25909C1.76245 3.12859 1.49889 2.90928 1.31435 2.62894C1.1298 2.34859 1.03256 2.0198 1.03496 1.68417C1.03907 1.23517 1.22068 0.806053 1.54012 0.490506C1.85956 0.174959 2.29089 -0.00138312 2.7399 8.1705e-06Z" fill="#121614"/>
<path d="M9.83231 1.76821C10.1672 1.77077 10.4938 1.87239 10.771 2.06026C11.0482 2.24812 11.2636 2.51381 11.39 2.82388C11.5165 3.13395 11.5483 3.47452 11.4815 3.80266C11.4148 4.1308 11.2524 4.43181 11.0148 4.66781C10.7772 4.90381 10.4751 5.06422 10.1466 5.12882C9.81798 5.19342 9.47764 5.15933 9.16841 5.03083C8.85919 4.90234 8.59491 4.68522 8.40888 4.40678C8.22286 4.12835 8.1234 3.80108 8.12305 3.46622C8.12339 3.24238 8.1679 3.0208 8.25406 2.81421C8.34022 2.60762 8.46632 2.42006 8.62512 2.2623C8.78392 2.10455 8.9723 1.97968 9.17946 1.89489C9.38662 1.8101 9.60848 1.76707 9.83231 1.76821V1.76821Z" fill="#121614"/>
<path d="M5.50096 8.36713C5.35317 8.1824 5.1866 8.01354 5.00393 7.86321C4.93466 7.80779 4.94852 7.77661 5.00393 7.72812C5.50442 7.2311 6.00404 6.73145 6.50452 6.23443C6.91062 5.8318 7.31412 5.42486 7.71676 5.02222C7.7483 4.98501 7.77724 4.94562 7.80335 4.90442C7.94839 5.10074 8.12037 5.27567 8.31423 5.42398C8.37657 5.46901 8.34194 5.49669 8.3073 5.53132L7.6094 6.22925C6.93573 6.90292 6.25862 7.57657 5.58842 8.25023C5.55483 8.28566 5.52547 8.3249 5.50096 8.36713V8.36713Z" fill="#121614"/>
<path d="M7.70651 10.9275H6.34188C6.26222 10.9275 6.23105 10.9172 6.24144 10.8236C6.26056 10.6296 6.26056 10.4341 6.24144 10.24C6.23451 10.1604 6.25873 10.1465 6.328 10.1465C7.24152 10.1465 8.1585 10.1465 9.07201 10.1465C9.1586 10.1465 9.17592 10.1673 9.16553 10.2504C9.13774 10.4439 9.13774 10.6405 9.16553 10.834C9.17938 10.9206 9.14475 10.931 9.06855 10.931C8.61656 10.9275 8.1611 10.9275 7.70651 10.9275Z" fill="#121614"/>
<path d="M3.12674 5.58851C3.12674 6.0431 3.12674 6.49855 3.12674 6.95314C3.12674 7.03973 3.09903 7.06051 3.01936 7.05012C2.83034 7.02405 2.63863 7.02405 2.44961 7.05012C2.37341 7.06051 2.3457 7.05009 2.3457 6.9635C2.3457 6.05345 2.3457 5.14515 2.3457 4.23683C2.3457 4.15717 2.36995 4.14333 2.44268 4.15718C2.63131 4.18846 2.82381 4.18846 3.01244 4.15718C3.10596 4.14333 3.13021 4.15718 3.12674 4.25416C3.12155 4.7001 3.12674 5.13998 3.12674 5.58851Z" fill="#121614"/>
</svg>
