<svg width="17" height="18" viewBox="0 0 17 18" fill="none" xmlns="http://www.w3.org/2000/svg">
<path d="M0 13.6658V17.0018H3.33257L13.1611 7.17323L9.82857 3.83609L0 13.6658ZM15.7406 4.59152C15.8236 4.50926 15.8896 4.41136 15.9346 4.30347C15.9796 4.19558 16.0028 4.07984 16.0028 3.96294C16.0028 3.84604 15.9796 3.7303 15.9346 3.62241C15.8896 3.51452 15.8236 3.41662 15.7406 3.33437L13.6606 1.25437C13.5783 1.1713 13.4804 1.10536 13.3725 1.06036C13.2646 1.01536 13.1489 0.992188 13.032 0.992188C12.9151 0.992188 12.7994 1.01536 12.6915 1.06036C12.5836 1.10536 12.4857 1.1713 12.4034 1.25437L10.7806 2.88523L14.1131 6.2178L15.7394 4.59152H15.7406Z" fill="#121614"/>
</svg>
