<svg width="16" height="16" viewBox="0 0 16 16" fill="none" xmlns="http://www.w3.org/2000/svg">
<path d="M13.0022 0H3C2.20462 0.000892178 1.44208 0.317249 0.879665 0.879665C0.317249 1.44208 0.000892178 2.20462 0 3L0 13C0.000892178 13.7954 0.317249 14.5579 0.879665 15.1203C1.44208 15.6828 2.20462 15.9991 3 16H13C13.7954 15.9991 14.5579 15.6828 15.1203 15.1203C15.6828 14.5579 15.9991 13.7954 16 13V3C15.9991 2.20501 15.6831 1.44281 15.1211 0.880457C14.5592 0.318106 13.7972 0.00148657 13.0022 0V0ZM3 2H13C13.2652 2 13.5196 2.10536 13.7071 2.29289C13.8946 2.48043 14 2.73478 14 3V13C14.0002 13.1313 13.9744 13.2614 13.9241 13.3827C13.8737 13.504 13.7999 13.6141 13.7067 13.7067L7.88652 7.88652C7.38634 7.38674 6.7082 7.106 6.00112 7.106C5.29405 7.106 4.61591 7.38674 4.11573 7.88652L2 10V3C2 2.73478 2.10536 2.48043 2.29289 2.29289C2.48043 2.10536 2.73478 2 3 2Z" fill="#121614"/>
<path d="M10.8104 6.8786C11.7412 6.8786 12.4958 6.12402 12.4958 5.19321C12.4958 4.26239 11.7412 3.50781 10.8104 3.50781C9.87958 3.50781 9.125 4.26239 9.125 5.19321C9.125 6.12402 9.87958 6.8786 10.8104 6.8786Z" fill="#121614"/>
</svg>
