<svg width="28" height="28" viewBox="0 0 28 28" fill="none" xmlns="http://www.w3.org/2000/svg">
<path d="M0 22.0948C0 16.6491 0 11.2035 0 5.76512C0.0798694 5.73607 0.0508262 5.6562 0.058087 5.60538C0.530042 2.80269 2.46869 0.733346 5.20603 0.130696C5.39481 0.0871304 5.59812 0.108913 5.77238 0C11.1962 0 16.6273 0 22.0512 0C22.0657 0.0580868 22.1165 0.0508257 22.1601 0.0508257C24.9338 0.413868 27.112 2.41786 27.7292 5.1552C27.78 5.38029 27.7655 5.61264 27.8744 5.8232C27.8744 11.2471 27.8744 16.6782 27.8744 22.102C27.7945 22.1311 27.8236 22.2109 27.8091 22.2618C27.3298 25.079 25.3985 27.1265 22.6611 27.7365C22.4578 27.78 22.2327 27.7582 22.0439 27.8671C16.6201 27.8671 11.189 27.8671 5.76512 27.8671C5.73607 27.7873 5.6562 27.8163 5.60538 27.8018C2.78817 27.3226 0.740607 25.3912 0.130696 22.6539C0.0871304 22.4651 0.108913 22.2618 0 22.0948ZM6.42585 25.6671C6.51298 25.6744 6.60737 25.6816 6.6945 25.6816C11.552 25.6816 16.4168 25.6816 21.2743 25.6816C23.7648 25.6816 25.6889 23.7575 25.6889 21.267C25.6889 16.3732 25.6889 11.4721 25.6889 6.57833C25.6889 6.28064 25.6671 5.98294 25.6018 5.68525C25.1661 3.58686 23.4162 2.16373 21.267 2.16373C16.4095 2.16373 11.5448 2.16373 6.68724 2.16373C6.60011 2.16373 6.50572 2.17099 6.41859 2.17826C6.33872 2.17826 6.25885 2.17099 6.17172 2.17826C3.9136 2.36704 2.17099 4.24034 2.17099 6.49846C2.16373 11.4504 2.17099 16.4023 2.17099 21.3542C2.17099 22.24 2.41786 23.0605 2.93338 23.7793C3.7829 24.9773 4.93738 25.6308 6.42585 25.6671Z" fill="#121614"/>
<path d="M6.42508 2.18507C6.4033 2.29399 6.31617 2.35207 6.24356 2.41742C5.19799 3.31051 4.60986 4.4432 4.3993 5.80098C4.34121 6.17128 4.34847 6.54158 4.34847 6.91189C4.34847 11.7258 4.34121 16.547 4.35574 21.361C4.363 23.0382 5.03826 24.4323 6.31617 25.5287C6.36699 25.5723 6.41782 25.6086 6.42508 25.6739C4.94386 25.6376 3.78939 24.9769 2.93261 23.7788C2.41709 23.06 2.17022 22.2395 2.17022 21.3537C2.17022 16.4018 2.16296 11.4499 2.17022 6.49802C2.17022 4.23989 3.92008 2.36659 6.17095 2.17781C6.25808 2.17055 6.34521 2.17781 6.42508 2.18507Z" fill="#087965" fill-opacity="0.15"/>
<path d="M12.9028 10.7393C12.9028 10.1657 12.9028 9.59938 12.9028 9.02578C12.91 8.36504 13.3675 7.87856 13.9919 7.88582C14.6163 7.88582 15.0738 8.3723 15.0738 9.03304C15.0738 10.202 15.081 11.371 15.0665 12.54C15.0665 12.7869 15.1391 12.8377 15.3714 12.8377C16.5332 12.8232 17.6949 12.8232 18.8567 12.8377C19.6844 12.845 20.1854 13.5929 19.8804 14.348C19.7134 14.7691 19.3359 15.0087 18.8203 15.0087C17.6659 15.016 16.5187 15.016 15.3642 15.0015C15.1173 15.0015 15.0665 15.0741 15.0665 15.3064C15.081 16.4754 15.0738 17.6444 15.0665 18.8134C15.0665 19.3362 14.7398 19.7355 14.246 19.8662C13.7741 19.9897 13.2803 19.7791 13.0407 19.3507C12.9318 19.1547 12.8955 18.9441 12.8955 18.7263C12.8955 17.5863 12.8882 16.4391 12.9028 15.2992C12.9028 15.0523 12.8229 15.0015 12.5978 15.0015C11.4361 15.016 10.2743 15.0087 9.1126 15.0015C8.65516 15.0015 8.30664 14.7982 8.10334 14.3843C7.91455 13.9922 7.95812 13.6074 8.21951 13.2589C8.43734 12.9612 8.74955 12.8305 9.11986 12.8305C10.2816 12.8305 11.4433 12.8232 12.6051 12.8377C12.8519 12.8377 12.91 12.7651 12.9028 12.5328C12.8882 11.9374 12.9028 11.342 12.9028 10.7393Z" fill="#087965"/>
</svg>
