<svg width="39" height="38" viewBox="0 0 39 38" fill="none" xmlns="http://www.w3.org/2000/svg">
<path d="M0.946253 31.7125C1.07025 31.3024 1.13452 30.8764 1.13703 30.4479C1.81226 25.1716 4.2487 20.2793 8.05042 16.5659C10.2946 14.3176 12.5387 12.0692 14.7829 9.83495C15.4765 9.10597 16.4019 8.64165 17.4 8.52165C18.3982 8.40165 19.4069 8.63348 20.253 9.17733C20.5482 9.36544 20.8203 9.58759 21.0637 9.8392C23.7352 12.511 26.4067 15.1808 29.0782 17.8488C29.5155 18.2543 29.8644 18.746 30.103 19.293C30.3417 19.84 30.4648 20.4304 30.4648 21.0274C30.4648 21.6243 30.3417 22.2148 30.103 22.7618C29.8644 23.3088 29.5155 23.8005 29.0782 24.206C26.5339 26.748 24.0372 29.3406 21.4158 31.8039C18.879 34.1327 15.8636 35.8762 12.5817 36.9114C9.29979 37.9466 5.83128 38.2484 2.42038 37.7957C2.09376 37.7599 1.78914 37.6135 1.55681 37.3807C1.32448 37.148 1.17837 36.8427 1.14264 36.5155C1.11216 36.0178 1.04371 35.5231 0.937864 35.0359L0.946253 31.7125ZM3.85944 33.4466C3.84604 33.8923 3.85683 34.3384 3.89172 34.7829C3.90294 35.012 3.9899 35.0513 4.19468 35.064C5.74833 35.1739 7.30955 35.0951 8.8443 34.8293C12.6774 34.2224 16.2583 32.5334 19.1674 29.9603C20.9136 28.4146 22.486 26.6932 24.1438 25.0589C25.1406 24.0762 26.1304 23.0865 27.1131 22.0897C27.3887 21.8381 27.5541 21.4878 27.5735 21.1148C27.593 20.7418 27.4648 20.3761 27.2169 20.0972C26.8074 19.6419 26.3473 19.2316 25.9083 18.8016C25.8382 18.7201 25.7681 18.6329 25.6951 18.557C23.4865 16.3462 21.2764 14.1368 19.065 11.9287C18.9275 11.7576 18.7533 11.6197 18.5553 11.5252C18.3573 11.4307 18.1406 11.382 17.9213 11.3828C17.702 11.3836 17.4856 11.4339 17.2884 11.5298C17.0911 11.6258 16.9179 11.765 16.7816 11.9371C14.4851 14.2314 12.19 16.5265 9.89625 18.8226C7.86137 20.8568 6.27876 23.2991 5.25224 25.9892C4.32175 28.3644 3.84913 30.8949 3.85944 33.4466Z" fill="#121614"/>
<path d="M38.0293 2.74346C37.8371 3.59641 37.652 4.45075 37.45 5.30231C37.0559 7.25193 36.4521 9.15307 35.6491 10.9723C35.1951 12.0328 34.4162 12.9211 33.4251 13.5089C32.4339 14.0967 31.2819 14.3535 30.1355 14.2422C28.8201 14.1688 27.5697 13.6451 26.5935 12.7587C25.6173 11.8723 24.9745 10.677 24.7727 9.37262C24.5708 8.0683 24.8221 6.73409 25.4845 5.59314C26.1469 4.45219 27.1802 3.5737 28.4117 3.10462C30.6538 2.25895 32.9632 1.60457 35.3153 1.14854C35.6238 1.11536 35.9268 1.0431 36.2172 0.93352H36.8694C37.1426 1.01672 37.3911 1.16602 37.5932 1.36819C37.7952 1.57036 37.9445 1.81921 38.0279 2.09283L38.0293 2.74346ZM27.594 8.43588C27.5882 8.66681 27.6161 8.89734 27.6767 9.12021C27.8133 9.70596 28.1278 10.2349 28.577 10.6341C29.0261 11.0332 29.5878 11.2829 30.1846 11.3489C30.7433 11.4115 31.3078 11.3032 31.804 11.0384C32.3002 10.7735 32.7047 10.3645 32.9645 9.86501C33.7136 8.13079 34.2846 6.32471 34.6687 4.47466C34.708 4.31165 34.6785 4.24421 34.4962 4.28777C32.6446 4.66468 30.8382 5.23747 29.1074 5.9965C28.6514 6.21907 28.2675 6.56609 27.9997 6.99766C27.732 7.42923 27.5914 7.92775 27.594 8.43588Z" fill="#087965"/>
<path d="M38.0293 23.0945C36.7305 24.7596 35.1442 26.1536 33.7051 27.6867C32.6574 28.8024 31.576 29.8901 30.5072 30.9861C30.3166 31.1999 30.0652 31.3501 29.787 31.4167C29.5087 31.4832 29.2167 31.4629 28.9503 31.3585C28.7234 31.2766 28.5207 31.1389 28.3607 30.9582C28.2007 30.7774 28.0885 30.5593 28.0344 30.3239C27.9802 30.0885 27.9859 29.8433 28.0508 29.6106C28.1158 29.3779 28.2379 29.1653 28.4061 28.9921C30.784 26.5433 33.1642 24.0974 35.5467 21.6542C35.7071 21.4836 35.9068 21.355 36.1284 21.2797C36.3499 21.2044 36.5865 21.1848 36.8174 21.2223C37.0483 21.2599 37.2664 21.3537 37.4528 21.4953C37.6391 21.637 37.788 21.8223 37.8862 22.035C37.9241 22.1052 37.9269 22.2036 38.0265 22.2261L38.0293 23.0945Z" fill="#121614"/>
<path d="M16.6623 0.932913C16.6862 0.956801 16.7044 0.987679 16.7324 1.00033C16.9876 1.07549 17.217 1.22005 17.3952 1.41792C17.5733 1.6158 17.6932 1.85927 17.7416 2.1213C17.79 2.38332 17.7649 2.65366 17.6692 2.90229C17.5735 3.15091 17.411 3.36811 17.1995 3.52976C15.0816 5.59072 12.9618 7.65163 10.8401 9.7126C10.5722 9.97256 10.3057 10.2367 10.0364 10.4953C9.90395 10.6426 9.74274 10.7612 9.56278 10.8437C9.38282 10.9262 9.18794 10.971 8.99006 10.9753C8.79219 10.9795 8.59552 10.9431 8.41221 10.8683C8.2289 10.7935 8.06281 10.682 7.92416 10.5405C7.78551 10.399 7.67723 10.2305 7.606 10.0455C7.53477 9.86054 7.50211 9.66286 7.50999 9.46473C7.51787 9.2666 7.56614 9.07217 7.65184 8.89344C7.73754 8.7147 7.85886 8.55541 8.00831 8.42541C9.99439 6.48717 11.9842 4.55319 13.9777 2.62338C14.306 2.30439 14.644 1.99244 14.9596 1.66082C15.2454 1.33836 15.6048 1.09003 16.0073 0.937116L16.6623 0.932913Z" fill="#121614"/>
<path d="M21.6257 23.3221C21.8067 23.3221 21.8978 23.1815 22.0072 23.0747C23.0489 22.0349 24.0901 20.9951 25.1308 19.9552C25.3939 19.7059 25.5961 19.3991 25.7213 19.0587C25.7564 18.9575 25.783 18.8479 25.9036 18.8058C26.3412 19.2357 26.8027 19.6489 27.2123 20.1013C27.4602 20.3803 27.5883 20.746 27.5689 21.119C27.5494 21.492 27.384 21.8423 27.1085 22.0939C26.1239 23.0888 25.1341 24.0785 24.1392 25.0631C22.4813 26.6974 20.9132 28.4243 19.1627 29.9644C16.2539 32.538 12.6728 34.227 8.83965 34.8335C7.3049 35.0992 5.74368 35.1781 4.19003 35.0682C3.98666 35.0527 3.89829 35.0119 3.88707 34.7871C3.85221 34.3426 3.84143 33.8965 3.85479 33.4508C5.28917 33.3676 6.71132 33.1379 8.09906 32.765C9.73677 32.3292 11.3201 31.7093 12.8188 30.9172C12.9843 30.8301 13.1765 30.7766 13.2508 30.5701C13.4655 30.6605 13.6986 30.6986 13.9308 30.681C14.1631 30.6634 14.3878 30.5907 14.5865 30.469C14.7851 30.3472 14.9521 30.1798 15.0734 29.9807C15.1948 29.7816 15.2672 29.5564 15.2846 29.3237C15.8304 29.0243 16.333 28.6518 16.7784 28.2164C17.9229 27.2538 18.9159 26.1338 19.9875 25.0912C20.0885 24.9928 20.2217 24.9085 20.2133 24.7399C20.7738 24.3663 21.254 23.8843 21.6257 23.3221Z" fill="#087965" fill-opacity="0.15"/>
<path d="M21.6259 23.3236C21.2559 23.8836 20.7793 24.365 20.2233 24.7402C19.4573 25.2149 18.5631 25.4395 17.6642 25.3831C16.7652 25.3267 15.906 24.992 15.2051 24.4252C14.5042 23.8585 13.9963 23.0877 13.7516 22.2193C13.5068 21.3509 13.5373 20.4278 13.8388 19.5774C14.0415 18.9999 14.3634 18.4717 14.7836 18.0272C15.2037 17.5827 15.7126 17.232 16.2772 16.9978C16.8418 16.7637 17.4493 16.6513 18.0601 16.6681C18.6709 16.685 19.2713 16.8306 19.8221 17.0955C20.373 17.3604 20.862 17.7387 21.2571 18.2056C21.6522 18.6725 21.9447 19.2177 22.1154 19.8055C22.2861 20.3933 22.3313 21.0105 22.2479 21.617C22.1645 22.2234 21.9546 22.8054 21.6316 23.3251L21.6259 23.3236ZM17.9147 19.5985C17.7249 19.5986 17.537 19.6363 17.3618 19.7094C17.1866 19.7824 17.0275 19.8893 16.8935 20.024C16.7596 20.1587 16.6535 20.3185 16.5813 20.4944C16.5091 20.6702 16.4723 20.8586 16.4728 21.0487C16.4787 21.4328 16.6348 21.7992 16.9076 22.0691C17.1804 22.3389 17.5481 22.4907 17.9315 22.4918C18.1215 22.4907 18.3093 22.452 18.4843 22.378C18.6593 22.3039 18.8179 22.196 18.9511 22.0603C19.0843 21.9246 19.1894 21.7639 19.2605 21.5874C19.3315 21.4109 19.367 21.2221 19.3649 21.0318C19.3661 20.8415 19.3293 20.6529 19.2566 20.4771C19.1839 20.3013 19.0768 20.1419 18.9416 20.0082C18.8065 19.8746 18.646 19.7693 18.4696 19.6987C18.2932 19.6281 18.1046 19.5935 17.9147 19.5971V19.5985Z" fill="#121614"/>
<path d="M15.2897 29.3211C15.2723 29.5538 15.1999 29.779 15.0785 29.9781C14.9571 30.1773 14.7902 30.3447 14.5915 30.4664C14.3929 30.5882 14.1682 30.6608 13.9359 30.6784C13.7037 30.696 13.4706 30.658 13.2559 30.5675C13.1071 30.4873 12.9662 30.3932 12.8351 30.2865C11.4475 28.9084 10.065 27.5258 8.68765 26.1384C8.49241 25.9529 8.35696 25.7132 8.29873 25.45C8.2405 25.1868 8.26213 24.9122 8.36084 24.6615C8.44022 24.4118 8.58827 24.1895 8.78798 24.0203C8.98769 23.851 9.23096 23.7415 9.48992 23.7045C9.71047 23.6589 9.93895 23.6698 10.1542 23.7361C10.3694 23.8024 10.5645 23.9221 10.7214 24.0839C12.1109 25.4601 13.4943 26.8419 14.8717 28.2293C15.1484 28.5243 15.2984 28.9163 15.2897 29.3211Z" fill="#087965"/>
</svg>
