<svg width="29" height="28" viewBox="0 0 29 28" fill="none" xmlns="http://www.w3.org/2000/svg">
<path d="M0.5 22.1026C0.5 16.6569 0.5 11.2113 0.5 5.77293C0.579869 5.74389 0.550826 5.66401 0.558087 5.61319C1.03004 2.8105 2.96869 0.741159 5.70603 0.138508C5.89481 0.0949429 6.09812 0.116725 6.27238 0.0078125C11.6962 0.0078125 17.1273 0.0078125 22.5512 0.0078125C22.5657 0.0658993 22.6165 0.0586382 22.6601 0.0586382C25.4338 0.421681 27.612 2.42568 28.2292 5.16302C28.28 5.3881 28.2655 5.62045 28.3744 5.83101C28.3744 11.2549 28.3744 16.686 28.3744 22.1098C28.2945 22.1389 28.3236 22.2188 28.3091 22.2696C27.8298 25.0868 25.8985 27.1344 23.1611 27.7443C22.9578 27.7878 22.7327 27.766 22.5439 27.875C17.1201 27.875 11.689 27.875 6.26512 27.875C6.23607 27.7951 6.1562 27.8241 6.10538 27.8096C3.28817 27.3304 1.24061 25.399 0.630696 22.6617C0.58713 22.4729 0.608913 22.2696 0.5 22.1026ZM6.92585 25.6749C7.01298 25.6822 7.10737 25.6894 7.1945 25.6894C12.052 25.6894 16.9168 25.6894 21.7743 25.6894C24.2648 25.6894 26.1889 23.7653 26.1889 21.2748C26.1889 16.381 26.1889 11.48 26.1889 6.58614C26.1889 6.28845 26.1671 5.99075 26.1018 5.69306C25.6661 3.59467 23.9162 2.17155 21.767 2.17155C16.9095 2.17155 12.0448 2.17155 7.18724 2.17155C7.10011 2.17155 7.00572 2.17881 6.91859 2.18607C6.83872 2.18607 6.75885 2.17881 6.67172 2.18607C4.4136 2.37485 2.67099 4.24815 2.67099 6.50627C2.66373 11.4582 2.67099 16.4101 2.67099 21.362C2.67099 22.2478 2.91786 23.0683 3.43338 23.7871C4.2829 24.9851 5.43738 25.6386 6.92585 25.6749Z" fill="#121614"/>
<path d="M6.92557 2.19289C6.90378 2.3018 6.81665 2.35989 6.74404 2.42523C5.69848 3.31832 5.11035 4.45101 4.89979 5.80879C4.8417 6.17909 4.84896 6.5494 4.84896 6.9197C4.84896 11.7336 4.8417 16.5548 4.85622 21.3688C4.86348 23.046 5.53874 24.4401 6.81665 25.5365C6.86748 25.5801 6.91831 25.6164 6.92557 25.6817C5.44435 25.6454 4.28988 24.9847 3.4331 23.7867C2.91758 23.0678 2.67071 22.2474 2.67071 21.3615C2.67071 16.4096 2.66345 11.4577 2.67071 6.50583C2.67071 4.24771 4.42057 2.37441 6.67144 2.18562C6.75857 2.17836 6.8457 2.18563 6.92557 2.19289Z" fill="#DCE0ED"/>
<path d="M13.4023 10.7472C13.4023 10.1735 13.4023 9.6072 13.4023 9.03359C13.4095 8.37285 13.867 7.88637 14.4914 7.89363C15.1158 7.89363 15.5733 8.38011 15.5733 9.04085C15.5733 10.2098 15.5805 11.3788 15.566 12.5478C15.566 12.7947 15.6386 12.8455 15.871 12.8455C17.0327 12.831 18.1944 12.831 19.3562 12.8455C20.1839 12.8528 20.6849 13.6007 20.3799 14.3558C20.2129 14.7769 19.8354 15.0165 19.3199 15.0165C18.1654 15.0238 17.0182 15.0238 15.8637 15.0093C15.6168 15.0093 15.566 15.0819 15.566 15.3142C15.5805 16.4832 15.5733 17.6522 15.566 18.8212C15.566 19.344 15.2393 19.7433 14.7455 19.874C14.2736 19.9975 13.7798 19.7869 13.5402 19.3585C13.4313 19.1625 13.395 18.9519 13.395 18.7341C13.395 17.5941 13.3877 16.4469 13.4023 15.307C13.4023 15.0601 13.3224 15.0093 13.0973 15.0093C11.9356 15.0238 10.7738 15.0165 9.61211 15.0093C9.15467 15.0093 8.80615 14.806 8.60285 14.3921C8.41407 14 8.45763 13.6152 8.71902 13.2667C8.93685 12.969 9.24906 12.8383 9.61937 12.8383C10.7811 12.8383 11.9428 12.831 13.1046 12.8455C13.3514 12.8455 13.4095 12.7729 13.4023 12.5406C13.3877 11.9452 13.4023 11.3498 13.4023 10.7472Z" fill="#6F7C8E"/>
</svg>
