<svg width="13" height="13" viewBox="0 0 13 13" fill="none" xmlns="http://www.w3.org/2000/svg">
<path d="M12.3097 4.27704L8.63379 3.95848L7.19837 0.583283C7.14001 0.446463 7.04266 0.329796 6.91843 0.247793C6.7942 0.165791 6.64857 0.12207 6.49965 0.12207C6.35074 0.12207 6.20511 0.165791 6.08087 0.247793C5.95664 0.329796 5.85929 0.446463 5.80093 0.583283L4.36551 3.96607L0.697232 4.27704C0.548803 4.29 0.407469 4.34628 0.290828 4.43886C0.174187 4.53145 0.0873908 4.65625 0.0412467 4.79773C-0.00489739 4.93921 -0.0083513 5.09112 0.0313151 5.23455C0.0709816 5.37798 0.152016 5.50659 0.264329 5.60436L3.05162 8.0163L2.21619 11.5963C2.18299 11.7413 2.19322 11.8929 2.24561 12.0321C2.298 12.1714 2.39023 12.2922 2.51084 12.3795C2.63144 12.4668 2.77509 12.5167 2.92391 12.5231C3.07273 12.5295 3.22014 12.4921 3.34781 12.4154L6.49965 10.5193L9.65149 12.423C9.77916 12.4997 9.92657 12.5371 10.0754 12.5307C10.2242 12.5243 10.3679 12.4744 10.4885 12.3871C10.6091 12.2998 10.7013 12.179 10.7537 12.0397C10.8061 11.9005 10.8163 11.7489 10.7831 11.6039L9.94769 8.0163L12.735 5.60436C12.847 5.50706 12.9281 5.37909 12.9681 5.23628C13.008 5.09346 13.0052 4.94207 12.96 4.80083C12.9147 4.6596 12.829 4.5347 12.7134 4.44161C12.5978 4.34851 12.4575 4.2913 12.3097 4.27704ZM6.49965 9.10092L3.64401 10.8226L4.40349 7.57639L1.88202 5.39199L5.20854 5.10377L6.49965 2.04713L7.79836 5.11136L11.1249 5.39958L8.60341 7.58398L9.36289 10.8302L6.49965 9.10092Z" fill="#121614"/>
</svg>
