<svg width="11" height="15" viewBox="0 0 11 15" fill="none" xmlns="http://www.w3.org/2000/svg">
<path d="M10.1037 2.08172L9.09251 1.07187C8.8095 0.78737 8.47279 0.561763 8.10187 0.408115C7.73094 0.254468 7.33319 0.175834 6.93163 0.176766H3.05555C2.24544 0.177628 1.46874 0.499401 0.895904 1.07148C0.323063 1.64356 0.000862747 2.41922 0 3.22827V11.7725C0.000862747 12.5815 0.323063 13.3572 0.895904 13.9293C1.46874 14.5013 2.24544 14.8231 3.05555 14.824H7.94444C8.75456 14.8231 9.53125 14.5013 10.1041 13.9293C10.6769 13.3572 10.9991 12.5815 11 11.7725V4.23974C11.0008 3.83885 10.922 3.44177 10.7682 3.07149C10.6143 2.70121 10.3885 2.36507 10.1037 2.08253V2.08172ZM9.24081 2.94346C9.32742 3.02972 9.40496 3.12461 9.47222 3.22664H7.94444V1.70252C8.04653 1.77044 8.14176 1.84811 8.22881 1.93443L9.24081 2.94346ZM9.77777 11.7725C9.77777 12.2581 9.58462 12.7238 9.2408 13.0671C8.89699 13.4105 8.43067 13.6034 7.94444 13.6034H3.05555C2.56932 13.6034 2.10301 13.4105 1.75919 13.0671C1.41538 12.7238 1.22222 12.2581 1.22222 11.7725V3.22827C1.22222 2.74268 1.41538 2.27699 1.75919 1.93362C2.10301 1.59026 2.56932 1.39737 3.05555 1.39737H6.72222V3.22827C6.72222 3.55199 6.85099 3.86246 7.0802 4.09136C7.30941 4.32027 7.62029 4.44887 7.94444 4.44887H9.77777V11.7725ZM7.94444 5.66947C8.10652 5.66947 8.26195 5.73377 8.37656 5.84822C8.49117 5.96268 8.55555 6.11791 8.55555 6.27977C8.55555 6.44163 8.49117 6.59686 8.37656 6.71132C8.26195 6.82577 8.10652 6.89007 7.94444 6.89007H3.05555C2.89348 6.89007 2.73804 6.82577 2.62343 6.71132C2.50883 6.59686 2.44444 6.44163 2.44444 6.27977C2.44444 6.11791 2.50883 5.96268 2.62343 5.84822C2.73804 5.73377 2.89348 5.66947 3.05555 5.66947H7.94444ZM8.55555 8.72097C8.55555 8.88283 8.49117 9.03806 8.37656 9.15252C8.26195 9.26697 8.10652 9.33127 7.94444 9.33127H3.05555C2.89348 9.33127 2.73804 9.26697 2.62343 9.15252C2.50883 9.03806 2.44444 8.88283 2.44444 8.72097C2.44444 8.55911 2.50883 8.40388 2.62343 8.28942C2.73804 8.17497 2.89348 8.11067 3.05555 8.11067H7.94444C8.10652 8.11067 8.26195 8.17497 8.37656 8.28942C8.49117 8.40388 8.55555 8.55911 8.55555 8.72097ZM8.43822 10.8041C8.53306 10.9346 8.57233 11.0973 8.54745 11.2567C8.52256 11.416 8.43554 11.559 8.3054 11.6545C7.68602 12.0953 6.95238 12.3482 6.19259 12.3828C5.74885 12.3806 5.31859 12.2302 4.97037 11.9556C4.76992 11.818 4.69333 11.7725 4.54259 11.7725C4.13366 11.8367 3.74814 12.0048 3.42304 12.2607C3.29401 12.3539 3.13363 12.3932 2.97607 12.3701C2.8185 12.347 2.67618 12.2634 2.57943 12.137C2.48267 12.0107 2.43912 11.8517 2.45804 11.6937C2.47696 11.5358 2.55687 11.3915 2.68074 11.2916C3.21963 10.8756 3.86601 10.6216 4.54422 10.5592C4.95127 10.5656 5.34482 10.7061 5.66377 10.9587C5.80911 11.0894 5.99629 11.1641 6.19177 11.1695C6.69155 11.1321 7.17214 10.9615 7.58348 10.6756C7.71467 10.5807 7.87823 10.5417 8.0382 10.5672C8.19817 10.5926 8.34146 10.6805 8.43659 10.8115L8.43822 10.8041Z" fill="#121614"/>
</svg>
