<svg width="9" height="14" viewBox="0 0 9 14" fill="none" xmlns="http://www.w3.org/2000/svg">
<path d="M0.677444 0.98746C0.759562 0.905145 0.857112 0.839838 0.964506 0.795279C1.0719 0.75072 1.18703 0.727783 1.3033 0.727783C1.41957 0.727783 1.5347 0.75072 1.6421 0.795279C1.74949 0.839838 1.84704 0.905145 1.92916 0.98746L7.80744 6.86574C7.87303 6.9312 7.92506 7.00895 7.96056 7.09454C7.99606 7.18013 8.01434 7.27188 8.01434 7.36454C8.01434 7.4572 7.99606 7.54895 7.96056 7.63454C7.92506 7.72013 7.87303 7.79788 7.80744 7.86333L1.92916 13.7407C1.76317 13.9067 1.53804 14 1.3033 14C1.06856 14 0.843432 13.9067 0.677444 13.7407C0.511457 13.5747 0.418205 13.3496 0.418205 13.1149C0.418205 12.8801 0.511457 12.655 0.677444 12.489L5.79875 7.36048L0.670235 2.23197C0.506484 2.06581 0.415289 1.84151 0.416641 1.60822C0.417992 1.37494 0.511779 1.15171 0.677444 0.98746Z" fill="#121614"/>
</svg>
