<svg width="20" height="16" viewBox="0 0 20 16" fill="none" xmlns="http://www.w3.org/2000/svg">
<path d="M6.43473 12.3315L2.54258 8.43622C2.33505 8.2341 2.05628 8.12184 1.7666 8.12375C1.47692 8.12566 1.19965 8.24158 0.994813 8.44642C0.789975 8.65126 0.674053 8.92853 0.672143 9.21821C0.670233 9.50789 0.782488 9.78666 0.984607 9.99419L5.64822 14.6578C5.7512 14.7609 5.8735 14.8427 6.00811 14.8985C6.14273 14.9543 6.28702 14.983 6.43275 14.983C6.57847 14.983 6.72276 14.9543 6.85738 14.8985C6.992 14.8427 7.11429 14.7609 7.21728 14.6578L19.0189 2.87046C19.221 2.66294 19.3332 2.38416 19.3313 2.09448C19.3294 1.8048 19.2135 1.52753 19.0087 1.32269C18.8038 1.11786 18.5266 1.00193 18.2369 1.00002C17.9472 0.998114 17.6684 1.11037 17.4609 1.31249L6.43473 12.3315Z" fill="white" stroke="white"/>
</svg>
