<svg width="20" height="14" viewBox="0 0 20 14" fill="none" xmlns="http://www.w3.org/2000/svg">
<path d="M1.111 13.333H12.222C12.5167 13.333 12.7992 13.2159 13.0076 13.0076C13.2159 12.7992 13.333 12.5167 13.333 12.222C13.333 11.9273 13.2159 11.6448 13.0076 11.4364C12.7992 11.2281 12.5167 11.111 12.222 11.111H1.111C0.816344 11.111 0.533757 11.2281 0.325404 11.4364C0.117051 11.6448 0 11.9273 0 12.222C0 12.5167 0.117051 12.7992 0.325404 13.0076C0.533757 13.2159 0.816344 13.333 1.111 13.333ZM1.111 7.777H15.556C15.8507 7.777 16.1332 7.65995 16.3416 7.4516C16.5499 7.24324 16.667 6.96066 16.667 6.666C16.667 6.37135 16.5499 6.08876 16.3416 5.8804C16.1332 5.67205 15.8507 5.555 15.556 5.555H1.111C0.816344 5.555 0.533757 5.67205 0.325404 5.8804C0.117051 6.08876 0 6.37135 0 6.666C0 6.96066 0.117051 7.24324 0.325404 7.4516C0.533757 7.65995 0.816344 7.777 1.111 7.777ZM0 1.111C0.000791789 1.40541 0.118097 1.68754 0.326279 1.89572C0.53446 2.1039 0.816588 2.22121 1.111 2.222H18.889C19.1837 2.222 19.4662 2.10495 19.6746 1.8966C19.8829 1.68824 20 1.40566 20 1.111C20 0.816344 19.8829 0.533757 19.6746 0.325404C19.4662 0.117051 19.1837 0 18.889 0H1.111C0.816588 0.000791789 0.53446 0.118098 0.326279 0.326279C0.118097 0.534461 0.000791789 0.816588 0 1.111Z" fill="white"/>
</svg>
