<svg width="28" height="34" viewBox="0 0 28 34" fill="none" xmlns="http://www.w3.org/2000/svg">
<path d="M26.9877 28.68V25.088C26.9871 24.581 26.7856 24.0949 26.4271 23.7362C26.0687 23.3776 25.5827 23.1758 25.0757 23.175H24.3697V10.321C24.3686 9.32102 23.9708 8.36232 23.2636 7.65532C22.5565 6.94832 21.5977 6.55079 20.5977 6.55H19.8307C19.9228 6.33547 19.9704 6.10448 19.9707 5.871V2.729C19.9696 2.27094 19.7873 1.83192 19.4634 1.50793C19.1396 1.18394 18.7007 1.00132 18.2427 1H9.75867C9.30044 1.00106 8.86127 1.18356 8.53725 1.50758C8.21323 1.8316 8.03073 2.27077 8.02967 2.729V5.871C8.02991 6.10448 8.07754 6.33547 8.16967 6.55H7.40267C6.40269 6.55079 5.44388 6.94832 4.7367 7.65532C4.02951 8.36232 3.63173 9.32102 3.63067 10.321V23.175H2.92567C2.41865 23.1758 1.93263 23.3776 1.57421 23.7362C1.21578 24.0949 1.0142 24.581 1.01367 25.088V28.68C1.01473 29.748 1.43945 30.7719 2.19462 31.5271C2.94978 32.2822 3.9737 32.7069 5.04167 32.708H22.9597C24.0276 32.7069 25.0516 32.2822 25.8067 31.5271C26.5619 30.7719 26.9866 29.748 26.9877 28.68ZM16.1007 2.05V3.363H11.9007V2.05H16.1007ZM9.07967 5.871V2.729C9.08072 2.54924 9.1526 2.37714 9.27971 2.25003C9.40682 2.12292 9.57891 2.05105 9.75867 2.05H10.8497V3.888C10.8497 3.95694 10.8633 4.02521 10.8896 4.08891C10.916 4.1526 10.9547 4.21048 11.0034 4.25923C11.0522 4.30798 11.1101 4.34665 11.1738 4.37304C11.2375 4.39942 11.3057 4.413 11.3747 4.413H16.6247C16.6936 4.413 16.7619 4.39942 16.8256 4.37304C16.8893 4.34665 16.9472 4.30798 16.9959 4.25923C17.0447 4.21048 17.0833 4.1526 17.1097 4.08891C17.1361 4.02521 17.1497 3.95694 17.1497 3.888V2.05H18.2417C18.4214 2.05105 18.5935 2.12292 18.7206 2.25003C18.8477 2.37714 18.9196 2.54924 18.9207 2.729V5.871C18.9196 6.05076 18.8477 6.22286 18.7206 6.34997C18.5935 6.47708 18.4214 6.54895 18.2417 6.55H9.75867C9.57891 6.54895 9.40682 6.47708 9.27971 6.34997C9.1526 6.22286 9.08072 6.05076 9.07967 5.871ZM4.67967 10.321C4.68047 9.59907 4.96781 8.90698 5.47857 8.39678C5.98934 7.88658 6.68174 7.6 7.40367 7.6H20.5977C21.3193 7.60053 22.0111 7.88734 22.5215 8.39749C23.0318 8.90763 23.3189 9.59942 23.3197 10.321V23.175H22.9327C22.5541 23.1759 22.1823 23.2749 21.8534 23.4622C21.5244 23.6496 21.2496 23.9189 21.0557 24.244L20.0767 25.9H18.6097V14.861C18.6091 14.4136 18.4311 13.9846 18.1146 13.6683C17.7981 13.3521 17.3691 13.1743 16.9217 13.174H11.0797C10.6322 13.1743 10.2032 13.3521 9.88672 13.6683C9.57025 13.9846 9.3922 14.4136 9.39167 14.861V25.9H7.92467L6.94467 24.247C6.75098 23.9219 6.47635 23.6526 6.14757 23.4652C5.81879 23.2779 5.44708 23.1789 5.06867 23.178H4.68167L4.67967 10.321ZM17.5597 21.581H10.4417V14.861C10.4419 14.692 10.5093 14.5299 10.6289 14.4105C10.7485 14.2911 10.9106 14.224 11.0797 14.224H16.9217C17.0907 14.224 17.2528 14.2911 17.3725 14.4105C17.4921 14.5299 17.5594 14.692 17.5597 14.861V21.581ZM10.4417 22.631H17.5597V25.9H10.4417V22.631ZM2.06367 28.68V25.088C2.06394 24.8594 2.15481 24.6402 2.31638 24.4784C2.47795 24.3167 2.69704 24.2255 2.92567 24.225H5.06867C5.26499 24.2256 5.45781 24.277 5.62833 24.3742C5.79886 24.4715 5.94127 24.6113 6.04167 24.78L7.17467 26.691C7.22121 26.7694 7.28737 26.8343 7.36662 26.8794C7.44588 26.9244 7.5355 26.9481 7.62667 26.948H20.3757C20.4667 26.9479 20.5561 26.9242 20.6352 26.8791C20.7142 26.8341 20.7802 26.7693 20.8267 26.691L21.9577 24.78C22.0581 24.6114 22.2006 24.4716 22.3711 24.3744C22.5416 24.2771 22.7344 24.2256 22.9307 24.225H25.0737C25.3023 24.2255 25.5214 24.3167 25.683 24.4784C25.8445 24.6402 25.9354 24.8594 25.9357 25.088V28.68C25.9349 29.4696 25.6209 30.2266 25.0626 30.7849C24.5042 31.3432 23.7472 31.6572 22.9577 31.658H5.04167C4.2521 31.6572 3.4951 31.3432 2.93678 30.7849C2.37847 30.2266 2.06447 29.4696 2.06367 28.68Z" fill="#121614" stroke="#121614" stroke-width="0.7"/>
</svg>
