<svg width="18" height="15" viewBox="0 0 18 15" fill="none" xmlns="http://www.w3.org/2000/svg">
<path d="M16.2 0.50293H1.8C1.32394 0.504622 0.867993 0.694836 0.532192 1.03184C0.196391 1.36884 0.00816132 1.82511 0.00879993 2.30054L0 13.0862C0.00147692 13.5625 0.191593 14.0189 0.528839 14.3557C0.866085 14.6925 1.32306 14.8824 1.8 14.8838H16.2C16.6769 14.8824 17.1339 14.6925 17.4712 14.3557C17.8084 14.0189 17.9985 13.5625 18 13.0862V2.30054C17.9985 1.82424 17.8084 1.36787 17.4712 1.03107C17.1339 0.694269 16.6769 0.504405 16.2 0.50293ZM15.3 13.0862H2.7C2.4615 13.0856 2.23295 12.9907 2.0643 12.8223C1.89566 12.6538 1.80063 12.4256 1.8 12.1874V4.09816L8.0464 7.99858C8.33175 8.17914 8.66259 8.27501 9.0004 8.27501C9.3382 8.27501 9.66905 8.17914 9.9544 7.99858L16.2 4.09816V12.1874C16.1994 12.4256 16.1043 12.6538 15.9357 12.8223C15.7671 12.9907 15.5385 13.0856 15.3 13.0862ZM9 6.79457L1.8 2.30054H16.2L9 6.79457Z" fill="#6F7C8E"/>
</svg>
