<svg width="15" height="8" viewBox="0 0 15 8" fill="none" xmlns="http://www.w3.org/2000/svg">
<path d="M13.7813 0.258579C13.863 0.340047 13.9278 0.436836 13.9721 0.543398C14.0163 0.649961 14.0391 0.764203 14.0391 0.879578C14.0391 0.994954 14.0163 1.1092 13.9721 1.21576C13.9278 1.32232 13.863 1.41911 13.7813 1.50058L7.94833 7.33358C7.88332 7.39859 7.80615 7.45016 7.72122 7.48534C7.63629 7.52052 7.54526 7.53863 7.45333 7.53863C7.36139 7.53863 7.27036 7.52052 7.18543 7.48534C7.1005 7.45016 7.02333 7.39859 6.95833 7.33358L1.12533 1.50158C0.960627 1.33688 0.8681 1.1135 0.8681 0.880578C0.8681 0.647658 0.960627 0.424278 1.12533 0.259579C1.29003 0.0948791 1.51341 0.00235207 1.74633 0.00235207C1.97925 0.00235207 2.20263 0.0948791 2.36733 0.259579L7.46133 5.34058L12.5453 0.252579C12.7102 0.089717 12.9329 -0.0011145 13.1646 1.03238e-05C13.3963 0.00113515 13.6181 0.0941245 13.7813 0.258579Z" fill="#087965"/>
</svg>
