<svg width="8" height="5" viewBox="0 0 8 5" fill="none" xmlns="http://www.w3.org/2000/svg">
<path d="M0.295808 1.71002L2.88581 4.30002C3.07317 4.48627 3.32662 4.59081 3.59081 4.59081C3.85499 4.59081 4.10844 4.48627 4.29581 4.30002L6.88581 1.71002C7.02684 1.57015 7.12302 1.39145 7.16209 1.1967C7.20116 1.00195 7.18134 0.799979 7.10518 0.616535C7.02901 0.433091 6.89994 0.276486 6.73442 0.166685C6.5689 0.0568838 6.37443 -0.00113818 6.17581 1.69169e-05H0.995807C0.798035 0.000846148 0.604949 0.060301 0.440965 0.170864C0.276982 0.281427 0.149465 0.438133 0.0745398 0.621165C-0.000385769 0.804198 -0.0193555 1.00534 0.0200297 1.19915C0.0594149 1.39296 0.155386 1.57075 0.295808 1.71002Z" fill="#121614"/>
</svg>
