<svg width="17" height="16" viewBox="0 0 17 16" fill="none" xmlns="http://www.w3.org/2000/svg">
<path d="M13.9354 5.12452C13.6275 4.58712 13.1833 4.14042 12.6476 3.82949C12.112 3.51855 11.5038 3.35438 10.8844 3.35352H5.71241C5.09291 3.3544 4.4846 3.51858 3.94878 3.82951C3.41296 4.14043 2.96857 4.58711 2.66041 5.12452L1.21441 7.65452C0.790211 8.39851 0.566896 9.24008 0.566406 10.0965V11.0845C0.566628 11.5779 0.696665 12.0626 0.943459 12.4898C1.19025 12.917 1.54511 13.2718 1.97241 13.5185V13.8955C1.97241 14.2684 2.12054 14.626 2.38421 14.8897C2.64789 15.1534 3.00551 15.3015 3.37841 15.3015C3.7513 15.3015 4.10892 15.1534 4.3726 14.8897C4.63627 14.626 4.78441 14.2684 4.78441 13.8955H11.8134C11.8134 14.2684 11.9615 14.626 12.2252 14.8897C12.4889 15.1534 12.8465 15.3015 13.2194 15.3015C13.5923 15.3015 13.9499 15.1534 14.2136 14.8897C14.4773 14.626 14.6254 14.2684 14.6254 13.8955V13.5185C15.0527 13.2718 15.4076 12.917 15.6544 12.4898C15.9011 12.0626 16.0312 11.5779 16.0314 11.0845V10.0965C16.0311 9.23993 15.8074 8.39823 15.3824 7.65452L13.9354 5.12452ZM3.88341 5.82452C4.06773 5.5018 4.33384 5.23335 4.65494 5.04621C4.97603 4.85907 5.34076 4.75984 5.71241 4.75852H10.8844C11.2558 4.75999 11.6202 4.8593 11.9409 5.04644C12.2616 5.23359 12.5274 5.50196 12.7114 5.82452L14.1114 8.27652H2.48041L3.88341 5.82452ZM14.6234 11.0875C14.6234 11.4604 14.4753 11.818 14.2116 12.0817C13.9479 12.3454 13.5903 12.4935 13.2174 12.4935H3.37741C3.1926 12.4934 3.00963 12.4568 2.83897 12.3859C2.6683 12.315 2.51329 12.2112 2.3828 12.0803C2.25231 11.9494 2.14889 11.7941 2.07847 11.6233C2.00805 11.4524 1.97201 11.2693 1.97241 11.0845V10.0965C1.97262 9.95682 1.98097 9.81725 1.99741 9.67852H3.37741V10.3785C3.37741 10.565 3.45147 10.7438 3.58331 10.8756C3.71515 11.0075 3.89396 11.0815 4.08041 11.0815C4.26685 11.0815 4.44566 11.0075 4.5775 10.8756C4.70934 10.7438 4.78341 10.565 4.78341 10.3785V9.67852H11.8124V10.3785C11.8124 10.565 11.8865 10.7438 12.0183 10.8756C12.1501 11.0075 12.329 11.0815 12.5154 11.0815C12.7019 11.0815 12.8807 11.0075 13.0125 10.8756C13.1443 10.7438 13.2184 10.565 13.2184 10.3785V9.67852H14.5984C14.6148 9.81725 14.6232 9.95682 14.6234 10.0965V11.0875Z" fill="white"/>
<path d="M10.9198 5.51041C10.7107 5.71949 10.5928 6.00275 10.5918 6.29841V6.87341H11.1668C11.3139 6.87342 11.4595 6.84446 11.5954 6.78819C11.7313 6.73191 11.8548 6.64941 11.9588 6.54541L15.6918 2.81241L14.6558 1.77441L10.9198 5.51041Z" fill="white" stroke="#087965" stroke-width="0.5"/>
<path d="M16.2163 1.21547C16.1481 1.14716 16.0672 1.09298 15.978 1.056C15.8889 1.01903 15.7933 1 15.6968 1C15.6003 1 15.5047 1.01903 15.4156 1.056C15.3265 1.09298 15.2455 1.14716 15.1773 1.21547L14.1953 2.19747L15.2333 3.23547L16.2153 2.25347C16.2836 2.18529 16.3378 2.10432 16.3748 2.01517C16.4117 1.92603 16.4308 1.83047 16.4308 1.73397C16.4308 1.63746 16.4117 1.5419 16.3748 1.45276C16.3378 1.36362 16.2836 1.28264 16.2153 1.21447L16.2163 1.21547Z" fill="white" stroke="#087965" stroke-width="0.5"/>
</svg>
