<svg width="20" height="19" viewBox="0 0 20 19" fill="none" xmlns="http://www.w3.org/2000/svg">
<path d="M8.84 12.7053V14.9M8.84 12.7053C8.83987 12.6093 8.85915 12.5142 8.89673 12.4254C8.93431 12.3366 8.98946 12.256 9.05902 12.188C9.12859 12.1201 9.2112 12.0662 9.30214 12.0294C9.39308 11.9926 9.49056 11.9737 9.589 11.9737C9.68778 11.9732 9.78569 11.9917 9.87709 12.0283C9.96849 12.0648 10.0516 12.1187 10.1216 12.1867C10.1916 12.2547 10.2471 12.3355 10.2849 12.4245C10.3227 12.5135 10.3421 12.6089 10.342 12.7053L8.84 14.9M8.84 12.7053L8.74 12.7054M8.84 12.7053H8.74V12.7054M8.84 14.9C8.84053 15.4806 8.60502 16.0376 8.18511 16.4491M8.84 14.9L8.18511 16.4491M10.442 12.7054C10.4422 12.5955 10.42 12.4868 10.3769 12.3854C10.3338 12.284 10.2707 12.1921 10.1912 12.1149C10.1118 12.0378 10.0176 11.9768 9.91422 11.9354C9.81088 11.8941 9.70028 11.8732 9.58874 11.8737C9.58883 11.8737 9.58891 11.8737 9.589 11.8737L10.442 12.7054ZM10.442 12.7054V14.9V14.9001C10.4417 15.896 10.0365 16.8508 9.31609 17.555C8.59573 18.2592 7.61901 18.6555 6.60023 18.6579H6.6H4.742H4.74177C3.72299 18.6555 2.74627 18.2592 2.02591 17.555C1.30547 16.8508 0.900269 15.896 0.9 14.9001V14.9V4.6579V4.65788C0.900269 3.66188 1.30547 2.70715 2.02591 2.0029C2.74627 1.29874 3.72299 0.902385 4.74177 0.9L4.742 0.9L6.6 0.9H6.60029C7.61871 0.902914 8.5949 1.2995 9.31482 2.00361C10.0348 2.7078 10.4397 3.66223 10.44 4.65788V4.6579V6.85264C10.44 7.07401 10.3498 7.28578 10.1902 7.44153C10.0306 7.5972 9.81464 7.68422 9.59 7.68422C9.36536 7.68422 9.14943 7.5972 8.98984 7.44153C8.83017 7.28578 8.74 7.07401 8.74 6.85264V4.6579V4.65781C8.74051 4.10455 8.51609 3.57315 8.11513 3.18029C7.71412 2.78738 7.16924 2.56518 6.59982 2.56316L10.442 12.7054ZM8.74 12.7054V14.9V14.9001C8.74051 15.4534 8.51609 15.9848 8.11513 16.3776C7.71414 16.7705 7.1693 16.9927 6.59992 16.9948M8.74 12.7054L6.59992 16.9948M6.59992 16.9948C6.59983 16.9948 6.59974 16.9948 6.59965 16.9948H4.74226L4.742 16.9948H6.59992ZM8.18511 16.4491C7.7652 16.8605 7.19517 17.0927 6.6 17.0948L8.18511 16.4491ZM18.2217 8.15359L18.2216 8.15357L14.7907 4.79424C14.7128 4.71334 14.6193 4.64863 14.5156 4.6038C14.4114 4.55875 14.2991 4.53467 14.1853 4.53293C14.0715 4.53118 13.9585 4.5518 13.8529 4.59362C13.7474 4.63544 13.6514 4.69764 13.5707 4.77662C13.49 4.85562 13.4263 4.94979 13.3836 5.0536C13.3408 5.15742 13.3199 5.26866 13.3221 5.38067C13.3244 5.49268 13.3497 5.60303 13.3966 5.70511C13.4432 5.80659 13.51 5.89776 13.5931 5.97333L16.607 8.92249L5.52747 8.94635V8.94623L5.52265 8.94647C5.30559 8.95741 5.10062 9.04923 4.95022 9.20371C4.79974 9.35827 4.71543 9.56378 4.71543 9.77793C4.71543 9.99208 4.79974 10.1976 4.95022 10.3521C5.10062 10.5066 5.30559 10.5984 5.52265 10.6094L5.52265 10.6095L5.52788 10.6095L16.6493 10.5876L13.5901 13.5854C13.5901 13.5855 13.59 13.5855 13.59 13.5856C13.5106 13.6624 13.4474 13.7539 13.4041 13.8549C13.3607 13.9559 13.3382 14.0643 13.3377 14.174C13.3373 14.2837 13.359 14.3923 13.4016 14.4937C13.4442 14.595 13.5068 14.687 13.5856 14.7645C13.6644 14.842 13.758 14.9034 13.8609 14.9454C13.9638 14.9875 14.0741 15.0093 14.1855 15.0097C14.2969 15.0101 14.4074 14.9891 14.5106 14.9478C14.6138 14.9066 14.7078 14.8458 14.7872 14.7689L14.7876 14.7685L18.2196 11.4082C18.661 10.9769 18.9096 10.3919 18.91 9.78132C18.9104 9.17075 18.6625 8.58546 18.2217 8.15359Z" fill="#FF4779" stroke="#FF4779" stroke-width="0.2"/>
</svg>
