<svg width="26" height="26" viewBox="0 0 26 26" fill="none" xmlns="http://www.w3.org/2000/svg">
<path d="M25.9942 4.40728C25.9073 4.69479 25.8622 4.99336 25.8605 5.29377C25.3872 8.99221 23.6793 12.4216 21.0144 15.0245C19.4414 16.6005 17.8683 18.1765 16.2952 19.7427C15.809 20.2537 15.1604 20.5791 14.4607 20.6633C13.761 20.7474 13.054 20.5849 12.4608 20.2036C12.254 20.0718 12.0632 19.9161 11.8926 19.7397C10.02 17.8669 8.14735 15.9954 6.27474 14.1252C5.9682 13.841 5.72363 13.4964 5.55636 13.113C5.38909 12.7295 5.30273 12.3156 5.30273 11.8972C5.30273 11.4787 5.38909 11.0648 5.55636 10.6814C5.72363 10.298 5.9682 9.95332 6.27474 9.66911C8.05821 7.88725 9.80827 6.06995 11.6458 4.34325C13.424 2.71081 15.5377 1.48873 17.8382 0.763084C20.1387 0.0374347 22.57 -0.174153 24.9609 0.143224C25.1898 0.168315 25.4034 0.270923 25.5662 0.434081C25.7291 0.59724 25.8315 0.811193 25.8565 1.04057C25.8779 1.38946 25.9259 1.73619 26.0001 2.07774L25.9942 4.40728ZM23.9522 3.19179C23.9615 2.87936 23.954 2.56667 23.9295 2.25507C23.9217 2.09451 23.8607 2.06692 23.7172 2.05806C22.6281 1.98098 21.5338 2.0362 20.458 2.22254C17.7711 2.64796 15.261 3.83188 13.2218 5.63555C11.9978 6.71904 10.8956 7.92567 9.73354 9.07122C9.03483 9.76006 8.34104 10.4538 7.65217 11.1525C7.45902 11.3289 7.34306 11.5744 7.32944 11.8359C7.31582 12.0974 7.40564 12.3537 7.57941 12.5492C7.86649 12.8684 8.18898 13.156 8.49672 13.4574C8.54588 13.5145 8.59501 13.5756 8.64614 13.6288C10.1943 15.1785 11.7435 16.7273 13.2936 18.275C13.39 18.395 13.5121 18.4917 13.6509 18.5579C13.7897 18.6241 13.9416 18.6582 14.0953 18.6577C14.249 18.6571 14.4007 18.6219 14.539 18.5546C14.6773 18.4874 14.7987 18.3898 14.8942 18.2691C16.504 16.6609 18.1128 15.0521 19.7206 13.4426C21.1469 12.0167 22.2563 10.3048 22.9759 8.41917C23.6281 6.75418 23.9594 4.9804 23.9522 3.19179Z" fill="#121614"/>
<path d="M0 24.7137C0.134694 24.1158 0.264467 23.517 0.406044 22.9201C0.682301 21.5535 1.10557 20.2208 1.66843 18.9456C1.98669 18.2022 2.53266 17.5796 3.22741 17.1676C3.92216 16.7555 4.72969 16.5755 5.53327 16.6535C6.45534 16.705 7.33182 17.0721 8.01609 17.6934C8.70035 18.3148 9.15092 19.1526 9.29243 20.0669C9.43393 20.9812 9.2578 21.9164 8.79347 22.7162C8.32915 23.516 7.6048 24.1318 6.74159 24.4606C5.16997 25.0534 3.55116 25.512 1.90243 25.8317C1.68619 25.855 1.47377 25.9056 1.27025 25.9824H0.813078C0.621566 25.9241 0.447318 25.8195 0.305695 25.6777C0.164073 25.536 0.0594206 25.3616 0.000975129 25.1698L0 24.7137ZM7.31477 20.7236C7.3188 20.5617 7.29927 20.4001 7.25678 20.2439C7.16106 19.8333 6.94059 19.4625 6.62575 19.1827C6.3109 18.9029 5.91718 18.7279 5.49886 18.6817C5.10722 18.6378 4.7115 18.7136 4.3637 18.8993C4.01591 19.0849 3.73232 19.3716 3.55022 19.7218C3.02513 20.9374 2.62489 22.2034 2.35567 23.5002C2.32814 23.6145 2.34879 23.6618 2.4766 23.6312C3.77448 23.367 5.04068 22.9655 6.25394 22.4335C6.57355 22.2775 6.84269 22.0342 7.03037 21.7317C7.21804 21.4292 7.31662 21.0797 7.31477 20.7236Z" fill="#087965"/>
<path d="M0 10.4484C0.910416 9.28116 2.02237 8.30404 3.03111 7.22941C3.76553 6.44732 4.52356 5.68491 5.27273 4.91662C5.40635 4.76679 5.58252 4.66147 5.77758 4.61482C5.97265 4.56816 6.17729 4.58238 6.36405 4.65558C6.52306 4.71302 6.66516 4.80952 6.77733 4.93621C6.88949 5.06291 6.96814 5.21577 7.00609 5.3808C7.04404 5.54582 7.04008 5.71772 6.99456 5.88081C6.94903 6.0439 6.86341 6.19297 6.74552 6.31433C5.07872 8.03085 3.41028 9.74538 1.7402 11.458C1.62775 11.5775 1.48776 11.6677 1.33248 11.7204C1.17719 11.7732 1.01135 11.787 0.849503 11.7607C0.687651 11.7343 0.534729 11.6686 0.404109 11.5693C0.273488 11.47 0.169157 11.3401 0.100273 11.191C0.0737277 11.1418 0.0717704 11.0728 0.00196526 11.0571L0 10.4484Z" fill="#121614"/>
<path d="M14.9775 25.9829C14.9608 25.9662 14.948 25.9445 14.9283 25.9357C14.7495 25.883 14.5886 25.7816 14.4638 25.6429C14.3389 25.5042 14.2548 25.3336 14.2209 25.1499C14.187 24.9662 14.2046 24.7767 14.2717 24.6024C14.3387 24.4282 14.4527 24.2759 14.6009 24.1626C16.0855 22.718 17.5714 21.2733 19.0586 19.8287C19.2464 19.6464 19.4332 19.4613 19.622 19.28C19.7149 19.1768 19.8279 19.0937 19.954 19.0358C20.0801 18.978 20.2167 18.9466 20.3555 18.9436C20.4942 18.9406 20.632 18.9661 20.7605 19.0186C20.889 19.071 21.0054 19.1491 21.1026 19.2483C21.1998 19.3475 21.2757 19.4656 21.3256 19.5953C21.3756 19.725 21.3985 19.8635 21.3929 20.0024C21.3874 20.1413 21.3536 20.2776 21.2935 20.4029C21.2334 20.5282 21.1484 20.6398 21.0436 20.7309C19.6515 22.0896 18.2567 23.4452 16.8593 24.798C16.6292 25.0216 16.3922 25.2402 16.171 25.4727C15.9707 25.6987 15.7187 25.8728 15.4366 25.98L14.9775 25.9829Z" fill="#121614"/>
<path d="M11.4983 10.2888C11.3715 10.2888 11.3076 10.3873 11.2309 10.4621C10.5007 11.191 9.77091 11.9199 9.0414 12.6488C8.85696 12.8235 8.71528 13.0386 8.62747 13.2772C8.60289 13.3481 8.58423 13.425 8.49968 13.4545C8.19293 13.1531 7.86945 12.8635 7.58237 12.5464C7.4086 12.3508 7.31879 12.0945 7.33241 11.833C7.34602 11.5716 7.46199 11.326 7.65513 11.1497C8.34531 10.4523 9.03911 9.75849 9.7365 9.06833C10.8986 7.92278 11.9978 6.71225 13.2248 5.63269C15.2638 3.82875 17.774 2.64478 20.4609 2.21968C21.5367 2.03337 22.6311 1.97812 23.7201 2.05517C23.8627 2.066 23.9246 2.09458 23.9325 2.25218C23.9569 2.56378 23.9645 2.87648 23.9551 3.1889C22.9497 3.24716 21.9528 3.40823 20.98 3.66958C19.8321 3.97508 18.7222 4.4096 17.6717 4.96485C17.5556 5.02592 17.421 5.06336 17.3689 5.20816C17.2184 5.14475 17.055 5.1181 16.8922 5.13042C16.7294 5.14275 16.5719 5.19369 16.4326 5.27904C16.2933 5.36439 16.1763 5.48171 16.0913 5.6213C16.0062 5.76089 15.9554 5.91874 15.9432 6.08184C15.5606 6.2917 15.2084 6.55282 14.8962 6.85801C14.0939 7.53274 13.3978 8.31781 12.6467 9.04867C12.5759 9.11762 12.4825 9.17672 12.4884 9.29492C12.0955 9.55678 11.7589 9.89466 11.4983 10.2888Z" fill="#087965" fill-opacity="0.15"/>
<path d="M11.4987 10.2884C11.758 9.89591 12.0921 9.55845 12.4818 9.2955C13.0188 8.96274 13.6456 8.8053 14.2757 8.84484C14.9058 8.88438 15.5081 9.11898 15.9994 9.51625C16.4907 9.91352 16.8467 10.4538 17.0183 11.0625C17.1899 11.6712 17.1685 12.3183 16.9572 12.9144C16.8151 13.3192 16.5894 13.6895 16.2949 14.001C16.0004 14.3126 15.6437 14.5584 15.2479 14.7226C14.8522 14.8867 14.4264 14.9655 13.9982 14.9537C13.5701 14.9419 13.1492 14.8398 12.7631 14.6541C12.3769 14.4684 12.0342 14.2033 11.7572 13.876C11.4802 13.5487 11.2752 13.1665 11.1556 12.7545C11.0359 12.3425 11.0042 11.9098 11.0627 11.4847C11.1211 11.0596 11.2683 10.6517 11.4947 10.2874L11.4987 10.2884ZM14.1001 12.8997C14.2332 12.8995 14.3648 12.8731 14.4877 12.8219C14.6105 12.7707 14.722 12.6958 14.8159 12.6013C14.9098 12.5069 14.9841 12.3949 15.0348 12.2716C15.0854 12.1484 15.1112 12.0164 15.1108 11.8831C15.1067 11.6139 14.9973 11.357 14.806 11.1679C14.6148 10.9787 14.3571 10.8723 14.0883 10.8715C13.9552 10.8723 13.8235 10.8994 13.7008 10.9513C13.5782 11.0032 13.467 11.0789 13.3736 11.174C13.2802 11.2691 13.2066 11.3818 13.1568 11.5055C13.107 11.6292 13.0821 11.7616 13.0835 11.8949C13.0827 12.0283 13.1085 12.1605 13.1595 12.2837C13.2105 12.407 13.2855 12.5187 13.3803 12.6124C13.475 12.7061 13.5875 12.7799 13.7111 12.8294C13.8348 12.8789 13.967 12.9031 14.1001 12.9006V12.8997Z" fill="#121614"/>
<path d="M15.9397 6.08329C15.9519 5.92018 16.0026 5.7623 16.0877 5.62271C16.1728 5.48313 16.2898 5.3658 16.4291 5.28045C16.5683 5.1951 16.7259 5.14416 16.8886 5.13184C17.0514 5.11951 17.2148 5.14616 17.3653 5.20957C17.4696 5.26578 17.5684 5.33176 17.6603 5.40658C18.6329 6.37254 19.602 7.34174 20.5675 8.31426C20.7043 8.44427 20.7993 8.61231 20.8401 8.79678C20.8809 8.98124 20.8658 9.17374 20.7966 9.34951C20.7409 9.52455 20.6372 9.68032 20.4972 9.79896C20.3572 9.91761 20.1866 9.99436 20.0051 10.0203C19.8505 10.0523 19.6904 10.0446 19.5395 9.99814C19.3886 9.95166 19.2519 9.86781 19.1419 9.75436C18.1679 8.78972 17.1982 7.82113 16.2327 6.84861C16.0388 6.64178 15.9336 6.367 15.9397 6.08329Z" fill="#087965"/>
</svg>
