<svg width="39" height="38" viewBox="0 0 39 38" fill="none" xmlns="http://www.w3.org/2000/svg">
<path d="M38.0205 7.22105C37.8965 7.63122 37.8323 8.05716 37.8298 8.48572C37.1545 13.7619 34.7181 18.6543 30.9164 22.3677C28.6722 24.616 26.4281 26.8644 24.1839 29.0986C23.4902 29.8276 22.5649 30.2919 21.5668 30.4119C20.5686 30.5319 19.5599 30.3001 18.7138 29.7563C18.4186 29.5681 18.1465 29.346 17.9031 29.0944C15.2316 26.4226 12.5601 23.7528 9.88863 21.0848C9.45131 20.6793 9.10241 20.1876 8.86377 19.6406C8.62514 19.0936 8.50195 18.5032 8.50195 17.9062C8.50195 17.3093 8.62514 16.7187 8.86377 16.1718C9.10241 15.6248 9.45131 15.1331 9.88863 14.7276C12.4329 12.1856 14.9296 9.59303 17.551 7.12971C20.0878 4.80086 23.1032 3.05743 26.3851 2.02222C29.667 0.986998 33.1355 0.685145 36.5464 1.13792C36.873 1.17371 37.1777 1.32009 37.41 1.55286C37.6423 1.78562 37.7884 2.09085 37.8242 2.41807C37.8546 2.91581 37.9231 3.41045 38.0289 3.89772L38.0205 7.22105ZM35.1074 5.48702C35.1208 5.04131 35.11 4.59522 35.0751 4.15069C35.0639 3.92164 34.9769 3.88228 34.7721 3.86963C33.2185 3.75967 31.6572 3.83846 30.1225 4.10429C26.2894 4.71119 22.7085 6.40018 19.7994 8.97331C18.0532 10.519 16.4808 12.2404 14.823 13.8747C13.8262 14.8574 12.8364 15.8471 11.8537 16.8439C11.5781 17.0955 11.4127 17.4458 11.3933 17.8188C11.3738 18.1918 11.502 18.5575 11.7499 18.8364C12.1594 19.2917 12.6195 19.702 13.0585 20.132C13.1286 20.2135 13.1987 20.3007 13.2717 20.3766C15.4803 22.5874 17.6904 24.7968 19.9018 27.0049C20.0393 27.176 20.2135 27.3139 20.4115 27.4084C20.6095 27.5029 20.8262 27.5516 21.0455 27.5508C21.2648 27.55 21.4812 27.4997 21.6784 27.4038C21.8757 27.3078 22.0489 27.1686 22.1852 26.9965C24.4817 24.7022 26.7768 22.4071 29.0706 20.111C31.1054 18.0768 32.688 15.6345 33.7146 12.9444C34.6451 10.5692 35.1177 8.03867 35.1074 5.48702Z" fill="#121614"/>
<path d="M0.9375 36.1901C1.12966 35.3372 1.31479 34.4828 1.51676 33.6313C1.91088 31.6817 2.51471 29.7805 3.3177 27.9612C3.77172 26.9008 4.55061 26.0125 5.54174 25.4247C6.53288 24.8369 7.68491 24.5801 8.83131 24.6914C10.1467 24.7648 11.3971 25.2885 12.3733 26.1749C13.3495 27.0613 13.9923 28.2566 14.1941 29.561C14.396 30.8653 14.1447 32.1995 13.4823 33.3405C12.8199 34.4814 11.7866 35.3599 10.5551 35.829C8.31301 36.6746 6.0036 37.329 3.65152 37.7851C3.34304 37.8182 3.03999 37.8905 2.74965 38.0001H2.09744C1.82423 37.9169 1.57565 37.7676 1.37361 37.5654C1.17157 37.3632 1.02227 37.1144 0.938891 36.8408L0.9375 36.1901ZM11.3728 30.4977C11.3786 30.2668 11.3507 30.0363 11.2901 29.8134C11.1535 29.2276 10.839 28.6987 10.3898 28.2995C9.94068 27.9004 9.37899 27.6507 8.78221 27.5847C8.2235 27.5221 7.65896 27.6304 7.16279 27.8952C6.66662 28.1601 6.26205 28.5691 6.00227 29.0686C5.25317 30.8028 4.68219 32.6089 4.29812 34.4589C4.25885 34.6219 4.2883 34.6894 4.47064 34.6458C6.3222 34.2689 8.12857 33.6961 9.85941 32.9371C10.3154 32.7145 10.6993 32.3675 10.9671 31.9359C11.2348 31.5044 11.3754 31.0058 11.3728 30.4977Z" fill="#087965"/>
<path d="M0.9375 15.8391C2.23631 14.174 3.82263 12.78 5.2617 11.2469C6.30944 10.1312 7.39084 9.04353 8.45962 7.94748C8.65025 7.73373 8.90156 7.58349 9.17984 7.51693C9.45812 7.45037 9.75006 7.47066 10.0165 7.57508C10.2434 7.65703 10.4461 7.7947 10.6061 7.97544C10.7661 8.15618 10.8783 8.37426 10.9324 8.60968C10.9866 8.84511 10.9809 9.09034 10.916 9.323C10.851 9.55567 10.7289 9.76833 10.5607 9.94147C8.18284 12.3903 5.80263 14.8362 3.42008 17.2794C3.25966 17.45 3.05995 17.5786 2.83842 17.6539C2.61689 17.7292 2.38031 17.7488 2.14941 17.7112C1.91851 17.6737 1.70035 17.5799 1.514 17.4383C1.32766 17.2966 1.17882 17.1113 1.08055 16.8986C1.04268 16.8283 1.03989 16.73 0.940304 16.7075L0.9375 15.8391Z" fill="#121614"/>
<path d="M22.3045 38.0007C22.2806 37.9768 22.2624 37.9459 22.2344 37.9333C21.9792 37.8581 21.7498 37.7135 21.5716 37.5157C21.3935 37.3178 21.2736 37.0743 21.2252 36.8123C21.1768 36.5503 21.2019 36.2799 21.2976 36.0313C21.3932 35.7827 21.5558 35.5655 21.7673 35.4038C23.8852 33.3429 26.005 31.282 28.1267 29.221C28.3946 28.961 28.661 28.6968 28.9303 28.4383C29.0628 28.291 29.2241 28.1724 29.404 28.0899C29.584 28.0074 29.7789 27.9626 29.9767 27.9583C30.1746 27.9541 30.3713 27.9905 30.5546 28.0653C30.7379 28.1401 30.904 28.2516 31.0426 28.3931C31.1813 28.5346 31.2896 28.703 31.3608 28.888C31.432 29.0731 31.4647 29.2707 31.4568 29.4689C31.4489 29.667 31.4007 29.8614 31.315 30.0402C31.2293 30.2189 31.1079 30.3782 30.9585 30.5082C28.9724 32.4464 26.9826 34.3804 24.9891 36.3102C24.6608 36.6292 24.3228 36.9412 24.0072 37.2728C23.7214 37.5952 23.362 37.8436 22.9595 37.9965L22.3045 38.0007Z" fill="#121614"/>
<path d="M17.3406 15.6115C17.1596 15.6115 17.0685 15.7521 16.9591 15.8589C15.9174 16.8987 14.8762 17.9385 13.8355 18.9784C13.5724 19.2277 13.3703 19.5345 13.245 19.8749C13.2099 19.9761 13.1833 20.0857 13.0627 20.1278C12.6251 19.6978 12.1636 19.2847 11.754 18.8322C11.5061 18.5533 11.378 18.1876 11.3974 17.8146C11.4169 17.4416 11.5823 17.0913 11.8578 16.8397C12.8425 15.8448 13.8322 14.855 14.8271 13.8705C16.485 12.2362 18.0531 10.5093 19.8036 8.96916C22.7124 6.39564 26.2935 4.70658 30.1267 4.10014C31.6614 3.83435 33.2226 3.75552 34.7763 3.86544C34.9797 3.88089 35.068 3.92166 35.0792 4.14649C35.1141 4.59103 35.1249 5.03712 35.1115 5.48282C33.6771 5.56594 32.255 5.79573 30.8673 6.16857C29.2295 6.6044 27.6462 7.22429 26.1475 8.01642C25.982 8.10354 25.7898 8.15695 25.7155 8.36351C25.5008 8.27305 25.2677 8.23503 25.0355 8.25262C24.8032 8.2702 24.5785 8.34287 24.3799 8.46463C24.1812 8.58639 24.0143 8.75377 23.8929 8.9529C23.7715 9.15204 23.6991 9.37724 23.6817 9.60992C23.1359 9.90931 22.6333 10.2818 22.188 10.7172C21.0434 11.6798 20.0504 12.7998 18.9788 13.8424C18.8778 13.9408 18.7446 14.0251 18.753 14.1937C18.1926 14.5673 17.7123 15.0493 17.3406 15.6115Z" fill="#087965" fill-opacity="0.15"/>
<path d="M17.3414 15.6099C17.7113 15.05 18.188 14.5686 18.7439 14.1934C19.5099 13.7187 20.4042 13.4941 21.3031 13.5505C22.202 13.6069 23.0613 13.9416 23.7622 14.5084C24.4631 15.0751 24.971 15.8459 25.2157 16.7143C25.4605 17.5827 25.43 18.5058 25.1285 19.3562C24.9258 19.9337 24.6039 20.4619 24.1837 20.9064C23.7636 21.3509 23.2546 21.7016 22.6901 21.9358C22.1255 22.1699 21.518 22.2823 20.9072 22.2654C20.2964 22.2486 19.696 22.103 19.1452 21.8381C18.5943 21.5732 18.1053 21.1949 17.7102 20.728C17.3151 20.261 17.0226 19.7159 16.8519 19.1281C16.6812 18.5403 16.636 17.9231 16.7194 17.3166C16.8027 16.7102 17.0127 16.1282 17.3357 15.6085L17.3414 15.6099ZM21.0526 19.3351C21.2424 19.335 21.4303 19.2973 21.6055 19.2242C21.7807 19.1512 21.9398 19.0443 22.0737 18.9096C22.2077 18.7749 22.3138 18.615 22.386 18.4392C22.4582 18.2634 22.495 18.075 22.4945 17.8849C22.4886 17.5008 22.3325 17.1344 22.0597 16.8645C21.7869 16.5946 21.4192 16.4429 21.0358 16.4418C20.8458 16.4429 20.658 16.4816 20.483 16.5556C20.308 16.6297 20.1494 16.7376 20.0162 16.8733C19.883 17.009 19.7778 17.1697 19.7068 17.3462C19.6358 17.5227 19.6003 17.7115 19.6023 17.9018C19.6012 18.0921 19.638 18.2807 19.7107 18.4565C19.7834 18.6322 19.8905 18.7916 20.0257 18.9253C20.1608 19.059 20.3213 19.1643 20.4977 19.2349C20.674 19.3055 20.8627 19.3401 21.0526 19.3365V19.3351Z" fill="#121614"/>
<path d="M23.6771 9.6125C23.6945 9.37982 23.7669 9.15458 23.8883 8.95545C24.0097 8.75631 24.1766 8.58894 24.3753 8.46718C24.5739 8.34541 24.7986 8.27274 25.0309 8.25516C25.2631 8.23758 25.4962 8.27559 25.7109 8.36606C25.8597 8.44625 26.0006 8.54036 26.1317 8.64711C27.5193 10.0251 28.9018 11.4078 30.2792 12.7952C30.4744 12.9807 30.6098 13.2204 30.6681 13.4836C30.7263 13.7467 30.7047 14.0214 30.606 14.2721C30.5266 14.5218 30.3785 14.7441 30.1788 14.9133C29.9791 15.0826 29.7358 15.1921 29.4769 15.2291C29.2563 15.2747 29.0279 15.2638 28.8126 15.1975C28.5974 15.1311 28.4023 15.0115 28.2454 14.8497C26.8559 13.4735 25.4725 12.0917 24.0951 10.7043C23.8184 10.4092 23.6684 10.0172 23.6771 9.6125Z" fill="#087965"/>
</svg>
