<svg width="22" height="22" viewBox="0 0 22 22" fill="none" xmlns="http://www.w3.org/2000/svg">
<path d="M19.5138 1.14258H15.9298C15.7068 1.16368 15.4996 1.26719 15.3489 1.43289C15.1981 1.59859 15.1146 1.81456 15.1146 2.03858C15.1146 2.2626 15.1981 2.47857 15.3489 2.64427C15.4996 2.80997 15.7068 2.91348 15.9298 2.93458H17.3458L13.7918 6.49258C12.9728 5.92619 12.0006 5.62279 11.0048 5.62279C10.009 5.62279 9.03683 5.92619 8.2178 6.49258L7.6318 5.90958L8.2588 5.28258C8.34173 5.19939 8.40746 5.10067 8.45224 4.99208C8.49702 4.88348 8.51997 4.76713 8.51979 4.64966C8.5196 4.5322 8.49628 4.41592 8.45116 4.30747C8.40603 4.19901 8.33999 4.10051 8.2568 4.01758C8.1736 3.93465 8.07489 3.86892 7.9663 3.82414C7.8577 3.77936 7.74135 3.7564 7.62388 3.75659C7.50642 3.75677 7.39014 3.78009 7.28168 3.82522C7.17323 3.87034 7.07473 3.93639 6.9918 4.01958L6.3678 4.64258L4.6568 2.93458H6.0728C6.29582 2.91348 6.50296 2.80997 6.65373 2.64427C6.80449 2.47857 6.88804 2.2626 6.88804 2.03858C6.88804 1.81456 6.80449 1.59859 6.65373 1.43289C6.50296 1.26719 6.29582 1.16368 6.0728 1.14258H2.4918C2.2531 1.14258 2.02418 1.2374 1.8554 1.40618C1.68662 1.57496 1.5918 1.80388 1.5918 2.04258V5.62358C1.61289 5.8466 1.71641 6.05374 1.88211 6.20451C2.04781 6.35527 2.26378 6.43882 2.4878 6.43882C2.71182 6.43882 2.92779 6.35527 3.09349 6.20451C3.25918 6.05374 3.3627 5.8466 3.3838 5.62358V4.20758L5.0918 5.90958L4.4598 6.54258C4.29178 6.71006 4.19718 6.93743 4.19681 7.17466C4.19643 7.4119 4.29031 7.63956 4.4578 7.80758C4.62528 7.97559 4.85265 8.07019 5.08988 8.07057C5.32712 8.07094 5.55478 7.97706 5.7228 7.80958L6.3588 7.17358L6.9408 7.75558C6.47472 8.43277 6.18535 9.21574 6.099 10.0333C6.01265 10.8508 6.13206 11.677 6.44639 12.4366C6.76071 13.1962 7.25996 13.8652 7.89872 14.3826C8.53748 14.9001 9.29549 15.2497 10.1038 15.3996V17.2726H9.2038C8.98077 17.2937 8.77363 17.3972 8.62287 17.5629C8.4721 17.7286 8.38856 17.9446 8.38856 18.1686C8.38856 18.3926 8.4721 18.6086 8.62287 18.7743C8.77363 18.94 8.98077 19.0435 9.2038 19.0646H10.1038V19.9646C10.1249 20.1876 10.2284 20.3947 10.3941 20.5455C10.5598 20.6963 10.7758 20.7798 10.9998 20.7798C11.2238 20.7798 11.4398 20.6963 11.6055 20.5455C11.7712 20.3947 11.8747 20.1876 11.8958 19.9646V19.0646H12.7958C13.0188 19.0435 13.226 18.94 13.3767 18.7743C13.5275 18.6086 13.611 18.3926 13.611 18.1686C13.611 17.9446 13.5275 17.7286 13.3767 17.5629C13.226 17.3972 13.0188 17.2937 12.7958 17.2726H11.8958V15.3996C12.7041 15.2497 13.4621 14.9001 14.1009 14.3826C14.7396 13.8652 15.2389 13.1962 15.5532 12.4366C15.8675 11.677 15.9869 10.8508 15.9006 10.0333C15.8142 9.21574 15.5249 8.43277 15.0588 7.75558L18.6168 4.20658V5.62358C18.6379 5.8466 18.7414 6.05374 18.9071 6.20451C19.0728 6.35527 19.2888 6.43882 19.5128 6.43882C19.7368 6.43882 19.9528 6.35527 20.1185 6.20451C20.2842 6.05374 20.3877 5.8466 20.4088 5.62358V2.04258C20.4088 1.80475 20.3147 1.57658 20.147 1.40794C19.9793 1.2393 19.7516 1.1439 19.5138 1.14258ZM11.0008 13.6886C10.3806 13.6886 9.77424 13.5047 9.25853 13.1601C8.74282 12.8155 8.34087 12.3257 8.10351 11.7527C7.86615 11.1796 7.80405 10.5491 7.92505 9.94077C8.04606 9.33245 8.34473 8.77367 8.78331 8.33509C9.22189 7.89651 9.78067 7.59784 10.389 7.47684C10.9973 7.35583 11.6279 7.41794 12.2009 7.65529C12.7739 7.89265 13.2637 8.2946 13.6083 8.81031C13.9529 9.32602 14.1368 9.93234 14.1368 10.5526C14.1357 11.384 13.805 12.181 13.2171 12.7689C12.6292 13.3568 11.8322 13.6875 11.0008 13.6886Z" fill="#121614"/>
</svg>
