<svg width="14" height="15" viewBox="0 0 14 15" fill="none" xmlns="http://www.w3.org/2000/svg">
<path d="M11.6667 0.275391H2.33333C1.71449 0.275391 1.121 0.520897 0.683417 0.957902C0.245833 1.39491 0 1.98761 0 2.60563L0 9.59634C0 10.2144 0.245833 10.8071 0.683417 11.2441C1.121 11.6811 1.71449 11.9266 2.33333 11.9266H4.025L6.62122 14.1186C6.72655 14.2076 6.86007 14.2564 6.99806 14.2564C7.13604 14.2564 7.26956 14.2076 7.37489 14.1186L9.975 11.9266H11.6667C12.2855 11.9266 12.879 11.6811 13.3166 11.2441C13.7542 10.8071 14 10.2144 14 9.59634V2.60563C14 1.98761 13.7542 1.39491 13.3166 0.957902C12.879 0.520897 12.2855 0.275391 11.6667 0.275391V0.275391ZM12.8333 9.59634C12.8333 9.90535 12.7104 10.2017 12.4916 10.4202C12.2728 10.6387 11.9761 10.7615 11.6667 10.7615H9.975C9.6993 10.7616 9.43257 10.8593 9.22211 11.0372L7 12.9115L4.77944 11.0372C4.56858 10.859 4.30124 10.7613 4.025 10.7615H2.33333C2.02391 10.7615 1.72717 10.6387 1.50838 10.4202C1.28958 10.2017 1.16667 9.90535 1.16667 9.59634V2.60563C1.16667 2.29662 1.28958 2.00027 1.50838 1.78177C1.72717 1.56326 2.02391 1.44051 2.33333 1.44051H11.6667C11.9761 1.44051 12.2728 1.56326 12.4916 1.78177C12.7104 2.00027 12.8333 2.29662 12.8333 2.60563V9.59634Z" fill="#121614"/>
<path d="M4.07966 4.35844H7.00644C7.08509 4.36131 7.16352 4.3483 7.23703 4.32018C7.31054 4.29205 7.37763 4.2494 7.43429 4.19477C7.49095 4.14014 7.53602 4.07465 7.5668 4.00221C7.59758 3.92977 7.61345 3.85187 7.61345 3.77317C7.61345 3.69446 7.59758 3.61656 7.5668 3.54412C7.53602 3.47168 7.49095 3.40619 7.43429 3.35156C7.37763 3.29693 7.31054 3.25428 7.23703 3.22616C7.16352 3.19804 7.08509 3.18502 7.00644 3.18789H4.07966C4.00101 3.18502 3.92258 3.19804 3.84907 3.22616C3.77556 3.25428 3.70847 3.29693 3.65181 3.35156C3.59515 3.40619 3.55008 3.47168 3.5193 3.54412C3.48852 3.61656 3.47266 3.69446 3.47266 3.77317C3.47266 3.85187 3.48852 3.92977 3.5193 4.00221C3.55008 4.07465 3.59515 4.14014 3.65181 4.19477C3.70847 4.2494 3.77556 4.29205 3.84907 4.32018C3.92258 4.3483 4.00101 4.36131 4.07966 4.35844Z" fill="#121614"/>
<path d="M9.92736 5.51699H4.0738C3.99515 5.51412 3.91672 5.52714 3.84321 5.55526C3.7697 5.58338 3.70261 5.62603 3.64595 5.68066C3.58929 5.73529 3.54422 5.80078 3.51344 5.87322C3.48266 5.94566 3.4668 6.02356 3.4668 6.10227C3.4668 6.18098 3.48266 6.25887 3.51344 6.33131C3.54422 6.40375 3.58929 6.46924 3.64595 6.52387C3.70261 6.57851 3.7697 6.62116 3.84321 6.64928C3.91672 6.6774 3.99515 6.69041 4.0738 6.68755H9.92814C10.0797 6.68202 10.2232 6.61794 10.3284 6.50878C10.4337 6.39963 10.4925 6.2539 10.4925 6.10227C10.4925 5.95063 10.4337 5.80491 10.3284 5.69575C10.2232 5.5866 10.0797 5.52252 9.92814 5.51699H9.92736Z" fill="#121614"/>
<path d="M9.92736 7.84609H4.0738C3.99515 7.84322 3.91672 7.85624 3.84321 7.88436C3.7697 7.91248 3.70261 7.95513 3.64595 8.00976C3.58929 8.06439 3.54422 8.12989 3.51344 8.20232C3.48266 8.27476 3.4668 8.35266 3.4668 8.43137C3.4668 8.51008 3.48266 8.58798 3.51344 8.66041C3.54422 8.73285 3.58929 8.79835 3.64595 8.85298C3.70261 8.90761 3.7697 8.95026 3.84321 8.97838C3.91672 9.0065 3.99515 9.01952 4.0738 9.01665H9.92814C10.0797 9.01112 10.2232 8.94704 10.3284 8.83788C10.4337 8.72873 10.4925 8.583 10.4925 8.43137C10.4925 8.27974 10.4337 8.13401 10.3284 8.02486C10.2232 7.9157 10.0797 7.85162 9.92814 7.84609H9.92736Z" fill="#121614"/>
</svg>
