<svg width="21" height="19" viewBox="0 0 21 19" fill="none" xmlns="http://www.w3.org/2000/svg">
<path d="M10.4991 15.0574L16.3483 18.3001C16.4436 18.3534 16.5538 18.3797 16.6653 18.3758C16.7768 18.3719 16.8845 18.3378 16.9751 18.2779C17.0656 18.2181 17.1349 18.135 17.1743 18.0391C17.2137 17.9433 17.2214 17.8389 17.1965 17.739L15.6459 11.6293L20.805 7.5248C20.8894 7.45723 20.9502 7.3683 20.9798 7.26914C21.0094 7.16998 21.0064 7.06501 20.9713 6.96738C20.9362 6.86975 20.8706 6.78381 20.7825 6.72032C20.6945 6.65683 20.588 6.61861 20.4764 6.61047L13.6767 6.08066L11.0174 0.31914C10.9747 0.224666 10.9025 0.143925 10.8099 0.0871216C10.7173 0.0303177 10.6084 0 10.4971 0C10.3857 0 10.2769 0.0303177 10.1843 0.0871216C10.0917 0.143925 10.0195 0.224666 9.97681 0.31914L7.31748 6.08066L0.51643 6.61172C0.405177 6.6207 0.299302 6.6597 0.212136 6.72383C0.12497 6.78795 0.06041 6.87433 0.0265838 6.97208C-0.00724235 7.06983 -0.00882203 7.17459 0.0220435 7.27317C0.0529091 7.37175 0.11484 7.45973 0.200039 7.52605L5.35913 11.6305L3.81127 17.7415C3.78639 17.8414 3.79413 17.9458 3.83352 18.0416C3.87292 18.1375 3.94221 18.2206 4.03274 18.2804C4.12327 18.3403 4.23101 18.3744 4.34249 18.3783C4.45398 18.3822 4.56425 18.3559 4.65952 18.3026L10.4991 15.0574Z" fill="#FFA200"/>
</svg>
